<svg width="333" height="108" viewBox="0 0 333 108" fill="none" xmlns="http://www.w3.org/2000/svg">
<path d="M64.5852 0.298277C69.0574 -0.257259 73.5922 -0.0356139 77.9885 0.95338C82.5448 2.00036 86.8537 3.92038 90.676 6.60674C91.1531 6.95543 91.6412 7.29587 92.1035 7.66722L93.4789 8.80235L94.7883 10.0191C95.2361 10.4173 95.6424 10.8547 96.0512 11.2925C97.7101 13.0392 99.1846 14.9515 100.451 16.9992C101.743 19.0448 102.831 21.2119 103.699 23.4694L104.336 25.1682L104.876 26.8963C105.066 27.4723 105.215 28.0556 105.353 28.6423C105.487 29.2292 105.652 29.8142 105.758 30.4058L106.085 32.1827C106.204 32.7756 106.253 33.3722 106.339 33.9683C106.518 35.1616 106.58 36.3569 106.677 37.5563C106.714 38.1552 106.717 38.7531 106.73 39.3526L106.745 40.2519C106.749 40.5517 106.732 40.8492 106.726 41.1482L106.67 42.942C106.635 43.5378 106.582 44.1315 106.538 44.7272L106.467 45.6206C106.441 45.9178 106.398 46.2118 106.363 46.5078L106.142 48.2825C106.054 48.8712 105.95 49.4561 105.847 50.0425C105.743 50.6284 105.645 51.2165 105.507 51.7932L105.119 53.5326C104.991 54.1134 104.82 54.68 104.671 55.2547C104.377 56.4061 104.006 57.5297 103.644 58.658C103.472 59.2261 103.261 59.778 103.059 60.3338L102.442 61.9982L101.759 63.633C101.531 64.1782 101.307 64.7257 101.049 65.2561C100.551 66.3256 100.061 67.4019 99.4975 68.4368L98.6743 70.0024L97.7949 71.5348C96.6241 73.5805 95.3098 75.5343 93.9599 77.4599C93.2648 78.4071 92.5528 79.3427 91.8323 80.2703L90.7154 81.6321C90.3418 82.0849 89.9757 82.5446 89.5798 82.9774L88.4063 84.2891C88.2093 84.5064 88.0167 84.7278 87.816 84.9415L87.2046 85.5735C86.3885 86.4151 85.5826 87.267 84.7224 88.0643L83.4448 89.2725C83.012 89.668 82.565 90.0486 82.1254 90.4368C81.682 90.8209 81.2471 91.2142 80.7961 91.5896L79.4262 92.6963C75.7542 95.6393 71.8031 98.218 67.6291 100.396C66.5787 100.93 65.536 101.475 64.4555 101.951C63.9192 102.196 63.3846 102.444 62.8435 102.678L61.2033 103.344L60.3835 103.676C60.109 103.783 59.8285 103.878 59.5513 103.98L57.882 104.572C57.3258 104.769 56.7532 104.926 56.1901 105.103C55.6223 105.269 55.0653 105.462 54.4897 105.604C49.9177 106.893 45.2033 107.612 40.4542 107.743L38.6707 107.776L36.8837 107.717C36.5862 107.704 36.2895 107.701 35.9919 107.678L35.0997 107.601C34.5053 107.546 33.9121 107.508 33.3199 107.435C30.9471 107.157 28.5993 106.696 26.2973 106.058C25.7219 105.902 25.155 105.702 24.5859 105.525L23.735 105.251L22.8967 104.933C22.3401 104.715 21.7805 104.512 21.2315 104.28L19.6063 103.53C19.0616 103.293 18.5466 102.982 18.0205 102.706C17.4985 102.419 16.9708 102.15 16.4724 101.821L14.9648 100.876C14.4794 100.534 13.9986 100.188 13.5224 99.8367C11.6371 98.4291 9.90015 96.8339 8.33831 95.0757C6.78423 93.3575 5.4184 91.4788 4.26403 89.4714C1.99882 85.5635 0.548455 81.2392 0 76.7582C1.66159 80.7355 3.95618 84.419 6.79515 87.6663C8.17389 89.2241 9.69879 90.6467 11.349 91.9148C12.9495 93.1813 14.6684 94.2912 16.4821 95.229C20.0499 97.0825 23.9035 98.3275 27.8831 98.9123C28.8783 99.0349 29.863 99.173 30.8635 99.2335C31.8543 99.3386 32.8603 99.3372 33.8559 99.3713C34.3551 99.3783 34.8579 99.3513 35.357 99.3442L36.1058 99.3275C36.3553 99.3199 36.6062 99.2928 36.8558 99.2768L38.3527 99.1736L39.8475 99.0084L40.5933 98.9262L41.3374 98.8079L42.8224 98.5719L44.2989 98.2669L45.0356 98.1154C45.2804 98.059 45.5238 97.9922 45.7677 97.9314L47.2309 97.5714C47.7167 97.4419 48.1988 97.2929 48.6823 97.1558C49.653 96.8971 50.602 96.5452 51.5573 96.2319C55.36 94.8652 59.031 93.158 62.5254 91.1313C66.033 89.1015 69.3574 86.7719 72.4612 84.1686L73.6273 83.1933C74.012 82.8633 74.3819 82.5155 74.7602 82.178C75.1348 81.8362 75.517 81.5031 75.8861 81.1553L76.9753 80.0918C77.7183 79.4001 78.4091 78.6564 79.1125 77.9255C79.8311 77.2078 80.4718 76.4217 81.1562 75.6741C83.8247 72.634 86.2255 69.37 88.3317 65.9183L89.1188 64.6272L89.8536 63.3086C90.3584 62.4358 90.7968 61.5324 91.2587 60.6388C91.4966 60.1947 91.7008 59.7368 91.9104 59.2808L92.5424 57.9134L93.1193 56.5253C93.3123 56.0627 93.5151 55.6027 93.6792 55.1308C95.1177 51.4074 96.1606 47.5437 96.7907 43.6031C97.0945 41.6471 97.2791 39.6746 97.3434 37.6963C97.3478 36.7135 97.3942 35.7219 97.3316 34.7424C97.304 34.2525 97.3145 33.7545 97.2581 33.2685L97.1242 31.8013C97.0842 31.3102 96.9886 30.8319 96.9249 30.3448L96.8241 29.6149C96.7933 29.3706 96.7345 29.1343 96.6913 28.8931L96.4116 27.4485L96.0486 26.0263C95.5392 24.1325 94.8699 22.2852 94.0479 20.5041L93.7449 19.8303L93.3997 19.1796C93.1638 18.7489 92.9532 18.2987 92.697 17.8781L91.9209 16.6152C91.6696 16.1865 91.3639 15.7978 91.0877 15.3836C90.8139 14.9674 90.5191 14.5653 90.2045 14.1789L89.269 13.0041L88.2608 11.8851C87.9182 11.5166 87.5518 11.1721 87.2018 10.8057C84.2303 7.92711 80.7811 5.58418 77.0074 3.88096C73.0441 2.14263 68.8668 0.937844 64.5852 0.298277Z" fill="white"/>
<path d="M68.0802 23.9937C72.6049 25.254 76.7194 28.4539 79.477 32.6789C82.214 36.9301 83.5502 42.0813 83.6147 47.1465C83.6472 52.2187 82.6563 57.2455 80.7011 61.9278C78.7829 66.571 76.1082 70.8657 72.7853 74.6382C69.4959 78.4112 65.624 81.6362 61.3156 84.1916C57.0027 86.7746 52.2547 88.5529 47.3035 89.4396C46.0658 89.6561 44.8169 89.8036 43.5628 89.8816C42.9392 89.9377 42.3054 89.9335 41.6808 89.9599C41.0541 89.978 40.4221 89.9378 39.7974 89.9246C37.2902 89.8114 34.8084 89.3733 32.4144 88.6215C27.6587 87.1405 23.3889 84.1455 20.8511 80.204C22.7587 81.4183 24.8111 82.3896 26.9604 83.0955C29.0088 83.752 31.1332 84.1433 33.2816 84.2599C37.4677 84.4795 41.6568 83.8878 45.6174 82.5177C49.5548 81.1898 53.2843 79.3133 56.6952 76.944C60.1147 74.5834 63.227 71.8082 65.9606 68.682C68.6943 65.5837 71.0107 62.1425 72.8513 58.4458C74.6878 54.7804 75.9229 50.8447 76.5096 46.7889C76.5517 46.5361 76.5795 46.2835 76.6002 46.0307L76.6819 45.2702C76.7319 44.7626 76.7457 44.2561 76.7821 43.7445C76.7823 43.2384 76.7988 42.7262 76.7851 42.2174C76.7479 41.7136 76.7741 41.1931 76.714 40.6894C76.5619 38.6347 76.1567 36.6065 75.5076 34.6506C74.8147 32.6363 73.8491 30.7259 72.6375 28.9724C71.3443 27.1203 69.812 25.4462 68.0802 23.9937Z" fill="#F39623"/>
<path d="M72.4115 66.6362L107.865 107.211L63.1678 77.0629L72.4115 66.6362Z" fill="#F39623"/>
<path d="M108.297 76.8399H115.727V97.8763H122.821V76.8399H130.27V70.2539H108.297V76.8399Z" fill="white"/>
<path d="M140.143 77.0347H133.482V97.8746H140.143V77.0347Z" fill="white"/>
<path d="M138.98 67.413C138.345 67.0583 137.629 66.8721 136.901 66.8721C136.173 66.8721 135.458 67.0583 134.822 67.413C134.235 67.756 133.749 68.2476 133.413 68.8382C133.086 69.3995 132.913 70.037 132.911 70.6864C132.912 71.3328 133.085 71.9673 133.413 72.5246C133.751 73.1109 134.237 73.5989 134.822 73.9402C135.458 74.2947 136.173 74.4808 136.901 74.4808C137.629 74.4808 138.345 74.2947 138.98 73.9402C139.564 73.6007 140.049 73.1164 140.389 72.5343C140.72 71.9744 140.893 71.3362 140.892 70.6864C140.89 70.037 140.717 69.3996 140.389 68.8382C140.054 68.2477 139.568 67.7561 138.98 67.413Z" fill="white"/>
<path d="M174.48 77.5165C173.251 76.8078 171.85 76.4508 170.431 76.4846C169.072 76.483 167.729 76.7817 166.499 77.3592C165.278 77.9171 164.198 78.7399 163.336 79.7677C162.708 78.7317 161.809 77.8857 160.735 77.32C159.6 76.7465 158.342 76.4597 157.07 76.4846C154.666 76.484 152.356 77.4143 150.626 79.0796L149.838 77.0348H144.714V97.8747H151.375V86.5503C151.371 85.8845 151.526 85.2274 151.828 84.6335C152.119 84.0497 152.561 83.5541 153.109 83.1983C153.659 82.8385 154.304 82.6503 154.961 82.6577C155.4 82.6315 155.84 82.7085 156.244 82.8827C156.647 83.0568 157.005 83.3232 157.287 83.6603C157.825 84.3287 158.094 85.2986 158.094 86.57V97.8747H164.755V86.1377C164.819 85.5267 165.014 84.9367 165.327 84.4073C165.629 83.8832 166.06 83.4437 166.578 83.1297C167.104 82.8131 167.708 82.6496 168.322 82.6577C168.761 82.6315 169.201 82.7085 169.604 82.8827C170.008 83.0568 170.366 83.3232 170.647 83.6603C171.186 84.3287 171.455 85.2986 171.456 86.57V97.8747H178.116V85.6657C178.167 83.9324 177.841 82.2086 177.161 80.613C176.606 79.3315 175.67 78.2507 174.48 77.5165Z" fill="white"/>
<path d="M192.105 90.3642L187.848 77.0347H180.518L188.854 97.8745H195.356L203.732 77.0347H196.382L192.105 90.3642Z" fill="white"/>
<path d="M211.634 67.413C210.999 67.0583 210.283 66.8721 209.555 66.8721C208.827 66.8721 208.111 67.0583 207.476 67.413C206.888 67.756 206.402 68.2476 206.067 68.8382C205.739 69.3995 205.566 70.037 205.564 70.6864C205.565 71.3328 205.739 71.9673 206.067 72.5246C206.405 73.1109 206.89 73.5989 207.476 73.9402C208.111 74.2947 208.827 74.4808 209.555 74.4808C210.283 74.4808 210.998 74.2947 211.634 73.9402C212.217 73.6007 212.703 73.1164 213.043 72.5343C213.373 71.9744 213.547 71.3362 213.545 70.6864C213.543 70.037 213.37 69.3996 213.043 68.8382C212.707 68.2477 212.221 67.7561 211.634 67.413Z" fill="white"/>
<path d="M212.796 77.0347H206.135V97.8746H212.796V77.0347Z" fill="white"/>
<path d="M232.187 77.9696C230.457 77.0205 228.505 76.5489 226.531 76.6034C224.637 76.5748 222.774 77.0863 221.161 78.0779C219.587 79.0516 218.304 80.43 217.447 82.0687C216.549 83.7643 216.088 85.6562 216.106 87.5737C216.093 89.4742 216.579 91.345 217.516 92.9997C218.44 94.6491 219.791 96.0207 221.427 96.9713C223.137 97.9652 225.085 98.475 227.063 98.4458C228.498 98.4612 229.923 98.2181 231.271 97.728C232.522 97.2677 233.675 96.5775 234.67 95.6933L231.635 91.3287C231.082 91.8114 230.453 92.2 229.773 92.4788C229.048 92.7588 228.275 92.8956 227.497 92.8818C226.438 92.9025 225.398 92.6044 224.511 92.0265C223.642 91.4455 222.993 90.5906 222.669 89.5984H236.818C236.934 88.8635 236.994 88.1208 236.996 87.3768C237.034 85.4395 236.615 83.5203 235.774 81.7739C234.986 80.177 233.736 78.852 232.187 77.9696ZM222.551 85.2932C222.773 84.3119 223.317 83.433 224.098 82.7961C224.875 82.2077 225.832 81.9025 226.807 81.9311C227.758 81.898 228.69 82.2009 229.438 82.7865C230.19 83.4384 230.706 84.3194 230.906 85.2932L222.551 85.2932Z" fill="white"/>
<path d="M247.981 83.2781C248.686 82.8554 249.493 82.6344 250.316 82.6392C251.033 82.6264 251.746 82.7533 252.415 83.0126C253.072 83.29 253.686 83.6609 254.237 84.1137L257.509 79.3558C256.53 78.4841 255.397 77.8009 254.169 77.3407C252.83 76.8392 251.41 76.5893 249.981 76.6037C248.012 76.5752 246.073 77.0851 244.374 78.0782C242.737 79.0364 241.386 80.4143 240.463 82.069C239.516 83.749 239.027 85.6469 239.044 87.574C239.028 89.4809 239.514 91.3585 240.453 93.0197C241.377 94.669 242.728 96.0406 244.365 96.9913C246.074 97.9851 248.022 98.4949 250 98.4658C251.423 98.4767 252.836 98.2268 254.169 97.7283C255.4 97.2744 256.534 96.5905 257.509 95.7133L254.237 90.975C253.683 91.4176 253.069 91.7816 252.415 92.0565C251.746 92.316 251.033 92.4428 250.316 92.4298C249.5 92.4331 248.699 92.2121 248 91.791C247.286 91.3669 246.695 90.7638 246.286 90.0414C245.856 89.2905 245.635 88.4387 245.645 87.574C245.631 86.6882 245.848 85.814 246.276 85.0377C246.677 84.3103 247.266 83.7029 247.981 83.2781Z" fill="white"/>
<path d="M278.531 77.6851C277.215 76.947 275.725 76.5737 274.216 76.6039C273.098 76.6194 271.992 76.8393 270.954 77.2528C269.872 77.6531 268.869 78.2385 267.988 78.9827V68.3857H261.367V97.8762H267.988V86.5517C267.99 85.8759 268.185 85.2146 268.55 84.6449C268.928 84.0387 269.458 83.5407 270.087 83.1997C270.741 82.8385 271.478 82.6523 272.225 82.6592C272.717 82.6394 273.208 82.7287 273.661 82.9208C274.114 83.1129 274.519 83.4029 274.846 83.7699C275.503 84.5106 275.831 85.5428 275.832 86.8665V97.8762H282.492V85.6671C282.533 83.992 282.175 82.3311 281.448 80.8209C280.807 79.5113 279.793 78.4202 278.531 77.6851Z" fill="#F39623"/>
<path d="M301.608 79.0618C300.868 78.2604 299.964 77.6264 298.958 77.2025C297.952 76.7786 296.867 76.5747 295.775 76.6044C293.913 76.5923 292.085 77.096 290.494 78.0593C288.888 79.0184 287.563 80.3809 286.651 82.0108C285.235 84.5058 284.843 87.451 285.558 90.228C286.273 93.0049 288.038 95.3975 290.484 96.9034C292.076 97.8749 293.909 98.3822 295.775 98.3679C296.848 98.4022 297.917 98.2077 298.909 97.7975C299.901 97.3873 300.795 96.7708 301.529 95.9891L302.258 97.8766H307.382V77.0367H302.455L301.608 79.0618ZM300.425 89.9142C300.032 90.6085 299.456 91.1827 298.76 91.5756C298.042 91.9793 297.23 92.1861 296.405 92.1751C295.587 92.1879 294.781 91.9808 294.07 91.5756C293.386 91.1811 292.823 90.6064 292.444 89.9142C292.054 89.1707 291.851 88.3437 291.853 87.5046C291.855 86.6654 292.061 85.8392 292.454 85.0974C292.837 84.3944 293.407 83.8096 294.1 83.4067C294.814 83.007 295.62 82.7972 296.44 82.7972C297.259 82.7972 298.065 83.007 298.78 83.4067C299.477 83.8076 300.05 84.3926 300.435 85.0974C300.841 85.8385 301.048 86.6715 301.036 87.5158C301.05 88.3552 300.839 89.183 300.425 89.9142Z" fill="#F39623"/>
<path d="M325.63 77.0347L321.354 90.089L317.077 77.0347H309.806L318.063 97.8156L315.165 104.854H322.26L333 77.0347H325.63Z" fill="#F39623"/>
</svg>
