<svg width="800" height="800" viewBox="0 0 800 800" fill="none" xmlns="http://www.w3.org/2000/svg">
<rect width="800" height="800" fill="white"/>
<path fillRule="evenodd" clipRule="evenodd" d="M174.611 340.193C179.534 348.967 183.627 360.508 187.513 371.632C249.589 327.815 324.98 290.004 367.677 285.774C406.694 281.804 425.4 305.254 412.861 342.752C403.327 371.371 350.422 458.954 317.829 457.491C292.388 456.551 298.088 422.343 290.833 404.482C284.408 412.055 272.958 431.065 268.605 437.175C225.701 497.496 198.654 438.847 185.337 393.776C148.444 417.904 114.4 444.957 99.1658 468.511C92.7406 478.486 89.0104 487.155 96.7828 497.183L99.6323 500.734L95.0212 499.428C81.9636 492.587 86.8339 474.621 92.0674 464.437C105.177 438.586 139.479 406.415 180.724 376.489C180.206 374.557 179.792 372.781 179.377 371.058C176.786 360.091 174.715 351.682 174.611 340.193ZM193.678 388.397L193.731 388.553C198.601 401.035 219.949 457.387 238.603 445.688C260.469 431.953 275.029 369.073 300.16 384.532C312.026 391.896 314.825 415.972 317.519 428.924C317.934 430.752 318.296 433.102 319.229 434.93C338.556 427.67 375.398 364.06 383.377 344.945C385.813 338.887 394.207 317.735 387.212 313.296C370.061 302.433 310.835 326.405 293.114 334.187C268.138 345.206 230.105 365.209 193.678 388.397ZM319.695 435.87C319.747 435.87 319.798 435.922 319.85 435.974C319.798 435.922 319.747 435.922 319.695 435.87Z" fill="#3582CD"/>
<path fillRule="evenodd" clipRule="evenodd" d="M113.36 515.774C116.262 515.774 118.542 513.424 118.542 510.551C118.542 507.679 116.262 505.329 113.36 505.329C110.511 505.329 108.178 507.679 108.178 510.551C108.178 513.424 110.511 515.774 113.36 515.774Z" fill="#3582CD"/>
<path d="M463.747 408.355C463.747 412.96 463.051 417.083 461.658 420.723C460.265 424.289 458.286 427.298 455.721 429.749C453.229 432.201 450.224 434.058 446.706 435.321C443.188 436.584 439.267 437.215 434.942 437.215C430.618 437.215 426.697 436.547 423.178 435.209C419.66 433.872 416.619 431.978 414.053 429.526C411.561 427.001 409.619 423.955 408.226 420.389C406.834 416.823 406.137 412.812 406.137 408.355C406.137 403.972 406.834 399.997 408.226 396.432C409.619 392.866 411.561 389.857 414.053 387.406C416.619 384.88 419.66 382.949 423.178 381.611C426.697 380.274 430.618 379.606 434.942 379.606C439.267 379.606 443.188 380.311 446.706 381.723C450.224 383.06 453.229 384.992 455.721 387.517C458.286 389.969 460.265 392.977 461.658 396.543C463.051 400.109 463.747 404.046 463.747 408.355ZM425.267 408.355C425.267 412.886 426.11 416.378 427.796 418.829C429.555 421.206 431.974 422.395 435.052 422.395C438.13 422.395 440.476 421.169 442.088 418.718C443.774 416.266 444.617 412.812 444.617 408.355C444.617 403.897 443.774 400.48 442.088 398.103C440.403 395.652 438.021 394.426 434.942 394.426C431.864 394.426 429.482 395.652 427.796 398.103C426.11 400.48 425.267 403.897 425.267 408.355Z" fill="#F8971C"/>
<path d="M495.148 452.835C494.52 453.023 493.514 453.212 492.132 453.4C490.812 453.589 489.429 453.683 487.984 453.683C486.601 453.683 485.344 453.589 484.213 453.4C483.145 453.212 482.233 452.835 481.479 452.269C480.725 451.703 480.128 450.949 479.688 450.007C479.311 449.001 479.122 447.713 479.122 446.141V417.86C479.122 416.415 479.374 415.189 479.877 414.184C480.442 413.116 481.228 412.173 482.233 411.356C483.239 410.539 484.464 409.816 485.91 409.188C487.418 408.496 489.021 407.899 490.718 407.397C492.415 406.894 494.174 406.517 495.997 406.265C497.819 405.951 499.642 405.794 501.464 405.794C504.481 405.794 506.869 406.391 508.629 407.585C510.389 408.716 511.268 410.602 511.268 413.241C511.268 414.121 511.143 415.001 510.891 415.881C510.64 416.698 510.326 417.452 509.949 418.143C508.629 418.143 507.278 418.206 505.895 418.332C504.512 418.458 503.161 418.646 501.841 418.897C500.522 419.149 499.265 419.432 498.071 419.746C496.939 419.997 495.965 420.311 495.148 420.689V452.835Z" fill="#F8971C"/>
<path d="M562.658 444.633C562.344 447.587 561.464 449.849 560.019 451.421C558.636 452.992 556.593 453.777 553.891 453.777C551.88 453.777 550.089 453.306 548.518 452.363C546.946 451.358 545.25 449.692 543.427 447.367L534.094 435.677V452.835C533.403 452.96 532.366 453.117 530.983 453.306C529.664 453.557 528.312 453.683 526.93 453.683C525.547 453.683 524.29 453.589 523.159 453.4C522.091 453.212 521.179 452.835 520.425 452.269C519.671 451.703 519.074 450.949 518.634 450.007C518.257 449.001 518.068 447.713 518.068 446.141V391.559C518.76 391.371 519.765 391.182 521.085 390.994C522.468 390.742 523.85 390.616 525.233 390.616C526.616 390.616 527.841 390.711 528.909 390.899C530.041 391.088 530.983 391.465 531.738 392.031C532.492 392.596 533.057 393.382 533.434 394.387C533.874 395.33 534.094 396.587 534.094 398.158V423.045L550.309 406.454C553.577 406.454 556.185 407.177 558.133 408.622C560.144 410.067 561.15 411.89 561.15 414.09C561.15 415.032 560.993 415.912 560.678 416.729C560.364 417.483 559.861 418.269 559.17 419.086C558.542 419.903 557.693 420.783 556.625 421.726C555.619 422.605 554.425 423.642 553.043 424.836L547.575 429.55L562.658 444.633Z" fill="#F8971C"/>
<path d="M587.987 394.199C591.57 394.199 594.743 394.67 597.509 395.613C600.274 396.493 602.631 397.718 604.579 399.289C606.527 400.86 608.004 402.714 609.009 404.851C610.015 406.988 610.518 409.282 610.518 411.733C610.518 418.332 606.778 424.616 599.3 430.587L586.95 440.485H609.575C609.952 441.177 610.298 442.056 610.612 443.125C610.989 444.193 611.178 445.356 611.178 446.613C611.178 448.875 610.675 450.509 609.669 451.515C608.664 452.458 607.344 452.929 605.71 452.929H572.998C571.616 451.986 570.516 450.792 569.699 449.347C568.945 447.838 568.568 446.079 568.568 444.068C568.568 441.931 569.008 440.14 569.887 438.694C570.767 437.186 571.741 435.992 572.81 435.112L585.819 423.988C587.453 422.605 588.804 421.38 589.873 420.311C590.941 419.18 591.79 418.175 592.418 417.295C593.109 416.415 593.581 415.598 593.832 414.844C594.146 414.09 594.303 413.367 594.303 412.676C594.303 410.916 593.518 409.533 591.947 408.528C590.438 407.522 588.553 407.019 586.29 407.019C583.777 407.019 581.514 407.428 579.503 408.245C577.555 408.999 575.921 409.816 574.601 410.696C573.533 409.942 572.653 408.999 571.961 407.868C571.27 406.737 570.924 405.417 570.924 403.909C570.924 400.64 572.464 398.221 575.544 396.65C578.623 395.016 582.771 394.199 587.987 394.199Z" fill="#F8971C"/>
<path d="M641.021 396.273C642.216 395.896 643.567 395.581 645.075 395.33C646.646 395.079 648.06 394.953 649.317 394.953C650.763 394.953 652.145 395.11 653.465 395.424C654.848 395.676 656.073 396.147 657.142 396.838C658.21 397.467 659.058 398.347 659.687 399.478C660.315 400.609 660.63 402.023 660.63 403.72V428.796H669.02C669.397 429.487 669.774 430.398 670.151 431.53C670.528 432.661 670.717 433.855 670.717 435.112C670.717 437.5 670.182 439.197 669.114 440.202C668.046 441.208 666.694 441.711 665.06 441.711H660.63V452.835C659.938 452.96 658.901 453.117 657.519 453.306C656.136 453.557 654.816 453.683 653.559 453.683C652.177 453.683 650.951 453.62 649.883 453.495C648.814 453.369 647.903 453.086 647.149 452.646C646.458 452.143 645.924 451.452 645.546 450.572C645.169 449.692 644.981 448.498 644.981 446.99V441.711H621.319C619.874 440.957 618.617 439.857 617.548 438.411C616.543 436.903 616.04 435.08 616.04 432.944C616.04 431.75 616.197 430.43 616.511 428.984C616.826 427.539 617.36 426.282 618.114 425.214L641.021 396.273ZM645.829 411.073H645.546L633.009 428.796H645.829V411.073Z" fill="#F8971C"/>
<path d="M709.184 395.613C710.252 396.304 711.195 397.278 712.012 398.535C712.892 399.729 713.332 401.238 713.332 403.06C713.332 404.066 713.237 405.103 713.049 406.171C712.86 407.177 712.546 408.182 712.106 409.188L692.498 453.589C691.618 453.652 690.77 453.683 689.953 453.683C689.199 453.683 688.476 453.683 687.785 453.683C684.956 453.683 682.663 453.149 680.903 452.08C679.143 451.012 678.263 449.158 678.263 446.519C678.263 445.199 678.578 443.785 679.206 442.276C679.834 440.705 680.683 438.851 681.751 436.714L695.515 408.528H672.419C672.041 407.836 671.664 406.925 671.287 405.794C670.91 404.663 670.722 403.469 670.722 402.212C670.722 399.823 671.256 398.127 672.324 397.121C673.393 396.116 674.744 395.613 676.378 395.613H709.184Z" fill="#F8971C"/>
<rect x="421.849" y="442.453" width="52.3722" height="10.4744" fill="#3582CD"/>
</svg>
