<svg width="184" height="59" viewBox="0 0 184 59" fill="none" xmlns="http://www.w3.org/2000/svg">
<g id="Group 1000007304">
<path id="Vector" d="M36.0241 0.163286C38.4805 -0.140832 40.9712 -0.0194962 43.3859 0.52191C45.8884 1.09506 48.2551 2.14614 50.3545 3.61674C50.6166 3.80762 50.8846 3.99399 51.1385 4.19728L51.894 4.81869L52.6132 5.48478C52.8591 5.70279 53.0823 5.94223 53.3068 6.18187C54.218 7.13808 55.0278 8.18493 55.7236 9.3059C56.4332 10.4257 57.0307 11.6121 57.5074 12.8479L57.8571 13.7779L58.1539 14.7239C58.2581 15.0392 58.3399 15.3585 58.4159 15.6797C58.4895 16.001 58.58 16.3212 58.6383 16.6451L58.8176 17.6178C58.883 17.9424 58.9099 18.269 58.9571 18.5953C59.0556 19.2486 59.0896 19.9029 59.1429 20.5595C59.1632 20.8874 59.165 21.2147 59.172 21.5429L59.1804 22.0352C59.1826 22.1993 59.173 22.3622 59.1697 22.5259L59.1394 23.5078C59.1198 23.834 59.091 24.159 59.0666 24.4851L59.0279 24.9741C59.0131 25.1369 58.9896 25.2978 58.9707 25.4599L58.8491 26.4314C58.8009 26.7536 58.7437 27.0738 58.6873 27.3948C58.6302 27.7156 58.5762 28.0376 58.5003 28.3533L58.2871 29.3055C58.2168 29.6234 58.1229 29.9336 58.0413 30.2482C57.8797 30.8785 57.6761 31.4936 57.4771 32.1113C57.3826 32.4222 57.267 32.7244 57.1558 33.0287L56.8171 33.9398L56.4417 34.8347C56.3164 35.1332 56.1933 35.4329 56.0519 35.7233C55.7782 36.3087 55.5094 36.8979 55.1997 37.4645L54.7476 38.3215L54.2645 39.1604C53.6215 40.2803 52.8996 41.3499 52.1582 42.404C51.7764 42.9225 51.3853 43.4347 50.9896 43.9425L50.3761 44.688C50.1709 44.9359 49.9699 45.1875 49.7524 45.4245L49.1079 46.1425C48.9997 46.2615 48.8939 46.3827 48.7836 46.4997L48.4478 46.8457C47.9996 47.3064 47.557 47.7727 47.0845 48.2092L46.3827 48.8706C46.145 49.0871 45.8995 49.2955 45.6581 49.508C45.4145 49.7182 45.1757 49.9335 44.928 50.139L44.1755 50.7449C42.1587 52.356 39.9886 53.7676 37.696 54.9597C37.1191 55.2522 36.5463 55.5507 35.9529 55.8114C35.6583 55.9455 35.3647 56.0808 35.0675 56.2089L34.1666 56.5738L33.7164 56.7554C33.5656 56.8144 33.4115 56.8662 33.2593 56.9219L32.3424 57.2461C32.0369 57.3536 31.7224 57.4396 31.4131 57.5368C31.1013 57.6278 30.7954 57.7332 30.4792 57.8112C27.968 58.5167 25.3786 58.91 22.7702 58.9821L21.7906 59L20.8091 58.9679C20.6457 58.9604 20.4827 58.9587 20.3193 58.9461L19.8292 58.9044C19.5028 58.8738 19.177 58.8534 18.8517 58.8133C17.5484 58.661 16.2589 58.409 14.9946 58.0597C14.6785 57.9739 14.3672 57.8647 14.0546 57.7679L13.5872 57.6179L13.1268 57.4435C12.821 57.3241 12.5137 57.2132 12.2122 57.086L11.3195 56.6755C11.0203 56.5456 10.7375 56.3755 10.4485 56.2243C10.1618 56.0676 9.87198 55.9202 9.59822 55.7403L8.77021 55.2227C8.50355 55.0355 8.23947 54.8458 7.97797 54.6538C6.94246 53.8832 5.98843 53.0099 5.13059 52.0474C4.27701 51.1069 3.52683 50.0784 2.8928 48.9795C1.64863 46.8402 0.852019 44.4729 0.550781 42.0199C1.46341 44.1972 2.72371 46.2136 4.28301 47.9913C5.04028 48.8441 5.87783 49.6229 6.78423 50.3171C7.66327 51.0104 8.6074 51.618 9.60354 52.1314C11.5632 53.1461 13.6797 53.8276 15.8656 54.1477C16.4121 54.2148 16.953 54.2905 17.5025 54.3235C18.0467 54.3811 18.5993 54.3803 19.1461 54.399C19.4203 54.4029 19.6964 54.3881 19.9706 54.3842L20.3818 54.375C20.5189 54.3709 20.6567 54.356 20.7938 54.3473L21.616 54.2907L22.437 54.2003L22.8466 54.1553L23.2553 54.0906L24.0709 53.9614L24.8819 53.7944L25.2865 53.7115C25.421 53.6806 25.5547 53.6441 25.6886 53.6108L26.4923 53.4137C26.7592 53.3428 27.0239 53.2612 27.2895 53.1862C27.8226 53.0445 28.3439 52.8519 28.8686 52.6804C30.9572 51.9322 32.9735 50.9976 34.8928 49.8882C36.8193 48.777 38.6453 47.5017 40.35 46.0765L40.9905 45.5426C41.2018 45.362 41.405 45.1716 41.6127 44.9869C41.8185 44.7998 42.0284 44.6174 42.2311 44.427L42.8294 43.8448C43.2375 43.4661 43.6169 43.059 44.0033 42.6589C44.3979 42.266 44.7499 41.8357 45.1257 41.4264C46.5914 39.7622 47.91 37.9753 49.0669 36.0857L49.4992 35.379L49.9028 34.6571C50.18 34.1793 50.4209 33.6848 50.6746 33.1956C50.8052 32.9525 50.9174 32.7018 51.0325 32.4522L51.3796 31.7036L51.6964 30.9438C51.8025 30.6905 51.9138 30.4387 52.004 30.1803C52.7941 28.142 53.3669 26.0269 53.713 23.8697C53.8798 22.799 53.9812 21.7191 54.0166 20.6361C54.019 20.0981 54.0444 19.5553 54.0101 19.0191C53.9949 18.7509 54.0007 18.4783 53.9697 18.2122L53.8962 17.409C53.8742 17.1402 53.8217 16.8783 53.7867 16.6117L53.7313 16.2121C53.7144 16.0784 53.6821 15.9491 53.6584 15.817L53.5048 15.0262L53.3054 14.2476C53.0256 13.2109 52.658 12.1996 52.2065 11.2246L52.0401 10.8557L51.8505 10.4995C51.7209 10.2637 51.6052 10.0173 51.4645 9.78701L51.0383 9.0957C50.9002 8.86099 50.7323 8.64819 50.5806 8.42147C50.4303 8.19362 50.2683 7.97352 50.0955 7.762L49.5817 7.11888L49.028 6.5063C48.8398 6.30454 48.6385 6.11597 48.4463 5.91538C46.8142 4.33955 44.9197 3.05696 42.847 2.12456C40.6702 1.17295 38.3758 0.513405 36.0241 0.163286Z" fill="white"/>
<path id="Vector_2" d="M37.9445 13.135C40.4296 13.825 42.6895 15.5767 44.2042 17.8896C45.7074 20.2168 46.4414 23.0367 46.4768 25.8096C46.4946 28.5863 45.9504 31.3381 44.8765 33.9014C43.8229 36.4432 42.3539 38.7943 40.5288 40.8594C38.722 42.9249 36.5954 44.6904 34.229 46.0893C31.8602 47.5033 29.2523 48.4768 26.5329 48.9622C25.8531 49.0807 25.1671 49.1615 24.4783 49.2042C24.1358 49.2349 23.7877 49.2326 23.4446 49.247C23.1004 49.2569 22.7533 49.2349 22.4102 49.2277C21.0331 49.1657 19.67 48.9259 18.3551 48.5143C15.743 47.7036 13.3978 46.064 12.0039 43.9064C13.0517 44.5711 14.1789 45.1028 15.3594 45.4893C16.4845 45.8486 17.6514 46.0629 18.8313 46.1267C21.1306 46.2469 23.4314 45.923 25.6068 45.173C27.7694 44.446 29.8178 43.4188 31.6913 42.1217C33.5694 40.8295 35.2789 39.3102 36.7803 37.5988C38.2817 35.9027 39.5541 34.0189 40.565 31.9952C41.5737 29.9886 42.2521 27.8341 42.5743 25.6138C42.5974 25.4754 42.6127 25.3372 42.6241 25.1988L42.6689 24.7825C42.6964 24.5046 42.704 24.2273 42.724 23.9473C42.7241 23.6702 42.7332 23.3898 42.7256 23.1113C42.7052 22.8355 42.7196 22.5505 42.6866 22.2748C42.603 21.15 42.3805 20.0397 42.024 18.969C41.6434 17.8663 41.113 16.8204 40.4475 15.8606C39.7373 14.8466 38.8957 13.9302 37.9445 13.135Z" fill="#F39623"/>
<path id="Vector_3" d="M40.3232 36.4792L59.7961 58.6909L35.2461 42.1871L40.3232 36.4792Z" fill="#F39623"/>
<path id="Vector_4" d="M60.0332 42.0648H64.1137V53.5808H68.0101V42.0648H72.1017V38.4595H60.0332V42.0648Z" fill="white"/>
<path id="Vector_5" d="M77.5236 42.1716H73.8652V53.5801H77.5236V42.1716Z" fill="white"/>
<path id="Vector_6" d="M76.8846 36.9038C76.5357 36.7096 76.1425 36.6077 75.7427 36.6077C75.3428 36.6077 74.9497 36.7096 74.6008 36.9038C74.2782 37.0915 74.0113 37.3607 73.8269 37.684C73.6471 37.9913 73.5518 38.3402 73.5508 38.6958C73.5514 39.0496 73.6467 39.3969 73.8269 39.7021C74.0125 40.023 74.2793 40.2902 74.6008 40.477C74.9497 40.671 75.3429 40.7729 75.7427 40.7729C76.1425 40.7729 76.5357 40.671 76.8846 40.477C77.2051 40.2911 77.4716 40.026 77.6585 39.7073C77.8399 39.4008 77.9352 39.0515 77.9344 38.6958C77.9333 38.3403 77.8382 37.9913 77.6585 37.684C77.4741 37.3607 77.2071 37.0916 76.8846 36.9038Z" fill="white"/>
<path id="Vector_7" d="M96.3844 42.4347C95.7093 42.0468 94.9397 41.8513 94.1601 41.8699C93.4136 41.869 92.6762 42.0325 92.0008 42.3487C91.3302 42.654 90.7366 43.1045 90.2635 43.6671C89.9182 43.1 89.4244 42.6369 88.8349 42.3271C88.2116 42.0132 87.5203 41.8562 86.8217 41.8699C85.5013 41.8695 84.2324 42.3788 83.2823 43.2904L82.8493 42.1711H80.0352V53.5795H83.6936V47.3801C83.6915 47.0156 83.7768 46.6559 83.9426 46.3308C84.1024 46.0112 84.3454 45.7399 84.6462 45.5451C84.9482 45.3482 85.3024 45.2451 85.6635 45.2492C85.9047 45.2348 86.146 45.277 86.3678 45.3723C86.5897 45.4677 86.7859 45.6135 86.9407 45.798C87.2365 46.164 87.3844 46.6949 87.3844 47.3909V53.5795H91.0428V47.1542C91.0781 46.8198 91.1852 46.4968 91.3568 46.207C91.523 45.9201 91.7594 45.6795 92.044 45.5076C92.3328 45.3342 92.6647 45.2447 93.002 45.2492C93.2432 45.2348 93.4845 45.277 93.7063 45.3723C93.9281 45.4677 94.1244 45.6135 94.2791 45.798C94.575 46.164 94.723 46.6949 94.7231 47.3909V53.5795H98.3815V46.8959C98.4094 45.947 98.2303 45.0034 97.8565 44.1299C97.5518 43.4283 97.038 42.8366 96.3844 42.4347Z" fill="white"/>
<path id="Vector_8" d="M106.064 49.4687L103.726 42.1716H99.6992L104.278 53.58H107.849L112.45 42.1716H108.413L106.064 49.4687Z" fill="white"/>
<path id="Vector_9" d="M116.791 36.9038C116.442 36.7096 116.049 36.6077 115.649 36.6077C115.249 36.6077 114.856 36.7096 114.507 36.9038C114.184 37.0915 113.918 37.3607 113.733 37.684C113.553 37.9913 113.458 38.3402 113.457 38.6958C113.458 39.0496 113.553 39.3969 113.733 39.7021C113.919 40.023 114.186 40.2902 114.507 40.477C114.856 40.671 115.249 40.7729 115.649 40.7729C116.049 40.7729 116.442 40.671 116.791 40.477C117.111 40.2911 117.378 40.026 117.565 39.7073C117.746 39.4008 117.841 39.0515 117.841 38.6958C117.84 38.3403 117.744 37.9913 117.565 37.684C117.38 37.3607 117.113 37.0916 116.791 36.9038Z" fill="white"/>
<path id="Vector_10" d="M117.428 42.1716H113.77V53.5801H117.428V42.1716Z" fill="white"/>
<path id="Vector_11" d="M128.079 42.6829C127.128 42.1633 126.056 41.9051 124.972 41.9349C123.932 41.9193 122.909 42.1993 122.023 42.7421C121.158 43.2752 120.453 44.0298 119.982 44.9268C119.489 45.855 119.236 46.8907 119.246 47.9405C119.239 48.9808 119.506 50.005 120.02 50.9108C120.528 51.8137 121.27 52.5646 122.169 53.085C123.108 53.6291 124.178 53.9082 125.264 53.8922C126.052 53.9006 126.835 53.7675 127.575 53.4992C128.262 53.2472 128.896 52.8694 129.442 52.3854L127.776 49.9961C127.472 50.2603 127.126 50.473 126.753 50.6257C126.354 50.7789 125.93 50.8538 125.503 50.8463C124.921 50.8576 124.35 50.6944 123.863 50.3781C123.385 50.06 123.029 49.592 122.851 49.0488H130.622C130.686 48.6465 130.719 48.24 130.72 47.8327C130.741 46.7721 130.511 45.7215 130.049 44.7655C129.616 43.8913 128.93 43.1659 128.079 42.6829ZM122.786 46.692C122.908 46.1549 123.207 45.6737 123.636 45.3251C124.063 45.003 124.588 44.8359 125.124 44.8515C125.646 44.8334 126.158 44.9992 126.569 45.3198C126.982 45.6767 127.265 46.1589 127.375 46.692L122.786 46.692Z" fill="white"/>
<path id="Vector_12" d="M136.753 45.5887C137.14 45.3573 137.584 45.2363 138.035 45.239C138.429 45.232 138.821 45.3014 139.188 45.4434C139.549 45.5953 139.886 45.7983 140.189 46.0462L141.986 43.4416C141.448 42.9643 140.826 42.5903 140.151 42.3384C139.416 42.0639 138.636 41.9271 137.851 41.9349C136.77 41.9194 135.705 42.1985 134.772 42.7421C133.872 43.2667 133.131 44.021 132.623 44.9268C132.103 45.8465 131.835 46.8855 131.844 47.9405C131.836 48.9844 132.102 50.0122 132.618 50.9216C133.126 51.8245 133.868 52.5754 134.767 53.0958C135.705 53.6398 136.776 53.9189 137.862 53.9029C138.644 53.909 139.42 53.7721 140.151 53.4993C140.828 53.2508 141.45 52.8764 141.986 52.3961L140.189 49.8023C139.884 50.0446 139.548 50.2438 139.188 50.3943C138.821 50.5364 138.429 50.6058 138.035 50.5987C137.587 50.6005 137.147 50.4795 136.763 50.249C136.371 50.0168 136.046 49.6866 135.822 49.2912C135.586 48.8801 135.464 48.4138 135.47 47.9405C135.462 47.4555 135.581 46.977 135.816 46.552C136.037 46.1538 136.36 45.8213 136.753 45.5887Z" fill="white"/>
<path id="Vector_13" d="M153.533 42.527C152.81 42.123 151.992 41.9186 151.163 41.9352C150.549 41.9436 149.942 42.064 149.371 42.2904C148.777 42.5095 148.226 42.83 147.742 43.2374V37.4363H144.105V53.5803H147.742V47.3809C147.743 47.0109 147.85 46.6489 148.051 46.3371C148.259 46.0052 148.549 45.7326 148.895 45.5459C149.254 45.3482 149.659 45.2462 150.069 45.25C150.34 45.2392 150.609 45.2881 150.858 45.3932C151.107 45.4984 151.329 45.6572 151.509 45.8581C151.87 46.2635 152.05 46.8286 152.05 47.5532V53.5803H155.709V46.8966C155.731 45.9796 155.534 45.0704 155.135 44.2437C154.783 43.5268 154.226 42.9295 153.533 42.527Z" fill="#F39623"/>
<path id="Vector_14" d="M166.21 43.2806C165.804 42.8419 165.308 42.4948 164.755 42.2628C164.202 42.0307 163.606 41.9191 163.007 41.9354C161.984 41.9288 160.98 42.2045 160.106 42.7318C159.224 43.2569 158.496 44.0028 157.995 44.895C157.217 46.2609 157.002 47.8732 157.395 49.3934C157.787 50.9136 158.757 52.2234 160.1 53.0477C160.975 53.5795 161.982 53.8573 163.007 53.8494C163.596 53.8682 164.183 53.7617 164.728 53.5372C165.273 53.3126 165.764 52.9751 166.167 52.5472L166.568 53.5805H169.382V42.1721H166.676L166.21 43.2806ZM165.561 49.2216C165.345 49.6017 165.028 49.916 164.646 50.1311C164.252 50.3521 163.806 50.4653 163.353 50.4593C162.903 50.4663 162.46 50.3529 162.07 50.1311C161.694 49.9151 161.385 49.6005 161.177 49.2216C160.963 48.8146 160.852 48.3619 160.852 47.9025C160.853 47.4431 160.967 46.9908 161.183 46.5847C161.393 46.1999 161.706 45.8798 162.086 45.6592C162.479 45.4404 162.922 45.3255 163.372 45.3255C163.822 45.3255 164.264 45.4404 164.657 45.6592C165.04 45.8786 165.355 46.1989 165.566 46.5847C165.789 46.9904 165.903 47.4464 165.896 47.9086C165.904 48.3682 165.788 48.8213 165.561 49.2216Z" fill="#F39623"/>
<path id="Vector_15" d="M179.402 42.1716L177.054 49.318L174.705 42.1716H170.711L175.246 53.5478L173.655 57.4006H177.552L183.451 42.1716H179.402Z" fill="#F39623"/>
</g>
</svg>
