<svg width="10" height="12" viewBox="0 0 10 12" fill="none" xmlns="http://www.w3.org/2000/svg">
<g id="image-02 1" clip-path="url(#clip0_2753_51727)">
<path id="Vector" d="M0.508824 4.35623L4.93954 0.103606C4.97376 0.070759 5.01439 0.0447032 5.0591 0.0269264C5.10382 0.0091496 5.15174 0 5.20014 0C5.24854 0 5.29646 0.0091496 5.34118 0.0269264C5.38589 0.0447032 5.42652 0.070759 5.46074 0.103606L9.89146 4.35623C9.943 4.4057 9.9781 4.46873 9.99232 4.53735C10.0065 4.60597 9.99924 4.67709 9.97135 4.74173C9.94345 4.80636 9.89622 4.86161 9.83561 4.90048C9.775 4.93934 9.70375 4.96009 9.63086 4.96009H0.769426C0.696535 4.96009 0.62528 4.93934 0.564673 4.90048C0.504065 4.86161 0.456828 4.80636 0.428933 4.74173C0.401039 4.67709 0.39374 4.60597 0.407961 4.53735C0.422181 4.46873 0.457282 4.4057 0.508824 4.35623Z" fill="#3582CD"/>
<path id="Vector_2" d="M0.508824 7.64378L4.93954 11.8964C5.00865 11.9627 5.1024 12 5.20014 12C5.29788 12 5.39163 11.9627 5.46074 11.8964L9.89146 7.64378C9.943 7.59431 9.9781 7.53128 9.99232 7.46266C10.0065 7.39404 9.99924 7.32292 9.97135 7.25828C9.94345 7.19365 9.89622 7.1384 9.83561 7.09953C9.775 7.06066 9.70375 7.03992 9.63086 7.03992H0.769426C0.696535 7.03992 0.62528 7.06066 0.564673 7.09953C0.504065 7.1384 0.456828 7.19365 0.428933 7.25828C0.401039 7.32292 0.39374 7.39404 0.407961 7.46266C0.422181 7.53128 0.457282 7.59431 0.508824 7.64378Z" fill="#3582CD"/>
</g>
<defs>
<clipPath id="clip0_2753_51727">
<rect width="9.6" height="12" fill="white" transform="translate(0.399902)"/>
</clipPath>
</defs>
</svg>
