<svg width="26" height="26" viewBox="0 0 26 26" fill="none" xmlns="http://www.w3.org/2000/svg">
<path d="M20.5833 14.0833V19.5C20.5833 20.0958 20.0958 20.5833 19.5 20.5833H6.5C5.90417 20.5833 5.41667 20.0958 5.41667 19.5V14.0833C5.41667 13.4875 4.92917 13 4.33333 13C3.7375 13 3.25 13.4875 3.25 14.0833V20.5833C3.25 21.775 4.225 22.75 5.41667 22.75H20.5833C21.775 22.75 22.75 21.775 22.75 20.5833V14.0833C22.75 13.4875 22.2625 13 21.6667 13C21.0708 13 20.5833 13.4875 20.5833 14.0833ZM14.0833 13.7258L16.12 11.6892C16.2203 11.5889 16.3394 11.5093 16.4704 11.455C16.6015 11.4007 16.7419 11.3728 16.8838 11.3728C17.0256 11.3728 17.166 11.4007 17.2971 11.455C17.4281 11.5093 17.5472 11.5889 17.6475 11.6892C17.7478 11.7895 17.8274 11.9085 17.8816 12.0396C17.9359 12.1706 17.9639 12.3111 17.9639 12.4529C17.9639 12.5948 17.9359 12.7352 17.8816 12.8663C17.8274 12.9973 17.7478 13.1164 17.6475 13.2167L13.7583 17.1058C13.6581 17.2063 13.5391 17.2859 13.408 17.3403C13.277 17.3947 13.1365 17.4226 12.9946 17.4226C12.8527 17.4226 12.7122 17.3947 12.5812 17.3403C12.4501 17.2859 12.3311 17.2063 12.2308 17.1058L8.34167 13.2167C8.13911 13.0141 8.02531 12.7394 8.02531 12.4529C8.02531 12.1665 8.13911 11.8917 8.34167 11.6892C8.54423 11.4866 8.81895 11.3728 9.10542 11.3728C9.39188 11.3728 9.66661 11.4866 9.86917 11.6892L11.9167 13.7258V4.33333C11.9167 3.7375 12.4042 3.25 13 3.25C13.5958 3.25 14.0833 3.7375 14.0833 4.33333V13.7258Z" fill="white"/>
</svg>
