<svg width="71" height="70" viewBox="0 0 71 70" fill="none" xmlns="http://www.w3.org/2000/svg">
<g clip-path="url(#clip0_629_1178)">
<path d="M15.1753 50.8618V61.7018C21.3496 61.9742 19.5681 63.0652 30.3107 67.8953C31.679 68.4336 34.8374 69.3152 38.2199 67.7608C38.2217 67.7601 38.2247 67.7588 38.2266 67.7581L59.3312 60.2016C60.0179 59.8857 63.4821 58.0035 62.1158 54.4981C60.5183 50.7601 56.4076 52.3194 56.0631 52.4315L45.0451 55.4777" fill="#EAC092"/>
<path d="M27.6408 55.3969L39.9111 59.2853C42.0526 59.8942 44.282 58.6519 44.891 56.5104C45.4999 54.369 44.2576 52.1395 41.8039 51.229L30.9186 47.5346C30.9182 47.5338 28.5945 43.7393 23.0611 43.7393C19.5671 43.7393 16.5549 46.5633 15.1753 49.0353V53.9714" fill="#FEDBAB"/>
<path d="M22.751 55.2143C22.6621 55.2143 22.5719 55.2047 22.4844 55.187C22.3969 55.1705 22.3107 55.1432 22.2273 55.109C22.1453 55.0748 22.066 55.0325 21.9922 54.9831C21.917 54.9339 21.8473 54.8765 21.7844 54.8136C21.7215 54.7507 21.6641 54.681 21.6148 54.6058C21.5643 54.5319 21.5232 54.4526 21.4891 54.3692C21.4549 54.2872 21.4275 54.2011 21.4111 54.1136C21.3934 54.0261 21.3838 53.9358 21.3838 53.847C21.3838 53.7581 21.3934 53.6679 21.4111 53.5804C21.4275 53.4929 21.4549 53.4067 21.4891 53.3233C21.5232 53.2413 21.5643 53.162 21.6148 53.0882C21.6641 53.013 21.7215 52.9433 21.7844 52.8804C21.8473 52.8175 21.917 52.7601 21.9922 52.7108C22.066 52.6616 22.1453 52.6192 22.2273 52.5851C22.3107 52.5509 22.3969 52.5235 22.4844 52.5071C22.6594 52.4716 22.8412 52.4716 23.0176 52.5071C23.1051 52.5235 23.1912 52.5509 23.2732 52.5851C23.3566 52.6192 23.4359 52.6616 23.5098 52.7108C23.585 52.7601 23.6547 52.8175 23.7176 52.8804C23.7805 52.9433 23.8379 53.013 23.8871 53.0882C23.9363 53.162 23.9787 53.2413 24.0129 53.3233C24.0471 53.4067 24.073 53.4929 24.0908 53.5804C24.1086 53.6679 24.1182 53.7581 24.1182 53.847C24.1182 53.9358 24.1086 54.0261 24.0908 54.1136C24.073 54.2011 24.0471 54.2872 24.0129 54.3692C23.9787 54.4526 23.9363 54.5319 23.8871 54.6058C23.8379 54.681 23.7805 54.7507 23.7176 54.8136C23.6547 54.8765 23.585 54.9339 23.5098 54.9831C23.4359 55.0323 23.3566 55.0748 23.2732 55.109C23.1912 55.1432 23.1051 55.1705 23.0176 55.187C22.9301 55.2047 22.8398 55.2143 22.751 55.2143Z" fill="black"/>
<path d="M15.1759 48.8604H9.99658V63.5494H15.1759V48.8604Z" fill="#EAECF0"/>
<path d="M9.99648 48.8604H1.86719V66.0979H9.99648V48.8604Z" fill="#3688C8"/>
<path d="M63.3897 54.0014C63.3843 53.9877 63.3789 53.9742 63.3731 53.9608C62.1148 51.0162 59.1636 49.928 55.6709 51.1208L46.146 53.7549C45.5953 52.0872 44.2217 50.668 42.2795 49.9472C42.2674 49.9429 42.2554 49.9385 42.2432 49.9344L31.7732 46.3808C30.9017 45.2544 28.172 42.3721 23.0611 42.3721C19.4893 42.3721 16.3296 44.8223 14.5219 47.4931H1.86719C1.11209 47.4931 0.5 48.1052 0.5 48.8603V66.0974C0.5 66.8525 1.11209 67.4646 1.86719 67.4646H9.99607C10.7512 67.4646 11.3633 66.8525 11.3633 66.0974V64.917H15.1754C15.9305 64.917 16.5426 64.3049 16.5426 63.5498V63.1563C18.7648 63.3502 19.4957 63.7717 21.5366 64.9486C23.1062 65.8537 25.4784 67.2215 29.7503 69.1423C29.7701 69.1512 29.7902 69.1596 29.8103 69.1676C30.6302 69.4901 32.233 69.9968 34.209 69.9968C35.5844 69.9968 37.1409 69.7511 38.7386 69.0269L59.792 61.4888C59.8295 61.4754 59.8664 61.4603 59.9025 61.4437C61.9146 60.5179 64.913 57.9089 63.3897 54.0014ZM8.62889 64.7301H3.23438V50.2274H8.62889V64.7301ZM13.8082 62.1825H11.3633V50.2274H13.8082V62.1825ZM58.81 58.9358L37.766 66.4705C37.7475 66.4771 37.7225 66.4869 37.7043 66.4943C37.6859 66.5018 37.6674 66.5098 37.6492 66.5181C34.7184 67.8651 31.9325 67.0587 30.8406 66.6342C26.7142 64.7774 24.5118 63.5074 22.9026 62.5795C20.6653 61.2894 19.5873 60.6676 16.5426 60.4162V49.4046C17.8385 47.2805 20.3517 45.1063 23.0612 45.1063C27.7077 45.1063 29.6766 48.1285 29.754 48.2504C29.9209 48.522 30.1775 48.7266 30.4793 48.829L41.345 52.5169C43.0804 53.1682 43.9975 54.6543 43.576 56.1364C43.3814 56.8208 42.9319 57.3884 42.3104 57.7347C41.6942 58.078 40.9819 58.1629 40.3029 57.9751L28.0539 54.0934C27.3337 53.8652 26.5656 54.2639 26.3375 54.9837C26.1093 55.7035 26.508 56.4719 27.2278 56.7001L39.4982 60.5885C39.5112 60.5926 39.5242 60.5965 39.5373 60.6002C40.0272 60.7395 40.5259 60.8085 41.0217 60.8085C41.9292 60.8085 42.8268 60.5773 43.6413 60.1234C44.9009 59.4216 45.8117 58.2712 46.206 56.8842C46.2375 56.7735 46.2654 56.6627 46.2896 56.552L56.5548 53.7082C58.0374 53.2018 59.9836 53.0193 60.8501 55.015C61.747 57.3579 59.4159 58.6468 58.81 58.9358Z" fill="black"/>
<path d="M33.2992 13.5134L21.1561 1.37036L5.93164 16.595L31.9474 42.6108L46.3141 28.2441" fill="#26CFAD"/>
<path d="M26.1088 15.5875C26.1097 15.5848 26.1105 15.5821 26.1112 15.5793C24.6164 15.6815 23.1504 16.3037 22.0077 17.4464C19.4981 19.956 19.4981 24.0247 22.0077 26.5343C24.5173 29.044 28.5861 29.044 31.0957 26.5343C32.3095 25.3206 32.936 23.7421 32.9758 22.1518" fill="#FFD36C"/>
<path d="M55.8245 21.2365V10.3964C49.6501 10.1241 51.4317 9.03307 40.689 4.20294C39.3208 3.66467 36.1624 2.78311 32.7799 4.33747C32.7781 4.33829 32.7751 4.33952 32.7732 4.3402L26.4058 6.61999L32.9756 13.1899" fill="#EAC092"/>
<path d="M5.93164 16.595L11.093 11.4336C13.9394 14.2799 13.9394 18.9101 11.093 21.7564L5.93164 16.595Z" fill="#00B192"/>
<path d="M26.7861 37.4495C29.6325 34.6031 34.2626 34.6031 37.1089 37.4495L31.9475 42.6109L26.7861 37.4495Z" fill="#00B192"/>
<path d="M15.9946 6.53177L21.156 1.37036L26.3174 6.53177C23.4712 9.37812 18.841 9.37812 15.9946 6.53177Z" fill="#00B192"/>
<path d="M40.3133 24.8894C39.3776 27.4719 39.9434 30.4802 42.0107 32.5476L46.3142 28.2441" fill="#00B192"/>
<path d="M43.3588 16.7014L31.0885 12.813C28.947 12.204 26.7176 13.4464 26.1088 15.5878C25.4998 17.7292 26.7422 19.9587 29.1959 20.8692L40.0857 24.5652L40.0812 24.5637C40.0812 24.5637 42.4045 28.359 47.9386 28.359C51.4326 28.359 54.4448 25.5349 55.8245 23.0629V18.1268" fill="#FEDBAB"/>
<path d="M48.249 19.6182C48.1602 19.6182 48.0699 19.6086 47.9824 19.5909C47.8949 19.5731 47.8088 19.5471 47.7268 19.5129C47.6434 19.4788 47.5641 19.4364 47.4902 19.3872C47.415 19.3379 47.3453 19.2805 47.2824 19.2176C47.2195 19.1547 47.1621 19.085 47.1129 19.0098C47.0637 18.936 47.0213 18.8567 46.9871 18.7733C46.9529 18.6913 46.9256 18.6051 46.9092 18.5176C46.8914 18.4301 46.8818 18.3399 46.8818 18.251C46.8818 18.1622 46.8914 18.0719 46.9092 17.9844C46.9256 17.8969 46.9529 17.8108 46.9871 17.7274C47.0213 17.6454 47.0637 17.5661 47.1129 17.4922C47.1621 17.417 47.2195 17.3473 47.2824 17.2844C47.3453 17.2215 47.415 17.1641 47.4902 17.1149C47.5641 17.0657 47.6434 17.0233 47.7268 16.9891C47.8088 16.9549 47.8949 16.9276 47.9824 16.9112C48.1588 16.8756 48.3406 16.8756 48.517 16.9112C48.6031 16.9276 48.6893 16.9549 48.7727 16.9891C48.8547 17.0233 48.934 17.0657 49.0078 17.1149C49.083 17.1641 49.1527 17.2215 49.2156 17.2844C49.2785 17.3473 49.3359 17.417 49.3852 17.4922C49.4357 17.5661 49.4768 17.6454 49.5109 17.7274C49.5465 17.8108 49.5725 17.8969 49.5902 17.9844C49.608 18.0719 49.6162 18.1622 49.6162 18.251C49.6162 18.3399 49.608 18.4301 49.5902 18.5176C49.5725 18.6051 49.5465 18.6913 49.5109 18.7733C49.4768 18.8567 49.4357 18.936 49.3852 19.0098C49.3359 19.085 49.2785 19.1547 49.2156 19.2176C49.1527 19.2805 49.083 19.3379 49.0078 19.3872C48.934 19.4364 48.8547 19.4788 48.7727 19.5129C48.6893 19.5471 48.6031 19.5731 48.517 19.5909C48.4281 19.6086 48.3379 19.6182 48.249 19.6182Z" fill="black"/>
<path d="M61.004 8.54883H55.8247V23.2379H61.004V8.54883Z" fill="#EAECF0"/>
<path d="M69.1327 6.00073H61.0034V23.2382H69.1327V6.00073Z" fill="#3688C8"/>
<path d="M69.1326 4.63353H61.0037C60.2486 4.63353 59.6365 5.24562 59.6365 6.00072V7.18115H55.8244C55.0693 7.18115 54.4572 7.79324 54.4572 8.54834V8.94181C52.235 8.74781 51.5041 8.32644 49.4633 7.14957C47.8938 6.24449 45.5216 4.87662 41.2495 2.95585C41.2297 2.94683 41.2097 2.93849 41.1894 2.93056C39.7988 2.38341 36.1543 1.30689 32.2618 3.07097L26.7602 5.04082L22.1228 0.403589C21.5889 -0.130298 20.7232 -0.130298 20.1894 0.403589L4.96463 15.6282C4.47217 16.1208 4.37769 16.9749 4.96463 17.5618L30.9804 43.5776C31.3967 43.994 32.3715 44.12 32.914 43.5776L46.8136 29.6782C47.1749 29.7094 47.5499 29.7262 47.9386 29.7262C51.5105 29.7262 54.6701 27.2759 56.4777 24.6053H69.1326C69.8877 24.6053 70.4998 23.9932 70.4998 23.2381V6.00072C70.4998 5.24562 69.8877 4.63353 69.1326 4.63353ZM24.6237 17.3131C24.8761 19.4134 26.3883 21.2855 28.7203 22.1509C28.7324 22.1553 28.7444 22.1596 28.7566 22.1637L31.4904 23.0917C31.2839 24.0234 30.8168 24.8801 30.1291 25.5679C28.1565 27.5402 24.9469 27.5405 22.9746 25.5679C21.002 23.5955 21.002 20.386 22.9746 18.4134C23.4504 17.9374 24.0119 17.5653 24.6237 17.3131ZM27.3585 11.9746C26.3785 12.5207 25.6096 13.3384 25.1308 14.3277C23.5886 14.6133 22.1608 15.3599 21.0408 16.4798C18.0023 19.5185 18.0023 24.4627 21.041 27.5014C22.5602 29.0206 24.5559 29.7803 26.5517 29.7803C28.5474 29.7803 30.5432 29.0207 32.0626 27.5014C33.051 26.5129 33.7435 25.298 34.0904 23.974L38.7065 25.5407C38.1869 27.948 38.7191 30.4806 40.1548 32.4699L37.0326 35.5921C34.0113 33.4005 29.8833 33.4005 26.862 35.5921L12.9508 21.6807C14.0184 20.2124 14.5948 18.4485 14.5948 16.5949C14.5948 14.7411 14.0186 12.9775 12.9508 11.5091L16.0703 8.38974C17.5387 9.45738 19.3023 10.0338 21.1561 10.0338C23.0099 10.0338 24.7735 9.45738 26.2419 8.38974L29.199 11.3468C28.5609 11.441 27.9387 11.6513 27.3585 11.9746ZM42.1248 30.4998C41.597 29.6398 41.2985 28.6583 41.2513 27.6566C41.9062 28.13 42.7065 28.5939 43.6625 28.9621L42.1248 30.4998ZM21.156 3.3038L24.272 6.4199C23.3458 6.99275 22.2749 7.29927 21.156 7.29927C20.0369 7.29927 18.9661 6.99289 18.0399 6.4199L21.156 3.3038ZM10.9811 13.4788C11.5539 14.4051 11.8604 15.476 11.8604 16.5949C11.8604 17.7138 11.5541 18.7847 10.9811 19.7111L7.86498 16.5949L10.9811 13.4788ZM31.9473 40.6772L28.8318 37.5617C30.7339 36.3878 33.1604 36.3878 35.0627 37.5617L31.9473 40.6772ZM47.9386 26.9916C47.4317 26.9916 46.9566 26.9555 46.5124 26.8912C46.5106 26.8909 46.5088 26.8907 46.507 26.8904C43.5545 26.4615 41.9662 24.7834 41.4427 24.119C41.4148 24.0779 41.296 23.9225 41.2784 23.8967C41.1191 23.612 40.8579 23.3831 40.5249 23.2701L29.6547 19.5807C27.92 18.9297 27.003 17.4442 27.4233 15.9627L27.4241 15.9599L27.4251 15.9564C27.6204 15.2742 28.0691 14.7083 28.6893 14.3628C29.3053 14.0195 30.0175 13.9344 30.6967 14.1226L42.9458 18.0042C43.6657 18.2327 44.4341 17.8337 44.6621 17.1139C44.8902 16.3941 44.4917 15.6257 43.7718 15.3975L34.0299 12.3104L33.9449 12.2254L33.9423 12.2228L28.8987 7.17923L33.2338 5.62693C33.2485 5.6216 33.2665 5.6149 33.281 5.60902C33.2847 5.60751 33.2918 5.60478 33.2953 5.60328C33.3139 5.59576 33.3323 5.58783 33.3504 5.57949C36.2812 4.23253 39.0669 5.03876 40.1589 5.46341C44.2855 7.32019 46.488 8.59017 48.0972 9.51808C50.3345 10.8083 51.4125 11.43 54.4571 11.6814V22.693C53.1613 24.8173 50.6481 26.9916 47.9386 26.9916ZM57.1916 9.91552H59.6365V21.8706H57.1916V9.91552ZM67.7654 21.8706H62.3709V7.3679H67.7654V21.8706Z" fill="black"/>
</g>
<defs>
<clipPath id="clip0_629_1178">
<rect width="70" height="70" fill="white" transform="translate(0.5)"/>
</clipPath>
</defs>
</svg>
