<svg width="75" height="80" viewBox="0 0 75 80" fill="none" xmlns="http://www.w3.org/2000/svg">
<path d="M0 20.4088C0 17.2126 2.82806 15.7869 4.24209 15.4736C10.291 13.2801 23.5672 8.47023 28.2806 6.77815C32.994 5.08607 36.5291 6.54314 37.7075 7.48318L60.332 15.4736C64.6683 16.2256 65.4382 20.6438 65.2811 22.7589V37.5646C65.2811 39.288 65.0925 44.427 64.3384 51.1953C63.5842 57.9636 57.3468 65.8495 53.9688 68.983C52.162 70.3148 47.7942 74.4353 41.9496 77.4434C36.0578 80.4758 30.166 81.6736 23.0958 76.1065C19.8604 73.5589 19.0466 73.1453 13.4333 68.983C4.24209 62.1677 0.0785573 49.3152 0 42.7349V20.4088Z" fill="#212F3F"/>
<path d="M10.6465 14.4088C10.6465 11.2126 13.4336 9.78691 14.8271 9.47357C20.7883 7.28013 33.8721 2.47023 38.5172 0.778148C43.1624 -0.913933 46.6462 0.543137 47.8075 1.48318L70.1041 9.47357C74.3776 10.2256 75.1363 14.6438 74.9815 16.7589V31.5646C74.9815 33.288 74.7957 38.427 74.0524 45.1953C73.3092 51.9636 67.1622 59.8495 63.8332 62.983C62.0525 64.3148 57.7481 68.4353 51.9881 71.4434C46.1817 74.4758 40.3753 75.6736 33.4076 70.1065C30.2191 67.5589 29.4171 67.1453 23.8851 62.983C14.8271 56.1677 10.7239 43.3152 10.6465 36.7349V14.4088Z" fill="#3582CD"/>
<path d="M26.6167 35.5629L37.9469 46.4346L59.0967 28" stroke="white" strokeWidth="6" strokeLinecap="round" strokeLinejoin="round"/>
</svg>
