<svg width="71" height="70" viewBox="0 0 71 70" fill="none" xmlns="http://www.w3.org/2000/svg">
<g clip-path="url(#clip0_628_1155)">
<path d="M67.565 31.4329H57.7682V56.0578C57.7682 57.2023 56.839 58.1316 55.6945 58.1316H18.7457C17.5996 58.1316 16.6725 57.2023 16.6725 56.0578V31.4329H6.87415C4.94727 31.4329 4.06074 29.0158 5.54008 27.7725L35.8858 2.26378C36.6457 1.62345 37.7731 1.60636 38.5534 2.26378L45.5453 8.14162V3.85207C45.5453 2.70598 46.4729 1.77886 47.619 1.77886H55.6945C56.839 1.77886 57.7682 2.70598 57.7682 3.85207V18.4153L68.8985 27.7725C70.3816 29.0206 69.4908 31.4329 67.565 31.4329Z" fill="#212F3F"/>
<path d="M67.5649 31.433H57.7682V56.0579C57.7682 57.2024 56.8389 58.1316 55.6944 58.1316H37.2192V1.77734C37.6951 1.77734 38.1677 1.93916 38.5533 2.26387L45.5452 8.14171V3.85216C45.5452 2.70607 46.4729 1.77895 47.6189 1.77895H55.6944C56.8389 1.77895 57.7682 2.70607 57.7682 3.85216V18.4154L68.8985 27.7726C70.3815 29.0207 69.4907 31.433 67.5649 31.433Z" fill="#3582CD"/>
<path d="M15.2165 47.9519V66.2252C15.2165 67.3713 14.2878 68.2984 13.1427 68.2984H2.57375C1.42873 68.2984 0.5 67.3713 0.5 66.2252V47.9519C0.5 46.8074 1.42873 45.8782 2.57375 45.8782H13.1427C14.2878 45.8782 15.2165 46.8074 15.2165 47.9519Z" fill="#212F3F"/>
<path d="M15.2165 57.0891V66.2252C15.2165 67.3713 14.2878 68.2984 13.1427 68.2984H2.57375C1.42873 68.2984 0.5 67.3713 0.5 66.2252V57.0891H15.2165Z" fill="#3582CD"/>
<path d="M67.6084 57.7899L54.9849 65.1444C51.4393 67.2096 47.3975 68.3018 43.2944 68.3018H11.0693V47.952C11.0693 43.2107 14.7463 40.0255 20.2204 40.0255C21.7852 40.2408 28.5757 38.9136 31.5542 43.8382C32.0477 44.6537 32.8786 45.1402 33.7743 45.1402H40.6834C44.997 45.1402 48.0299 49.4079 46.6386 53.4576V53.4592C51.8265 52.7821 53.0772 51.2952 62.3282 47.4639C65.1144 46.226 68.3876 47.3865 69.8039 50.0268C71.2886 52.7986 70.3252 56.2075 67.6084 57.7899Z" fill="#FFCEBF"/>
<path d="M67.6084 57.7898L54.9849 65.1443C51.4393 67.2095 47.3975 68.3017 43.2944 68.3017H35.4966V45.1401H40.6834C44.9969 45.1401 48.0298 49.4078 46.6386 53.4576V53.4592C51.8291 52.782 53.058 51.3032 62.3282 47.4638C65.1144 46.2259 68.3876 47.3864 69.8039 50.0268C71.2886 52.7985 70.3252 56.2074 67.6084 57.7898Z" fill="#FFBFAB"/>
<path d="M69.1254 49.0302C51.8748 56.6373 54.1558 55.6316 53.9469 55.7235C50.9599 57.0506 47.7887 57.7225 44.5208 57.7225H28.874C27.7295 57.7225 26.8008 56.7948 26.8008 55.6487C26.8008 54.5043 27.7295 53.5755 28.874 53.5755C54.2513 53.5178 45.0784 54.6084 62.3284 47.4638C64.7167 46.4021 67.4944 47.1001 69.1254 49.0302Z" fill="#FFA78F"/>
<path d="M69.1251 49.0302C51.8745 56.6373 54.1555 55.6316 53.9467 55.7235C50.9597 57.0506 47.7885 57.7225 44.5206 57.7225H35.4966V53.5755C44.1205 53.5435 45.1208 53.6572 46.7337 53.4484C51.5007 52.8973 53.4297 51.1493 62.3282 47.4638C64.7165 46.4021 67.4941 47.1001 69.1251 49.0302Z" fill="#F89580"/>
<path d="M34.3356 24.9085C36.8029 22.4412 36.8029 18.4267 34.3356 15.9577C31.864 13.4861 27.8607 13.4861 25.3864 15.9577C22.9137 18.4304 22.9121 22.4342 25.3864 24.9085C27.8628 27.3844 31.8762 27.3679 34.3356 24.9085ZM28.3183 18.8913C29.1686 18.0405 30.5496 18.0368 31.4036 18.8913C32.2538 19.741 32.2538 21.1247 31.4036 21.9765C30.5534 22.8268 29.1696 22.8268 28.3183 21.9765C27.4681 21.1263 27.4639 19.7453 28.3183 18.8913Z" fill="#AED0FF"/>
<path d="M49.0521 30.6756C46.5874 28.2078 42.582 28.196 40.1029 30.6756C37.635 33.143 37.635 37.157 40.1029 39.6248C42.5788 42.1007 46.5842 42.0954 49.0521 39.6248C51.528 37.1484 51.5232 33.1435 49.0521 30.6756ZM46.1201 36.6929C45.2683 37.5441 43.8872 37.5452 43.0348 36.6929C42.1846 35.841 42.1846 34.4573 43.0348 33.6071C43.8867 32.7553 45.2677 32.7547 46.1201 33.6071C46.9703 34.4573 46.9746 35.8384 46.1201 36.6929Z" fill="#FFB99D"/>
<path d="M45.2929 19.7173C44.4833 18.9077 43.1701 18.9077 42.3604 19.7173L29.1457 32.9326C28.3355 33.7422 28.3355 35.0549 29.1457 35.8651C29.9553 36.6747 31.2681 36.6747 32.0777 35.8651L45.2929 22.6498C46.1026 21.8402 46.1026 20.5275 45.2929 19.7173Z" fill="#AED0FF"/>
<path d="M49.0526 30.6752C46.5879 28.2078 42.583 28.1956 40.1034 30.6752C37.6355 33.1431 37.6355 37.157 40.1034 39.6244C42.5787 42.1003 46.5852 42.0965 49.0526 39.6244C51.5284 37.149 51.5226 33.1431 49.0526 30.6752ZM46.1206 36.6929C45.2688 37.5442 43.8882 37.5458 43.0353 36.6929C42.1851 35.8411 42.1851 34.4574 43.0353 33.6077C43.8866 32.7559 45.2677 32.7543 46.1206 33.6077C46.9708 34.4574 46.9751 35.8385 46.1206 36.6929Z" fill="#8CBCFF"/>
<path d="M45.2937 22.6495L37.2192 30.7239V24.8583L42.3606 19.7175C43.1702 18.9073 44.4835 18.9073 45.2937 19.7175C46.1022 20.5277 46.1022 21.8409 45.2937 22.6495Z" fill="#8CBCFF"/>
</g>
<defs>
<clipPath id="clip0_628_1155">
<rect width="70" height="70" fill="white" transform="translate(0.5)"/>
</clipPath>
</defs>
</svg>
