<svg width="24" height="24" viewBox="0 0 24 24" fill="none" xmlns="http://www.w3.org/2000/svg">
<path d="M12 21.9998C12.6193 22.0005 13.2235 21.8083 13.7285 21.4499C14.2335 21.0915 14.6143 20.5846 14.818 19.9998H9.182C9.38566 20.5846 9.76648 21.0915 10.2715 21.4499C10.7765 21.8083 11.3807 22.0005 12 21.9998ZM19 14.5858V9.99976C19 6.78276 16.815 4.07276 13.855 3.25776C13.562 2.51976 12.846 1.99976 12 1.99976C11.154 1.99976 10.438 2.51976 10.145 3.25776C7.185 4.07376 5 6.78276 5 9.99976V14.5858L3.293 16.2928C3.19996 16.3855 3.12617 16.4957 3.07589 16.617C3.0256 16.7383 2.99981 16.8684 3 16.9998V17.9998C3 18.265 3.10536 18.5193 3.29289 18.7069C3.48043 18.8944 3.73478 18.9998 4 18.9998H20C20.2652 18.9998 20.5196 18.8944 20.7071 18.7069C20.8946 18.5193 21 18.265 21 17.9998V16.9998C21.0002 16.8684 20.9744 16.7383 20.9241 16.617C20.8738 16.4957 20.8 16.3855 20.707 16.2928L19 14.5858Z" fill="#3582CD"/>
</svg>
