<svg width="20" height="21" viewBox="0 0 20 21" fill="none" xmlns="http://www.w3.org/2000/svg">
<path d="M9.16675 2.16675H7.50008C3.33341 2.16675 1.66675 3.83341 1.66675 8.00008V13.0001C1.66675 17.1667 3.33341 18.8334 7.50008 18.8334H12.5001C16.6667 18.8334 18.3334 17.1667 18.3334 13.0001V11.3334" stroke="#3582CD" strokeWidth="1.5" strokeLinecap="round" strokeLinejoin="round"/>
<path d="M15.3229 2.66906L10.6578 6.8164C10.4802 6.97429 10.3026 7.28482 10.267 7.51113L10.0125 9.09533C9.91774 9.66901 10.3736 10.069 11.0189 9.99006L12.8009 9.76375C13.0495 9.73217 13.3988 9.57428 13.5823 9.41638L18.2474 5.26904C19.0526 4.55326 19.4314 3.72169 18.2474 2.66906C17.0634 1.61644 16.128 1.95328 15.3229 2.66906Z" stroke="#3582CD" strokeWidth="1.5" strokeMiterlimit="10" strokeLinecap="round" strokeLinejoin="round"/>
<path d="M15 3C15.2713 4.45142 16.0283 5.58704 17 6" stroke="#3582CD" strokeWidth="1.5" strokeMiterlimit="10" strokeLinecap="round" strokeLinejoin="round"/>
</svg>
