<svg width="24" height="24" viewBox="0 0 24 24" fill="none" xmlns="http://www.w3.org/2000/svg">
<path d="M11.9997 21.2673C17.847 21.2673 22.5879 16.8225 22.5879 11.3395C22.5879 5.85645 17.847 1.41162 11.9997 1.41162C6.15232 1.41162 1.41144 5.85645 1.41144 11.3395C1.41144 13.8356 2.39482 16.119 4.01879 17.8635C3.89041 19.3044 3.46688 20.8844 2.99835 22.07C2.89379 22.3338 3.09629 22.6288 3.35967 22.5834C6.34556 22.0587 8.12041 21.2531 8.89203 20.8333C9.90573 21.123 10.9505 21.2689 11.9997 21.2673Z" fill="#3582CD"/>
<path d="M7.44589 11.811C7.44589 12.1621 7.32929 12.4372 7.09529 12.6369C6.85739 12.8343 6.5287 12.9331 6.10845 12.9331H3.9978V12.1124H5.74611C5.95115 12.1124 6.10062 12.0793 6.19375 12.0137C6.28688 11.9459 6.33383 11.8411 6.33383 11.698C6.33383 11.5661 6.28923 11.4628 6.20001 11.3882C6.10688 11.3166 5.95584 11.2812 5.74689 11.2812L4.32023 11.2865V10.4666H5.72028C5.93158 10.4666 6.08341 10.435 6.17653 10.3709C6.26575 10.3091 6.31036 10.2066 6.31036 10.0635C6.31036 9.92782 6.26575 9.82684 6.17653 9.75902C6.13114 9.72209 6.07088 9.69572 5.99654 9.67914C5.91828 9.66482 5.82672 9.65729 5.72028 9.65729H3.9978V8.8374H6.02002C6.488 8.8374 6.84252 8.92783 7.08356 9.10869C7.32146 9.2918 7.44042 9.5759 7.44042 9.96173C7.44042 10.1554 7.39581 10.3272 7.30659 10.4772C7.21347 10.6271 7.09295 10.759 6.94425 10.872C7.10782 10.9692 7.22677 11.0853 7.30112 11.2202C7.39737 11.3784 7.44589 11.5751 7.44589 11.811Z" fill="#E8F4FF"/>
<path d="M11.6641 11.6759C11.6641 12.1054 11.5021 12.431 11.1789 12.6525C10.8557 12.8741 10.3901 12.9841 9.78122 12.9841C9.0628 12.9841 8.53142 12.8175 8.18709 12.4845C7.84509 12.1536 7.67371 11.6344 7.67371 10.9261C7.67371 10.2109 7.85683 9.68344 8.22387 9.34358C8.58542 9.00523 9.14889 8.83643 9.91504 8.83643H11.4434L11.4403 9.65631H9.89313C9.50888 9.65631 9.23028 9.7279 9.05733 9.87032C8.97594 9.93814 8.91411 10.0241 8.87185 10.128C8.82411 10.2381 8.80064 10.3639 8.80064 10.5063H10.1811C10.6789 10.5063 11.0506 10.602 11.2963 10.7927C11.5413 10.9856 11.6641 11.2795 11.6641 11.6759ZM10.5599 11.7196C10.5599 11.5877 10.5247 11.4882 10.4542 11.4204C10.3838 11.3586 10.2766 11.327 10.1318 11.327H8.80611C8.80611 11.6065 8.8875 11.8183 9.05106 11.9607C9.21071 12.1069 9.46662 12.18 9.818 12.18C10.0864 12.18 10.2758 12.1423 10.3885 12.0677C10.5036 11.9931 10.5599 11.8771 10.5599 11.7196Z" fill="#E8F4FF"/>
<path d="M15.544 11.6927C15.544 12.0928 15.4133 12.4003 15.1535 12.6143C14.8913 12.8268 14.5211 12.9323 14.0437 12.9323H11.8047V12.1124H13.8497C14.0508 12.1124 14.1932 12.0793 14.2746 12.0137C14.3529 11.9496 14.3912 11.8426 14.3912 11.6927C14.3912 11.5389 14.3521 11.4282 14.2746 11.3611C14.1932 11.2971 14.0508 11.2654 13.8497 11.2654H11.8047V8.8374H15.3358L15.3327 9.65729H12.8511V10.45H14.2339C14.6354 10.45 14.9562 10.557 15.1981 10.7711C15.31 10.8826 15.3968 11.0137 15.4579 11.1637C15.515 11.3166 15.544 11.4937 15.544 11.6927Z" fill="#E8F4FF"/>
<path fillRule="evenodd" clipRule="evenodd" d="M16.0501 14.229L17.6129 12.8726L19.3143 13.3481C19.3143 13.3481 20.4365 13.801 19.8097 14.559C19.5272 14.8273 19.2595 15.0813 18.2719 14.8251C17.9917 14.7354 16.0501 14.229 16.0501 14.229Z" fill="#E8F4FF"/>
<path fillRule="evenodd" clipRule="evenodd" d="M7.00029 13.2698C7.01673 13.306 7.03082 13.3429 7.04803 13.3791C7.07855 13.4431 7.11221 13.5049 7.14899 13.566C7.24133 13.7182 7.35324 13.8591 7.48159 13.985C7.6428 14.1425 7.82984 14.2751 8.03253 14.3783C8.28844 14.5094 8.56704 14.5946 8.85112 14.6428C9.22598 14.7069 9.61023 14.7091 9.98901 14.6745C10.5008 14.6278 11.0056 14.5155 11.4963 14.37C12.9088 13.9511 14.2134 13.3339 15.3184 12.3784C15.3349 12.364 15.3513 12.3497 15.3685 12.3354C16.1331 11.6655 17.073 10.725 16.9572 9.63762C16.8836 8.95037 16.0173 8.56604 15.4061 8.42588C15.1455 8.36635 15.1948 7.99258 15.4624 7.99861C16.6966 8.02724 17.9573 8.34902 18.3792 9.36784C18.3815 9.37387 18.3838 9.3799 18.3862 9.38668C18.4918 9.71448 18.5145 10.0694 18.4856 10.4093C18.4308 11.0589 18.171 11.6775 17.7985 12.2178C17.1763 13.1214 16.2685 13.8184 15.3177 14.3798C14.5155 14.8538 13.6875 15.2223 12.7922 15.4906C12.1615 15.6797 11.519 15.835 10.8639 15.9239C10.1307 16.0234 9.36685 16.0452 8.64373 15.8711C7.91593 15.6963 7.27185 15.3014 6.85865 14.6903C6.60665 14.318 6.44857 13.8945 6.35388 13.4612C6.3257 13.3339 6.36092 13.1613 6.47674 13.0784C6.62465 12.9729 6.86334 13.0671 6.9596 13.196C6.97603 13.2208 6.98934 13.245 7.00029 13.2698Z" fill="#E8F4FF"/>
<path fillRule="evenodd" clipRule="evenodd" d="M7.46979 13.1979C7.46979 13.1979 9.63678 15.0856 13.3572 13.063C12.9424 13.5347 8.31029 15.6922 7.46979 13.1979Z" fill="#E8F4FF"/>
</svg>
