<svg width="20" height="21" viewBox="0 0 20 21" fill="none" xmlns="http://www.w3.org/2000/svg">
<path d="M18.3334 7.16675C18.3334 3.83341 16.6667 2.16675 13.3334 2.16675H6.66675C3.33341 2.16675 1.66675 3.83341 1.66675 7.16675V18.0001C1.66675 18.4584 2.04175 18.8334 2.50008 18.8334H13.3334C16.6667 18.8334 18.3334 17.1667 18.3334 13.8334V10.5001" stroke="#3582CD" strokeWidth="1.5" strokeLinecap="round" strokeLinejoin="round"/>
<path d="M8.16437 14.5H6.7625C5.79062 14.5 5 13.7094 5 12.7381V8.7625C5 7.79062 5.79063 7 6.76188 7H8.16375C8.50875 7 8.78875 7.28 8.78875 7.625C8.78875 7.97 8.50875 8.25 8.16375 8.25H6.76188C6.47938 8.25 6.25 8.48 6.25 8.76188V12.7375C6.25 13.02 6.48 13.2494 6.76188 13.2494H8.16375C8.50875 13.2494 8.78875 13.5294 8.78875 13.8744C8.78875 14.2194 8.50937 14.5 8.16437 14.5Z" fill="#3582CD"/>
<path d="M11.7188 14.5C11.7107 14.5 11.7032 14.5 11.6951 14.5C11.4157 14.4894 11.1776 14.295 11.1113 14.0231L9.58755 7.77314C9.50568 7.43751 9.7113 7.09939 10.0469 7.01814C10.3832 6.94001 10.7207 7.14189 10.8019 7.47751L11.8044 11.5888L13.1551 7.43251C13.2619 7.10501 13.6138 6.92501 13.9426 7.03126C14.2707 7.13814 14.4507 7.49064 14.3438 7.81876L12.3126 14.0688C12.2294 14.3263 11.9888 14.5 11.7188 14.5Z" fill="#3582CD"/>
</svg>
