<svg width="20" height="21" viewBox="0 0 20 21" fill="none" xmlns="http://www.w3.org/2000/svg">
<path d="M18.3334 7.16675C18.3334 3.83341 16.6667 2.16675 13.3334 2.16675H6.66675C3.33341 2.16675 1.66675 3.83341 1.66675 7.16675V18.0001C1.66675 18.4584 2.04175 18.8334 2.50008 18.8334H13.3334C16.6667 18.8334 18.3334 17.1667 18.3334 13.8334V10.5001" stroke="#3582CD" strokeWidth="1.5" strokeLinecap="round" strokeLinejoin="round"/>
<path d="M7 7.75C6.58579 7.75 6.25 7.41421 6.25 7C6.25 6.58579 6.58579 6.25 7 6.25V7.75ZM13 7V6.25C13.4142 6.25 13.75 6.58579 13.75 7H13ZM13 15H13.75C13.75 15.4142 13.4142 15.75 13 15.75V15ZM7 15.75C6.58579 15.75 6.25 15.4142 6.25 15C6.25 14.5858 6.58579 14.25 7 14.25V15.75ZM7 6.25H13V7.75H7V6.25ZM13 15.75H7V14.25H13V15.75ZM13.75 7V11H12.25V7H13.75ZM13.75 11V15H12.25V11H13.75Z" fill="#3582CD"/>
<path d="M7 11H13" stroke="#3582CD" strokeWidth="1.5" strokeLinecap="round"/>
</svg>
