<svg width="81" height="80" viewBox="0 0 81 80" fill="none" xmlns="http://www.w3.org/2000/svg">
<g clip-path="url(#clip0_691_6259)">
<path d="M78.25 75.2941H60.1V65.8306C62.0169 67.9101 63.4521 69.2692 63.5428 69.3548C64.399 70.1628 65.701 70.163 66.5574 69.3548C71.331 64.851 80.5 54.6698 80.5 47.5294C80.5 36.4596 70.0618 28.6904 60.1 32.2229V12.3922C60.1 11.0927 59.0926 10.0392 57.85 10.0392H51.1V2.35294C51.1 1.05349 50.0926 0 48.85 0H29.65C28.4074 0 27.4 1.05349 27.4 2.35294V10.0392H20.65C19.4074 10.0392 18.4 11.0927 18.4 12.3922V35.1373H6.25C5.0074 35.1373 4 36.1907 4 37.4902V77.6471C4 78.9465 5.0074 80 6.25 80H78.25C79.4926 80 80.5 78.9465 80.5 77.6471C80.5 76.3476 79.4926 75.2941 78.25 75.2941ZM18.4 45.1765H15.85C14.6074 45.1765 13.6 46.23 13.6 47.5294C13.6 48.8289 14.6074 49.8824 15.85 49.8824H18.4V55.2157H15.85C14.6074 55.2157 13.6 56.2692 13.6 57.5686C13.6 58.8681 14.6074 59.9216 15.85 59.9216H18.4V65.2549H15.85C14.6074 65.2549 13.6 66.3084 13.6 67.6078C13.6 68.9073 14.6074 69.9608 15.85 69.9608H18.4V75.2941H8.5V39.8431H18.4V45.1765ZM31.9 4.70588H46.6V10.0392H31.9V4.70588ZM54.1 47.5294C54.1 41.2154 59.0122 36.0784 65.05 36.0784C71.0878 36.0784 76 41.2154 76 47.5294C76 51.838 69.8004 59.5674 65.05 64.3834C61.69 60.9768 54.1 52.3602 54.1 47.5294Z" fill="#3582CD"/>
<path d="M33.85 20.0784H30.25C29.0074 20.0784 28 21.1319 28 22.4313C28 23.7308 29.0074 24.7843 30.25 24.7843H33.85C35.0926 24.7843 36.1 23.7308 36.1 22.4313C36.1 21.1319 35.0926 20.0784 33.85 20.0784Z" fill="white"/>
<path d="M44.6499 24.7843H48.2499C49.4925 24.7843 50.4999 23.7308 50.4999 22.4313C50.4999 21.1319 49.4925 20.0784 48.2499 20.0784H44.6499C43.4073 20.0784 42.3999 21.1319 42.3999 22.4313C42.3999 23.7308 43.4073 24.7843 44.6499 24.7843Z" fill="white"/>
<path d="M33.85 30.1177H30.25C29.0074 30.1177 28 31.1712 28 32.4706C28 33.7701 29.0074 34.8236 30.25 34.8236H33.85C35.0926 34.8236 36.1 33.7701 36.1 32.4706C36.1 31.1712 35.0926 30.1177 33.85 30.1177Z" fill="white"/>
<path d="M50.4999 32.4706C50.4999 31.1712 49.4925 30.1177 48.2499 30.1177H44.6499C43.4073 30.1177 42.3999 31.1712 42.3999 32.4706C42.3999 33.7701 43.4073 34.8236 44.6499 34.8236H48.2499C49.4925 34.8236 50.4999 33.7701 50.4999 32.4706Z" fill="white"/>
<path d="M33.85 40.1569H30.25C29.0074 40.1569 28 41.2104 28 42.5098C28 43.8093 29.0074 44.8627 30.25 44.8627H33.85C35.0926 44.8627 36.1 43.8093 36.1 42.5098C36.1 41.2104 35.0926 40.1569 33.85 40.1569Z" fill="white"/>
<path d="M33.85 50.196H30.25C29.0074 50.196 28 51.2495 28 52.549C28 53.8484 29.0074 54.9019 30.25 54.9019H33.85C35.0926 54.9019 36.1 53.8484 36.1 52.549C36.1 51.2495 35.0926 50.196 33.85 50.196Z" fill="white"/>
<path d="M33.85 60.2354H30.25C29.0074 60.2354 28 61.2888 28 62.5883C28 63.8877 29.0074 64.9412 30.25 64.9412H33.85C35.0926 64.9412 36.1 63.8877 36.1 62.5883C36.1 61.2888 35.0926 60.2354 33.85 60.2354Z" fill="white"/>
<path d="M70.9002 47.5295C70.9002 46.23 69.8928 45.1765 68.6502 45.1765H61.4502C60.2076 45.1765 59.2002 46.23 59.2002 47.5295C59.2002 48.8289 60.2076 49.8824 61.4502 49.8824H68.6502C69.8928 49.8824 70.9002 48.8289 70.9002 47.5295Z" fill="#3582CD"/>
<rect x="8" y="39" width="11" height="36" fill="#3582CD"/>
<rect y="75" width="81" height="5" rx="2.5" fill="#212F3F"/>
<path d="M20.1176 44H16.3529C15.0535 44 14 45.0535 14 46.3529C14 47.6524 15.0535 48.7059 16.3529 48.7059H20.1176C21.4171 48.7059 22.4706 47.6524 22.4706 46.3529C22.4706 45.0535 21.4171 44 20.1176 44Z" fill="white"/>
<path d="M20.1176 51.7059H16.3529C15.0535 51.7059 14 52.7594 14 54.0589C14 55.3583 15.0535 56.4118 16.3529 56.4118H20.1176C21.4171 56.4118 22.4706 55.3583 22.4706 54.0589C22.4706 52.7594 21.4171 51.7059 20.1176 51.7059Z" fill="white"/>
<path d="M20.1176 59.4119H16.3529C15.0535 59.4119 14 60.4654 14 61.7648C14 63.0643 15.0535 64.1177 16.3529 64.1177H20.1176C21.4171 64.1177 22.4706 63.0643 22.4706 61.7648C22.4706 60.4654 21.4171 59.4119 20.1176 59.4119Z" fill="white"/>
<path d="M20.1176 67.1178H16.3529C15.0535 67.1178 14 68.1713 14 69.4707C14 70.7702 15.0535 71.8237 16.3529 71.8237H20.1176C21.4171 71.8237 22.4706 70.7702 22.4706 69.4707C22.4706 68.1713 21.4171 67.1178 20.1176 67.1178Z" fill="white"/>
<rect x="19" y="39" width="6" height="36" fill="#3582CD"/>
</g>
<defs>
<clipPath id="clip0_691_6259">
<rect width="80" height="80" fill="white" transform="translate(0.5)"/>
</clipPath>
</defs>
</svg>
