<svg width="216" height="265" viewBox="0 0 216 265" fill="none" xmlns="http://www.w3.org/2000/svg">
<path d="M111.41 40.4349C110.001 39.1187 108.776 37.9989 107.76 37C106.734 37.9989 105.507 39.1187 104.096 40.4349C87.0373 56.0992 42.9507 92.569 0 95.0544C0 95.0544 19.7499 214.914 106.171 264.122C106.704 264.414 107.224 264.709 107.76 265C108.282 264.709 108.817 264.414 109.339 264.122C195.759 214.914 215.523 95.0544 215.523 95.0544C172.556 92.569 128.485 56.0992 111.41 40.4349Z" fill="url(#paint0_linear_685_5919)" fill-opacity="0.82"/>
<path d="M111.3 43.7968C109.933 42.5202 108.747 41.4349 107.76 40.4669C106.765 41.4349 105.576 42.5214 104.207 43.7968C87.6682 58.9846 44.9225 94.3457 3.27686 96.7557C3.27686 96.7557 22.4255 212.971 106.218 260.684C106.737 260.967 107.239 261.252 107.76 261.534C108.266 261.25 108.786 260.966 109.292 260.684C193.085 212.971 212.246 96.7557 212.246 96.7557C170.587 94.3457 127.856 58.9846 111.3 43.7968Z" fill="url(#paint1_linear_685_5919)" fill-opacity="0.82"/>
<path d="M111.184 47.3206C109.861 46.086 108.714 45.0365 107.761 44.0994C106.799 45.0365 105.649 46.086 104.325 47.3206C88.3285 62.0096 46.9878 96.2076 6.71143 98.5387C6.71143 98.5387 25.2303 210.935 106.27 257.081C106.771 257.355 107.259 257.63 107.761 257.903C108.25 257.63 108.752 257.355 109.243 257.081C190.281 210.935 208.812 98.5387 208.812 98.5387C168.521 96.2076 127.194 62.0096 111.184 47.3206Z" fill="url(#paint2_linear_685_5919)" fill-opacity="0.82"/>
<path d="M111.066 50.8432C109.788 49.6505 108.681 48.6356 107.76 47.7318C106.83 48.6356 105.719 49.6505 104.439 50.8432C88.9863 65.0321 49.0519 98.0683 10.1436 100.322C10.1436 100.322 28.034 208.898 106.319 253.476C106.804 253.741 107.273 254.008 107.76 254.272C108.231 254.008 108.716 253.741 109.192 253.476C187.475 208.899 205.379 100.322 205.379 100.322C166.456 98.0695 126.534 65.0321 111.066 50.8432Z" fill="url(#paint3_linear_685_5919)" fill-opacity="0.82" stroke="url(#paint4_linear_685_5919)" strokeMiterlimit="10"/>
<path d="M111.047 51.4605C109.778 50.2752 108.677 49.2677 107.76 48.3689C106.837 49.2677 105.731 50.2765 104.461 51.4605C89.1029 65.5617 49.4142 98.3954 10.7466 100.634C10.7466 100.634 28.5259 208.541 106.329 252.843C106.811 253.106 107.279 253.371 107.761 253.636C108.229 253.371 108.713 253.106 109.184 252.843C186.983 208.541 204.776 100.634 204.776 100.634C166.095 98.3954 126.418 65.563 111.047 51.4605Z" fill="url(#paint5_linear_685_5919)" fill-opacity="0.82"/>
<path d="M110.996 52.9743C109.745 51.8063 108.663 50.8148 107.76 49.9296C106.85 50.8148 105.762 51.8063 104.51 52.9743C89.3855 66.8619 50.3006 99.1956 12.2207 101.399C12.2207 101.399 29.7296 207.665 106.35 251.295C106.825 251.553 107.285 251.816 107.76 252.073C108.222 251.816 108.697 251.553 109.161 251.295C185.779 207.667 203.302 101.399 203.302 101.399C165.209 99.1956 126.134 66.8619 110.996 52.9743Z" fill="url(#paint6_linear_685_5919)" fill-opacity="0.82"/>
<path d="M111.284 59.539C111.284 61.4836 109.708 63.0603 107.762 63.0603C105.818 63.0603 104.241 61.4836 104.241 59.539C104.241 57.5944 105.818 56.0177 107.762 56.0177C109.707 56.0177 111.284 57.5931 111.284 59.539Z" fill="white"/>
<path d="M21.6798 105.639C21.6798 107.584 20.1044 109.16 18.1585 109.16C16.2139 109.16 14.6372 107.584 14.6372 105.639C14.6372 103.695 16.2139 102.118 18.1585 102.118C20.1031 102.118 21.6798 103.695 21.6798 105.639Z" fill="white"/>
<path d="M198.795 105.639C198.795 107.584 197.218 109.16 195.272 109.16C193.328 109.16 191.751 107.584 191.751 105.639C191.751 103.695 193.328 102.118 195.272 102.118C197.217 102.118 198.795 103.695 198.795 105.639Z" fill="white"/>
<path d="M107.762 234.778C106.614 234.778 105.684 235.811 105.684 237.088C105.684 238.363 107.762 245.555 107.762 245.555C107.762 245.555 109.841 238.363 109.841 237.088C109.84 235.811 108.908 234.778 107.762 234.778ZM113.952 237.304C112.982 236.69 111.642 237.069 110.961 238.147C110.281 239.224 108.201 246.417 108.201 246.417C108.201 246.417 113.796 241.444 114.476 240.363C115.157 239.287 114.922 237.915 113.952 237.304ZM101.573 237.304C100.601 237.916 100.366 239.287 101.047 240.363C101.727 241.444 107.323 246.417 107.323 246.417C107.323 246.417 105.242 239.224 104.562 238.147C103.882 237.068 102.542 236.69 101.573 237.304Z" fill="white"/>
<path d="M124.476 86.3165C124.353 86.502 119.108 91.6591 119.108 91.6591L85.5591 160.769L115.424 151.349L92.0049 210.276L101.475 200.805L147.758 121.514L114.156 131.424L124.476 86.3165Z" fill="#B3D7FB"/>
<path d="M119.108 91.6591C118.612 92.405 76.0884 170.239 76.0884 170.239L105.953 160.82L92.0048 210.276L139.252 130.701L104.688 140.896L119.108 91.6591Z" fill="white"/>
<defs>
<linearGradient id="paint0_linear_685_5919" x1="107.761" y1="37" x2="107.761" y2="265" gradientUnits="userSpaceOnUse">
<stop stop-color="#AAD5FF"/>
<stop offset="0.21875" stop-color="#377ABB"/>
<stop offset="0.458333" stop-color="#377ABB"/>
<stop offset="0.71875" stop-color="#6EACE8"/>
<stop offset="1" stop-color="#075CAF"/>
</linearGradient>
<linearGradient id="paint1_linear_685_5919" x1="107.761" y1="40.4669" x2="107.761" y2="261.534" gradientUnits="userSpaceOnUse">
<stop stop-color="#AAD5FF"/>
<stop offset="0.21875" stop-color="#377ABB"/>
<stop offset="0.458333" stop-color="#377ABB"/>
<stop offset="0.71875" stop-color="#6EACE8"/>
<stop offset="1" stop-color="#075CAF"/>
</linearGradient>
<linearGradient id="paint2_linear_685_5919" x1="107.762" y1="44.0994" x2="107.762" y2="257.903" gradientUnits="userSpaceOnUse">
<stop stop-color="#AAD5FF"/>
<stop offset="0.21875" stop-color="#377ABB"/>
<stop offset="0.458333" stop-color="#377ABB"/>
<stop offset="0.71875" stop-color="#6EACE8"/>
<stop offset="1" stop-color="#075CAF"/>
</linearGradient>
<linearGradient id="paint3_linear_685_5919" x1="107.761" y1="47.7318" x2="107.761" y2="254.272" gradientUnits="userSpaceOnUse">
<stop stop-color="#AAD5FF"/>
<stop offset="0.21875" stop-color="#377ABB"/>
<stop offset="0.458333" stop-color="#377ABB"/>
<stop offset="0.71875" stop-color="#6EACE8"/>
<stop offset="1" stop-color="#075CAF"/>
</linearGradient>
<linearGradient id="paint4_linear_685_5919" x1="9.42324" y1="150.922" x2="206.1" y2="150.922" gradientUnits="userSpaceOnUse">
<stop offset="0.0056" stop-color="#DEE3E6"/>
<stop offset="0.2528" stop-color="#FFFDE5"/>
<stop offset="0.3953" stop-color="#F0ECD8"/>
<stop offset="0.5955" stop-color="#D6CDC1"/>
<stop offset="0.7865" stop-color="#EDEDEE"/>
<stop offset="1" stop-color="#D8D5BB"/>
</linearGradient>
<linearGradient id="paint5_linear_685_5919" x1="107.761" y1="48.3689" x2="107.761" y2="253.636" gradientUnits="userSpaceOnUse">
<stop stop-color="#AAD5FF"/>
<stop offset="0.21875" stop-color="#377ABB"/>
<stop offset="0.458333" stop-color="#377ABB"/>
<stop offset="0.71875" stop-color="#6EACE8"/>
<stop offset="1" stop-color="#075CAF"/>
</linearGradient>
<linearGradient id="paint6_linear_685_5919" x1="107.761" y1="49.9296" x2="107.761" y2="252.073" gradientUnits="userSpaceOnUse">
<stop stop-color="#AAD5FF"/>
<stop offset="0.21875" stop-color="#377ABB"/>
<stop offset="0.458333" stop-color="#377ABB"/>
<stop offset="0.71875" stop-color="#6EACE8"/>
<stop offset="1" stop-color="#075CAF"/>
</linearGradient>
</defs>
</svg>
