<svg width="31" height="18" viewBox="0 0 31 18" fill="none" xmlns="http://www.w3.org/2000/svg">
<path fill-rule="evenodd" clip-rule="evenodd" d="M10.7194 2.84785C11.0127 2.52683 11.1724 2.10225 11.1648 1.66354C11.1572 1.22483 10.9829 0.806251 10.6787 0.495988C10.3744 0.185726 9.96389 0.00800433 9.53366 0.000263828C9.10342 -0.00747668 8.68703 0.155368 8.37221 0.454493L1.17357 7.79261L0 8.98928L1.17357 10.186L8.37 17.5241C8.68307 17.8327 9.10249 18.0036 9.53793 17.9999C9.97337 17.9963 10.39 17.8184 10.698 17.5046C11.0061 17.1908 11.1809 16.7661 11.1849 16.3221C11.1889 15.8781 11.0217 15.4502 10.7194 15.1307L6.35721 10.6827H29.3393C29.7797 10.6827 30.2021 10.5043 30.5136 10.1867C30.825 9.86913 31 9.43841 31 8.98928C31 8.54016 30.825 8.10944 30.5136 7.79186C30.2021 7.47429 29.7797 7.29587 29.3393 7.29587H6.35721L10.7194 2.84785Z" fill="#F8F8F8"/>
</svg>
