<svg width="71" height="70" viewBox="0 0 71 70" fill="none" xmlns="http://www.w3.org/2000/svg">
<path d="M63.9104 61.9409H7.08984V25.8312C7.08984 24.179 8.42912 22.8397 10.0813 22.8397H60.9189C62.5711 22.8397 63.9104 24.179 63.9104 25.8312V61.9409Z" fill="white"/>
<path d="M10.0813 22.8397C8.42912 22.8397 7.08984 24.179 7.08984 25.8312V61.9409H11.577V22.8397H10.0813Z" fill="#E0E0E0"/>
<path d="M60.9189 21.0449H55.7983V17.0709C55.7983 16.2413 55.2299 15.52 54.4234 15.3258L51.1253 14.532C50.9415 14.0229 50.7315 13.522 50.4965 13.0323L52.2536 10.1826C52.6928 9.47019 52.5814 8.54883 51.9851 7.96175L47.7291 3.77073C47.1468 3.19726 46.2505 3.08972 45.5488 3.50897L42.6368 5.25C42.1279 5.01024 41.6071 4.79635 41.0773 4.60953L40.2711 1.36231C40.0725 0.561944 39.354 0 38.5292 0H32.5103C31.6855 0 30.967 0.561944 30.7683 1.36231L29.9659 4.59427C29.4356 4.77959 28.9141 4.99214 28.4045 5.23056L25.4792 3.4816C24.7774 3.06205 23.8811 3.16974 23.2988 3.74336L19.0427 7.93423C18.4464 8.52145 18.3351 9.44267 18.7743 10.1551L20.5231 12.9914C20.2869 13.4805 20.0755 13.9807 19.8902 14.4894L16.5766 15.2871C15.7701 15.4812 15.2019 16.2026 15.2019 17.0321V21.0449H10.0812C7.44204 21.0449 5.29492 23.192 5.29492 25.8312V48.7783C5.29492 49.7696 6.09858 50.5732 7.08979 50.5732C8.08101 50.5732 8.88467 49.7696 8.88467 48.7783V25.8312C8.88467 25.1714 9.42148 24.6346 10.0812 24.6346H60.919C61.5788 24.6346 62.1156 25.1714 62.1156 25.8312V43.992C62.1156 44.9832 62.9193 45.7869 63.9105 45.7869C64.9017 45.7869 65.7054 44.9832 65.7054 43.992V25.8312C65.7052 23.192 63.5581 21.0449 60.9189 21.0449ZM30.9451 20.0148C30.9451 17.4982 32.9884 15.451 35.5001 15.451C38.0117 15.451 40.055 17.4984 40.055 20.0148C40.055 20.369 40.0139 20.7136 39.9371 21.0449H31.0629C30.9863 20.7137 30.9451 20.3691 30.9451 20.0148ZM52.2085 21.0449H43.578C43.621 20.7073 43.6448 20.3639 43.6448 20.0148C43.6448 15.5189 39.991 11.8613 35.5001 11.8613C31.0092 11.8613 27.3554 15.5189 27.3554 20.0148C27.3554 20.3639 27.3792 20.7073 27.4221 21.0449H18.7916V18.4462L21.7036 17.7452C22.3299 17.5944 22.8272 17.1196 23.007 16.5013C23.2786 15.5668 23.6624 14.6598 24.1477 13.8054C24.4713 13.2355 24.4586 12.5348 24.1148 11.977L22.5806 9.48859L24.8285 7.27507L27.4112 8.8191C27.9571 9.14562 28.6353 9.15878 29.1935 8.85336C30.0664 8.37592 30.993 7.999 31.9473 7.73306C32.5702 7.5594 33.0516 7.06417 33.2074 6.43656L33.914 3.58974H37.1253L37.835 6.44853C37.9905 7.07434 38.4695 7.56868 39.0901 7.74353C40.0436 8.01231 40.969 8.39192 41.8405 8.87175C42.3994 9.17942 43.0797 9.16761 43.6273 8.84004L46.1994 7.30244L48.4474 9.51581L46.9068 12.0147C46.564 12.5708 46.5502 13.2693 46.8712 13.8385C47.354 14.6946 47.7351 15.6027 48.0039 16.5378C48.1823 17.1587 48.6807 17.6358 49.3089 17.787L52.2085 18.4849V21.0449Z" fill="#212F3F"/>
<path d="M68.7051 54.5557H46.1072C45.3749 54.5557 44.7162 55.0005 44.4425 55.6797L43.0774 59.0669H27.8905L26.5253 55.6796C26.2516 55.0003 25.5929 54.5557 24.8606 54.5557H2.29487C1.30365 54.5557 0.5 55.3593 0.5 56.3505V65.1726C0.5 67.8344 2.66551 69.9999 5.32731 69.9999H65.6727C68.3345 69.9999 70.5 67.8344 70.5 65.1726V56.3505C70.5 55.3593 69.6964 54.5557 68.7051 54.5557Z" fill="#377ABB"/>
<path d="M18.2705 41.87L29.1806 47.4894V44.0472L22.6563 40.7768L29.1806 37.5064V34.0641L18.2705 39.6835V41.87Z" fill="#377ABB"/>
<path d="M31.0854 47.6758H34.3813L40.5619 31.6727H37.2444L31.0854 47.6758Z" fill="#377ABB"/>
<path d="M41.8188 34.0671V37.5084L48.389 40.7768L41.8188 44.0453V47.4865L52.729 41.8908V39.6628L41.8188 34.0671Z" fill="#377ABB"/>
</svg>
