<svg width="125" height="46" viewBox="0 0 125 46" fill="none" xmlns="http://www.w3.org/2000/svg">
<path fillRule="evenodd" clipRule="evenodd" d="M17.5422 10.9502C18.5241 12.7016 19.3405 15.0056 20.1157 17.2262C32.4978 8.47938 47.5361 0.931511 56.0527 0.0870633C63.8354 -0.705258 67.5667 3.97569 65.0655 11.461C63.1637 17.1741 52.6108 34.6573 46.1097 34.3653C41.0349 34.1777 42.1719 27.3491 40.7249 23.7837C39.4432 25.2954 37.1592 29.0902 36.291 30.3099C27.7331 42.3511 22.3379 30.6435 19.6817 21.6465C12.3227 26.463 5.53188 31.8633 2.49319 36.5651C1.21157 38.5563 0.467507 40.2869 2.01786 42.2885L2.58624 42.9975L1.66648 42.7369C-0.938108 41.3712 0.0333741 37.7848 1.07728 35.7519C3.6922 30.5914 10.5344 24.1694 18.7616 18.1958C18.6582 17.81 18.5755 17.4556 18.4928 17.1115C17.9761 14.9222 17.5628 13.2438 17.5422 10.9502ZM21.3455 20.5727L21.3559 20.604C22.3275 23.0956 26.5857 34.3445 30.3066 32.0092C34.6682 29.2674 37.5724 16.7154 42.5852 19.8012C44.9521 21.2712 45.5104 26.0772 46.0479 28.6627C46.1306 29.0276 46.2028 29.4968 46.3888 29.8616C50.244 28.4125 57.5928 15.7145 59.1845 11.8989C59.6702 10.6896 61.3447 6.4673 59.9494 5.58115C56.5283 3.41269 44.7145 8.19791 41.1797 9.75127C36.1979 11.951 28.6115 15.9439 21.3455 20.5727ZM46.4819 30.0493C46.4922 30.0493 46.5025 30.0597 46.5128 30.0702C46.5025 30.0597 46.4922 30.0597 46.4819 30.0493Z" fill="#3582CD"/>
<path fillRule="evenodd" clipRule="evenodd" d="M5.3244 45.9999C5.9032 45.9999 6.35803 45.5307 6.35803 44.9573C6.35803 44.3839 5.9032 43.9148 5.3244 43.9148C4.75594 43.9148 4.29077 44.3839 4.29077 44.9573C4.29077 45.5307 4.75594 45.9999 5.3244 45.9999Z" fill="#3582CD"/>
<path d="M75.2156 24.5572C75.2156 25.4766 75.0767 26.2997 74.799 27.0263C74.5212 27.7381 74.1264 28.3387 73.6148 28.828C73.1177 29.3174 72.5183 29.6881 71.8165 29.9402C71.1147 30.1923 70.3326 30.3184 69.47 30.3184C68.6074 30.3184 67.8253 30.1849 67.1235 29.918C66.4217 29.651 65.815 29.2729 65.3033 28.7835C64.8062 28.2793 64.4188 27.6714 64.141 26.9596C63.8633 26.2478 63.7244 25.447 63.7244 24.5572C63.7244 23.6823 63.8633 22.889 64.141 22.1772C64.4188 21.4654 64.8062 20.8648 65.3033 20.3754C65.815 19.8712 66.4217 19.4857 67.1235 19.2187C67.8253 18.9518 68.6074 18.8184 69.47 18.8184C70.3326 18.8184 71.1147 18.9592 71.8165 19.241C72.5183 19.5079 73.1177 19.8935 73.6148 20.3977C74.1264 20.887 74.5212 21.4876 74.799 22.1994C75.0767 22.9112 75.2156 23.6971 75.2156 24.5572ZM67.5402 24.5572C67.5402 25.4618 67.7083 26.1588 68.0446 26.6481C68.3954 27.1227 68.8779 27.3599 69.4919 27.3599C70.106 27.3599 70.5738 27.1153 70.8954 26.6259C71.2317 26.1365 71.3998 25.447 71.3998 24.5572C71.3998 23.6675 71.2317 22.9853 70.8954 22.5108C70.5592 22.0215 70.084 21.7768 69.47 21.7768C68.856 21.7768 68.3808 22.0215 68.0446 22.5108C67.7083 22.9853 67.5402 23.6675 67.5402 24.5572Z" fill="#F8971C"/>
<path d="M81.4794 33.4359C81.354 33.4735 81.1534 33.5111 80.8777 33.5488C80.6144 33.5864 80.3386 33.6052 80.0503 33.6052C79.7745 33.6052 79.5238 33.5864 79.2981 33.5488C79.085 33.5111 78.9032 33.4359 78.7528 33.323C78.6024 33.21 78.4833 33.0595 78.3955 32.8713C78.3203 32.6706 78.2827 32.4134 78.2827 32.0998V26.4543C78.2827 26.1658 78.3329 25.9211 78.4331 25.7204C78.546 25.5071 78.7027 25.319 78.9032 25.1559C79.1038 24.9928 79.3483 24.8485 79.6366 24.723C79.9375 24.585 80.2571 24.4659 80.5956 24.3655C80.9341 24.2651 81.2851 24.1899 81.6486 24.1397C82.0122 24.077 82.3757 24.0456 82.7392 24.0456C83.341 24.0456 83.8173 24.1648 84.1683 24.4031C84.5193 24.629 84.6948 25.0053 84.6948 25.5322C84.6948 25.7079 84.6698 25.8835 84.6196 26.0591C84.5695 26.2222 84.5068 26.3728 84.4316 26.5108C84.1683 26.5108 83.8988 26.5233 83.623 26.5484C83.3472 26.5735 83.0777 26.6111 82.8145 26.6613C82.5512 26.7115 82.3005 26.768 82.0623 26.8307C81.8367 26.8809 81.6423 26.9436 81.4794 27.0189V33.4359Z" fill="#F8971C"/>
<path d="M94.9455 31.7987C94.8828 32.3883 94.7073 32.84 94.419 33.1536C94.1432 33.4672 93.7357 33.624 93.1967 33.624C92.7955 33.624 92.4383 33.53 92.1249 33.3418C91.8115 33.141 91.473 32.8086 91.1095 32.3444L89.2479 30.011V33.4359C89.11 33.461 88.9031 33.4923 88.6274 33.53C88.3641 33.5801 88.0946 33.6052 87.8188 33.6052C87.543 33.6052 87.2923 33.5864 87.0666 33.5488C86.8535 33.5111 86.6717 33.4359 86.5213 33.323C86.3709 33.21 86.2518 33.0595 86.164 32.8713C86.0888 32.6706 86.0512 32.4134 86.0512 32.0998V21.2041C86.1891 21.1664 86.3897 21.1288 86.6529 21.0911C86.9287 21.041 87.2045 21.0159 87.4803 21.0159C87.7561 21.0159 88.0006 21.0347 88.2137 21.0723C88.4393 21.11 88.6274 21.1852 88.7778 21.2981C88.9282 21.4111 89.041 21.5679 89.1163 21.7686C89.204 21.9568 89.2479 22.2077 89.2479 22.5213V27.4893L92.4822 24.1773C93.134 24.1773 93.6543 24.3216 94.0429 24.6101C94.444 24.8987 94.6446 25.2625 94.6446 25.7016C94.6446 25.8898 94.6133 26.0654 94.5506 26.2285C94.4879 26.379 94.3876 26.5359 94.2497 26.699C94.1244 26.862 93.9551 27.0377 93.742 27.2259C93.5414 27.4015 93.3033 27.6085 93.0275 27.8469L91.9368 28.7878L94.9455 31.7987Z" fill="#F8971C"/>
<path d="M99.9978 21.731C100.712 21.731 101.345 21.8251 101.897 22.0132C102.449 22.1889 102.919 22.4335 103.307 22.7471C103.696 23.0608 103.991 23.4309 104.191 23.8574C104.392 24.284 104.492 24.7419 104.492 25.2311C104.492 26.5484 103.746 27.803 102.254 28.9948L99.791 30.9707H104.304C104.379 31.1087 104.448 31.2843 104.511 31.4976C104.586 31.7109 104.624 31.943 104.624 32.1939C104.624 32.6455 104.523 32.9717 104.323 33.1724C104.122 33.3606 103.859 33.4547 103.533 33.4547H97.008C96.7322 33.2665 96.5128 33.0281 96.3499 32.7396C96.1994 32.4385 96.1242 32.0872 96.1242 31.6858C96.1242 31.2592 96.212 30.9017 96.3875 30.6131C96.563 30.312 96.7573 30.0737 96.9704 29.898L99.5653 27.6775C99.8913 27.4015 100.161 27.1569 100.374 26.9436C100.587 26.7178 100.756 26.517 100.882 26.3414C101.02 26.1658 101.114 26.0027 101.164 25.8521C101.226 25.7016 101.258 25.5573 101.258 25.4193C101.258 25.068 101.101 24.792 100.788 24.5913C100.487 24.3906 100.111 24.2902 99.6594 24.2902C99.1579 24.2902 98.7066 24.3718 98.3055 24.5349C97.9169 24.6854 97.5909 24.8485 97.3277 25.0241C97.1146 24.8736 96.9391 24.6854 96.8012 24.4596C96.6633 24.2338 96.5943 23.9703 96.5943 23.6692C96.5943 23.0169 96.9015 22.5339 97.5157 22.2202C98.13 21.8941 98.9573 21.731 99.9978 21.731Z" fill="#F8971C"/>
<path d="M110.576 22.145C110.815 22.0697 111.084 22.007 111.385 21.9568C111.698 21.9066 111.981 21.8815 112.231 21.8815C112.52 21.8815 112.795 21.9129 113.059 21.9756C113.334 22.0258 113.579 22.1199 113.792 22.2579C114.005 22.3833 114.174 22.559 114.3 22.7848C114.425 23.0106 114.488 23.2929 114.488 23.6316V28.6372H116.161C116.236 28.7752 116.312 28.9571 116.387 29.183C116.462 29.4088 116.5 29.6471 116.5 29.898C116.5 30.3748 116.393 30.7135 116.18 30.9142C115.967 31.115 115.697 31.2153 115.371 31.2153H114.488V33.4359C114.35 33.461 114.143 33.4923 113.867 33.53C113.591 33.5801 113.328 33.6052 113.077 33.6052C112.802 33.6052 112.557 33.5927 112.344 33.5676C112.131 33.5425 111.949 33.486 111.799 33.3982C111.661 33.2979 111.554 33.1599 111.479 32.9842C111.404 32.8086 111.366 32.5702 111.366 32.2691V31.2153H106.646C106.358 31.0648 106.107 30.8452 105.894 30.5567C105.694 30.2556 105.593 29.8918 105.593 29.4652C105.593 29.2269 105.625 28.9634 105.687 28.6749C105.75 28.3863 105.857 28.1354 106.007 27.9221L110.576 22.145ZM111.535 25.0994H111.479L108.978 28.6372H111.535V25.0994Z" fill="#F8971C"/>
<path d="M124.173 22.0132C124.386 22.1512 124.574 22.3457 124.737 22.5966C124.912 22.835 125 23.136 125 23.4999C125 23.7006 124.981 23.9076 124.944 24.1209C124.906 24.3216 124.843 24.5223 124.756 24.723L120.844 33.5864C120.669 33.599 120.5 33.6052 120.337 33.6052C120.186 33.6052 120.042 33.6052 119.904 33.6052C119.34 33.6052 118.883 33.4986 118.532 33.2853C118.181 33.072 118.005 32.702 118.005 32.175C118.005 31.9116 118.068 31.6293 118.193 31.3282C118.318 31.0146 118.488 30.6445 118.701 30.218L121.446 24.5913H116.839C116.764 24.4533 116.689 24.2714 116.614 24.0456C116.538 23.8198 116.501 23.5814 116.501 23.3305C116.501 22.8538 116.607 22.515 116.82 22.3143C117.034 22.1136 117.303 22.0132 117.629 22.0132H124.173Z" fill="#F8971C"/>
<rect x="66.8577" y="31.3633" width="10.4466" height="2.09091" rx="1.04545" fill="#3582CD"/>
</svg>
