<svg width="71" height="70" viewBox="0 0 71 70" fill="none" xmlns="http://www.w3.org/2000/svg">
<g clip-path="url(#clip0_628_1170)">
<path d="M29.3237 62.3139H16.4214V49.559C16.4214 48.7344 17.09 48.0663 17.9141 48.0663H27.831C28.655 48.0663 29.3237 48.7344 29.3237 49.559V62.3139Z" fill="#3582CD"/>
<path d="M48.539 62.3139H35.6372V40.7064C35.6372 39.8819 36.3053 39.2137 37.1299 39.2137H47.0463C47.8709 39.2137 48.539 39.8819 48.539 40.7064V62.3139Z" fill="#3582CD"/>
<path d="M67.7553 62.3138H54.8535V30.413C54.8535 29.5884 55.5216 28.9203 56.3457 28.9203H66.2626C67.0872 28.9203 67.7553 29.5884 67.7553 30.413V62.3138Z" fill="#3582CD"/>
<path d="M0.5 63.5492C0.5 62.3069 1.5067 61.3008 2.74838 61.3008H68.2516C69.4933 61.3008 70.5 62.3075 70.5 63.5492C70.5 64.7908 69.4933 65.7975 68.2516 65.7975H2.74838C1.5067 65.7975 0.5 64.7908 0.5 63.5492Z" fill="#212F3F"/>
<path d="M10.4793 70C9.23766 70 8.23096 68.9933 8.23096 67.7516V2.24838C8.23096 1.0067 9.23766 0 10.4793 0C11.7216 0 12.7277 1.0067 12.7277 2.24838V67.7516C12.7277 68.9933 11.7216 70 10.4793 70Z" fill="#212F3F"/>
<path d="M66.6575 3.01052L56.685 8.43815C54.936 9.38984 54.8628 11.8743 56.5531 12.9274L59.1572 14.551C55.7109 19.2475 51.3188 23.4366 46.046 27.0447C40.478 30.8542 33.9208 34.0329 26.5562 36.4911C23.4389 37.532 20.4364 38.3545 17.6796 39.0033C16.4721 39.2875 15.6187 40.3631 15.6187 41.6037C15.6187 43.3265 17.2246 44.6013 18.901 44.2051C21.7539 43.5311 24.8627 42.6782 28.1092 41.5999C35.9684 38.9884 42.9939 35.5891 48.9908 31.4966C54.9178 27.4517 59.8472 22.7189 63.6993 17.382L66.0433 18.8432C67.7336 19.8969 69.9318 18.7369 70.0162 16.7476L70.4973 5.40417C70.5833 3.38436 68.4327 2.04441 66.6575 3.01052Z" fill="#3582CD"/>
</g>
<defs>
<clipPath id="clip0_628_1170">
<rect width="70" height="70" fill="white" transform="translate(0.5)"/>
</clipPath>
</defs>
</svg>
