<svg width="40" height="40" viewBox="0 0 40 40" fill="none" xmlns="http://www.w3.org/2000/svg">
<path d="M33.4167 18.332H6.58333C5.70888 18.332 5 19.0409 5 19.9154V20.082C5 20.9565 5.70888 21.6654 6.58333 21.6654H33.4167C34.2911 21.6654 35 20.9565 35 20.082V19.9154C35 19.0409 34.2911 18.332 33.4167 18.332Z" fill="#3582CD"/>
<path d="M33.4167 26.6655H6.58333C5.70888 26.6655 5 27.3744 5 28.2489V28.4155C5 29.29 5.70888 29.9989 6.58333 29.9989H33.4167C34.2911 29.9989 35 29.29 35 28.4155V28.2489C35 27.3744 34.2911 26.6655 33.4167 26.6655Z" fill="#3582CD"/>
<path d="M33.4167 9.99878H6.58333C5.70888 9.99878 5 10.7077 5 11.5821V11.7488C5 12.6232 5.70888 13.3321 6.58333 13.3321H33.4167C34.2911 13.3321 35 12.6232 35 11.7488V11.5821C35 10.7077 34.2911 9.99878 33.4167 9.99878Z" fill="#3582CD"/>
</svg>
