<svg width="25" height="24" viewBox="0 0 25 24" fill="none" xmlns="http://www.w3.org/2000/svg">
<path d="M18.647 10.79V14.79C18.647 15.05 18.637 15.3 18.607 15.54C18.377 18.24 16.787 19.58 13.857 19.58H13.457C13.207 19.58 12.967 19.7 12.817 19.9L11.617 21.5C11.087 22.21 10.227 22.21 9.69699 21.5L8.49698 19.9C8.36698 19.73 8.07699 19.58 7.85699 19.58H7.457C4.267 19.58 2.66699 18.79 2.66699 14.79V10.79C2.66699 7.86001 4.017 6.27001 6.707 6.04001C6.947 6.01001 7.197 6 7.457 6H13.857C17.047 6 18.647 7.60001 18.647 10.79Z" stroke="#999999" strokeWidth="1.5" strokeMiterlimit="10" strokeLinecap="round" strokeLinejoin="round"/>
<path d="M22.647 6.79001V10.79C22.647 13.73 21.297 15.31 18.607 15.54C18.637 15.3 18.647 15.05 18.647 14.79V10.79C18.647 7.60001 17.047 6 13.857 6H7.45703C7.19703 6 6.94703 6.01001 6.70703 6.04001C6.93703 3.35001 8.52703 2 11.457 2H17.857C21.047 2 22.647 3.60001 22.647 6.79001Z" stroke="#999999" strokeWidth="1.5" strokeMiterlimit="10" strokeLinecap="round" strokeLinejoin="round"/>
<path d="M14.1625 13.25H14.1715" stroke="#999999" strokeWidth="2" strokeLinecap="round" strokeLinejoin="round"/>
<path d="M10.6625 13.25H10.6715" stroke="#999999" strokeWidth="2" strokeLinecap="round" strokeLinejoin="round"/>
<path d="M7.16249 13.25H7.17149" stroke="#999999" strokeWidth="2" strokeLinecap="round" strokeLinejoin="round"/>
</svg>
