<svg width="71" height="70" viewBox="0 0 71 70" fill="none" xmlns="http://www.w3.org/2000/svg">
<g clip-path="url(#clip0_629_1215)">
<path d="M44.8102 0H14.5812C13.0192 0 11.7529 1.26629 11.7529 2.82816V37.0497C11.7529 38.6117 13.0192 39.8779 14.5811 39.8779H44.8102C46.054 39.8779 47.1079 39.0738 47.4866 37.9579H49.4436V2.0423H47.5254C47.1847 0.863105 46.0991 0 44.8102 0Z" fill="#212F3F"/>
<path d="M48.803 0H44.8105C46.3726 0 47.6387 1.26629 47.6387 2.82816V37.0497C47.6387 38.6117 46.3724 39.8779 44.8105 39.8779H48.803C50.365 39.8779 51.6312 38.6116 51.6312 37.0497V2.82816C51.6312 1.26629 50.3649 0 48.803 0Z" fill="#46576B"/>
<path d="M23.4393 7.2534L22.1976 5.61182H18.2051C16.6431 5.61182 15.377 6.87811 15.377 8.43998V39.8778H48.803C50.3651 39.8778 51.6312 38.6115 51.6312 37.0496V7.2534H23.4393Z" fill="#46576B"/>
<path d="M57.5107 8.43998H55.2547C55.2547 6.87797 53.9884 5.61182 52.4265 5.61182H22.1973C20.6353 5.61182 19.3691 6.87811 19.3691 8.43998V42.6615C19.3691 44.2235 20.6354 45.4897 22.1973 45.4897H52.4265C53.5416 45.4897 54.5031 44.8426 54.9636 43.9048H57.5105V8.43998H57.5107Z" fill="#EAF6FF"/>
<path d="M56.4187 5.61182H52.4263C53.9883 5.61182 55.2544 6.87811 55.2544 8.43998V42.6615C55.2544 44.2235 53.9881 45.4897 52.4263 45.4897H56.4187C57.9807 45.4897 59.2469 44.2234 59.2469 42.6615V8.43998C59.247 6.87811 57.9807 5.61182 56.4187 5.61182Z" fill="#D8ECFE"/>
<path d="M35.9497 12.6053H24.4953C23.9119 12.6053 23.439 12.1323 23.439 11.549C23.439 10.9654 23.9119 10.4927 24.4953 10.4927H35.9497C36.5332 10.4927 37.006 10.9656 37.006 11.549C37.006 12.1323 36.5331 12.6053 35.9497 12.6053Z" fill="#82AEE3"/>
<path d="M30.2224 19.0188H24.4953C23.9119 19.0188 23.439 18.5459 23.439 17.9625C23.439 17.3792 23.9119 16.9062 24.4953 16.9062H30.2224C30.8058 16.9062 31.2787 17.3792 31.2787 17.9625C31.2787 18.5459 30.8058 19.0188 30.2224 19.0188Z" fill="#82AEE3"/>
<path d="M30.2224 24.2298H24.4953C23.9119 24.2298 23.439 23.7569 23.439 23.1735C23.439 22.5901 23.9119 22.1172 24.4953 22.1172H30.2224C30.8058 22.1172 31.2787 22.5901 31.2787 23.1735C31.2787 23.7569 30.8058 24.2298 30.2224 24.2298Z" fill="#82AEE3"/>
<path d="M54.121 19.0188H35.9498C35.3665 19.0188 34.8936 18.5459 34.8936 17.9625C34.8936 17.3792 35.3665 16.9062 35.9498 16.9062H54.121C54.7045 16.9062 55.1773 17.3792 55.1773 17.9625C55.1773 18.5459 54.7045 19.0188 54.121 19.0188Z" fill="#82AEE3"/>
<path d="M54.121 24.2298H35.9498C35.3665 24.2298 34.8936 23.7569 34.8936 23.1735C34.8936 22.5901 35.3665 22.1172 35.9498 22.1172H54.121C54.7045 22.1172 55.1773 22.5901 55.1773 23.1735C55.1773 23.7569 54.7045 24.2298 54.121 24.2298Z" fill="#82AEE3"/>
<path d="M30.2224 29.4409H24.4953C23.9119 29.4409 23.439 28.968 23.439 28.3847C23.439 27.8013 23.9119 27.3284 24.4953 27.3284H30.2224C30.8058 27.3284 31.2787 27.8013 31.2787 28.3847C31.2787 28.968 30.8058 29.4409 30.2224 29.4409Z" fill="#82AEE3"/>
<path d="M54.121 29.4409H35.9498C35.3665 29.4409 34.8936 28.968 34.8936 28.3847C34.8936 27.8013 35.3665 27.3284 35.9498 27.3284H54.121C54.7045 27.3284 55.1773 27.8013 55.1773 28.3847C55.1773 28.968 54.7045 29.4409 54.121 29.4409Z" fill="#82AEE3"/>
<path d="M64.0323 36.3016C64.0323 34.7396 62.7661 33.4735 61.2041 33.4735H26.8665H24.9426L21.7443 27.6002H19.8009C19.4349 26.9007 18.711 26.4625 17.9217 26.4624H5.09678C3.92523 26.4624 2.97559 27.4121 2.97559 28.5836V67.1721C2.97559 68.7341 4.24187 70.0002 5.80375 70.0002H61.204C62.766 70.0002 64.0321 68.7341 64.0321 67.1721H65.9696V36.3016H64.0323Z" fill="#377ABB"/>
<path d="M19.8009 27.5999L22.874 33.4732H26.8665L23.7933 27.5999C23.4273 26.9005 22.7033 26.4622 21.9138 26.4622H17.9214C18.7108 26.4622 19.4349 26.9005 19.8009 27.5999Z" fill="#256EB4"/>
<path d="M65.1966 33.4731H61.2041C62.7661 33.4731 64.0323 34.7393 64.0323 36.3013V67.1716C64.0323 68.7336 62.7661 69.9997 61.2041 69.9997H65.1966C66.7586 69.9997 68.0247 68.7336 68.0247 67.1716V36.3014C68.0249 34.7394 66.7586 33.4731 65.1966 33.4731Z" fill="#256EB4"/>
<path d="M52.1161 65.7752H18.8844C17.5567 65.7752 16.4805 64.699 16.4805 63.3713V40.4279C16.4805 39.1002 17.5567 38.0239 18.8844 38.0239H52.1159C53.4436 38.0239 54.5199 39.1002 54.5199 40.4279V63.3712C54.52 64.699 53.4437 65.7752 52.1161 65.7752Z" fill="#46576B"/>
<path d="M44.2239 65.7751H26.7764V64.6295C26.7764 59.8115 30.6821 55.9058 35.5001 55.9058C40.3181 55.9058 44.2239 59.8115 44.2239 64.6295V65.7751Z" fill="#EAF6FF"/>
<path d="M35.5003 55.9058C39.1909 55.9058 42.1827 52.914 42.1827 49.2234C42.1827 45.5328 39.1909 42.541 35.5003 42.541C31.8097 42.541 28.8179 45.5328 28.8179 49.2234C28.8179 52.914 31.8097 55.9058 35.5003 55.9058Z" fill="#EAF6FF"/>
</g>
<defs>
<clipPath id="clip0_629_1215">
<rect width="70" height="70" fill="white" transform="translate(0.5)"/>
</clipPath>
</defs>
</svg>
