<svg width="71" height="70" viewBox="0 0 71 70" fill="none" xmlns="http://www.w3.org/2000/svg">
<g clip-path="url(#clip0_614_993)">
<path d="M53.7085 62.3272L64.172 42.4101L65.7613 39.3859C65.9313 39.0596 66.0762 38.7273 66.1958 38.3914C66.7598 36.8135 66.7694 35.1391 66.3001 33.6115C65.7266 31.738 64.4346 30.083 62.5612 29.0981L25.854 9.81405C23.7894 8.72864 21.3078 8.80972 19.3166 10.0208L5.36912 18.5106C4.60814 18.9741 3.96324 19.5766 3.45711 20.2718C2.67111 21.3475 2.21926 22.6492 2.18645 24.0127C2.18453 24.0783 2.18262 24.1441 2.18262 24.2078C2.18262 24.3293 2.18645 24.4512 2.19424 24.5746L2.20969 24.818L2.96082 37.3556L3.16357 40.7584C3.30453 43.0779 4.64287 45.156 6.70158 46.2374L43.4227 65.5287C47.1461 67.4854 51.752 66.0525 53.7085 62.3272ZM13.801 27.2998C13.7546 27.2535 13.7142 27.2071 13.6696 27.1627C13.5672 27.0507 13.4726 26.9348 13.3858 26.8189C12.0861 25.0846 12.2252 22.6202 13.801 21.0463C15.5275 19.3179 18.324 19.3179 20.0545 21.0463C21.4527 22.4445 21.7174 24.5439 20.8521 26.2085C20.8289 26.2568 20.8019 26.3071 20.771 26.3552C20.7459 26.4035 20.7169 26.4499 20.6861 26.4981C20.5993 26.6391 20.5027 26.7781 20.3983 26.9114C20.3674 26.952 20.3326 26.9944 20.2978 27.033C20.2206 27.1237 20.1394 27.2106 20.0545 27.2996C18.3239 29.0263 15.5275 29.0263 13.801 27.2998Z" fill="#212F3F"/>
<path d="M53.7088 62.3272L64.1723 42.4101L65.7616 39.3859C65.9316 39.0596 66.0765 38.7273 66.1961 38.3914C66.7601 36.8135 66.7697 35.1391 66.3004 33.6115C65.7269 31.738 64.4349 30.083 62.5615 29.0981L25.8543 9.81419C23.7897 8.72878 21.3081 8.80985 19.3169 10.0208L5.36941 18.5106C4.60939 18.9735 3.96518 19.5751 3.45932 20.2693L3.12805 20.8217C2.49805 21.8725 2.18359 23.0542 2.18359 24.2356C2.18387 24.3015 2.18729 24.3679 2.18988 24.4342C2.19139 24.4868 2.19262 24.5393 2.19535 24.592L2.20602 24.7616C2.28627 25.7719 2.59594 26.7677 3.13885 27.6666L9.75959 38.6244L11.5235 41.5432C11.9077 42.1781 12.3895 42.7333 12.942 43.1963L26.2566 56.5109L43.4226 65.5291C47.1464 67.4854 51.7525 66.0525 53.7088 62.3272ZM20.8523 26.2087C20.829 26.2569 20.8021 26.3073 20.7712 26.3554C20.746 26.4036 20.717 26.45 20.6863 26.4982C20.5995 26.6392 20.5028 26.7782 20.3986 26.9116C20.3677 26.952 20.3329 26.9945 20.2981 27.0331C20.2209 27.1239 20.1397 27.2107 20.0548 27.2997C18.3245 29.0262 15.5279 29.0262 13.8013 27.2997C13.7549 27.2533 13.7145 27.207 13.6699 27.1626C13.5675 27.0506 13.4729 26.9347 13.3861 26.8189C12.0863 25.0844 12.2253 22.6202 13.8013 21.0463C15.5278 19.3179 18.3243 19.3179 20.0548 21.0463C21.4529 22.4445 21.7174 24.5439 20.8523 26.2087Z" fill="#212F3F"/>
<path d="M17.2027 44.7468H62.8831C67.0896 44.7468 70.5002 41.3365 70.5002 37.1298V11.2147C70.5002 7.00604 67.0899 3.59546 62.8831 3.59546H17.2179C14.8863 3.59546 12.7265 4.82005 11.5279 6.81888L3.12789 20.8216C1.8642 22.9291 1.86858 25.563 3.13869 27.6664L9.75944 38.6242L11.5234 41.543C12.7264 43.5311 14.8776 44.7468 17.2027 44.7468ZM20.8522 26.2093C20.8283 26.2571 20.8023 26.3072 20.7719 26.355C20.7457 26.4029 20.7174 26.4507 20.6871 26.4986C20.6001 26.6399 20.5023 26.7791 20.3978 26.9119C20.3673 26.9532 20.3326 26.9945 20.2977 27.0336C20.2216 27.125 20.1389 27.2118 20.0541 27.2989C18.325 29.0258 15.5279 29.0258 13.8008 27.2989C13.7552 27.2533 13.7139 27.2075 13.6703 27.1619C13.568 27.0511 13.4723 26.9358 13.3854 26.8182C12.0869 25.0846 12.2261 22.6204 13.8008 21.0457C15.5277 19.3188 18.3249 19.3188 20.0541 21.0457C21.4526 22.4442 21.718 24.5431 20.8522 26.2093Z" fill="#3582CD"/>
<path d="M59.6774 44.7475H37.1586L23.5436 31.1325C22.9846 30.6921 22.7036 30.2404 22.7036 29.7769C22.7036 29.4988 22.8064 29.2194 23.0122 28.9398C23.2178 28.6617 23.4526 28.5213 23.7174 28.5213C23.8782 28.5213 24.0722 28.6169 24.301 28.8036C24.5284 28.9919 24.7529 29.196 24.973 29.4133C25.1931 29.6319 25.5262 29.8361 25.9753 30.0244C26.4228 30.2126 26.9254 30.3053 27.4844 30.3053C28.3215 30.3053 28.9935 30.1068 29.5004 29.7087C29.7524 29.5088 29.9437 29.2641 30.0696 28.9715C30.0464 28.9469 30.0233 28.9223 30.0002 28.8948L24.5706 23.4653C24.304 23.2379 24.0608 22.9801 23.8378 22.6876C23.3454 22.0373 23.1006 21.2249 23.1006 20.2502C23.1006 19.4739 23.2512 18.8006 23.5525 18.2284C23.8523 17.6579 24.2607 17.2175 24.7748 16.9105C25.289 16.6019 25.8276 16.3789 26.3939 16.24C26.9587 16.1009 27.5569 16.0315 28.1897 16.0315C28.5851 16.0315 29.0007 16.0561 29.4339 16.1082C29.8669 16.1588 30.2971 16.2415 30.7229 16.3587C31.1486 16.4745 31.5005 16.641 31.7801 16.8597L36.5579 21.6476L59.272 44.4139C59.343 44.4574 59.4111 44.5037 59.4734 44.5529C59.5527 44.6158 59.6208 44.681 59.6774 44.7475Z" fill="url(#paint0_linear_614_993)"/>
<path d="M67.6138 43.0994C66.3147 44.1305 64.6695 44.7475 62.8823 44.7475H46.9531L34.1201 31.9146C33.8131 31.7249 33.6597 31.4974 33.6597 31.2325C33.6597 31.1457 33.6654 31.0789 33.6814 31.0355L36.5576 21.648L38.055 16.7573C38.2418 16.2301 38.7646 15.965 39.6221 15.965C40.4838 15.965 41.011 16.2068 41.2035 16.6877L47.1776 22.6617L67.6138 43.0994Z" fill="url(#paint1_linear_614_993)"/>
<path d="M70.4797 37.7033C70.345 39.4933 69.592 41.1138 68.4334 42.3449C68.1799 42.6157 67.9062 42.8692 67.6138 43.0994C66.3147 44.1305 64.6695 44.7476 62.8823 44.7476H60.2423L47.4863 31.9914C47.2807 31.8524 47.1777 31.6641 47.1777 31.4295V16.8472C47.1777 16.5966 47.2922 16.4099 47.5195 16.2853C47.747 16.1608 48.022 16.097 48.345 16.097C48.6681 16.097 48.9432 16.1608 49.1721 16.2853L57.6862 24.8444L70.4797 37.7033Z" fill="url(#paint2_linear_614_993)"/>
<path d="M70.5 19.8307V37.1299C70.5 37.3225 70.4928 37.5136 70.4796 37.7033C70.345 39.4933 69.5919 41.1138 68.4334 42.3449L57.9945 31.9913C57.7888 31.8522 57.686 31.664 57.686 31.4294V16.869C57.686 16.6344 57.7888 16.4461 57.9945 16.307C58.2001 16.168 58.442 16.097 58.7215 16.097H66.5637C66.8128 16.097 67.0041 16.1999 67.1358 16.4055L70.5 19.8307Z" fill="url(#paint3_linear_614_993)"/>
<path d="M22.7036 29.7776C22.7036 29.4987 22.8062 29.2196 23.0121 28.9405C23.2175 28.6617 23.4527 28.522 23.717 28.522C23.8784 28.522 24.0729 28.6165 24.3009 28.8046C24.5285 28.9929 24.7525 29.1959 24.9727 29.4141C25.193 29.6323 25.5269 29.8357 25.9752 30.024C26.423 30.2123 26.9258 30.3062 27.4841 30.3062C28.3213 30.3062 28.9931 30.1069 29.4999 29.7083C30.0064 29.3098 30.2599 28.7264 30.2599 27.9585C30.2599 27.2501 30.0138 26.6595 29.5221 26.1867C29.0299 25.7145 28.435 25.338 27.7376 25.0571C27.0399 24.7767 26.3387 24.474 25.6339 24.1492C24.929 23.8242 24.3304 23.3372 23.8385 22.6873C23.3463 22.0377 23.1006 21.2257 23.1006 20.2509C23.1006 19.4744 23.251 18.8005 23.5522 18.229C23.8531 17.6577 24.2606 17.2181 24.7749 16.9104C25.2888 16.6026 25.8285 16.3793 26.3941 16.2402C26.9591 16.1011 27.5577 16.0312 28.1893 16.0312C28.5858 16.0312 29.0006 16.0568 29.4341 16.1077C29.8671 16.1584 30.2968 16.2419 30.7229 16.3583C31.1487 16.4746 31.5012 16.6414 31.7802 16.8594C32.059 17.0773 32.1987 17.3239 32.1987 17.6001C32.1987 17.8763 32.1105 18.1542 31.9343 18.4348C31.7581 18.7153 31.5229 18.8553 31.2294 18.8553C31.0826 18.8553 30.8842 18.7854 30.6347 18.645C30.3847 18.5046 30.0507 18.3645 29.6322 18.2241C29.2137 18.0839 28.7324 18.0138 28.1893 18.0138C27.3522 18.0138 26.6839 18.1801 26.1847 18.5121C25.6853 18.8445 25.4359 19.3504 25.4359 20.0293C25.4359 20.4723 25.5681 20.8526 25.8324 21.1701C26.0968 21.4874 26.4382 21.7498 26.8567 21.9561C27.2754 22.1629 27.7413 22.3661 28.2556 22.5653C28.7696 22.7646 29.2799 22.9968 29.7866 23.2627C30.2931 23.5285 30.7558 23.835 31.1746 24.182C31.5931 24.529 31.9346 25.0053 32.1989 25.6104C32.4633 26.2158 32.5954 26.9173 32.5954 27.7146C32.5954 29.2321 32.1361 30.3886 31.2185 31.1838C30.3005 31.9789 29.0851 32.3765 27.5727 32.3765C26.2213 32.3765 25.0724 32.0939 24.1252 31.5285C23.1773 30.9638 22.7036 30.38 22.7036 29.7776Z" fill="white"/>
<path d="M33.6587 31.2331C33.6587 31.1454 33.6659 31.0793 33.6808 31.0352L38.0553 16.7576C38.2422 16.2296 38.7643 15.9652 39.6214 15.9652C40.4939 15.9652 41.0237 16.2113 41.2109 16.7035L45.5728 30.9783C45.602 31.0706 45.6168 31.1398 45.6168 31.1858C45.6168 31.4627 45.4454 31.7011 45.1033 31.9007C44.7607 32.1008 44.3979 32.2006 44.0146 32.2006C43.551 32.2006 43.2633 32.0409 43.1512 31.7211L42.239 28.5659H36.824L35.9228 31.713C35.8202 32.0383 35.5488 32.2007 35.1094 32.2007C34.7575 32.2007 34.4279 32.1057 34.1201 31.9151C33.8126 31.7244 33.6587 31.4973 33.6587 31.2331ZM37.3542 26.7155H41.727L39.5186 19.155L37.3542 26.7155Z" fill="white"/>
<path d="M47.1777 31.4297V16.8465C47.1777 16.597 47.2912 16.4097 47.5191 16.2847C47.7466 16.16 48.022 16.0975 48.3453 16.0975C48.6681 16.0975 48.9436 16.1602 49.1715 16.2847C49.399 16.4097 49.5129 16.597 49.5129 16.8465V30.1301H55.2406C55.4608 30.1301 55.6332 30.233 55.7582 30.4385C55.8829 30.6443 55.9454 30.8867 55.9454 31.1654C55.9454 31.4446 55.8828 31.6869 55.7582 31.8924C55.6332 32.0981 55.461 32.2007 55.2406 32.2007H48.2132C47.9341 32.2007 47.6918 32.1311 47.4863 31.9915C47.2803 31.852 47.1777 31.6649 47.1777 31.4297Z" fill="white"/>
<path d="M57.6855 31.4297V16.8685C57.6855 16.6337 57.7881 16.4464 57.9938 16.3069C58.1995 16.1674 58.4417 16.0975 58.7208 16.0975H66.5632C66.8128 16.0975 67.0039 16.2005 67.136 16.406C67.2682 16.6119 67.3342 16.8466 67.3342 17.1109C67.3342 17.4048 67.2643 17.6545 67.1249 17.8598C66.9852 18.0657 66.798 18.1681 66.5632 18.1681H60.0206V23.2129H63.4131C63.6479 23.2129 63.8352 23.3049 63.9749 23.4883C64.1142 23.672 64.1842 23.8958 64.1842 24.1602C64.1842 24.3953 64.1182 24.6046 63.9858 24.7881C63.8536 24.9718 63.6626 25.0634 63.4131 25.0634H60.0206V30.1302H66.5632C66.798 30.1302 66.9853 30.2332 67.1249 30.4386C67.2643 30.6444 67.3342 30.8939 67.3342 31.1875C67.3342 31.4519 67.2682 31.6869 67.136 31.8924C67.0038 32.0981 66.8128 32.2007 66.5632 32.2007H58.7209C58.4417 32.2007 58.1995 32.1311 57.994 31.9915C57.7881 31.852 57.6855 31.6649 57.6855 31.4297Z" fill="white"/>
<path d="M17.9802 25.1344C16.3478 26.7668 13.7013 26.7668 12.0689 25.1344L1.72432 14.7897C0.0918946 13.1573 0.0918946 10.5108 1.72432 8.87837C3.35674 7.24595 6.0032 7.24595 7.63563 8.87837L17.9803 19.2231C19.6126 20.8555 19.6126 23.5019 17.9802 25.1344Z" fill="#C8CFDC"/>
</g>
<defs>
<linearGradient id="paint0_linear_614_993" x1="42.5682" y1="38.9148" x2="22.6063" y2="18.9515" gradientUnits="userSpaceOnUse">
<stop stop-color="#377ABB" stop-opacity="0.81"/>
<stop offset="1" stop-color="#377ABB"/>
</linearGradient>
<linearGradient id="paint1_linear_614_993" x1="51.6112" y1="38.2251" x2="31.7303" y2="18.3441" gradientUnits="userSpaceOnUse">
<stop stop-color="#BE3F45" stop-opacity="0"/>
<stop offset="0.0001" stop-color="#377ABB" stop-opacity="0"/>
<stop offset="1" stop-color="#377ABB"/>
</linearGradient>
<linearGradient id="paint2_linear_614_993" x1="62.1847" y1="38.0071" x2="45.7117" y2="21.5341" gradientUnits="userSpaceOnUse">
<stop stop-color="#377ABB"/>
<stop offset="1" stop-color="#377ABB"/>
</linearGradient>
<linearGradient id="paint3_linear_614_993" x1="71.8659" y1="33.4989" x2="58.1407" y2="19.7751" gradientUnits="userSpaceOnUse">
<stop stop-color="#2767A5" stop-opacity="0"/>
<stop offset="1" stop-color="#377ABB"/>
</linearGradient>
<clipPath id="clip0_614_993">
<rect width="70" height="70" fill="white" transform="translate(0.5)"/>
</clipPath>
</defs>
</svg>
