<svg width="20" height="21" viewBox="0 0 20 21" fill="none" xmlns="http://www.w3.org/2000/svg">
<path d="M15 16.2167H14.3667C13.7 16.2167 13.0667 16.4751 12.6 16.9417L11.175 18.3501C10.525 18.9917 9.46668 18.9917 8.81668 18.3501L7.39166 16.9417C6.925 16.4751 6.28333 16.2167 5.625 16.2167H5C3.61667 16.2167 2.5 15.1084 2.5 13.7417V4.64175C2.5 3.27508 3.61667 2.16675 5 2.16675H15C16.3833 2.16675 17.5 3.27508 17.5 4.64175V13.7334C17.5 15.1001 16.3833 16.2167 15 16.2167Z" stroke="#3582CD" strokeWidth="1.5" strokeMiterlimit="10" strokeLinecap="round" strokeLinejoin="round"/>
<path d="M10.0584 7.95825C10.0251 7.95825 9.97504 7.95825 9.93337 7.95825C9.05837 7.92492 8.3667 7.21659 8.3667 6.33325C8.3667 5.43325 9.09171 4.70825 9.99171 4.70825C10.8917 4.70825 11.6167 5.44159 11.6167 6.33325C11.6251 7.21659 10.9334 7.93325 10.0584 7.95825Z" stroke="#3582CD" strokeWidth="1.5" strokeLinecap="round" strokeLinejoin="round"/>
<path d="M7.70845 10.4666C6.60011 11.2082 6.60011 12.4166 7.70845 13.1582C8.96678 13.9999 11.0334 13.9999 12.2918 13.1582C13.4001 12.4166 13.4001 11.2082 12.2918 10.4666C11.0334 9.63322 8.97511 9.63322 7.70845 10.4666Z" stroke="#3582CD" strokeWidth="1.5" strokeLinecap="round" strokeLinejoin="round"/>
</svg>
