<svg width="16" height="15" viewBox="0 0 16 15" fill="none" xmlns="http://www.w3.org/2000/svg">
<path d="M7.76224 1.65881C7.83707 1.42848 8.16293 1.42849 8.23776 1.65881L9.30733 4.95061C9.54161 5.67165 10.2135 6.15983 10.9717 6.15983H14.4329C14.6751 6.15983 14.7758 6.46973 14.5798 6.61208L11.7797 8.64653C11.1663 9.09215 10.9097 9.88205 11.1439 10.6031L12.2135 13.8949C12.2883 14.1252 12.0247 14.3167 11.8288 14.1744L9.02862 12.1399C8.41527 11.6943 7.58473 11.6943 6.97138 12.1399L4.17121 14.1744L4.61204 14.7812L4.17121 14.1744C3.97528 14.3167 3.71166 14.1252 3.7865 13.8949L4.85607 10.6031C5.09035 9.88205 4.83369 9.09215 4.22034 8.64653L1.42017 6.61208C1.22424 6.46973 1.32494 6.15983 1.56712 6.15983H5.02832C5.78646 6.15983 6.45839 5.67165 6.69267 4.95061L7.76224 1.65881Z" stroke="#3582CD" strokeWidth="1.5"/>
</svg>
