<svg width="13" height="12" viewBox="0 0 13 12" fill="none" xmlns="http://www.w3.org/2000/svg">
<path d="M6.02229 0.545907C6.16748 0.0760682 6.83252 0.0760674 6.97771 0.545906L7.92555 3.61318C7.99029 3.82268 8.18398 3.96556 8.40326 3.96556H11.5219C12.0001 3.96556 12.2054 4.57255 11.8254 4.86289L9.25993 6.82272C9.09342 6.94992 9.02388 7.16746 9.08575 7.36767L10.0554 10.5054C10.1991 10.9705 9.66097 11.3459 9.27413 11.0504L6.80353 9.16299C6.62433 9.0261 6.37567 9.0261 6.19647 9.16299L3.72588 11.0504C3.33903 11.3459 2.80091 10.9705 2.94463 10.5054L3.91425 7.36767C3.97612 7.16746 3.90658 6.94992 3.74007 6.82272L1.17462 4.86288C0.794559 4.57255 0.999881 3.96556 1.47815 3.96556H4.59674C4.81602 3.96556 5.00971 3.82268 5.07445 3.61318L6.02229 0.545907Z" fill="#C0C0C0"/>
</svg>
