<svg width="11" height="12" viewBox="0 0 11 12" fill="none" xmlns="http://www.w3.org/2000/svg">
<path fillRule="evenodd" clipRule="evenodd" d="M4.68871 1.42013C4.63366 1.47454 4.59012 1.5395 4.56068 1.61115C4.53124 1.68279 4.51651 1.75965 4.51737 1.83712C4.51822 1.9146 4.53465 1.99111 4.56566 2.06208C4.59668 2.13305 4.64163 2.19704 4.69787 2.25022L7.60862 5.02938H0.665435C0.589229 5.02924 0.513746 5.04417 0.443314 5.07332C0.372882 5.10248 0.308883 5.14527 0.254998 5.19926C0.201112 5.25325 0.158402 5.31737 0.129305 5.38794C0.100208 5.4585 0.0853082 5.53413 0.0854502 5.61049V6.38493C0.0853082 6.46128 0.100208 6.53691 0.129305 6.60748C0.158402 6.67805 0.201112 6.74217 0.254998 6.79616C0.308883 6.85015 0.372882 6.89296 0.443314 6.92211C0.513746 6.95126 0.589229 6.96619 0.665435 6.96605H7.60968L4.69896 9.74522C4.64325 9.79871 4.59876 9.8628 4.56808 9.93373C4.53741 10.0047 4.52116 10.081 4.52031 10.1583C4.51946 10.2356 4.53401 10.3123 4.56311 10.3839C4.59221 10.4555 4.63528 10.5206 4.68979 10.5753L5.22882 11.1154C5.28247 11.1694 5.34625 11.2123 5.41651 11.2416C5.48677 11.2709 5.56211 11.286 5.6382 11.286C5.71429 11.286 5.78964 11.2709 5.85989 11.2416C5.93015 11.2123 5.99394 11.1694 6.04759 11.1154L10.7447 6.40924C10.7986 6.35541 10.8413 6.29144 10.8705 6.22101C10.8997 6.15057 10.9147 6.07505 10.9147 5.99879C10.9147 5.92252 10.8997 5.84702 10.8705 5.77659C10.8413 5.70615 10.7986 5.64219 10.7447 5.58835L6.04759 0.884925C5.99397 0.830795 5.93021 0.787831 5.85994 0.758512C5.78968 0.729194 5.71431 0.714111 5.6382 0.714111C5.56209 0.714111 5.48672 0.729194 5.41646 0.758512C5.3462 0.787831 5.28243 0.830795 5.22882 0.884925L4.68871 1.42013Z" fill="white"/>
</svg>
