<svg width="23" height="24" viewBox="0 0 23 24" fill="none" xmlns="http://www.w3.org/2000/svg">
<path d="M11.7273 0.361566C11.5791 0.223023 11.4501 0.105142 11.3432 0C11.2352 0.105142 11.106 0.223023 10.9574 0.361566C9.16182 2.01044 4.52112 5.84937 0 6.11099C0 6.11099 2.07893 18.7278 11.1759 23.9076C11.232 23.9383 11.2868 23.9693 11.3432 24C11.3981 23.9693 11.4544 23.9383 11.5094 23.9076C20.6062 18.7278 22.6866 6.11099 22.6866 6.11099C18.1638 5.84937 13.5248 2.01044 11.7273 0.361566Z" fill="url(#paint0_linear_685_2750)" fill-opacity="0.82"/>
<path d="M11.7158 0.715507C11.5719 0.581122 11.447 0.466883 11.3432 0.36499C11.2385 0.466883 11.1133 0.581252 10.9692 0.715507C9.22827 2.31422 4.72872 6.03644 0.344971 6.29013C0.344971 6.29013 2.36061 18.5233 11.1809 23.5457C11.2355 23.5756 11.2884 23.6055 11.3432 23.6352C11.3965 23.6053 11.4512 23.5754 11.5045 23.5457C20.3248 18.5233 22.3417 6.29013 22.3417 6.29013C17.9565 6.03644 13.4585 2.31422 11.7158 0.715507Z" fill="url(#paint1_linear_685_2750)" fill-opacity="0.82"/>
<path d="M11.7036 1.0864C11.5644 0.956431 11.4437 0.845958 11.3433 0.747314C11.2421 0.845958 11.121 0.956431 10.9817 1.0864C9.29781 2.6326 4.94616 6.23239 0.706543 6.47777C0.706543 6.47777 2.6559 18.3089 11.1863 23.1664C11.2391 23.1953 11.2905 23.2242 11.3433 23.253C11.3948 23.2242 11.4477 23.1953 11.4993 23.1664C20.0296 18.3089 21.9803 6.47777 21.9803 6.47777C17.7391 6.23239 13.3889 2.6326 11.7036 1.0864Z" fill="url(#paint2_linear_685_2750)" fill-opacity="0.82"/>
<path d="M11.691 1.45715C11.5565 1.3316 11.4399 1.22477 11.343 1.12964C11.2451 1.22477 11.1282 1.3316 10.9935 1.45715C9.36686 2.95072 5.16324 6.42821 1.06763 6.6654C1.06763 6.6654 2.95083 18.0945 11.1913 22.7869C11.2424 22.8148 11.2918 22.8429 11.343 22.8707C11.3926 22.8429 11.4437 22.8148 11.4938 22.7869C19.7341 18.0946 21.6188 6.6654 21.6188 6.6654C17.5216 6.42834 13.3193 2.95072 11.691 1.45715Z" fill="url(#paint3_linear_685_2750)" fill-opacity="0.82" stroke="url(#paint4_linear_685_2750)" strokeMiterlimit="10"/>
<path d="M11.689 1.52221C11.5554 1.39744 11.4396 1.29139 11.343 1.19678C11.2458 1.29139 11.1295 1.39757 10.9958 1.52221C9.37913 3.00655 5.20138 6.46273 1.1311 6.69836C1.1311 6.69836 3.00261 18.057 11.1924 22.7204C11.2431 22.7481 11.2924 22.7759 11.3432 22.8038C11.3924 22.7759 11.4434 22.7481 11.4929 22.7204C19.6823 18.057 21.5553 6.69836 21.5553 6.69836C17.4835 6.46273 13.3071 3.00668 11.689 1.52221Z" fill="url(#paint5_linear_685_2750)" fill-opacity="0.82"/>
<path d="M11.6838 1.68146C11.5521 1.55851 11.4381 1.45415 11.3431 1.36096C11.2474 1.45415 11.1329 1.55851 11.0011 1.68146C9.40899 3.14331 5.29479 6.54686 1.28638 6.77885C1.28638 6.77885 3.12942 17.9647 11.1947 22.5573C11.2448 22.5845 11.2931 22.6122 11.3431 22.6392C11.3917 22.6122 11.4418 22.5845 11.4907 22.5573C19.5557 17.9649 21.4002 6.77885 21.4002 6.77885C17.3905 6.54686 13.2773 3.14331 11.6838 1.68146Z" fill="url(#paint6_linear_685_2750)" fill-opacity="0.82"/>
<path d="M11.714 2.37249C11.714 2.57719 11.5481 2.74316 11.3433 2.74316C11.1386 2.74316 10.9727 2.57719 10.9727 2.37249C10.9727 2.1678 11.1386 2.00183 11.3433 2.00183C11.548 2.00183 11.714 2.16767 11.714 2.37249Z" fill="white"/>
<path d="M2.2821 7.22515C2.2821 7.42985 2.11626 7.59581 1.91143 7.59581C1.70674 7.59581 1.54077 7.42985 1.54077 7.22515C1.54077 7.02046 1.70674 6.85449 1.91143 6.85449C2.11613 6.85449 2.2821 7.02046 2.2821 7.22515Z" fill="white"/>
<path d="M20.926 7.22515C20.926 7.42985 20.7601 7.59581 20.5552 7.59581C20.3505 7.59581 20.1846 7.42985 20.1846 7.22515C20.1846 7.02046 20.3505 6.85449 20.5552 6.85449C20.7599 6.85449 20.926 7.02046 20.926 7.22515Z" fill="white"/>
<path d="M11.3435 20.8187C11.2227 20.8187 11.1248 20.9275 11.1248 21.0619C11.1248 21.1961 11.3435 21.9532 11.3435 21.9532C11.3435 21.9532 11.5624 21.1961 11.5624 21.0619C11.5623 20.9275 11.4642 20.8187 11.3435 20.8187ZM11.9951 21.0846C11.893 21.02 11.7519 21.0599 11.6803 21.1734C11.6087 21.2867 11.3897 22.0439 11.3897 22.0439C11.3897 22.0439 11.9787 21.5204 12.0503 21.4067C12.1219 21.2934 12.0972 21.149 11.9951 21.0846ZM10.692 21.0846C10.5897 21.1491 10.565 21.2934 10.6367 21.4067C10.7083 21.5204 11.2973 22.0439 11.2973 22.0439C11.2973 22.0439 11.0783 21.2867 11.0067 21.1734C10.9351 21.0598 10.794 21.02 10.692 21.0846Z" fill="white"/>
<path d="M13.1029 5.19141C13.0899 5.21093 12.5378 5.75378 12.5378 5.75378L9.00635 13.0285L12.15 12.0369L9.68486 18.2397L10.6818 17.2428L15.5536 8.89639L12.0166 9.93954L13.1029 5.19141Z" fill="#B3D7FB"/>
<path d="M12.5377 5.75366C12.4855 5.83218 8.00928 14.0253 8.00928 14.0253L11.1529 13.0337L9.68469 18.2396L14.6581 9.86337L11.0197 10.9365L12.5377 5.75366Z" fill="white"/>
<defs>
<linearGradient id="paint0_linear_685_2750" x1="11.3433" y1="0" x2="11.3433" y2="24" gradientUnits="userSpaceOnUse">
<stop stop-color="#AAD5FF"/>
<stop offset="0.21875" stop-color="#377ABB"/>
<stop offset="0.458333" stop-color="#377ABB"/>
<stop offset="0.71875" stop-color="#6EACE8"/>
<stop offset="1" stop-color="#075CAF"/>
</linearGradient>
<linearGradient id="paint1_linear_685_2750" x1="11.3433" y1="0.36499" x2="11.3433" y2="23.6352" gradientUnits="userSpaceOnUse">
<stop stop-color="#AAD5FF"/>
<stop offset="0.21875" stop-color="#377ABB"/>
<stop offset="0.458333" stop-color="#377ABB"/>
<stop offset="0.71875" stop-color="#6EACE8"/>
<stop offset="1" stop-color="#075CAF"/>
</linearGradient>
<linearGradient id="paint2_linear_685_2750" x1="11.3434" y1="0.747314" x2="11.3434" y2="23.253" gradientUnits="userSpaceOnUse">
<stop stop-color="#AAD5FF"/>
<stop offset="0.21875" stop-color="#377ABB"/>
<stop offset="0.458333" stop-color="#377ABB"/>
<stop offset="0.71875" stop-color="#6EACE8"/>
<stop offset="1" stop-color="#075CAF"/>
</linearGradient>
<linearGradient id="paint3_linear_685_2750" x1="11.3432" y1="1.12964" x2="11.3432" y2="22.8707" gradientUnits="userSpaceOnUse">
<stop stop-color="#AAD5FF"/>
<stop offset="0.21875" stop-color="#377ABB"/>
<stop offset="0.458333" stop-color="#377ABB"/>
<stop offset="0.71875" stop-color="#6EACE8"/>
<stop offset="1" stop-color="#075CAF"/>
</linearGradient>
<linearGradient id="paint4_linear_685_2750" x1="0.991805" y1="11.9918" x2="21.6946" y2="11.9918" gradientUnits="userSpaceOnUse">
<stop offset="0.0056" stop-color="#DEE3E6"/>
<stop offset="0.2528" stop-color="#FFFDE5"/>
<stop offset="0.3953" stop-color="#F0ECD8"/>
<stop offset="0.5955" stop-color="#D6CDC1"/>
<stop offset="0.7865" stop-color="#EDEDEE"/>
<stop offset="1" stop-color="#D8D5BB"/>
</linearGradient>
<linearGradient id="paint5_linear_685_2750" x1="11.3432" y1="1.19678" x2="11.3432" y2="22.8038" gradientUnits="userSpaceOnUse">
<stop stop-color="#AAD5FF"/>
<stop offset="0.21875" stop-color="#377ABB"/>
<stop offset="0.458333" stop-color="#377ABB"/>
<stop offset="0.71875" stop-color="#6EACE8"/>
<stop offset="1" stop-color="#075CAF"/>
</linearGradient>
<linearGradient id="paint6_linear_685_2750" x1="11.3433" y1="1.36096" x2="11.3433" y2="22.6392" gradientUnits="userSpaceOnUse">
<stop stop-color="#AAD5FF"/>
<stop offset="0.21875" stop-color="#377ABB"/>
<stop offset="0.458333" stop-color="#377ABB"/>
<stop offset="0.71875" stop-color="#6EACE8"/>
<stop offset="1" stop-color="#075CAF"/>
</linearGradient>
</defs>
</svg>
