<svg xmlns="http://www.w3.org/2000/svg" width="30" height="44" viewBox="0 0 30 44" fill="none">
  <path d="M27.1734 0.5C27.4633 0.582448 27.7474 0.683671 28.0241 0.803026C29.1779 1.38887 29.7682 2.34509 29.7716 3.63575C29.7806 7.20471 29.7716 10.7748 29.7716 14.3438C29.7716 20.0821 29.7446 25.8205 29.7873 31.5589C29.8008 33.431 28.4046 34.9259 26.4462 34.8877C23.004 34.826 19.5608 34.8754 16.1209 34.8619C15.7898 34.8619 15.636 34.9259 15.5597 35.2794C15.4298 35.8654 15.2457 36.438 15.0098 36.9898C14.2365 38.8977 12.9178 40.2333 10.9066 40.744C9.67205 41.0582 8.68666 41.671 7.92349 42.6766C7.75762 42.8844 7.57641 43.0795 7.38141 43.2602C7.06828 43.5643 6.69231 43.5778 6.4106 43.3084C6.1289 43.0391 6.11095 42.6777 6.38928 42.3691C6.95044 41.7451 7.52394 41.1323 8.10979 40.5307C8.40608 40.2254 8.7944 40.0504 9.18721 39.9011C9.43273 39.8 9.68562 39.7179 9.94365 39.6553C12.4127 39.1267 13.6473 37.4443 14.2253 35.129C14.2571 35.0368 14.28 34.9417 14.2937 34.8451C14.3364 33.8226 14.9245 33.1077 15.5822 32.3951C17.1108 30.7408 18.5978 29.0472 20.0972 27.366C20.2596 27.1923 20.4015 27.0006 20.5203 26.7947C20.857 26.1651 20.756 25.5287 20.2656 25.1236C20.0114 24.923 19.6948 24.818 19.3711 24.827C19.0474 24.836 18.7372 24.9585 18.4946 25.173C17.5058 26.0181 16.5238 26.8721 15.5395 27.7229C14.2803 28.8115 13.0165 29.8968 11.7629 30.9922C11.5093 31.2166 11.2444 31.3412 10.9246 31.2088C10.5755 31.0651 10.5183 30.7598 10.5194 30.4097C10.5261 28.1 10.5194 25.7914 10.5284 23.4816C10.5284 23.1573 10.4992 23.0327 10.1277 23.1674C9.3679 23.4446 8.59799 23.6971 7.81911 23.9137C6.87636 24.1752 6.3399 24.7667 6.08626 25.7094C5.30064 28.6061 4.47686 31.4905 3.68338 34.3838C3.49873 35.1052 3.10472 35.7557 2.55097 36.2536C2.16489 36.5981 1.7934 36.9595 1.4062 37.3029C1.05717 37.6127 0.672211 37.6116 0.396122 37.3175C0.120033 37.0235 0.15819 36.6441 0.492639 36.3164C0.795664 36.0257 1.09532 35.7283 1.4208 35.4646C1.98195 35.0157 2.28722 34.4377 2.47353 33.7508C3.24343 30.9091 4.04477 28.0764 4.83039 25.2369C5.19402 23.9115 6.02004 23.0641 7.33539 22.6668C8.25681 22.3885 9.16252 22.0585 10.0873 21.7926C10.4296 21.6938 10.5362 21.5535 10.5362 21.1955C10.5235 15.4575 10.5205 9.71869 10.5273 3.97917C10.5273 3.81195 10.5273 3.64248 10.5329 3.47638C10.5845 2.03982 11.5261 0.907401 12.9391 0.583052C12.9941 0.570706 13.0513 0.569584 13.0682 0.50449L27.1734 0.5Z" fill="#3582CD"/>
  <path d="M11.8662 29.1236V28.6062C11.8662 21.0336 11.8639 13.4617 11.8594 5.89058C11.8594 5.5651 11.901 5.44165 12.2747 5.44165C17.5226 5.45587 22.771 5.45587 28.0196 5.44165C28.3855 5.44165 28.4394 5.55388 28.4394 5.88272C28.4289 13.7494 28.4289 21.6153 28.4394 29.4805C28.4394 29.8621 28.335 29.9294 27.9792 29.9294C25.362 29.9137 22.7448 29.9205 20.123 29.9205H19.6158C20.1556 29.3178 20.6326 28.7791 21.114 28.2471C21.6135 27.6949 21.9827 27.0754 22.04 26.3189C22.1241 25.1865 21.6584 24.3145 20.6606 23.7937C19.6404 23.2606 18.6113 23.3381 17.7179 24.0788C16.3498 25.2123 15.0244 26.393 13.6776 27.558L11.8662 29.1236Z" fill="#FEFEFE"/>
  <path d="M20.1152 4.11156C17.4867 4.11156 14.8583 4.11156 12.2298 4.11829C11.9447 4.11829 11.8549 4.06105 11.8583 3.75915C11.8718 2.5246 12.544 1.84448 13.7831 1.84448C18.0337 1.84448 22.2839 1.84448 26.5337 1.84448C27.7346 1.84448 28.4192 2.54817 28.4416 3.74344C28.4416 4.08013 28.3294 4.11941 28.0421 4.11829C25.4002 4.10594 22.7571 4.11156 20.1152 4.11156Z" fill="#FEFEFE"/>
  <path d="M16.3869 33.5262C17.0491 32.7899 17.6416 32.139 18.223 31.4791C18.2775 31.4086 18.3479 31.3521 18.4285 31.3142C18.5091 31.2764 18.5975 31.2582 18.6865 31.2613C21.829 31.2666 24.9741 31.2666 28.1218 31.2613C28.3463 31.2613 28.4327 31.304 28.4383 31.5554C28.4664 32.7899 27.7649 33.525 26.5304 33.525C23.3011 33.525 20.0722 33.525 16.8437 33.525L16.3869 33.5262Z" fill="#FEFEFE"/>
  <path d="M20.1388 20.8285C19.3531 20.8285 18.5675 20.8285 17.7886 20.8285C17.2353 20.8285 17.0086 20.5928 17.003 20.0316C17.003 19.5704 16.9907 19.108 17.003 18.6467C17.0109 18.4222 16.9402 18.3538 16.7202 18.3628C16.3431 18.3785 15.9649 18.3762 15.5878 18.3628C15.1029 18.3493 14.8078 18.0698 14.8235 17.6591C14.8392 17.2674 15.1243 17.0306 15.6012 17.0227C15.9649 17.0171 16.3296 17.0092 16.6921 17.0227C16.9256 17.0328 17.0131 16.9655 17.003 16.7197C16.9851 16.245 16.9929 15.7691 17.003 15.2932C17.0109 14.7972 17.2533 14.5413 17.7516 14.5379C19.3453 14.5297 20.9397 14.5297 22.5349 14.5379C23.0444 14.5379 23.2891 14.8073 23.2981 15.3325C23.3048 15.8084 23.3071 16.2842 23.2981 16.759C23.2981 16.961 23.3564 17.0283 23.5596 17.0227C23.9647 17.0092 24.371 17.0092 24.7762 17.0227C25.1813 17.0362 25.4574 17.2988 25.4686 17.6636C25.4726 17.8412 25.4061 18.0132 25.2838 18.1421C25.1614 18.271 24.9931 18.3462 24.8154 18.3515C24.3979 18.3773 23.9771 18.3706 23.5573 18.3515C23.3576 18.3515 23.2902 18.4043 23.297 18.6085C23.3115 19.0575 23.3037 19.5064 23.297 19.9553C23.297 20.5883 23.0658 20.8195 22.4429 20.8217C21.6774 20.8285 20.9075 20.8285 20.1388 20.8285Z" fill="#3582CD"/>
  <path d="M23.4315 12.3786C23.8647 12.3786 24.2979 12.3673 24.7311 12.3786C25.2081 12.3943 25.4606 12.6345 25.4685 13.1092C25.4835 14.0026 25.4835 14.8967 25.4685 15.7915C25.4618 16.2326 25.1453 16.5367 24.7659 16.5165C24.3866 16.4963 24.1397 16.2146 24.1329 15.7747C24.124 15.2135 24.1082 14.6524 24.1329 14.098C24.1509 13.7669 24.0297 13.6995 23.7289 13.7119C23.1846 13.7343 22.6391 13.7265 22.0948 13.7119C21.6055 13.7018 21.3025 13.4268 21.3092 13.0261C21.3159 12.6255 21.6156 12.3831 22.0813 12.373C22.537 12.3707 22.9848 12.3786 23.4315 12.3786Z" fill="#3582CD"/>
  <path d="M23.3969 23.0046C22.948 23.0046 22.4991 23.0125 22.0501 23.0046C21.6012 22.9968 21.3016 22.6949 21.3139 22.3122C21.3263 21.9294 21.6181 21.6713 22.0468 21.6657C22.6349 21.659 23.223 21.65 23.8088 21.6657C24.077 21.6758 24.1388 21.5849 24.1309 21.329C24.113 20.7555 24.1197 20.182 24.1309 19.6085C24.1376 19.1349 24.3879 18.8622 24.7942 18.8633C25.2005 18.8644 25.4676 19.1394 25.4676 19.6096C25.4788 20.4906 25.4811 21.3717 25.4676 22.2527C25.4597 22.7398 25.1904 22.9878 24.6966 22.9968C24.2645 23.0114 23.8313 23.0046 23.3969 23.0046Z" fill="#3582CD"/>
  <path d="M14.8258 14.4222C14.8258 13.989 14.8202 13.5557 14.8258 13.1225C14.8336 12.6455 15.0671 12.3919 15.5452 12.3829C16.443 12.3683 17.3342 12.3706 18.2275 12.3829C18.6978 12.3897 18.9649 12.6579 18.9581 13.0664C18.9503 13.4547 18.691 13.7061 18.241 13.7174C17.6686 13.7331 17.094 13.7409 16.5227 13.7174C16.2174 13.7039 16.1501 13.8094 16.1613 14.0933C16.1827 14.6376 16.1714 15.1831 16.1613 15.7274C16.1613 16.2078 15.883 16.5243 15.4879 16.522C15.0929 16.5198 14.8258 16.21 14.8213 15.7241C14.8224 15.2886 14.8258 14.8554 14.8258 14.4222Z" fill="#3582CD"/>
  <path d="M14.8258 20.9138C14.8258 20.4649 14.8179 20.016 14.8258 19.567C14.8336 19.1181 15.1018 18.8667 15.4935 18.8667C15.8852 18.8667 16.1535 19.1361 16.1669 19.5704C16.1793 20.1428 16.186 20.7174 16.1669 21.2898C16.1568 21.5726 16.2163 21.6803 16.5249 21.6658C17.0861 21.6377 17.6473 21.6534 18.2028 21.659C18.6787 21.659 18.9559 21.9048 18.9637 22.3077C18.9727 22.7275 18.6854 22.9946 18.1949 22.9991C17.3285 23.0058 16.461 23.008 15.5934 22.9991C15.0783 22.9935 14.8381 22.7364 14.8314 22.2134C14.8224 21.7814 14.8258 21.347 14.8258 20.9138Z" fill="#3582CD"/>
  <path d="M20.8077 2.96905C20.8099 3.05658 20.7946 3.14368 20.7627 3.22522C20.7308 3.30675 20.6829 3.38108 20.6218 3.44383C20.5608 3.50657 20.4878 3.55646 20.4071 3.59057C20.3265 3.62468 20.2398 3.64232 20.1523 3.64244C19.9763 3.64437 19.8069 3.57635 19.6811 3.45333C19.5553 3.3303 19.4836 3.16236 19.4817 2.98645C19.4797 2.81053 19.5478 2.64105 19.6708 2.5153C19.7938 2.38954 19.9617 2.3178 20.1377 2.31586C20.2248 2.31377 20.3115 2.32911 20.3926 2.36098C20.4738 2.39286 20.5477 2.44062 20.6101 2.50147C20.6725 2.56232 20.7222 2.63502 20.7561 2.71532C20.79 2.79562 20.8076 2.88188 20.8077 2.96905Z" fill="#3582CD"/>
  <path d="M20.1164 33.0787C19.7112 33.0787 19.305 33.0888 18.8998 33.0787C18.4509 33.0652 18.1692 32.7779 18.1849 32.3761C18.2006 31.9934 18.4767 31.7443 18.9189 31.7409C19.7419 31.7342 20.5649 31.7342 21.388 31.7409C21.8156 31.7409 22.1051 32.0181 22.113 32.3941C22.1208 32.7701 21.8257 33.0675 21.4115 33.0776C20.9828 33.0899 20.5496 33.0776 20.1164 33.0787Z" fill="#3582CD"/>
  <path d="M20.1612 17.0237C19.6438 17.0237 19.1253 17.0158 18.6079 17.0237C18.4093 17.0237 18.3498 16.9675 18.3408 16.7644C18.2982 15.8789 18.2903 15.8789 19.1522 15.8789C19.9771 15.8789 20.8032 15.8879 21.6292 15.8733C21.8783 15.8733 21.9659 15.9272 21.9659 16.1954C21.9659 17.0192 21.9794 17.0192 21.1702 17.0192L20.1612 17.0237Z" fill="#FCFCFC"/>
  <path d="M20.1725 18.3673C20.6753 18.3673 21.1825 18.3774 21.682 18.3673C21.9064 18.3606 21.9581 18.438 21.9626 18.6535C21.9816 19.4919 21.9895 19.4908 21.1511 19.4908C20.3128 19.4908 19.5024 19.4773 18.682 19.4986C18.397 19.5054 18.3397 19.4133 18.3453 19.1496C18.3543 18.3718 18.3453 18.3718 19.131 18.3718L20.1725 18.3673Z" fill="#FEFEFE"/>
</svg>