<svg xmlns="http://www.w3.org/2000/svg" width="49" height="48" viewBox="0 0 49 48" fill="none">
  <path d="M35.8941 30.5745C36.1469 32.7711 36.0242 34.9358 35.3763 37.0619C34.4039 40.2566 32.5412 42.8733 30.1343 45.1377C29.2651 45.9485 28.3297 46.6855 27.3378 47.341C26.9804 47.5783 26.6012 47.7826 26.2325 48.0001H25.4779C24.6036 47.6075 24.398 46.8702 24.3518 45.9899C24.2198 43.4533 24.0377 40.9186 23.8746 38.3839L25.9627 36.2512C28.7733 35.158 31.4386 33.788 33.9031 32.0424C34.5784 31.5688 35.232 31.066 35.8941 30.5745Z" fill="#1A5AFE"/>
  <path d="M17.9572 12.6601C18.4552 12.147 18.9711 11.6498 19.4484 11.1169C20.1525 10.3487 20.9112 9.63221 21.7185 8.97295C23.2004 7.73327 24.7932 6.63204 26.4767 5.68311C28.2672 4.66661 30.1358 3.79385 32.0649 3.07307C33.1476 2.67133 34.2407 2.30193 35.3442 1.96484C35.3923 2.12491 35.5329 2.20871 35.6413 2.31699C36.8448 3.52597 38.0489 4.73024 39.2536 5.9298C39.8195 6.48909 40.3929 7.03803 40.9635 7.59167C40.9635 7.6218 40.9682 7.65287 40.972 7.68583C40.9307 7.70671 40.8919 7.73196 40.856 7.76115L35.8026 12.8004C35.7474 12.8437 35.7016 12.8977 35.668 12.9592C35.6345 13.0208 35.6138 13.0885 35.6074 13.1582L35.4414 13.0716C34.0153 11.6282 32.2818 11.1461 30.3022 11.4333C27.3341 11.8636 25.0686 14.8634 25.4317 17.836C25.5987 19.2059 26.1711 20.365 27.0719 21.3838C27.0719 21.5825 26.9096 21.6776 26.7889 21.7962C24.3631 24.2217 21.9355 26.6456 19.5059 29.068C19.3871 29.1866 19.2899 29.3438 19.0919 29.3457L12.2983 22.5796C13.471 19.4766 15.0695 16.5512 17.048 13.887C17.3517 13.4793 17.7356 13.129 17.9572 12.6601Z" fill="#E0F0F9"/>
  <path d="M19.0975 29.3428C19.2956 29.3428 19.3927 29.1836 19.5116 29.065C21.9411 26.642 24.3688 24.2181 26.7946 21.7932C26.9134 21.6746 27.0775 21.5795 27.0775 21.3808H27.1162L27.1539 21.3752C27.1748 21.4159 27.2008 21.4539 27.2312 21.4882C29.0845 23.15 31.2057 23.6208 33.5183 22.6877C35.8073 21.7612 37.0372 19.9722 37.206 17.5091C37.3211 15.8378 36.6948 14.4019 35.6111 13.1534C35.6176 13.0836 35.6382 13.0159 35.6718 12.9544C35.7054 12.8929 35.7512 12.8388 35.8064 12.7956L40.8569 7.75819C40.8928 7.729 40.9317 7.70374 40.973 7.68286C42.5901 9.28541 44.208 10.888 45.8264 12.4905C46.0792 12.74 46.298 13.0263 46.6064 13.2193C45.8881 15.721 44.9371 18.1502 43.7656 20.475C42.5495 22.8995 41.0392 25.1653 39.2687 27.2214C38.3255 28.3155 37.3173 29.3644 36.1695 30.2627C36.0657 30.3575 35.9709 30.4619 35.8865 30.5743C35.2263 31.0658 34.5661 31.5686 33.8984 32.0451C31.4339 33.7907 28.7686 35.1607 25.958 36.2539C23.741 34.0349 21.5236 31.8156 19.3059 29.596C19.2375 29.5349 19.1654 29.478 19.09 29.4256C19.0972 29.3986 19.0998 29.3706 19.0975 29.3428Z" fill="#CCEAFB"/>
  <path d="M17.9573 12.6601C17.7356 13.1309 17.3517 13.4793 17.0481 13.8841C15.0695 16.5483 13.471 19.4737 12.2983 22.5767C11.5834 23.2729 10.8679 23.9681 10.1517 24.6623L2.66783 24.1859C2.38488 24.167 2.10194 24.1491 1.82748 24.1115C0.709847 23.9571 0.159991 22.8931 0.723995 21.9129C1.07144 21.3203 1.45739 20.751 1.87936 20.2087C4.37776 16.9499 7.43074 14.4368 11.4222 13.2024C13.3986 12.5924 15.4806 12.4 17.5357 12.6375C17.6752 12.6507 17.8167 12.6526 17.9573 12.6601Z" fill="#5BA6FE"/>
  <path d="M10.1517 24.6623C10.8673 23.9681 11.5828 23.2738 12.2983 22.5796L19.0975 29.3429C19.1022 29.3703 19.1022 29.3983 19.0975 29.4258C18.9579 29.695 18.7118 29.8692 18.5043 30.0754C16.9261 31.6447 15.345 33.2109 13.7612 34.7739C13.5867 34.7193 13.498 34.563 13.3839 34.4453C11.9409 33.0229 10.5007 31.5983 9.06334 30.1715C8.71752 29.8137 8.3717 29.4556 8.02587 29.0971C7.32228 28.3674 7.31851 27.552 8.02587 26.828C8.73324 26.1039 9.4406 25.3836 10.1517 24.6623Z" fill="#1C3B6B"/>
  <path d="M13.7612 34.7737C15.3432 33.2081 16.9242 31.642 18.5043 30.0752C18.7118 29.869 18.9579 29.6986 19.0975 29.4255C19.1729 29.4779 19.2451 29.5348 19.3135 29.596C21.5318 31.8143 23.7492 34.0336 25.9656 36.2538L23.8803 38.3865C23.1886 39.065 22.497 39.7433 21.8053 40.4212C20.9565 41.2564 20.1822 41.2517 19.3314 40.409C19.0108 40.0916 18.6844 39.78 18.36 39.4674C16.8579 37.8981 15.3199 36.3602 13.7461 34.8537C13.7464 34.8263 13.7515 34.7992 13.7612 34.7737Z" fill="#011135"/>
  <path d="M13.747 34.855C15.3189 36.3577 16.8569 37.8956 18.3609 39.4687C16.2784 41.5533 13.7395 42.8489 10.9468 43.6775C9.23794 44.1804 7.47748 44.4884 5.69912 44.5955C5.18133 44.6285 4.66166 44.5899 4.34476 44.0711C4.44583 44.0007 4.54282 43.9246 4.63525 43.8432C6.71647 41.7918 8.79674 39.7395 10.8761 37.6863C11.8324 36.7409 12.7894 35.7972 13.747 34.855Z" fill="#FCBF01"/>
  <path d="M13.7471 34.8549C12.7901 35.7964 11.8331 36.738 10.8761 37.6796C8.79363 39.7347 6.71492 41.7883 4.63999 43.8403C4.54756 43.9217 4.45057 43.9977 4.3495 44.0681C3.97224 43.8224 3.90905 43.409 3.92886 43.0324C4.03956 40.6804 4.51031 38.3593 5.32472 36.1495C6.16318 33.9048 7.35061 31.871 9.06337 30.1677C10.5026 31.5933 11.9428 33.0179 13.3839 34.4415C13.5028 34.5592 13.5914 34.7155 13.7612 34.7701C13.7513 34.7972 13.7465 34.826 13.7471 34.8549Z" fill="#FEF161"/>
  <path d="M46.6102 13.2194C46.3036 13.031 46.0829 12.7401 45.8302 12.4906C44.2098 10.8905 42.592 9.28799 40.9767 7.68292C40.9767 7.65279 40.9692 7.62172 40.9682 7.58877C41.187 7.48519 41.3219 7.2884 41.4851 7.12363C42.9272 5.65949 44.3617 4.18781 45.8085 2.72932C46.5753 1.95535 47.3628 1.20115 48.1418 0.438477C48.4191 0.639973 48.4899 0.915854 48.4955 1.25011C48.5672 5.19058 47.7674 8.99735 46.7441 12.7712C46.7045 12.9237 46.6545 13.0753 46.6102 13.2194Z" fill="#1A5AFE"/>
  <path d="M48.1409 0.441302C47.3619 1.20397 46.5743 1.95817 45.8076 2.73214C44.3608 4.19064 42.9262 5.66231 41.4842 7.12645C41.321 7.29123 41.1861 7.48802 40.9673 7.59159C40.4014 7.03795 39.8214 6.48901 39.2574 5.92972C38.0483 4.73015 36.8429 3.5262 35.6413 2.31785C35.5338 2.20957 35.3923 2.12954 35.3442 1.96571C38.7462 0.987413 42.2038 0.316072 45.7406 0.0825625C46.1773 0.0524323 46.6139 0.0175945 47.0506 0.00347092C47.2537 -0.0111741 47.4575 0.0206528 47.6465 0.096526C47.8354 0.172399 48.0045 0.290319 48.1409 0.441302Z" fill="#5BA6FE"/>
  <path d="M27.152 21.3781L27.1143 21.3837H27.0756C26.1749 20.3649 25.6024 19.2059 25.4355 17.8359C25.0724 14.8633 27.3378 11.8635 30.3059 11.4332C32.2865 11.1507 34.0191 11.6281 35.4452 13.0715C34.8651 13.8304 34.1587 14.465 33.4513 15.0987C33.4221 15.1044 33.3919 15.1081 33.3627 15.111C32.0696 13.9651 30.3088 14.0037 29.1638 15.2051C28.6306 15.7634 28.3386 16.5085 28.3506 17.2798C28.3626 18.0511 28.6777 18.7868 29.2279 19.3283C29.2309 19.3535 29.2363 19.3784 29.2439 19.4026C29.1053 19.5269 28.961 19.6493 28.829 19.7793C28.2612 20.2971 27.7736 20.9073 27.152 21.3781Z" fill="#1C3C6C"/>
  <path d="M27.152 21.3781C27.7736 20.9073 28.2612 20.2971 28.829 19.7708C28.9657 19.6446 29.1053 19.5222 29.2439 19.3942C29.3571 19.4761 29.4694 19.5608 29.5854 19.638C30.6672 20.3593 31.7773 20.3838 32.8939 19.7379C33.8729 19.1729 34.3822 17.9856 34.2436 16.8077C34.1644 16.1373 33.7824 15.6326 33.4513 15.0921C34.1587 14.4585 34.8661 13.8238 35.4452 13.0649L35.6112 13.1516C36.6948 14.402 37.3211 15.836 37.206 17.5073C37.0372 19.9685 35.8073 21.7575 33.5183 22.6859C31.2057 23.6209 29.0855 23.1567 27.2294 21.4892C27.1991 21.4555 27.1731 21.4182 27.152 21.3781Z" fill="#011236"/>
  <path d="M33.4513 15.0959C33.7824 15.6364 34.1644 16.1411 34.2436 16.8115C34.3822 17.9894 33.8729 19.1758 32.8939 19.7417C31.7772 20.3876 30.6672 20.3631 29.5854 19.6419C29.4693 19.5646 29.3571 19.4799 29.2439 19.398C29.2363 19.3737 29.2309 19.3488 29.2279 19.3236C29.3496 19.1842 29.4656 19.0411 29.5957 18.9074C30.8501 17.6401 32.1058 16.3737 33.3627 15.1082C33.3919 15.1054 33.4221 15.1016 33.4513 15.0959Z" fill="#1DACB4"/>
  <path d="M33.3627 15.1083C32.1052 16.375 30.8495 17.6414 29.5957 18.9075C29.4656 19.0393 29.3496 19.1843 29.2279 19.3237C28.6777 18.7822 28.3626 18.0465 28.3506 17.2752C28.3386 16.5039 28.6306 15.7588 29.1638 15.2005C30.3088 14.001 32.0696 13.9624 33.3627 15.1083Z" fill="#06CAAA"/>
</svg>