<svg xmlns="http://www.w3.org/2000/svg" width="60" height="60" viewBox="0 0 60 60" fill="none">
  <path d="M59.9992 51.0956C59.8426 51.163 59.8833 51.329 59.8426 51.448C59.3085 52.9719 58.0415 53.8943 56.4284 53.9053C55.0627 53.9147 53.697 53.9053 52.2969 53.9053C52.6462 55.0505 52.5488 56.2855 52.0243 57.3618C51.7045 58.0229 51.2334 58.5993 50.6492 59.0443C50.065 59.4893 49.3842 59.7903 48.6619 59.9231C47.9396 60.0558 47.1962 60.0164 46.492 59.8081C45.7878 59.5998 45.1426 59.2286 44.6086 58.7243C43.0754 57.2772 41.6079 55.7596 40.1263 54.2577C40.0178 54.138 39.8842 54.0438 39.735 53.9818C39.5858 53.9198 39.4247 53.8915 39.2634 53.899C35.2791 53.9116 31.2953 53.9116 27.3121 53.899C26.2894 53.899 25.6614 53.0909 26.0404 52.2655C26.2894 51.7205 26.7545 51.5498 27.334 51.5529C30.4663 51.5623 33.5845 51.5529 36.709 51.5529H37.3025C37.2556 51.3305 37.0958 51.2397 36.9893 51.1285C35.4733 49.6062 33.9478 48.0933 32.4475 46.5616C32.2032 46.3126 32.0325 46.2813 31.7083 46.4426C22.1046 51.2319 10.8174 46.1528 8.04844 35.81C5.5426 26.4241 11.9294 16.6607 21.5346 15.212C30.8375 13.8025 39.2869 20.0514 40.6416 29.3716C41.1349 32.7858 40.557 36.0559 38.9955 39.1349C38.8092 39.4999 38.8389 39.6862 39.1271 39.9697C42.8942 43.7138 46.653 47.4689 50.4034 51.235C50.4982 51.3419 50.6154 51.4266 50.7467 51.4829C50.878 51.5392 51.0202 51.5658 51.163 51.5608C52.8857 51.5451 54.5991 51.5608 56.3187 51.5514C57.2381 51.5514 57.6781 51.1081 57.6781 50.181C57.6781 37.5067 57.6828 24.8318 57.6922 12.1565C57.6922 11.6584 57.4526 11.707 57.1284 11.707C49.0241 11.707 40.9193 11.707 32.814 11.707C22.8752 11.707 12.9353 11.7033 2.99448 11.696C2.49644 11.696 2.35705 11.7884 2.35705 12.3225C2.37585 24.8611 2.38054 37.3991 2.37115 49.9367C2.37115 51.2146 2.71727 51.5561 4.01247 51.5561C8.11474 51.5561 12.216 51.5561 16.3161 51.5561C16.7656 51.5561 17.176 51.6218 17.4751 51.9883C17.6169 52.1518 17.7082 52.3529 17.7379 52.5672C17.7676 52.7816 17.7346 52.9999 17.6427 53.1958C17.5653 53.3987 17.4289 53.5737 17.2511 53.6982C17.0732 53.8227 16.8621 53.891 16.645 53.8943C16.158 53.921 15.6693 53.9037 15.1807 53.9037H3.78695C1.45652 53.9037 0 52.4394 0 50.0948C0 34.8238 0 19.5518 0 4.27872C0 1.77288 0.626457 0.856684 2.9287 0H57.0705C58.2153 0.10963 59.0501 0.682842 59.6437 1.66012C59.888 2.05949 59.8755 2.50897 59.9992 2.93026V51.0956Z" fill="#4A4A4A"/>
  <path d="M59.999 2.93328C59.6858 1.86046 59.1611 0.944266 58.1196 0.427437C57.7845 0.256726 57.418 0.147098 57.0656 0.00927734C57.9442 0.00927734 58.8228 0.0218065 59.7014 0.00927734C59.9552 0.00927734 60.0147 0.0578253 60.0021 0.309975C59.988 1.17449 59.999 2.0531 59.999 2.93328Z" fill="white"/>
  <path d="M48.0498 24.8502C46.6402 24.8502 45.2417 24.8502 43.8384 24.8502C43.0052 24.8502 42.4523 24.3803 42.4508 23.6818C42.4492 22.9833 43.0099 22.5104 43.8384 22.5088C46.6648 22.5088 49.4917 22.5088 52.3191 22.5088C53.1304 22.5088 53.6503 22.9583 53.6691 23.6489C53.6879 24.3396 53.1523 24.8455 52.3191 24.8486C50.897 24.8549 49.4734 24.8502 48.0498 24.8502Z" fill="#4A4A4A"/>
  <path d="M50.6699 16.8814C51.2352 16.8814 51.7991 16.8814 52.3644 16.8814C53.1475 16.8924 53.6769 17.3748 53.669 18.0655C53.6612 18.7561 53.1506 19.2134 52.3958 19.2213C51.2274 19.2307 50.0591 19.2307 48.8907 19.2213C48.1484 19.2213 47.619 18.7279 47.6065 18.0686C47.5939 17.4092 48.1452 16.8924 48.9173 16.8814C49.5015 16.8752 50.0857 16.8814 50.6699 16.8814Z" fill="#4A4A4A"/>
  <path d="M51.003 30.4724C50.5332 30.4724 50.0633 30.4865 49.5935 30.4724C49.4368 30.4781 49.2805 30.4522 49.134 30.3962C48.9876 30.3402 48.8539 30.2552 48.741 30.1464C48.6281 30.0375 48.5383 29.9071 48.4769 29.7627C48.4156 29.6184 48.384 29.4632 48.384 29.3064C48.384 29.1495 48.4156 28.9943 48.4769 28.85C48.5383 28.7057 48.6281 28.5752 48.741 28.4664C48.8539 28.3575 48.9876 28.2725 49.134 28.2165C49.2805 28.1605 49.4368 28.1346 49.5935 28.1404C50.5468 28.1205 51.5011 28.1205 52.4564 28.1404C52.6127 28.1355 52.7683 28.1622 52.914 28.219C53.0597 28.2757 53.1925 28.3612 53.3043 28.4704C53.4162 28.5797 53.5049 28.7104 53.565 28.8547C53.6252 28.999 53.6556 29.1539 53.6545 29.3103C53.6545 29.9618 53.1565 30.441 52.4501 30.4755H52.3327C51.8848 30.4755 51.4369 30.4755 50.9889 30.4755L51.003 30.4724Z" fill="#4A4A4A"/>
  <path d="M42.4286 19.2213C42.0199 19.2213 41.6095 19.2385 41.2024 19.2213C40.8937 19.2227 40.5972 19.1015 40.3779 18.8843C40.1587 18.6671 40.0347 18.3717 40.0332 18.0631C40.0318 17.7545 40.153 17.4579 40.3702 17.2387C40.5874 17.0194 40.8828 16.8954 41.1914 16.894C42.0074 16.8674 42.8264 16.8674 43.644 16.894C43.9455 16.9035 44.2316 17.0297 44.4421 17.2459C44.6525 17.4621 44.7709 17.7514 44.7723 18.0531C44.7737 18.3548 44.6581 18.6453 44.4497 18.8635C44.2413 19.0816 43.9564 19.2105 43.6549 19.2229C43.254 19.2385 42.8374 19.2213 42.4286 19.2213Z" fill="#4A4A4A"/>
  <path d="M22.9847 52.7182C22.9893 52.8736 22.9625 53.0284 22.9058 53.1732C22.8491 53.318 22.7636 53.4498 22.6546 53.5607C22.5456 53.6717 22.4153 53.7594 22.2715 53.8186C22.1277 53.8778 21.9734 53.9073 21.8179 53.9053C21.6608 53.9094 21.5046 53.8818 21.3584 53.8242C21.2122 53.7666 21.0792 53.6801 20.9671 53.5699C20.8551 53.4598 20.7664 53.3281 20.7064 53.183C20.6464 53.0378 20.6162 52.882 20.6176 52.7249C20.6191 52.5677 20.6522 52.4125 20.715 52.2685C20.7777 52.1245 20.8689 51.9945 20.9829 51.8865C21.097 51.7784 21.2317 51.6945 21.3789 51.6396C21.5261 51.5847 21.6829 51.5601 21.8398 51.5671C22.144 51.5687 22.4352 51.6907 22.6497 51.9064C22.8643 52.1221 22.9847 52.414 22.9847 52.7182Z" fill="#4A4A4A"/>
  <path d="M29.9762 9.38605C20.974 9.38605 11.9723 9.38605 2.97108 9.38605C2.47774 9.38605 2.31799 9.29991 2.33208 8.75959C2.37437 7.10104 2.34618 5.44092 2.34775 3.7808C2.34775 2.76594 2.76278 2.33838 3.75728 2.33838H56.2421C57.2381 2.33838 57.6516 2.76437 57.6516 3.77454C57.6516 5.45345 57.6344 7.13236 57.6657 8.81127C57.6735 9.27172 57.5498 9.37978 57.0956 9.37978C48.0558 9.37039 39.016 9.37248 29.9762 9.38605Z" fill="white"/>
  <path d="M24.1141 45.9397C21.2865 45.9342 18.5241 45.0902 16.1762 43.5146C13.8283 41.939 12.0004 39.7025 10.9236 37.0879C9.84687 34.4734 9.56962 31.5983 10.127 28.8262C10.6843 26.0541 12.0512 23.5095 14.0547 21.5143C16.0583 19.519 18.6085 18.1628 21.3829 17.617C24.1573 17.0712 27.0313 17.3604 29.6413 18.4481C32.2513 19.5357 34.4802 21.3729 36.046 23.7274C37.6118 26.0818 38.4443 28.8477 38.4381 31.6753C38.4248 35.4647 36.9095 39.0942 34.2244 41.7681C31.5393 44.4421 27.9035 45.9423 24.1141 45.9397Z" fill="white"/>
  <path d="M50.1606 55.3445C50.1042 56.2842 49.6719 57.0438 48.7369 57.4494C47.802 57.855 46.8889 57.689 46.1465 56.9795C45.022 55.8958 43.932 54.7775 42.8263 53.6734C41.3353 52.1824 39.8506 50.6852 38.3487 49.2052C38.0934 48.953 38.0354 48.8105 38.3267 48.5255C39.2664 47.6359 40.1623 46.7166 41.0628 45.7941C41.2695 45.5827 41.3886 45.5514 41.6157 45.78C44.2259 48.4111 46.8456 51.0365 49.4746 53.6562C49.9164 54.1068 50.1628 54.7134 50.1606 55.3445Z" fill="white"/>
  <path d="M39.6519 43.8709C39.5611 43.968 39.4843 44.0526 39.4029 44.134C38.4804 45.058 37.5502 45.9758 36.6371 46.9092C36.4351 47.116 36.3098 47.1708 36.0842 46.9327C35.522 46.3376 34.9347 45.766 34.3489 45.1943C34.1735 45.0236 34.1532 44.9249 34.3709 44.7573C35.4512 43.9212 36.4219 42.9525 37.2604 41.8741C37.3841 41.7175 37.4624 41.6157 37.6519 41.813C38.2627 42.4394 38.8892 43.0549 39.5078 43.6767C39.5607 43.7377 39.6088 43.8026 39.6519 43.8709Z" fill="white"/>
  <path d="M39.8411 7.03666H27.6032C27.4278 7.0437 27.2521 7.04056 27.077 7.02726C26.7868 7.00114 26.5169 6.86741 26.3204 6.65237C26.1238 6.43732 26.0148 6.15652 26.0148 5.86518C26.0148 5.57384 26.1238 5.29304 26.3204 5.07799C26.5169 4.86295 26.7868 4.72922 27.077 4.7031C27.2526 4.69054 27.4288 4.68741 27.6048 4.6937H52.0853C52.2802 4.6845 52.4755 4.69025 52.6695 4.71093C52.9475 4.75067 53.2018 4.88936 53.3858 5.10154C53.5698 5.31371 53.6711 5.58512 53.6711 5.86596C53.6711 6.1468 53.5698 6.41821 53.3858 6.63039C53.2018 6.84256 52.9475 6.98125 52.6695 7.021C52.4754 7.04034 52.2801 7.04557 52.0853 7.03666H39.8411Z" fill="#4A4A4A"/>
  <path d="M7.5205 4.6875C7.75315 4.69081 7.97954 4.76341 8.17072 4.89602C8.3619 5.02864 8.50919 5.21526 8.59378 5.43202C8.67836 5.64878 8.69639 5.88583 8.64555 6.11289C8.59472 6.33994 8.47734 6.54669 8.30841 6.70669C8.13948 6.86669 7.92668 6.97269 7.6972 7.01113C7.46772 7.04958 7.23199 7.01872 7.02013 6.92251C6.80828 6.82629 6.62993 6.6691 6.50788 6.47101C6.38582 6.27291 6.3256 6.04293 6.33492 5.81044C6.3506 5.50685 6.48245 5.22093 6.70316 5.01188C6.92386 4.80284 7.21651 4.6867 7.5205 4.6875Z" fill="#4A4A4A"/>
  <path d="M12.6812 4.68755C12.9139 4.69183 13.1399 4.76537 13.3306 4.89877C13.5212 5.03218 13.6677 5.21939 13.7514 5.43649C13.8351 5.65358 13.8521 5.8907 13.8003 6.11753C13.7486 6.34437 13.6304 6.55062 13.4608 6.70992C13.2912 6.86923 13.078 6.97436 12.8484 7.01187C12.6188 7.04939 12.3832 7.01759 12.1717 6.92053C11.9603 6.82347 11.7826 6.66557 11.6613 6.467C11.54 6.26843 11.4807 6.03822 11.491 5.80578C11.5071 5.50195 11.6399 5.21606 11.8616 5.00773C12.0834 4.7994 12.377 4.6847 12.6812 4.68755Z" fill="#4A4A4A"/>
  <path d="M18.9787 5.88421C18.9741 6.11639 18.9004 6.34194 18.7671 6.53206C18.6337 6.72219 18.4468 6.86827 18.23 6.95165C18.0133 7.03503 17.7766 7.05194 17.5502 7.0002C17.3239 6.94847 17.118 6.83044 16.959 6.66119C16.8 6.49194 16.695 6.27915 16.6575 6.04998C16.62 5.82081 16.6516 5.58565 16.7484 5.37453C16.8451 5.16342 17.0026 4.98592 17.2006 4.86469C17.3987 4.74347 17.6284 4.68402 17.8604 4.69394C18.1641 4.71044 18.4498 4.84334 18.658 5.06501C18.8663 5.28668 18.9811 5.58007 18.9787 5.88421Z" fill="#4A4A4A"/>
  <path d="M24.1188 43.5954C21.7549 43.5905 19.4456 42.8846 17.4829 41.5671C15.5202 40.2496 13.9923 38.3797 13.0924 36.1938C12.1926 34.0079 11.9611 31.6043 12.4274 29.2868C12.8936 26.9694 14.0366 24.8423 15.7119 23.1745C17.3871 21.5067 19.5193 20.3732 21.8388 19.9173C24.1583 19.4614 26.5609 19.7035 28.7427 20.6131C30.9246 21.5227 32.7877 23.059 34.0964 25.0275C35.4051 26.996 36.1007 29.3085 36.0951 31.6723C36.0839 34.8403 34.8168 37.8746 32.5717 40.1097C30.3266 42.3448 27.2868 43.5983 24.1188 43.5954Z" fill="#4A4A4A"/>
  <path d="M24.1205 41.2525C22.8489 41.2628 21.588 41.0207 20.4107 40.54C19.2334 40.0594 18.1633 39.3499 17.2623 38.4526C16.3613 37.5553 15.6473 36.4881 15.1618 35.3129C14.6764 34.1376 14.429 32.8777 14.4341 31.6061C14.4391 30.3345 14.6966 29.0766 15.1914 27.9052C15.6863 26.7339 16.4087 25.6724 17.3169 24.7824C18.225 23.8923 19.3008 23.1914 20.4819 22.7202C21.6629 22.249 22.9258 22.0169 24.1972 22.0374C29.472 22.053 33.7648 26.3881 33.7507 31.6849C33.737 34.229 32.716 36.6641 30.9112 38.4572C29.1063 40.2503 26.6646 41.2554 24.1205 41.2525Z" fill="white"/>
  <path d="M25.3152 34.297C25.3152 34.9987 25.3152 35.7066 25.3152 36.4019C25.3152 37.2085 24.8564 37.7253 24.161 37.7347C23.4656 37.7441 22.9801 37.2257 22.9754 36.4333C22.9671 34.9903 22.9671 33.5479 22.9754 32.106C22.9754 31.3558 23.4609 30.8374 24.1281 30.828C24.7953 30.8186 25.3043 31.348 25.3137 32.1342C25.3215 32.8546 25.3152 33.575 25.3152 34.297Z" fill="#4A4A4A"/>
  <path d="M25.3123 26.745C25.3069 27.0549 25.1786 27.3499 24.9557 27.5652C24.7328 27.7805 24.4334 27.8984 24.1236 27.893C23.8137 27.8876 23.5187 27.7594 23.3034 27.5364C23.0881 27.3135 22.9702 27.0142 22.9756 26.7043C22.9783 26.5509 23.0111 26.3995 23.0723 26.2588C23.1335 26.118 23.2218 25.9907 23.3322 25.8841C23.4426 25.7775 23.5729 25.6937 23.7156 25.6375C23.8584 25.5812 24.0109 25.5537 24.1643 25.5563C24.3177 25.559 24.4691 25.5919 24.6098 25.6531C24.7506 25.7142 24.8779 25.8025 24.9845 25.9129C25.0911 26.0233 25.1749 26.1536 25.2311 26.2964C25.2874 26.4392 25.315 26.5916 25.3123 26.745Z" fill="#4A4A4A"/>
</svg>