<svg xmlns="http://www.w3.org/2000/svg" width="56" height="59" viewBox="0 0 56 59" fill="none">
  <path d="M10.2043 7.89002C10.2043 6.50482 10.194 5.28892 10.2043 4.07474C10.2282 1.77633 11.964 0.0200371 14.2573 0.0149067C21.5493 0.00293585 28.8412 0.0149038 36.1349 0.00122281C36.3355 -0.0079294 36.5351 0.0344137 36.7147 0.124216C36.8943 0.214019 37.0479 0.348292 37.161 0.51426C37.9134 1.57112 38.9121 1.81908 40.1879 1.78146C43.4251 1.6874 46.671 1.82421 49.9082 1.72674C52.6564 1.64465 54.3221 3.70535 54.2554 6.04138C54.151 9.68565 54.2331 13.3333 54.2194 16.9862C54.2194 17.3966 54.281 17.7369 54.6316 17.9815C55.7722 18.7801 56.0099 19.8626 55.9997 21.2307C55.945 33.3418 55.9689 45.4546 55.9672 57.5674C55.9672 58.7645 55.88 58.8551 54.6504 58.8551H14.4215C12.2787 58.8551 10.6489 57.5554 10.2624 55.5306C10.2053 55.1515 10.1841 54.7679 10.1992 54.3848C10.1992 45.1091 10.2037 35.8329 10.2129 26.556C10.2129 25.9609 10.0504 25.8326 9.48263 25.8412C7.13805 25.8737 4.79177 25.8583 2.44548 25.8532C0.921758 25.8532 0.00855061 24.9605 0.00684049 23.4402C-0.00228016 18.7476 -0.00228016 14.0562 0.00684049 9.36586C0.00684049 7.90028 0.879005 7.00076 2.34458 6.97168C4.22572 6.9409 6.0983 6.95971 7.9743 6.97168C8.3894 6.96148 8.80208 7.03787 9.18603 7.19599C9.56997 7.3541 9.91676 7.59046 10.2043 7.89002Z" fill="#333333"/>
  <path d="M34.1734 57.5536H14.731C12.5592 57.5536 11.5023 56.5053 11.5023 54.3523C11.5023 45.0777 11.4972 35.8026 11.4869 26.5268C11.4869 25.9522 11.634 25.8325 12.1847 25.8428C14.5293 25.8753 16.8755 25.8599 19.2201 25.8548C20.79 25.8548 21.693 24.9689 21.6964 23.4127C21.7044 20.1715 21.7044 16.9302 21.6964 13.689C21.6964 12.1652 20.7832 11.2674 19.2663 11.264C17.2141 11.264 15.174 11.252 13.1269 11.2743C12.9636 11.2823 12.8009 11.2485 12.6543 11.176C12.5076 11.1036 12.3819 10.995 12.289 10.8604C11.9928 10.5163 11.7689 10.116 11.6305 9.68359C11.4921 9.25114 11.4421 8.79527 11.4835 8.34311C11.5571 6.97501 11.4972 5.60691 11.5023 4.25078C11.5109 2.47225 12.6327 1.32134 14.4095 1.31792C21.51 1.30766 28.6036 1.31792 35.7091 1.30766C35.8447 1.30308 35.9796 1.32809 36.1046 1.38095C36.2295 1.43382 36.3414 1.51327 36.4325 1.61378C42.3974 7.58781 48.3674 13.5573 54.3426 19.5222C54.4483 19.6232 54.5307 19.7461 54.5838 19.8823C54.637 20.0185 54.6597 20.1646 54.6504 20.3105C54.6504 32.5277 54.6539 44.7448 54.6607 56.9619C54.6607 57.5245 54.4469 57.5639 53.9955 57.5639C47.3898 57.5502 40.7825 57.5468 34.1734 57.5536Z" fill="white"/>
  <path d="M10.8199 24.5553C8.07232 24.5553 5.32416 24.5553 2.57542 24.5553C1.63314 24.5553 1.34071 24.2748 1.34071 23.3582C1.34071 18.734 1.34071 14.1098 1.34071 9.48567C1.34071 8.56734 1.60407 8.30739 2.51728 8.30568C4.30606 8.30568 6.09656 8.32108 7.88535 8.30568C8.20434 8.28432 8.52311 8.35044 8.8073 8.4969C9.09148 8.64336 9.33029 8.86461 9.49799 9.13681C10.1393 10.0876 10.8353 11.006 11.4612 11.9688C11.7656 12.4391 12.1247 12.5947 12.6737 12.5861C14.7823 12.5588 16.8909 12.5742 19.0011 12.5759C20.1144 12.5759 20.3692 12.8238 20.3692 13.908C20.3692 17.0182 20.3692 20.1289 20.3692 23.2402C20.3692 24.3073 20.1076 24.5707 19.0627 24.5707L10.8199 24.5553Z" fill="white"/>
  <path d="M52.9147 16.09L39.8869 3.06226H50.0759C51.9382 3.06226 52.9386 4.07122 52.9386 5.95407C52.9386 9.30021 52.9386 12.6475 52.9386 15.9959C52.9357 16.0283 52.9277 16.0601 52.9147 16.09Z" fill="white"/>
  <path d="M45.7869 46.5627C45.7869 44.6816 44.7488 43.6282 42.8797 43.6282H33.0909C29.7647 43.6282 26.4386 43.6282 23.1124 43.6282C21.563 43.6282 20.4497 44.6337 20.3967 46.1677C20.3403 47.765 20.3385 49.3673 20.3967 50.956C20.4531 52.4541 21.5698 53.4785 23.0696 53.4802C29.7425 53.4893 36.4154 53.4893 43.0883 53.4802C44.6668 53.4802 45.7698 52.3566 45.7835 50.7731C45.7954 49.3776 45.7886 47.9668 45.7869 46.5627ZM44.4872 50.6363C44.4872 51.6777 43.9588 52.1925 42.9019 52.1942C39.6413 52.1942 36.3801 52.1942 33.1183 52.1942H23.398C22.1427 52.1942 21.7032 51.7581 21.6998 50.5063C21.6998 49.1382 21.6998 47.7701 21.6998 46.414C21.6998 45.4272 22.2128 44.9244 23.2047 44.9244C29.7898 44.9244 36.3761 44.9244 42.9635 44.9244C43.969 44.9244 44.4786 45.4546 44.4838 46.4789C44.4952 47.8653 44.4963 49.2511 44.4872 50.6363Z" fill="#333333"/>
  <path d="M33.1165 36.4473C35.9485 36.4473 38.7816 36.4473 41.6158 36.4473C42.1032 36.4473 42.5752 36.5003 42.5598 37.1091C42.5444 37.7179 42.0741 37.7572 41.5884 37.7555C35.9211 37.7555 30.2549 37.7555 24.5898 37.7555C24.4838 37.7555 24.3761 37.7555 24.27 37.7555C23.8767 37.7281 23.6219 37.5315 23.6151 37.1211C23.6151 36.6781 23.8647 36.4609 24.2991 36.4592C25.4962 36.4592 26.6847 36.4592 27.8784 36.4592L33.1165 36.4473Z" fill="#333333"/>
  <path d="M33.0481 39.8711H37.8365C38.2896 39.8711 38.7445 39.9105 38.7599 40.4919C38.7787 41.1007 38.3324 41.1948 37.8399 41.1931C34.6636 41.1931 31.4879 41.1931 28.3128 41.1931C27.8117 41.1931 27.3688 41.0768 27.3825 40.4936C27.3962 39.9361 27.8459 39.866 28.3094 39.8677C29.8946 39.8745 31.4714 39.8711 33.0481 39.8711Z" fill="#333333"/>
  <path d="M5.7289 11.4061C4.89949 11.4061 4.07008 11.3959 3.24238 11.4061C2.79091 11.4061 2.45572 11.2351 2.44375 10.7837C2.43007 10.2911 2.77039 10.0996 3.25093 10.0996C4.93027 10.1099 6.60962 10.0996 8.28896 10.0996C8.72846 10.0996 9.06364 10.2364 9.07732 10.7255C9.09442 11.2539 8.7524 11.4096 8.2804 11.3993C7.43047 11.3993 6.58054 11.4061 5.7289 11.4061Z" fill="#333333"/>
  <path d="M47.2131 5.65492C46.2537 5.65492 45.2943 5.65492 44.3367 5.65492C43.8784 5.65492 43.497 5.54206 43.4919 5.01705C43.4867 4.49204 43.8459 4.34668 44.3127 4.34668C46.2725 4.34668 48.2329 4.34668 50.1938 4.34668C50.6658 4.34668 51.0164 4.51769 51.0096 5.03073C51.0096 5.50443 50.6675 5.66177 50.2178 5.65835C49.2174 5.6498 48.2152 5.65492 47.2131 5.65492Z" fill="#333333"/>
  <path d="M48.6 6.96816C49.1524 6.96816 49.7048 6.95961 50.2588 6.96816C50.6932 6.97842 51.0267 7.16482 51.013 7.6522C50.9993 8.13959 50.671 8.30034 50.2281 8.30205C49.121 8.30205 48.0146 8.30205 46.9087 8.30205C46.4743 8.30205 46.1426 8.13104 46.1289 7.65391C46.1152 7.17679 46.4419 6.98696 46.8762 6.96986C47.4508 6.9596 48.0254 6.96816 48.6 6.96816Z" fill="#333333"/>
  <path d="M49.585 10.7614C49.3097 10.7614 49.0326 10.775 48.7573 10.7614C48.677 10.7623 48.5973 10.7465 48.5235 10.7149C48.4496 10.6834 48.3832 10.6367 48.3285 10.5779C48.2737 10.5191 48.2319 10.4496 48.2056 10.3737C48.1793 10.2978 48.1692 10.2172 48.1759 10.1372C48.1759 9.76435 48.3725 9.50954 48.7385 9.48902C49.3079 9.45255 49.8791 9.45255 50.4486 9.48902C50.5294 9.49224 50.6087 9.51213 50.6815 9.54745C50.7542 9.58277 50.8189 9.63275 50.8714 9.69426C50.9239 9.75577 50.9631 9.82747 50.9866 9.90487C51.0101 9.98226 51.0173 10.0637 51.0078 10.144C51.0106 10.2244 50.997 10.3045 50.9679 10.3794C50.9388 10.4544 50.8948 10.5226 50.8385 10.58C50.7822 10.6375 50.7148 10.6828 50.6404 10.7134C50.5661 10.744 50.4863 10.7591 50.4059 10.7579C50.1374 10.775 49.8603 10.7614 49.585 10.7614Z" fill="#333333"/>
</svg>