<svg xmlns="http://www.w3.org/2000/svg" width="58" height="74" viewBox="0 0 58 74" fill="none">
  <path d="M47.8789 0C48.64 0.486716 48.8503 1.18174 48.8483 2.07305C48.8283 16.6345 48.8236 31.1952 48.8343 45.7553C48.8343 47.3576 48.3656 47.8243 46.8073 47.8243H11.0667C9.5385 47.8243 9.08984 47.3837 9.08984 45.8754C9.08984 31.2393 9.08583 16.6037 9.07782 1.9689C9.07782 1.09361 9.27811 0.406598 10.1093 0H47.8789Z" fill="#4A4A4A"/>
  <path d="M21.322 50.1841C23.8016 50.2585 26.2144 51.0055 28.3022 52.3452C31.7253 54.5345 35.1022 56.7978 38.5173 59.005C39.8713 59.8803 40.9208 60.9499 41.1772 62.6103C41.2613 63.1591 41.6018 62.9568 41.8962 62.8787C45.4815 61.9233 49.0708 60.9779 52.65 59.9985C54.2804 59.5518 55.7246 59.7982 56.9083 61.04C59.0294 63.2713 57.9098 66.8906 54.8433 67.7238C51.6225 68.5991 48.3938 69.4384 45.169 70.2976C41.2686 71.3378 37.3709 72.3794 33.4758 73.4222C31.3247 74.0011 29.2697 73.5304 27.2347 72.8854C23.2789 71.6336 19.5854 69.7749 15.872 67.9642C14.4379 67.2672 13.0078 66.5621 11.5877 65.8431C11.4469 65.7703 11.2928 65.7268 11.1348 65.7155C10.9767 65.7041 10.818 65.725 10.6683 65.777C8.53117 66.3618 6.38802 66.9287 4.24687 67.4995C3.42166 67.7178 2.85683 67.4775 2.66855 66.8365C2.48028 66.1956 2.86884 65.7129 3.69806 65.4886C5.98342 64.8877 8.27479 64.2868 10.5521 63.6458C11.053 63.4873 11.5961 63.5319 12.0644 63.77C15.3252 65.3724 18.58 66.9888 21.8608 68.5511C24.0984 69.6438 26.4224 70.5502 28.809 71.261C30.3174 71.7168 31.9246 71.7328 33.4418 71.3071C40.2518 69.4263 47.0979 67.6177 53.9279 65.783C54.1442 65.7249 54.3646 65.6728 54.5729 65.5947C55.4462 65.2682 55.9749 64.3249 55.7746 63.5137C55.5303 62.5983 54.673 61.9754 53.7276 62.1777C52.2675 62.4901 50.8274 62.8987 49.3832 63.2813C46.7594 63.977 44.1369 64.6774 41.5157 65.3824C41.1872 65.4705 40.9028 65.5627 40.7045 65.9332C39.3545 68.4409 36.322 69.3162 33.9065 67.808C30.3953 65.6188 26.9442 63.3314 23.4671 61.0881L22.3375 60.357C21.4922 59.8082 21.2739 59.2574 21.6565 58.6525C22.039 58.0476 22.6419 57.9975 23.4771 58.5383L32.9471 64.6874C33.548 65.088 34.1488 65.4886 34.7698 65.8631C36.1858 66.7404 37.8963 66.4039 38.7196 65.096C39.5067 63.8481 39.1061 62.2157 37.7641 61.3164C34.1809 58.9129 30.6337 56.4513 26.9863 54.1519C24.8291 52.7899 22.4036 51.8585 19.8098 52.5495C17.262 53.2285 14.7183 53.9296 12.1725 54.6246C8.71344 55.568 5.24434 56.4793 1.77924 57.4027C1.6831 57.4287 1.57895 57.4487 1.48882 57.4708C0.751732 57.641 0.19692 57.3806 0.0466988 56.7998C-0.125554 56.1268 0.180897 55.616 0.929998 55.4117C3.06914 54.8289 5.21229 54.2701 7.35144 53.6892C11.3173 52.6096 15.2771 51.516 19.2429 50.4364C19.9191 50.2471 20.6202 50.162 21.322 50.1841Z" fill="#4A4A4A"/>
  <path d="M11.3051 23.9413C11.3051 16.947 11.3151 9.95269 11.2891 2.96041C11.2891 2.32748 11.4473 2.19528 12.0622 2.19729C23.3027 2.21732 34.5433 2.21732 45.7838 2.19729C46.4267 2.19729 46.605 2.32548 46.603 2.99847C46.5816 16.9617 46.5816 30.9249 46.603 44.8881C46.603 45.557 46.4347 45.7033 45.7798 45.7033C34.5392 45.6819 23.2987 45.6819 12.0582 45.7033C11.4233 45.7033 11.2891 45.537 11.2911 44.9241C11.3151 37.9298 11.3051 30.9355 11.3051 23.9413Z" fill="#FEFEFE"/>
  <path d="M28.9692 36.2413H40.8026C41.0524 36.2312 41.3027 36.2373 41.5517 36.2593C41.8042 36.2739 42.0423 36.3814 42.2202 36.5611C42.3981 36.7409 42.5032 36.9801 42.5151 37.2328C42.5752 37.7996 42.3148 38.1841 41.784 38.4005C41.4969 38.4878 41.1953 38.5171 40.8967 38.4866H17.0056C16.7076 38.5157 16.4067 38.4892 16.1183 38.4085C15.8746 38.3397 15.6642 38.1849 15.5261 37.9727C15.388 37.7605 15.3315 37.5054 15.3672 37.2548C15.3715 36.9997 15.4712 36.7555 15.6465 36.5701C15.8218 36.3848 16.0601 36.2718 16.3146 36.2533C16.5629 36.2295 16.8125 36.2229 17.0617 36.2333L28.9692 36.2413Z" fill="#4A4A4A"/>
  <path d="M28.9652 27.252H40.7946C41.0438 27.2406 41.2935 27.2473 41.5417 27.272C41.8068 27.2917 42.0548 27.4107 42.236 27.6053C42.4172 27.7999 42.5183 28.0557 42.5191 28.3215C42.547 28.5729 42.4805 28.8257 42.3324 29.0308C42.1843 29.2358 41.9653 29.3786 41.7179 29.4312C41.4758 29.4874 41.2271 29.5097 40.9789 29.4973H16.9435C16.7694 29.5073 16.5949 29.5073 16.4207 29.4973C15.7678 29.4172 15.3472 28.9565 15.3612 28.3556C15.3649 28.0655 15.4832 27.7887 15.6904 27.5857C15.8976 27.3826 16.1767 27.2699 16.4668 27.272C17.314 27.242 18.1633 27.258 19.0126 27.258L28.9652 27.252Z" fill="#4A4A4A"/>
  <path d="M28.9191 20.5402H17.0056C16.7813 20.5536 16.5562 20.549 16.3326 20.5262C15.7318 20.4301 15.3913 20.0695 15.3632 19.4687C15.3352 18.8678 15.6677 18.4812 16.2385 18.331C16.4598 18.2907 16.6852 18.2786 16.9095 18.2949H40.9448C41.1452 18.2795 41.3466 18.2856 41.5457 18.3129C42.1466 18.4431 42.5472 18.8017 42.5171 19.4506C42.4871 20.0996 42.1166 20.4521 41.4936 20.5342C41.2938 20.5507 41.0931 20.554 40.8928 20.5442L28.9191 20.5402Z" fill="#4A4A4A"/>
  <path d="M28.8432 11.5909H17.0879C16.8137 11.6037 16.5389 11.5923 16.2667 11.5568C16.0015 11.5285 15.7581 11.3968 15.5894 11.1901C15.4206 10.9835 15.3402 10.7188 15.3654 10.4532C15.3774 9.86634 15.766 9.5639 16.3028 9.45174C16.4769 9.43097 16.6526 9.42628 16.8275 9.43771H41.0111C41.186 9.42563 41.3617 9.42965 41.5359 9.44973C42.1047 9.55789 42.5213 9.85032 42.5173 10.4833C42.5133 11.1162 42.1608 11.4527 41.5699 11.5548C41.3221 11.585 41.0723 11.595 40.8228 11.5849L28.8432 11.5909Z" fill="#4A4A4A"/>
</svg>