<svg xmlns="http://www.w3.org/2000/svg" width="183" height="59" viewBox="0 0 183 59" fill="none">
  <path d="M35.5234 0.163286C37.9797 -0.140832 40.4705 -0.0194962 42.8852 0.52191C45.3877 1.09506 47.7544 2.14614 49.8538 3.61674C50.1158 3.80762 50.3839 3.99399 50.6378 4.19728L51.3932 4.81869L52.1125 5.48478C52.3584 5.70279 52.5815 5.94223 52.8061 6.18187C53.7172 7.13808 54.5271 8.18493 55.2228 9.3059C55.9325 10.4257 56.53 11.6121 57.0066 12.8479L57.3564 13.7779L57.6532 14.7239C57.7574 15.0392 57.8392 15.3585 57.9152 15.6797C57.9888 16.001 58.0793 16.3212 58.1375 16.6451L58.3169 17.6178C58.3822 17.9424 58.4092 18.269 58.4564 18.5953C58.5549 19.2486 58.5889 19.9029 58.6422 20.5595C58.6625 20.8874 58.6643 21.2147 58.6713 21.5429L58.6797 22.0352C58.6819 22.1993 58.6723 22.3622 58.669 22.5259L58.6386 23.5078C58.6191 23.834 58.5903 24.159 58.5659 24.4851L58.5271 24.9741C58.5124 25.1369 58.4888 25.2978 58.4699 25.4599L58.3483 26.4314C58.3002 26.7536 58.243 27.0738 58.1866 27.3948C58.1295 27.7156 58.0755 28.0376 57.9996 28.3533L57.7864 29.3055C57.716 29.6234 57.6221 29.9336 57.5406 30.2482C57.379 30.8785 57.1754 31.4936 56.9763 32.1113C56.8819 32.4222 56.7663 32.7244 56.6551 33.0287L56.3164 33.9398L55.9409 34.8347C55.8156 35.1332 55.6926 35.4329 55.5512 35.7233C55.2775 36.3087 55.0087 36.8979 54.699 37.4645L54.2468 38.3215L53.7638 39.1604C53.1207 40.2803 52.3988 41.3499 51.6574 42.404C51.2756 42.9225 50.8846 43.4347 50.4889 43.9425L49.8754 44.688C49.6702 44.9359 49.4691 45.1875 49.2516 45.4245L48.6071 46.1425C48.4989 46.2615 48.3931 46.3827 48.2829 46.4997L47.9471 46.8457C47.4988 47.3064 47.0562 47.7727 46.5837 48.2092L45.882 48.8706C45.6443 49.0871 45.3988 49.2955 45.1574 49.508C44.9138 49.7182 44.6749 49.9335 44.4272 50.139L43.6748 50.7449C41.658 52.356 39.4878 53.7676 37.1953 54.9597C36.6183 55.2522 36.0456 55.5507 35.4522 55.8114C35.1576 55.9455 34.864 56.0808 34.5668 56.2089L33.6659 56.5738L33.2156 56.7554C33.0649 56.8144 32.9108 56.8662 32.7586 56.9219L31.8417 57.2461C31.5362 57.3536 31.2217 57.4396 30.9124 57.5368C30.6006 57.6278 30.2946 57.7332 29.9784 57.8112C27.4673 58.5167 24.8779 58.91 22.2695 58.9821L21.2899 59L20.3084 58.9679C20.145 58.9604 19.982 58.9587 19.8186 58.9461L19.3285 58.9044C19.0021 58.8738 18.6763 58.8534 18.351 58.8133C17.0477 58.661 15.7582 58.409 14.4938 58.0597C14.1778 57.9739 13.8664 57.8647 13.5538 57.7679L13.0865 57.6179L12.626 57.4435C12.3203 57.3241 12.013 57.2132 11.7114 57.086L10.8188 56.6755C10.5196 56.5456 10.2367 56.3755 9.94781 56.2243C9.6611 56.0676 9.37125 55.9202 9.09749 55.7403L8.26947 55.2227C8.00282 55.0355 7.73874 54.8458 7.47724 54.6538C6.44173 53.8832 5.48769 53.0099 4.62986 52.0474C3.77628 51.1069 3.0261 50.0784 2.39206 48.9795C1.1479 46.8402 0.351287 44.4729 0.0500488 42.0199C0.962675 44.1972 2.22298 46.2136 3.78228 47.9913C4.53955 48.8441 5.3771 49.6229 6.28349 50.3171C7.16254 51.0104 8.10667 51.618 9.10281 52.1314C11.0625 53.1461 13.179 53.8276 15.3648 54.1477C15.9114 54.2148 16.4523 54.2905 17.0018 54.3235C17.546 54.3811 18.0986 54.3803 18.6454 54.399C18.9196 54.4029 19.1957 54.3881 19.4698 54.3842L19.8811 54.375C20.0182 54.3709 20.1559 54.356 20.2931 54.3473L21.1152 54.2907L21.9363 54.2003L22.3459 54.1553L22.7546 54.0906L23.5702 53.9614L24.3812 53.7944L24.7858 53.7115C24.9203 53.6806 25.0539 53.6441 25.1879 53.6108L25.9916 53.4137C26.2584 53.3428 26.5232 53.2612 26.7888 53.1862C27.3219 53.0445 27.8431 52.8519 28.3678 52.6804C30.4565 51.9322 32.4728 50.9976 34.3921 49.8882C36.3186 48.777 38.1445 47.5017 39.8493 46.0765L40.4898 45.5426C40.701 45.362 40.9042 45.1716 41.112 44.9869C41.3178 44.7998 41.5277 44.6174 41.7304 44.427L42.3287 43.8448C42.7368 43.4661 43.1162 43.059 43.5025 42.6589C43.8972 42.266 44.2491 41.8357 44.625 41.4264C46.0907 39.7622 47.4093 37.9753 48.5662 36.0857L48.9985 35.379L49.4021 34.6571C49.6793 34.1793 49.9201 33.6848 50.1738 33.1956C50.3045 32.9525 50.4166 32.7018 50.5318 32.4522L50.8789 31.7036L51.1957 30.9438C51.3017 30.6905 51.4131 30.4387 51.5032 30.1803C52.2934 28.142 52.8662 26.0269 53.2122 23.8697C53.3791 22.799 53.4805 21.7191 53.5158 20.6361C53.5183 20.0981 53.5437 19.5553 53.5093 19.0191C53.4942 18.7509 53.4999 18.4783 53.469 18.2122L53.3954 17.409C53.3735 17.1402 53.3209 16.8783 53.286 16.6117L53.2306 16.2121C53.2137 16.0784 53.1814 15.9491 53.1576 15.817L53.004 15.0262L52.8046 14.2476C52.5249 13.2109 52.1573 12.1996 51.7058 11.2246L51.5394 10.8557L51.3497 10.4995C51.2202 10.2637 51.1045 10.0173 50.9638 9.78701L50.5375 9.0957C50.3995 8.86099 50.2316 8.64819 50.0799 8.42147C49.9295 8.19362 49.7676 7.97352 49.5948 7.762L49.081 7.11888L48.5272 6.5063C48.339 6.30454 48.1378 6.11597 47.9456 5.91538C46.3135 4.33955 44.419 3.05696 42.3463 2.12456C40.1695 1.17295 37.8751 0.513405 35.5234 0.163286Z" fill="white"/>
  <path d="M37.4431 13.135C39.9282 13.825 42.1881 15.5767 43.7028 17.8896C45.206 20.2168 45.94 23.0367 45.9754 25.8096C45.9932 28.5863 45.449 31.3381 44.3751 33.9014C43.3215 36.4432 41.8525 38.7943 40.0274 40.8594C38.2206 42.9249 36.094 44.6904 33.7276 46.0893C31.3588 47.5033 28.7509 48.4768 26.0315 48.9622C25.3517 49.0807 24.6657 49.1615 23.9769 49.2042C23.6344 49.2349 23.2863 49.2326 22.9432 49.247C22.599 49.2569 22.2519 49.2349 21.9088 49.2277C20.5317 49.1657 19.1686 48.9259 17.8537 48.5143C15.2416 47.7036 12.8964 46.064 11.5025 43.9064C12.5503 44.5711 13.6775 45.1028 14.858 45.4893C15.9831 45.8486 17.15 46.0629 18.3299 46.1267C20.6292 46.2469 22.93 45.923 25.1054 45.173C27.268 44.446 29.3164 43.4188 31.1899 42.1217C33.068 40.8295 34.7775 39.3102 36.2789 37.5988C37.7803 35.9027 39.0526 34.0189 40.0636 31.9952C41.0723 29.9886 41.7507 27.8341 42.0729 25.6138C42.096 25.4754 42.1113 25.3372 42.1227 25.1988L42.1675 24.7825C42.195 24.5046 42.2026 24.2273 42.2226 23.9473C42.2227 23.6702 42.2318 23.3898 42.2242 23.1113C42.2038 22.8355 42.2182 22.5505 42.1852 22.2748C42.1016 21.15 41.8791 20.0397 41.5226 18.969C41.142 17.8663 40.6116 16.8204 39.9461 15.8606C39.2359 14.8466 38.3943 13.9302 37.4431 13.135Z" fill="#F39623"/>
  <path d="M39.8218 36.4792L59.2946 58.6909L34.7447 42.1871L39.8218 36.4792Z" fill="#F39623"/>
  <path d="M59.5319 42.0648H63.6124V53.5808H67.5088V42.0648H71.6004V38.4595H59.5319V42.0648Z" fill="white"/>
  <path d="M77.0234 42.1716H73.365V53.5801H77.0234V42.1716Z" fill="white"/>
  <path d="M76.3849 36.9038C76.036 36.7096 75.6428 36.6077 75.2429 36.6077C74.8431 36.6077 74.4499 36.7096 74.101 36.9038C73.7785 37.0915 73.5115 37.3607 73.3272 37.684C73.1473 37.9913 73.0521 38.3402 73.051 38.6958C73.0516 39.0496 73.147 39.3969 73.3272 39.7021C73.5128 40.023 73.7795 40.2902 74.101 40.477C74.45 40.671 74.8431 40.7729 75.2429 40.7729C75.6428 40.7729 76.0359 40.671 76.3849 40.477C76.7053 40.2911 76.9719 40.026 77.1587 39.7073C77.3401 39.4008 77.4355 39.0515 77.4347 38.6958C77.4336 38.3403 77.3384 37.9913 77.1587 37.684C76.9743 37.3607 76.7074 37.0916 76.3849 36.9038Z" fill="white"/>
  <path d="M95.8834 42.4347C95.2082 42.0468 94.4386 41.8513 93.6591 41.8699C92.9126 41.869 92.1751 42.0325 91.4997 42.3487C90.8291 42.654 90.2356 43.1045 89.7625 43.6671C89.4172 43.1 88.9234 42.6369 88.3339 42.3271C87.7105 42.0132 87.0192 41.8562 86.3206 41.8699C85.0003 41.8695 83.7314 42.3788 82.7812 43.2904L82.3483 42.1711H79.5341V53.5795H83.1925V47.3801C83.1904 47.0156 83.2758 46.6559 83.4416 46.3308C83.6014 46.0112 83.8443 45.7399 84.1451 45.5451C84.4472 45.3482 84.8013 45.2451 85.1625 45.2492C85.4037 45.2348 85.645 45.277 85.8668 45.3723C86.0886 45.4677 86.2849 45.6135 86.4396 45.798C86.7355 46.164 86.8834 46.6949 86.8834 47.3909V53.5795H90.5418V47.1542C90.5771 46.8198 90.6842 46.4968 90.8557 46.207C91.022 45.9201 91.2584 45.6795 91.543 45.5076C91.8318 45.3342 92.1636 45.2447 92.5009 45.2492C92.7422 45.2348 92.9834 45.277 93.2053 45.3723C93.4271 45.4677 93.6233 45.6135 93.7781 45.798C94.0739 46.164 94.2219 46.6949 94.2221 47.3909V53.5795H97.8805V46.8959C97.9084 45.947 97.7293 45.0034 97.3555 44.1299C97.0508 43.4283 96.537 42.8366 95.8834 42.4347Z" fill="white"/>
  <path d="M105.563 49.4687L103.225 42.1716H99.1989L103.778 53.58H107.349L111.949 42.1716H107.912L105.563 49.4687Z" fill="white"/>
  <path d="M116.29 36.9038C115.941 36.7096 115.548 36.6077 115.148 36.6077C114.748 36.6077 114.355 36.7096 114.006 36.9038C113.683 37.0915 113.416 37.3607 113.232 37.684C113.052 37.9913 112.957 38.3402 112.956 38.6958C112.956 39.0496 113.052 39.3969 113.232 39.7021C113.418 40.023 113.684 40.2902 114.006 40.477C114.355 40.671 114.748 40.7729 115.148 40.7729C115.547 40.7729 115.941 40.671 116.29 40.477C116.61 40.2911 116.877 40.026 117.063 39.7073C117.245 39.4008 117.34 39.0515 117.339 38.6958C117.338 38.3403 117.243 37.9913 117.063 37.684C116.879 37.3607 116.612 37.0916 116.29 36.9038Z" fill="white"/>
  <path d="M116.928 42.1716H113.269V53.5801H116.928V42.1716Z" fill="white"/>
  <path d="M127.579 42.6829C126.628 42.1633 125.556 41.9051 124.472 41.9349C123.432 41.9193 122.409 42.1993 121.523 42.7421C120.658 43.2752 119.953 44.0298 119.482 44.9268C118.989 45.855 118.736 46.8907 118.746 47.9405C118.739 48.9808 119.006 50.005 119.52 50.9108C120.028 51.8137 120.77 52.5646 121.669 53.085C122.608 53.6291 123.678 53.9082 124.764 53.8922C125.552 53.9006 126.335 53.7675 127.075 53.4992C127.762 53.2472 128.396 52.8694 128.942 52.3854L127.276 49.9961C126.972 50.2603 126.626 50.473 126.253 50.6257C125.854 50.7789 125.43 50.8538 125.003 50.8463C124.421 50.8576 123.85 50.6944 123.363 50.3781C122.885 50.06 122.529 49.592 122.351 49.0488H130.122C130.186 48.6465 130.219 48.24 130.22 47.8327C130.241 46.7721 130.011 45.7215 129.549 44.7655C129.116 43.8913 128.43 43.1659 127.579 42.6829ZM122.286 46.692C122.408 46.1549 122.707 45.6737 123.136 45.3251C123.563 45.003 124.088 44.8359 124.624 44.8515C125.146 44.8334 125.658 44.9992 126.069 45.3198C126.482 45.6767 126.765 46.1589 126.875 46.692L122.286 46.692Z" fill="white"/>
  <path d="M136.253 45.5887C136.64 45.3573 137.084 45.2363 137.536 45.239C137.93 45.232 138.321 45.3014 138.689 45.4434C139.05 45.5953 139.387 45.7983 139.69 46.0462L141.487 43.4416C140.949 42.9643 140.327 42.5903 139.652 42.3384C138.917 42.0639 138.137 41.9271 137.352 41.9349C136.271 41.9194 135.206 42.1985 134.273 42.7421C133.373 43.2667 132.631 44.021 132.124 44.9268C131.604 45.8465 131.335 46.8855 131.345 47.9405C131.336 48.9844 131.603 50.0122 132.119 50.9216C132.626 51.8245 133.368 52.5754 134.267 53.0958C135.206 53.6398 136.276 53.9189 137.363 53.9029C138.144 53.909 138.92 53.7721 139.652 53.4993C140.329 53.2508 140.951 52.8764 141.487 52.3961L139.69 49.8023C139.385 50.0446 139.048 50.2438 138.689 50.3943C138.321 50.5364 137.93 50.6058 137.536 50.5987C137.088 50.6005 136.648 50.4795 136.264 50.249C135.872 50.0168 135.547 49.6866 135.322 49.2912C135.086 48.8801 134.965 48.4138 134.971 47.9405C134.963 47.4555 135.082 46.977 135.317 46.552C135.537 46.1538 135.861 45.8213 136.253 45.5887Z" fill="white"/>
  <path d="M153.033 42.527C152.31 42.123 151.492 41.9186 150.663 41.9352C150.049 41.9436 149.442 42.064 148.872 42.2904C148.277 42.5095 147.726 42.83 147.243 43.2374V37.4363H143.606V53.5803H147.243V47.3809C147.244 47.0109 147.351 46.6489 147.551 46.3371C147.759 46.0052 148.05 45.7326 148.395 45.5459C148.754 45.3482 149.159 45.2462 149.57 45.25C149.84 45.2392 150.109 45.2881 150.358 45.3932C150.607 45.4984 150.829 45.6572 151.009 45.8581C151.37 46.2635 151.55 46.8286 151.55 47.5532V53.5803H155.209V46.8966C155.231 45.9796 155.035 45.0704 154.635 44.2437C154.283 43.5268 153.726 42.9295 153.033 42.527Z" fill="#F39623"/>
  <path d="M165.708 43.2806C165.302 42.8419 164.805 42.4948 164.253 42.2628C163.7 42.0307 163.104 41.9191 162.504 41.9354C161.482 41.9288 160.478 42.2045 159.603 42.7318C158.722 43.2569 157.994 44.0028 157.493 44.895C156.715 46.2609 156.5 47.8732 156.892 49.3934C157.285 50.9136 158.255 52.2234 159.598 53.0477C160.472 53.5795 161.479 53.8573 162.504 53.8494C163.094 53.8682 163.681 53.7617 164.226 53.5372C164.771 53.3126 165.261 52.9751 165.665 52.5472L166.065 53.5805H168.879V42.1721H166.173L165.708 43.2806ZM165.058 49.2216C164.842 49.6017 164.526 49.916 164.144 50.1311C163.749 50.3521 163.303 50.4653 162.85 50.4593C162.401 50.4663 161.958 50.3529 161.568 50.1311C161.192 49.9151 160.883 49.6005 160.675 49.2216C160.461 48.8146 160.349 48.3619 160.35 47.9025C160.351 47.4431 160.464 46.9908 160.68 46.5847C160.891 46.1999 161.203 45.8798 161.584 45.6592C161.977 45.4404 162.419 45.3255 162.869 45.3255C163.319 45.3255 163.762 45.4404 164.155 45.6592C164.538 45.8786 164.852 46.1989 165.064 46.5847C165.287 46.9904 165.4 47.4464 165.394 47.9086C165.401 48.3682 165.285 48.8213 165.058 49.2216Z" fill="#F39623"/>
  <path d="M178.902 42.1716L176.553 49.318L174.204 42.1716H170.21L174.746 53.5478L173.154 57.4006H177.051L182.95 42.1716H178.902Z" fill="#F39623"/>
</svg>