<svg width="35" height="34" viewBox="0 0 35 34" fill="none" xmlns="http://www.w3.org/2000/svg">
<rect x="0.5" width="34" height="34" rx="17" fill="#92C8F9"/>
<path fillRule="evenodd" clipRule="evenodd" d="M14.1667 9.22222C14.1667 8.63285 14.4008 8.06762 14.8175 7.65087C15.2343 7.23413 15.7995 7 16.3889 7H18.6111C19.2005 7 19.7657 7.23413 20.1825 7.65087C20.5992 8.06762 20.8333 8.63285 20.8333 9.22222V13.6667H25.2778C25.8671 13.6667 26.4324 13.9008 26.8491 14.3175C27.2659 14.7343 27.5 15.2995 27.5 15.8889V18.1111C27.5 18.7005 27.2659 19.2657 26.8491 19.6825C26.4324 20.0992 25.8671 20.3333 25.2778 20.3333H20.8333V24.7778C20.8333 25.3671 20.5992 25.9324 20.1825 26.3491C19.7657 26.7659 19.2005 27 18.6111 27H16.3889C15.7995 27 15.2343 26.7659 14.8175 26.3491C14.4008 25.9324 14.1667 25.3671 14.1667 24.7778V20.3333H9.72222C9.13285 20.3333 8.56762 20.0992 8.15087 19.6825C7.73413 19.2657 7.5 18.7005 7.5 18.1111V15.8889C7.5 15.2995 7.73413 14.7343 8.15087 14.3175C8.56762 13.9008 9.13285 13.6667 9.72222 13.6667H14.1667V9.22222Z" fill="white"/>
</svg>
