<svg width="37" height="27" viewBox="0 0 37 27" fill="none" xmlns="http://www.w3.org/2000/svg">
<path id="Vector" d="M18.5006 0.5C25.521 0.5 31.3681 4.44713 35.9534 12.1253L36.3134 12.7411L36.3871 12.9036L36.4362 13.0385L36.4591 13.1279L36.482 13.2611L36.5 13.4236V13.6024L36.4771 13.7827C36.4663 13.8431 36.4521 13.9028 36.4345 13.9615L36.3707 14.137L36.3118 14.2589L36.2856 14.3076C31.7624 22.1661 25.9759 26.3001 19.0128 26.4935L18.5006 26.5C11.3067 26.5 5.34831 22.3579 0.715485 14.306C0.574274 14.0605 0.5 13.7827 0.5 13.5C0.5 13.2173 0.574274 12.9395 0.715485 12.694C5.34831 4.64212 11.3067 0.5 18.5006 0.5ZM18.5006 8.625C17.1985 8.625 15.9498 9.13861 15.0291 10.0529C14.1084 10.9671 13.5912 12.2071 13.5912 13.5C13.5912 14.7929 14.1084 16.0329 15.0291 16.9471C15.9498 17.8614 17.1985 18.375 18.5006 18.375C19.8026 18.375 21.0513 17.8614 21.972 16.9471C22.8927 16.0329 23.4099 14.7929 23.4099 13.5C23.4099 12.2071 22.8927 10.9671 21.972 10.0529C21.0513 9.13861 19.8026 8.625 18.5006 8.625Z" fill="#92C8F9"/>
</svg>
