<svg width="30" height="31" viewBox="0 0 30 31" fill="none" xmlns="http://www.w3.org/2000/svg">
<path id="Vector" d="M29.5 7.16667V27.1667C29.5 28.0833 29.1848 28.8683 28.5543 29.5217C27.9238 30.175 27.165 30.5011 26.2778 30.5H3.72222C2.83611 30.5 2.07781 30.1739 1.44733 29.5217C0.816852 28.8694 0.501074 28.0844 0.5 27.1667V3.83333C0.5 2.91667 0.815778 2.13222 1.44733 1.48C2.07889 0.827778 2.83719 0.501111 3.72222 0.5H23.0556L29.5 7.16667ZM15 25.5C16.3426 25.5 17.4838 25.0139 18.4236 24.0417C19.3634 23.0694 19.8333 21.8889 19.8333 20.5C19.8333 19.1111 19.3634 17.9306 18.4236 16.9583C17.4838 15.9861 16.3426 15.5 15 15.5C13.6574 15.5 12.5162 15.9861 11.5764 16.9583C10.6366 17.9306 10.1667 19.1111 10.1667 20.5C10.1667 21.8889 10.6366 23.0694 11.5764 24.0417C12.5162 25.0139 13.6574 25.5 15 25.5ZM5.33333 12.1667H19.8333V5.5H5.33333V12.1667Z" fill="#92C8F9"/>
</svg>
