<svg width="19" height="19" viewBox="0 0 19 19" fill="none" xmlns="http://www.w3.org/2000/svg">
<path d="M17.495 0.367824C17.1602 0.181526 16.792 0.0630518 16.4113 0.0191772C16.0307 -0.0246975 15.6452 0.00688768 15.2768 0.112127C14.9084 0.217366 14.5643 0.394195 14.2643 0.632501C13.9643 0.870806 13.7142 1.16591 13.5283 1.50095L8.11355 11.2455L5.01459 8.14657C4.74554 7.868 4.4237 7.6458 4.06785 7.49295C3.71201 7.34009 3.32928 7.25963 2.94201 7.25626C2.55474 7.2529 2.17067 7.32669 1.81222 7.47335C1.45378 7.62 1.12813 7.83657 0.854272 8.11042C0.580418 8.38428 0.363847 8.70993 0.217194 9.06837C0.0705415 9.42682 -0.00325517 9.81089 0.000110124 10.1982C0.00347542 10.5854 0.0839354 10.9682 0.236795 11.324C0.389655 11.6798 0.611852 12.0017 0.890424 12.2707L6.72376 18.1041C7.27501 18.6568 8.01876 18.9601 8.78584 18.9601L9.1898 18.931C9.63685 18.8684 10.0633 18.703 10.4355 18.4476C10.8078 18.1923 11.1157 17.854 11.335 17.4595L18.6267 4.33449C18.8128 3.99973 18.9312 3.63158 18.9751 3.25107C19.019 2.87055 18.9875 2.48511 18.8824 2.11677C18.7773 1.74843 18.6007 1.40439 18.3627 1.10431C18.1246 0.80422 17.8298 0.553963 17.495 0.367824Z" fill="white"/>
</svg>
