<svg width="40" height="40" viewBox="0 0 40 40" fill="none" xmlns="http://www.w3.org/2000/svg">
<g id="system-uicons:menu-horizontal">
<g id="Group">
<path id="Vector" d="M19.9985 21.9047C21.0505 21.9047 21.9033 21.0519 21.9033 20C21.9033 18.948 21.0505 18.0952 19.9985 18.0952C18.9465 18.0952 18.0938 18.948 18.0938 20C18.0938 21.0519 18.9465 21.9047 19.9985 21.9047Z" fill="#4C5BD4"/>
<path id="Vector_2" d="M10.4751 21.9047C11.527 21.9047 12.3798 21.0519 12.3798 20C12.3798 18.948 11.527 18.0952 10.4751 18.0952C9.4231 18.0952 8.57031 18.948 8.57031 20C8.57031 21.0519 9.4231 21.9047 10.4751 21.9047Z" fill="#4C5BD4"/>
<path id="Vector_3" d="M29.5219 21.9047C30.5739 21.9047 31.4267 21.0519 31.4267 20C31.4267 18.948 30.5739 18.0952 29.5219 18.0952C28.47 18.0952 27.6172 18.948 27.6172 20C27.6172 21.0519 28.47 21.9047 29.5219 21.9047Z" fill="#4C5BD4"/>
</g>
</g>
</svg>
