<svg width="30" height="30" viewBox="0 0 30 30" fill="none" xmlns="http://www.w3.org/2000/svg">
<g id="iconamoon:arrow-up-2-fill" filter="url(#filter0_d_5997_280548)">
<rect width="22" height="22" rx="11" transform="matrix(8.74228e-08 1 1 -8.74228e-08 4 4)" fill="url(#paint0_linear_5997_280548)"/>
<path id="Vector" fill-rule="evenodd" clip-rule="evenodd" d="M16.913 18.5867C16.913 18.7286 16.8729 18.8673 16.7978 18.9852C16.7227 19.1032 16.616 19.1951 16.4912 19.2494C16.3663 19.3037 16.229 19.3179 16.0965 19.2902C15.964 19.2626 15.8422 19.1943 15.7467 19.094L12.3304 15.5069C12.2023 15.3723 12.1304 15.1899 12.1304 14.9997C12.1304 14.8094 12.2023 14.627 12.3304 14.4924L15.7467 10.9054C15.8422 10.8051 15.964 10.7368 16.0965 10.7091C16.229 10.6814 16.3663 10.6956 16.4912 10.7499C16.616 10.8042 16.7227 10.8961 16.7978 11.0141C16.8729 11.132 16.913 11.2707 16.913 11.4126L16.913 18.5867Z" fill="white"/>
</g>
<defs>
<filter id="filter0_d_5997_280548" x="0" y="0" width="30" height="30" filterUnits="userSpaceOnUse" color-interpolation-filters="sRGB">
<feFlood flood-opacity="0" result="BackgroundImageFix"/>
<feColorMatrix in="SourceAlpha" type="matrix" values="0 0 0 0 0 0 0 0 0 0 0 0 0 0 0 0 0 0 127 0" result="hardAlpha"/>
<feOffset/>
<feGaussianBlur stdDeviation="2"/>
<feComposite in2="hardAlpha" operator="out"/>
<feColorMatrix type="matrix" values="0 0 0 0 0 0 0 0 0 0 0 0 0 0 0 0 0 0 0.25 0"/>
<feBlend mode="normal" in2="BackgroundImageFix" result="effect1_dropShadow_5997_280548"/>
<feBlend mode="normal" in="SourceGraphic" in2="effect1_dropShadow_5997_280548" result="shape"/>
</filter>
<linearGradient id="paint0_linear_5997_280548" x1="11" y1="0" x2="11" y2="22" gradientUnits="userSpaceOnUse">
<stop stop-color="#4C5BD4"/>
<stop offset="1" stop-color="#043379"/>
</linearGradient>
</defs>
</svg>
