<svg width="24" height="24" viewBox="0 0 24 24" fill="none" xmlns="http://www.w3.org/2000/svg">
<g id="Frame 1321315627">
<g id="Group">
<path id="Vector" d="M21.1693 11.1265H4.86995L9.25604 6.52668C9.58872 6.17778 9.58872 5.61056 9.25604 5.26167C8.92336 4.91278 8.38249 4.91278 8.04981 5.26167L2.24931 11.3448C2.07787 11.5246 1.99419 11.7644 2.00031 11.9998C1.99419 12.2353 2.07787 12.475 2.24931 12.6548L8.04981 18.738C8.38249 19.0869 8.92336 19.0869 9.25604 18.738C9.58872 18.3891 9.58872 17.8219 9.25604 17.473L4.86995 12.8731H21.1673C21.6265 12.8731 22 12.4814 22 11.9998C22.002 11.5182 21.6285 11.1265 21.1693 11.1265Z" fill="white"/>
</g>
</g>
</svg>
