<svg width="24" height="24" viewBox="0 0 24 24" fill="none" xmlns="http://www.w3.org/2000/svg">
<g id="cancel 1" clip-path="url(#clip0_5695_257356)">
<path id="Vector" d="M12 24.0001C18.6275 24.0001 24.0001 18.6275 24.0001 12C24.0001 5.3726 18.6275 0 12 0C5.3726 0 0 5.3726 0 12C0 18.6275 5.3726 24.0001 12 24.0001Z" fill="#E24C4B"/>
<path id="Vector_2" d="M24 12C24 18.6 18.6 24 12 24C8.17499 24 4.79999 22.275 2.62496 19.5C4.64996 21.15 7.27497 22.125 10.125 22.125C16.725 22.125 22.125 16.725 22.125 10.125C22.125 7.27501 21.15 4.65 19.5 2.625C22.275 4.79992 24 8.17493 24 12Z" fill="#D1403F"/>
<path id="Vector_3" d="M17.475 17.475C17.025 17.9249 16.275 17.9249 15.825 17.475L12 13.65L8.17505 17.475C7.72506 17.9249 6.97502 17.9249 6.52504 17.475C6.07506 17.025 6.07506 16.2749 6.52504 15.825L10.35 12L6.52504 8.17499C6.07506 7.72501 6.07506 6.97497 6.52504 6.52499C6.97502 6.075 7.72506 6.075 8.17505 6.52499L12 10.35L15.825 6.52499C16.275 6.075 17.025 6.075 17.475 6.52499C17.925 6.97497 17.925 7.72501 17.475 8.17499L13.65 12L17.475 15.825C17.925 16.2749 17.925 17.0249 17.475 17.475Z" fill="white"/>
</g>
<defs>
<clipPath id="clip0_5695_257356">
<rect width="24" height="24" fill="white"/>
</clipPath>
</defs>
</svg>
