<svg width="24" height="24" viewBox="0 0 24 24" fill="none" xmlns="http://www.w3.org/2000/svg">
<g id="check 1" clip-path="url(#clip0_5695_256860)">
<g id="SUCCESS">
<path id="Vector" d="M12 0C5.37281 0 0 5.37094 0 12C0 18.6291 5.37281 24 12 24C18.6272 24 24 18.6258 24 12C24 5.37422 18.6272 0 12 0Z" fill="#2AD352"/>
<path id="Vector_2" d="M1.11441e-05 12C-0.00269773 13.9835 0.488482 15.9365 1.42923 17.6827C2.62777 18.0346 3.87057 18.2128 5.1197 18.2119C12.3338 18.2119 18.1819 12.3638 18.1819 5.1497C18.183 3.88077 17.9992 2.61845 17.6363 1.40252C15.9015 0.47848 13.9655 -0.00325657 12 1.65685e-05C5.37282 1.65685e-05 1.11441e-05 5.37095 1.11441e-05 12Z" fill="#74DA7F"/>
<path id="Vector_3" d="M18.8438 10.0117L11.6311 17.5862C11.4346 17.7924 11.1984 17.9568 10.9368 18.0696C10.6752 18.1823 10.3935 18.2411 10.1086 18.2424H10.0992C9.81595 18.2425 9.53553 18.1857 9.27464 18.0753C9.01374 17.9649 8.77769 17.8032 8.5805 17.5998L4.75315 13.6576C4.5554 13.4591 4.39904 13.2233 4.29315 12.9639C4.18726 12.7045 4.13395 12.4266 4.13631 12.1464C4.13867 11.8662 4.19665 11.5893 4.3069 11.3317C4.41714 11.0741 4.57746 10.841 4.77853 10.6458C4.9796 10.4507 5.21742 10.2974 5.4782 10.1949C5.73898 10.0924 6.01752 10.0428 6.29765 10.0488C6.57779 10.0548 6.85393 10.1164 7.11007 10.23C7.3662 10.3436 7.59722 10.507 7.78971 10.7106L10.0842 13.074L15.7791 7.0937C15.9699 6.88914 16.1993 6.72444 16.4541 6.60911C16.709 6.49379 16.9841 6.43013 17.2637 6.42183C17.5433 6.41353 17.8218 6.46074 18.083 6.56074C18.3442 6.66074 18.583 6.81153 18.7856 7.00441C18.9882 7.19729 19.1505 7.42841 19.2632 7.68442C19.3758 7.94043 19.4367 8.21624 19.4421 8.4959C19.4475 8.77556 19.3974 9.05351 19.2947 9.31369C19.192 9.57386 19.0387 9.8111 18.8438 10.0117Z" fill="white"/>
</g>
</g>
<defs>
<clipPath id="clip0_5695_256860">
<rect width="24" height="24" fill="white"/>
</clipPath>
</defs>
</svg>
