<svg width="41" height="41" viewBox="0 0 41 41" fill="none" xmlns="http://www.w3.org/2000/svg">
<g id="Group">
<path id="Vector" d="M41 20.5C41 31.8323 31.8323 41 20.5 41C9.16771 41 0 31.8323 0 20.5C0 9.1677 9.16771 0 20.5 0C31.705 0 41 9.1677 41 20.5Z" fill="white"/>
<g id="Group_2">
<path id="Vector_2" d="M22.8203 23.1202C22.1901 23.0302 21.6499 23.5704 21.7399 24.2006L22.01 27.5319C22.1 28.1622 21.6498 28.4323 21.0196 28.1622L6.61396 19.8789C6.07374 19.5188 6.07372 19.1587 6.70397 18.8886L22.1 13.2163C22.7303 12.9462 23.0904 13.3064 22.9103 14.0266L22.1 17.3579C21.92 18.0782 22.3701 18.5284 23.0004 18.6185L31.7338 19.4288C32.364 19.5188 32.9043 20.059 32.9042 20.7793L32.9043 22.7601C32.9043 23.4804 32.274 23.9305 31.6438 23.8405L22.8203 23.1202Z" fill="url(#paint0_linear_1113_58262)"/>
</g>
</g>
<defs>
<linearGradient id="paint0_linear_1113_58262" x1="13.7423" y1="27.0475" x2="26.7411" y2="14.0487" gradientUnits="userSpaceOnUse">
<stop stop-color="#47BEFF"/>
<stop offset="1" stop-color="#85DDFE"/>
</linearGradient>
</defs>
</svg>
