<svg width="57" height="56" viewBox="0 0 57 56" fill="none" xmlns="http://www.w3.org/2000/svg">
<g id="question (1) (1) 1" clip-path="url(#clip0_8815_32410)">
<path id="Vector" d="M28.5 0C13.0602 0 0.5 12.5602 0.5 28C0.5 43.4398 13.0602 56 28.5 56C43.9398 56 56.5 43.4398 56.5 28C56.5 12.5602 43.9398 0 28.5 0Z" fill="#FFC107"/>
<path id="Vector_2" d="M30.8304 41.9999C30.8304 43.2885 29.7858 44.3331 28.4973 44.3331C27.2087 44.3331 26.1641 43.2885 26.1641 41.9999C26.1641 40.7114 27.2087 39.6667 28.4973 39.6667C29.7858 39.6667 30.8304 40.7114 30.8304 41.9999Z" fill="#ECEFF1"/>
<path id="Vector_3" d="M32.1935 29.4979C31.3677 29.8782 30.8332 30.7113 30.8332 31.6192V32.6668C30.8332 33.9545 29.7903 35 28.5 35C27.2097 35 26.1668 33.9545 26.1668 32.6668V31.6192C26.1668 28.8959 27.7673 26.3995 30.2385 25.2584C32.6161 24.1642 34.3332 21.2589 34.3332 19.8332C34.3332 16.6182 31.7176 14 28.5 14C25.2824 14 22.6668 16.6182 22.6668 19.8332C22.6668 21.1213 21.6235 22.1668 20.3332 22.1668C19.0429 22.1668 18 21.1213 18 19.8332C18 14.0444 22.7108 9.33319 28.5 9.33319C34.2892 9.33319 39 14.0444 39 19.8332C39 22.9858 36.2652 27.6198 32.1935 29.4979Z" fill="#FAFAFA"/>
</g>
<defs>
<clipPath id="clip0_8815_32410">
<rect width="56" height="56" fill="white" transform="translate(0.5)"/>
</clipPath>
</defs>
</svg>
