<svg width="16" height="16" viewBox="0 0 16 16" fill="none" xmlns="http://www.w3.org/2000/svg">
<g id="vuesax/broken/message-edit">
<g id="vuesax/broken/message-edit_2">
<g id="message-edit">
<path id="Vector" d="M14.6663 5.33331C14.6663 2.66665 13.333 1.33331 10.6663 1.33331H5.33301C2.66634 1.33331 1.33301 2.66665 1.33301 5.33331V14C1.33301 14.3666 1.63301 14.6666 1.99967 14.6666H10.6663C13.333 14.6666 14.6663 13.3333 14.6663 10.6666V7.99998" stroke="#FF6B00" stroke-width="1.5" stroke-linecap="round" stroke-linejoin="round"/>
<g id="Group">
<path id="Vector_2" d="M10.3402 7.82664L10.7735 7.39331C10.8002 7.36664 10.8269 7.33997 10.8535 7.30664C11.3935 6.73331 11.6069 6.05997 10.7735 5.22664C9.89352 4.34664 9.20019 4.63331 8.60685 5.22664L5.14685 8.68664C5.01352 8.81997 4.88686 9.07997 4.86019 9.26664L4.67353 10.5866C4.60686 11.0666 4.94019 11.4 5.42019 11.3333L6.74018 11.1466C6.92684 11.12 7.18686 10.9933 7.32019 10.86L8.61353 9.56664" stroke="#FF6B00" stroke-width="1.5" stroke-miterlimit="10" stroke-linecap="round" stroke-linejoin="round"/>
<path id="Vector_3" d="M8.11328 5.71997C8.40661 6.76664 9.22661 7.5933 10.2799 7.88664" stroke="#FF6B00" stroke-width="1.5" stroke-miterlimit="10" stroke-linecap="round" stroke-linejoin="round"/>
</g>
</g>
</g>
</g>
</svg>
