<svg width="24" height="24" viewBox="0 0 24 24" fill="none" xmlns="http://www.w3.org/2000/svg">
<rect width="24" height="24" rx="12" fill="#FFDCDC"/>
<path d="M10.6673 7.99967H13.334C13.334 7.64605 13.1935 7.30691 12.9435 7.05687C12.6934 6.80682 12.3543 6.66634 12.0007 6.66634C11.647 6.66634 11.3079 6.80682 11.0578 7.05687C10.8078 7.30691 10.6673 7.64605 10.6673 7.99967ZM9.33398 7.99967C9.33398 7.29243 9.61494 6.61415 10.115 6.11406C10.6151 5.61396 11.2934 5.33301 12.0007 5.33301C12.7079 5.33301 13.3862 5.61396 13.8863 6.11406C14.3864 6.61415 14.6673 7.29243 14.6673 7.99967H18.0007C18.1775 7.99967 18.347 8.06991 18.4721 8.19494C18.5971 8.31996 18.6673 8.48953 18.6673 8.66634C18.6673 8.84315 18.5971 9.01272 18.4721 9.13775C18.347 9.26277 18.1775 9.33301 18.0007 9.33301H17.4127L16.822 16.2263C16.7652 16.892 16.4606 17.5121 15.9686 17.9639C15.4765 18.4157 14.8327 18.6664 14.1647 18.6663H9.83665C9.16859 18.6664 8.52483 18.4157 8.03275 17.9639C7.54067 17.5121 7.2361 16.892 7.17932 16.2263L6.58865 9.33301H6.00065C5.82384 9.33301 5.65427 9.26277 5.52925 9.13775C5.40422 9.01272 5.33398 8.84315 5.33398 8.66634C5.33398 8.48953 5.40422 8.31996 5.52925 8.19494C5.65427 8.06991 5.82384 7.99967 6.00065 7.99967H9.33398ZM14.0007 11.9997C14.0007 11.8229 13.9304 11.6533 13.8054 11.5283C13.6804 11.4032 13.5108 11.333 13.334 11.333C13.1572 11.333 12.9876 11.4032 12.8626 11.5283C12.7376 11.6533 12.6673 11.8229 12.6673 11.9997V14.6663C12.6673 14.8432 12.7376 15.0127 12.8626 15.1377C12.9876 15.2628 13.1572 15.333 13.334 15.333C13.5108 15.333 13.6804 15.2628 13.8054 15.1377C13.9304 15.0127 14.0007 14.8432 14.0007 14.6663V11.9997ZM10.6673 11.333C10.8441 11.333 11.0137 11.4032 11.1387 11.5283C11.2637 11.6533 11.334 11.8229 11.334 11.9997V14.6663C11.334 14.8432 11.2637 15.0127 11.1387 15.1377C11.0137 15.2628 10.8441 15.333 10.6673 15.333C10.4905 15.333 10.3209 15.2628 10.1959 15.1377C10.0709 15.0127 10.0007 14.8432 10.0007 14.6663V11.9997C10.0007 11.8229 10.0709 11.6533 10.1959 11.5283C10.3209 11.4032 10.4905 11.333 10.6673 11.333ZM8.50732 16.113C8.53572 16.4459 8.6881 16.7561 8.93428 16.982C9.18046 17.208 9.50251 17.3332 9.83665 17.333H14.1647C14.4986 17.3329 14.8203 17.2075 15.0662 16.9816C15.3121 16.7557 15.4643 16.4457 15.4927 16.113L16.074 9.33301H7.92732L8.50732 16.113Z" fill="#FF6969"/>
</svg>
