<svg width="14" height="14" viewBox="0 0 14 14" fill="none" xmlns="http://www.w3.org/2000/svg">
<path id="Symbol" d="M6.78125 0.4375C10.5 0.4375 13.5625 3.5 13.5625 7.21875C13.5625 10.9648 10.5 14 6.78125 14C3.03516 14 0 10.9648 0 7.21875C0 3.5 3.03516 0.4375 6.78125 0.4375ZM6.78125 3.44531C6.125 3.44531 5.63281 3.96484 5.63281 4.59375C5.63281 5.25 6.125 5.74219 6.78125 5.74219C7.41016 5.74219 7.92969 5.25 7.92969 4.59375C7.92969 3.96484 7.41016 3.44531 6.78125 3.44531ZM8.3125 10.3906V9.73438C8.3125 9.57031 8.14844 9.40625 7.98438 9.40625H7.65625V6.67188C7.65625 6.50781 7.49219 6.34375 7.32812 6.34375H5.57812C5.38672 6.34375 5.25 6.50781 5.25 6.67188V7.32812C5.25 7.51953 5.38672 7.65625 5.57812 7.65625H5.90625V9.40625H5.57812C5.38672 9.40625 5.25 9.57031 5.25 9.73438V10.3906C5.25 10.582 5.38672 10.7188 5.57812 10.7188H7.98438C8.14844 10.7188 8.3125 10.582 8.3125 10.3906Z" fill="white"/>
</svg>
