<svg width="21" height="20" viewBox="0 0 21 20" fill="none" xmlns="http://www.w3.org/2000/svg">
<g id="Group 4">
<path id="Vector" d="M16.4974 1.66667H15.6641V0.833333C15.6641 0.61232 15.5763 0.400358 15.42 0.244078C15.2637 0.0877974 15.0517 0 14.8307 0C14.6097 0 14.3978 0.0877974 14.2415 0.244078C14.0852 0.400358 13.9974 0.61232 13.9974 0.833333V1.66667H7.33073V0.833333C7.33073 0.61232 7.24293 0.400358 7.08665 0.244078C6.93037 0.0877974 6.71841 0 6.4974 0C6.27638 0 6.06442 0.0877974 5.90814 0.244078C5.75186 0.400358 5.66406 0.61232 5.66406 0.833333V1.66667H4.83073C3.72607 1.66799 2.66703 2.1074 1.88591 2.88852C1.1048 3.66963 0.665386 4.72867 0.664063 5.83333L0.664062 15.8333C0.665386 16.938 1.1048 17.997 1.88591 18.7782C2.66703 19.5593 3.72607 19.9987 4.83073 20H16.4974C17.6021 19.9987 18.6611 19.5593 19.4422 18.7782C20.2233 17.997 20.6627 16.938 20.6641 15.8333V5.83333C20.6627 4.72867 20.2233 3.66963 19.4422 2.88852C18.6611 2.1074 17.6021 1.66799 16.4974 1.66667ZM2.33073 5.83333C2.33073 5.17029 2.59412 4.53441 3.06296 4.06557C3.5318 3.59673 4.16769 3.33333 4.83073 3.33333H16.4974C17.1604 3.33333 17.7963 3.59673 18.2652 4.06557C18.734 4.53441 18.9974 5.17029 18.9974 5.83333V6.66667H2.33073V5.83333ZM16.4974 18.3333H4.83073C4.16769 18.3333 3.5318 18.0699 3.06296 17.6011C2.59412 17.1323 2.33073 16.4964 2.33073 15.8333V8.33333H18.9974V15.8333C18.9974 16.4964 18.734 17.1323 18.2652 17.6011C17.7963 18.0699 17.1604 18.3333 16.4974 18.3333Z" fill="#474747"/>
<path id="Vector_2" d="M10.6641 13.75C11.3544 13.75 11.9141 13.1904 11.9141 12.5C11.9141 11.8096 11.3544 11.25 10.6641 11.25C9.97371 11.25 9.41406 11.8096 9.41406 12.5C9.41406 13.1904 9.97371 13.75 10.6641 13.75Z" fill="#474747"/>
<path id="Vector_3" d="M6.49609 13.75C7.18645 13.75 7.74609 13.1904 7.74609 12.5C7.74609 11.8096 7.18645 11.25 6.49609 11.25C5.80574 11.25 5.24609 11.8096 5.24609 12.5C5.24609 13.1904 5.80574 13.75 6.49609 13.75Z" fill="#474747"/>
<path id="Vector_4" d="M14.832 13.75C15.5224 13.75 16.082 13.1904 16.082 12.5C16.082 11.8096 15.5224 11.25 14.832 11.25C14.1417 11.25 13.582 11.8096 13.582 12.5C13.582 13.1904 14.1417 13.75 14.832 13.75Z" fill="#474747"/>
</g>
</svg>
