<svg width="57" height="56" viewBox="0 0 57 56" fill="none" xmlns="http://www.w3.org/2000/svg">
<g id="question (1) (1) 1" clip-path="url(#clip0_5942_264401)">
<path id="Vector" d="M28.5 0C13.0602 0 0.5 12.5602 0.5 28C0.5 43.4398 13.0602 56 28.5 56C43.9398 56 56.5 43.4398 56.5 28C56.5 12.5602 43.9398 0 28.5 0Z" fill="#77C900"/>
<path id="!" d="M30.5662 8L30.2694 36.4741H26.4566L26.137 8H30.5662ZM26 45.139C26 44.3215 26.2055 43.6312 26.6164 43.0681C27.0426 42.505 27.6667 42.2234 28.4886 42.2234C29.2953 42.2234 29.9117 42.505 30.3379 43.0681C30.7793 43.6312 31 44.3215 31 45.139C31 45.9201 30.7793 46.5922 30.3379 47.1553C29.9117 47.7184 29.2953 48 28.4886 48C27.6667 48 27.0426 47.7184 26.6164 47.1553C26.2055 46.5922 26 45.9201 26 45.139Z" fill="white"/>
</g>
<defs>
<clipPath id="clip0_5942_264401">
<rect width="56" height="56" fill="white" transform="translate(0.5)"/>
</clipPath>
</defs>
</svg>
