<svg width="44" height="44" viewBox="0 0 44 44" fill="none" xmlns="http://www.w3.org/2000/svg">
<rect width="44" height="44" rx="22" fill="#830FF6" fill-opacity="0.1"/>
<path d="M22 10C21.5029 10 21.1 10.4029 21.1 10.9C21.1 11.3971 21.5029 11.8 22 11.8C27.6243 11.8 32.2 16.3757 32.2 22C32.2 27.6243 27.6243 32.2 22 32.2C16.3757 32.2 11.8 27.6243 11.8 22C11.8 21.5029 11.3971 21.1 10.9 21.1C10.4029 21.1 10 21.5029 10 22C10 28.6169 15.3831 34 22 34C28.6169 34 34 28.6169 34 22C34 15.3831 28.6169 10 22 10Z" fill="#830FF7"/>
<path d="M17.1468 12.8972C17.2616 12.8972 17.3781 12.8751 17.4908 12.8285L18.7075 12.3246C19.1666 12.1343 19.3848 11.6079 19.1945 11.1485C19.0044 10.6893 18.4778 10.4714 18.0186 10.6615L16.802 11.1654C16.3429 11.3557 16.1247 11.8821 16.3147 12.3415C16.4584 12.6881 16.7936 12.8972 17.1468 12.8972Z" fill="#830FF7"/>
<path d="M13.6852 15.5166C13.9156 15.5166 14.1458 15.4287 14.3215 15.253L15.2527 14.3218C15.6043 13.9702 15.6043 13.4005 15.2527 13.0489C14.9014 12.6976 14.3314 12.6976 13.9801 13.0489L13.0487 13.9803C12.6973 14.3316 12.6973 14.9014 13.0487 15.253C13.2244 15.4287 13.4548 15.5166 13.6852 15.5166Z" fill="#830FF7"/>
<path d="M11.1458 19.192C11.2583 19.2386 11.375 19.2609 11.4899 19.2609C11.8428 19.2609 12.178 19.0516 12.3216 18.7049L12.8256 17.4883C13.0156 17.0292 12.7977 16.5025 12.3385 16.3124C11.8791 16.1221 11.3527 16.3403 11.1624 16.7995L10.6585 18.0161C10.4684 18.4755 10.6864 19.0019 11.1458 19.192Z" fill="#830FF7"/>
<path d="M21.9986 17.3374C21.5015 17.3374 21.0986 17.7403 21.0986 18.2374V21.1001H18.2359C17.7388 21.1001 17.3359 21.5029 17.3359 22.0001C17.3359 22.4972 17.7388 22.9001 18.2359 22.9001H21.0986V25.7627C21.0986 26.2598 21.5015 26.6627 21.9986 26.6627C22.4957 26.6627 22.8986 26.2598 22.8986 25.7627V22.9001H25.7613C26.2584 22.9001 26.6613 22.4972 26.6613 22.0001C26.6613 21.5029 26.2584 21.1001 25.7613 21.1001H22.8986V18.2374C22.8986 17.7403 22.4957 17.3374 21.9986 17.3374Z" fill="#830FF7"/>
</svg>
