<svg width="36" height="36" viewBox="0 0 36 36" fill="none" xmlns="http://www.w3.org/2000/svg">
<g id="fluent:chat-16-filled">
<g id="Group 630454">
<g id="Group">
<path id="Vector" d="M18.1677 31.515C26.6951 31.515 33.6089 25.033 33.6089 17.0369C33.6089 9.04089 26.6951 2.55884 18.1677 2.55884C9.64035 2.55884 2.72656 9.04089 2.72656 17.0369C2.72656 20.6771 4.16066 24.0071 6.52895 26.5511C6.34173 28.6525 5.72408 30.9566 5.04081 32.6857C4.88833 33.0704 5.18364 33.5006 5.56774 33.4344C9.92215 32.6691 12.5105 31.4943 13.6358 30.8821C15.1141 31.3046 16.6377 31.5174 18.1677 31.515Z" stroke="#4C5BD4" stroke-width="1.8"/>
</g>
<g id="Group 630394">
<path id="Vector_2" d="M10.0697 18.7852H7.66797V18.657H9.57152C9.88526 18.657 10.2187 18.6104 10.4748 18.4301L10.4748 18.4302L10.4813 18.4255C10.7684 18.2163 10.8795 17.9029 10.8795 17.5872C10.8795 17.2801 10.7686 16.9888 10.5163 16.7778L10.5084 16.7712L10.5003 16.765C10.2388 16.564 9.89289 16.5143 9.5726 16.5143L9.57075 16.5143L8.11124 16.5197V16.3944H9.53602C9.85153 16.3944 10.1891 16.3519 10.4466 16.1748L10.4466 16.1748L10.448 16.1738C10.7469 15.9668 10.8472 15.6431 10.8472 15.3401C10.8472 15.0354 10.7404 14.7357 10.4722 14.5284C10.334 14.4181 10.1752 14.3573 10.0246 14.3237L10.0152 14.3216L10.0058 14.3199C9.86186 14.2936 9.7049 14.2817 9.53602 14.2817H7.66797V14.1545H9.94809C10.537 14.1545 10.8986 14.2699 11.1076 14.4256C11.2768 14.5569 11.4008 14.7788 11.4008 15.2003C11.4008 15.3847 11.3598 15.5296 11.2895 15.6493C11.1953 15.7999 11.0725 15.9348 10.9161 16.0537L10.3256 16.5026L10.9633 16.8816C11.1295 16.9804 11.2212 17.0806 11.2714 17.1717L11.2766 17.1811L11.2821 17.1902C11.3558 17.3113 11.4084 17.4861 11.4084 17.7426C11.4084 18.1008 11.2965 18.3303 11.1044 18.4955C10.8946 18.6683 10.5704 18.7852 10.0697 18.7852Z" fill="#4C5BD4" stroke="#4C5BD4"/>
<path id="Vector_3" d="M15.6698 16.4484C16.3032 16.4484 16.6832 16.5724 16.895 16.736C17.0795 16.8819 17.2087 17.121 17.2087 17.5562C17.2087 18.0001 17.0529 18.285 16.7589 18.4865C16.4325 18.7102 15.9086 18.8547 15.12 18.8547C14.1984 18.8547 13.6187 18.6399 13.2761 18.3085C12.9421 17.9854 12.7227 17.4293 12.7227 16.5254C12.7227 15.6203 12.954 15.0544 13.3187 14.7167L13.3187 14.7167L13.3207 14.7149C13.6855 14.3735 14.3103 14.1526 15.304 14.1526H16.9033L16.9029 14.2798H15.2739C14.7045 14.2798 14.1787 14.3819 13.807 14.688L13.807 14.688L13.8048 14.6899C13.6275 14.8375 13.496 15.0226 13.4089 15.2346C13.3127 15.4585 13.2719 15.6996 13.2719 15.9484V16.4484H13.7719H15.6698ZM16.3921 16.8449L16.3838 16.8368L16.3751 16.8292C16.1502 16.6319 15.8622 16.5766 15.602 16.5766H13.7795H13.2795V17.0766C13.2795 17.5576 13.4224 18.0039 13.7832 18.3209C14.1375 18.6422 14.6386 18.7493 15.1706 18.7493C15.5581 18.7493 15.945 18.7002 16.2289 18.5132C16.5533 18.3018 16.6906 17.9688 16.6906 17.6163C16.6906 17.3477 16.617 17.0614 16.3921 16.8449Z" fill="#4C5BD4" stroke="#4C5BD4"/>
<path id="Vector_4" d="M20.9766 18.7842H18.3984V18.657H20.7098C21.01 18.657 21.3556 18.6137 21.6076 18.4107L21.6076 18.4107L21.6107 18.4082C21.883 18.1853 21.9543 17.8589 21.9543 17.5799C21.9543 17.296 21.8824 16.9722 21.6212 16.7461L21.6124 16.7384L21.6032 16.7312C21.351 16.5327 21.0063 16.4925 20.7098 16.4925H18.3984V14.1545H22.251L22.2505 14.2817H19.3369H18.8369V14.7817V15.8716V16.3716H19.3369H21.238C21.6907 16.3716 22.0012 16.4882 22.221 16.6776C22.3198 16.7787 22.3978 16.8967 22.4548 17.0344C22.5071 17.1773 22.5391 17.3575 22.5391 17.5799C22.5391 18.0103 22.4051 18.2784 22.1858 18.4598C21.9453 18.654 21.5645 18.7842 20.9766 18.7842Z" fill="#4C5BD4" stroke="#4C5BD4"/>
<path id="Vector_5" d="M25.2491 20.9464C25.0884 20.9038 24.9302 20.8621 24.7814 20.8229L26.0114 19.7554L28.0585 20.3275C28.0639 20.33 28.0703 20.3329 28.0776 20.3363C28.1084 20.3509 28.1536 20.3734 28.2061 20.4033C28.3151 20.4653 28.4371 20.5486 28.531 20.6453C28.6265 20.7434 28.661 20.8217 28.6673 20.877C28.6717 20.9154 28.6716 21.0117 28.539 21.1797C28.3563 21.3524 28.2477 21.443 28.075 21.4928C27.8879 21.5466 27.5601 21.5668 26.9307 21.4049C26.7027 21.3337 25.9401 21.1294 25.2491 20.9464Z" fill="#4C5BD4" stroke="#4C5BD4"/>
<path id="Vector_6" d="M10.987 20.2636C11.1082 20.6799 11.2797 21.0718 11.5152 21.4197L11.5154 21.42C12.0017 22.1393 12.7708 22.6208 13.672 22.8373L13.6723 22.8373C14.5824 23.0564 15.5637 23.033 16.5403 22.9005L10.987 20.2636ZM10.987 20.2636C11.0143 20.3142 11.0427 20.3636 11.072 20.4124L11.0728 20.4136C11.2217 20.659 11.4016 20.8855 11.6075 21.0873L11.6082 21.088C11.8672 21.341 12.1656 21.5523 12.487 21.7161C12.8913 21.9233 13.3244 22.0543 13.7567 22.1277L13.8404 21.6347M10.987 20.2636L11.2399 19.6456C11.2625 19.6798 11.2808 19.713 11.2959 19.7472C11.3057 19.7688 11.315 19.7907 11.3242 19.8126C11.3362 19.841 11.3482 19.8693 11.3615 19.8974C11.4035 19.9854 11.4497 20.0704 11.5003 20.1543C11.6273 20.3636 11.7811 20.5573 11.9576 20.7303C12.1792 20.9468 12.4363 21.1292 12.715 21.2711C13.0668 21.4514 13.4498 21.5684 13.8404 21.6347M13.8404 21.6347C14.3557 21.7228 14.884 21.7259 15.4047 21.6783M13.8404 21.6347L13.7562 22.1276C14.3247 22.2248 14.8981 22.2267 15.4502 22.1762L15.4047 21.6783M15.4047 21.6783L15.4503 22.1762M15.4047 21.6783L15.4503 22.1762M15.4503 22.1762C16.1957 22.1081 16.923 21.9454 17.619 21.7391L17.6191 21.7391C19.6083 21.1491 21.4714 20.2723 23.0586 18.8998L23.06 18.8986C23.0832 18.8783 23.1016 18.8624 23.1202 18.8469L23.1203 18.8471L23.1299 18.8386C23.6613 18.373 24.2859 17.7865 24.757 17.1087C25.2286 16.43 25.5789 15.613 25.4817 14.7007L25.4817 14.7004C25.4085 14.0164 24.9457 13.5348 24.471 13.2214C24.4375 13.1993 24.4035 13.1777 24.3693 13.1568C24.6521 13.2167 24.9199 13.2951 25.1657 13.3945C25.7988 13.6508 26.2509 14.0312 26.4754 14.5692C26.4756 14.5695 26.4757 14.5698 26.4758 14.5701C26.5936 14.9404 26.623 15.356 26.5875 15.7721L26.5875 15.7725C26.5211 16.5605 26.2037 17.3292 25.7295 18.0171L25.7293 18.0173C24.9323 19.1748 23.7534 20.0886 22.4763 20.8426L22.4761 20.8427C21.4064 21.4748 20.3052 21.9647 19.1151 22.3213L19.115 22.3213C18.2646 22.5763 17.4077 22.7827 16.5404 22.9005L15.4503 22.1762Z" fill="#4C5BD4" stroke="#4C5BD4"/>
<g id="Vector_7">
<mask id="path-7-inside-1_5906_274840" fill="white">
<path fill-rule="evenodd" clip-rule="evenodd" d="M11.9453 19.6486C11.9453 19.6486 14.9245 22.2438 20.0393 19.4631C19.4691 20.1117 13.1008 23.0777 11.9453 19.6486Z"/>
</mask>
<path fill-rule="evenodd" clip-rule="evenodd" d="M11.9453 19.6486C11.9453 19.6486 14.9245 22.2438 20.0393 19.4631C19.4691 20.1117 13.1008 23.0777 11.9453 19.6486Z" fill="#4C5BD4"/>
<path d="M11.9453 19.6486L12.6022 18.8946L9.81904 16.4701L10.9977 19.9679L11.9453 19.6486ZM20.0393 19.4631L20.7903 20.1234L19.5617 18.5846L20.0393 19.4631ZM11.9453 19.6486C11.2885 20.4026 11.289 20.4031 11.2895 20.4035C11.2897 20.4037 11.2903 20.4042 11.2906 20.4045C11.2914 20.4052 11.2922 20.4059 11.2931 20.4066C11.2949 20.4081 11.2968 20.4098 11.2989 20.4116C11.3032 20.4152 11.3082 20.4195 11.314 20.4243C11.3256 20.4339 11.3402 20.4459 11.3579 20.46C11.3934 20.4881 11.4411 20.5247 11.5008 20.5675C11.6203 20.6531 11.7888 20.7644 12.0045 20.8845C12.436 21.1245 13.0598 21.4012 13.8616 21.5757C15.4872 21.9295 17.755 21.8432 20.5169 20.3417L19.5617 18.5846C17.2087 19.8637 15.4296 19.8701 14.2869 19.6215C13.7045 19.4947 13.2639 19.2965 12.9769 19.1368C12.8335 19.057 12.7292 18.9872 12.6658 18.9418C12.6341 18.9191 12.6128 18.9026 12.6021 18.8941C12.5967 18.8898 12.594 18.8876 12.594 18.8876C12.594 18.8876 12.5947 18.8881 12.5961 18.8893C12.5967 18.8899 12.5976 18.8906 12.5986 18.8915C12.5991 18.8919 12.5997 18.8924 12.6002 18.8929C12.6005 18.8932 12.601 18.8936 12.6012 18.8937C12.6017 18.8941 12.6022 18.8946 11.9453 19.6486ZM19.2883 18.8028C19.3334 18.7516 19.2994 18.7994 19.0665 18.937C18.8721 19.0518 18.6049 19.1913 18.2831 19.3374C17.6374 19.6306 16.8195 19.9291 15.9989 20.1079C15.161 20.2905 14.4144 20.3273 13.8621 20.1879C13.368 20.0632 13.0563 19.814 12.893 19.3293L10.9977 19.9679C11.4121 21.1978 12.3297 21.8638 13.3725 22.127C14.3571 22.3757 15.4548 22.2734 16.4247 22.0621C17.4118 21.847 18.3652 21.4967 19.11 21.1585C19.4835 20.9889 19.8163 20.817 20.0839 20.6589C20.3129 20.5236 20.6026 20.3368 20.7903 20.1234L19.2883 18.8028Z" fill="#4C5BD4" mask="url(#path-7-inside-1_5906_274840)"/>
</g>
</g>
</g>
</g>
</svg>
