<svg width="25" height="24" viewBox="0 0 25 24" fill="none" xmlns="http://www.w3.org/2000/svg">
<g id="vuesax/bold/calendar">
<rect x="0.5" width="24" height="24" rx="12" fill="#EEF0FF"/>
<g id="AGE">
<path d="M7.9432 10.1316L6.21313 15.9065H5L7.26785 9.0982H8.04325L7.9432 10.1316ZM9.38979 15.9065L7.65138 10.1316L7.54716 9.0982H8.32673L10.6071 15.9065H9.38979ZM9.31058 13.3768V14.3914H6.05472V13.3768H9.31058Z" fill="#4C5BD4"/>
<path d="M15.8932 12.3854V15.0367C15.8042 15.1646 15.6639 15.3033 15.4721 15.4529C15.2831 15.6025 15.0358 15.7319 14.7301 15.841C14.4244 15.947 14.0492 16 13.6045 16C13.2182 16 12.8652 15.9283 12.5456 15.7849C12.226 15.6384 11.9508 15.4248 11.7202 15.1443C11.4895 14.8637 11.3116 14.5208 11.1866 14.1156C11.0615 13.7103 10.999 13.2474 10.999 12.7268V12.2779C10.999 11.7573 11.0573 11.2944 11.174 10.8891C11.2936 10.4839 11.4631 10.1409 11.6826 9.86039C11.905 9.57983 12.1704 9.36629 12.4789 9.21977C12.7902 9.07326 13.1376 9 13.5211 9C14.0353 9 14.4577 9.09508 14.7884 9.28524C15.1219 9.4754 15.3776 9.73725 15.5555 10.0708C15.7334 10.4012 15.8445 10.7816 15.889 11.2118H14.7718C14.7412 10.9748 14.68 10.7675 14.5883 10.5898C14.4966 10.409 14.366 10.2688 14.1965 10.169C14.0297 10.0661 13.8129 10.0147 13.5461 10.0147C13.321 10.0147 13.1223 10.0646 12.95 10.1643C12.7777 10.2641 12.6331 10.409 12.5164 10.5992C12.3997 10.7894 12.3108 11.0247 12.2496 11.3053C12.1912 11.5858 12.1621 11.9069 12.1621 12.2685V12.7268C12.1621 13.0915 12.1954 13.4157 12.2621 13.6994C12.3288 13.98 12.4247 14.2169 12.5498 14.4102C12.6776 14.6003 12.8346 14.7453 13.0208 14.845C13.2098 14.9417 13.4238 14.99 13.6628 14.99C13.8796 14.99 14.0589 14.9697 14.2006 14.9292C14.3451 14.8855 14.4605 14.8341 14.5466 14.7749C14.6328 14.7157 14.6995 14.658 14.7467 14.6019V13.3253H13.5419V12.3854H15.8932Z" fill="#4C5BD4"/>
<path d="M21 14.8965V15.9065H17.7733V14.8965H21ZM18.1235 9.0982V15.9065H16.9771V9.0982H18.1235ZM20.5789 11.9085V12.8951H17.7733V11.9085H20.5789ZM20.9875 9.0982V10.1129H17.7733V9.0982H20.9875Z" fill="#4C5BD4"/>
</g>
</g>
</svg>
