<svg width="30" height="30" viewBox="0 0 30 30" fill="none" xmlns="http://www.w3.org/2000/svg">
<g id="ic:round-plus">
<path id="Vector" d="M19.0546 20.6739L15 16.6193L10.9454 20.6739C10.7303 20.889 10.4386 21.0098 10.1345 21.0098C9.8303 21.0098 9.5386 20.889 9.32353 20.6739C9.10846 20.4589 8.98764 20.1672 8.98764 19.863C8.98764 19.5589 9.10846 19.2672 9.32353 19.0521L13.3782 14.9975L9.32353 10.9428C9.10846 10.7278 8.98764 10.4361 8.98764 10.1319C8.98764 9.82777 9.10846 9.53607 9.32353 9.321C9.5386 9.10593 9.8303 8.9851 10.1345 8.9851C10.4386 8.9851 10.7303 9.10593 10.9454 9.321L15 13.3756L19.0546 9.321C19.2697 9.10593 19.5614 8.9851 19.8655 8.9851C20.1697 8.9851 20.4614 9.10593 20.6765 9.321C20.8915 9.53607 21.0124 9.82777 21.0124 10.1319C21.0124 10.4361 20.8915 10.7278 20.6765 10.9428L16.6218 14.9975L20.6765 19.0521C20.8915 19.2672 21.0124 19.5589 21.0124 19.863C21.0124 20.1672 20.8915 20.4589 20.6765 20.6739C20.4614 20.889 20.1697 21.0098 19.8655 21.0098C19.5614 21.0098 19.2697 20.889 19.0546 20.6739Z" fill="#7B7B7B"/>
</g>
</svg>
