<svg width="36" height="36" viewBox="0 0 36 36" fill="none" xmlns="http://www.w3.org/2000/svg">
<g id="viber 1" clip-path="url(#clip0_5906_274862)">
<g id="Group">
<path id="Vector" d="M29.9017 35.5001H27.32C26.7718 35.5001 26.3272 35.0556 26.3272 34.5073C26.3272 33.959 26.7718 33.5145 27.32 33.5145H29.9017C31.8048 33.5145 33.3532 31.9662 33.3532 30.0631V5.93715C33.3532 4.03409 31.8048 2.48569 29.9017 2.48569H14.9928C14.4445 2.48569 14 2.04121 14 1.4929C14 0.944594 14.4445 0.500122 14.9928 0.500122H29.9018C32.8997 0.500122 35.3388 2.93911 35.3388 5.93715V30.0631C35.3387 33.0611 32.8998 35.5001 29.9017 35.5001Z" fill="#4C5BD4"/>
<path id="Vector_2" d="M20.1392 35.5001H5.77296C2.77493 35.5001 0.335938 33.0611 0.335938 30.0631V5.93715C0.335938 2.93911 2.77493 0.500122 5.77296 0.500122H8.00721C8.55552 0.500122 8.99999 0.944594 8.99999 1.4929C8.99999 2.04121 8.55552 2.48569 8.00721 2.48569H5.77296C3.86991 2.48569 2.3215 4.03402 2.3215 5.93715V30.0631C2.3215 31.9661 3.86984 33.5145 5.77296 33.5145H20.1392C20.6874 33.5145 21.132 33.959 21.132 34.5073C21.1321 35.0556 20.6874 35.5001 20.1392 35.5001Z" fill="#4C5BD4"/>
</g>
<path id="Vector_3" d="M12.4757 29.2554C12.4757 28.3991 12.3358 26.2959 12.3346 25.6729C12.3341 25.3988 12.148 25.3191 11.9246 25.2474C10.5658 24.8116 9.44635 24.049 8.65024 22.8413C7.93889 21.7623 7.58862 20.5613 7.43926 19.2948C7.14955 16.8397 7.17197 14.3902 7.76253 11.9797C8.28472 9.8478 9.56243 8.37234 11.6721 7.60897C14.1829 6.70027 16.768 6.68619 19.3795 6.78941C20.6458 6.83945 21.8946 6.98492 23.1114 7.32979C24.407 7.69702 25.6852 8.12542 26.6035 9.2003C27.2591 9.9677 27.6525 10.8741 27.9075 11.8399C28.4871 14.0337 28.4987 16.2586 28.2974 18.5035C28.1999 19.59 28.0749 20.6628 27.6855 21.6846C26.9407 23.6389 25.5058 24.7807 23.4923 25.2902C21.1847 25.874 18.8484 26.0979 16.4771 26.009C16.1487 25.9967 15.9547 26.1636 15.7554 26.3832C14.5345 27.5554 12.5668 29.1704 12.4757 29.2554Z" fill="#4C5BD4" fill-opacity="0.1"/>
<g id="Group_2">
<path id="Vector_4" d="M12.4755 30.2467C12.3419 30.2467 12.2072 30.2198 12.0798 30.1643C11.7174 30.0068 11.483 29.6492 11.483 29.2539C11.483 28.8123 11.4415 27.9748 11.4048 27.2359C11.3833 26.8033 11.3637 26.4086 11.3523 26.1002C9.83961 25.5592 8.65276 24.6473 7.82158 23.3865C7.08494 22.269 6.63746 20.9682 6.4535 19.4099C6.11813 16.567 6.23093 14.0589 6.79851 11.7421C7.40978 9.24723 8.9359 7.54201 11.3345 6.67405C13.0967 6.0364 14.9912 5.75195 17.4772 5.75195C18.041 5.75195 18.658 5.76597 19.4191 5.79605C20.9469 5.85641 22.2062 6.03988 23.3824 6.37327C24.7933 6.77317 26.2625 7.27096 27.3586 8.55407C28.0487 9.3618 28.5424 10.3532 28.8678 11.5848C29.4012 13.6041 29.5342 15.8302 29.2867 18.5906C29.1868 19.7026 29.0527 20.8846 28.6137 22.0366C27.7796 24.2254 26.1385 25.6435 23.7362 26.2511C21.7222 26.7607 19.6159 27.0191 17.4755 27.0191C17.1647 27.0191 16.8484 27.0137 16.5337 27.0029C16.522 27.015 16.5078 27.0301 16.4909 27.0488C16.4756 27.0657 16.4597 27.082 16.4433 27.0977C15.4346 28.0662 13.9265 29.3313 13.3588 29.8074C13.2478 29.9005 13.1718 29.9641 13.1421 29.99C12.9558 30.1585 12.7174 30.2467 12.4755 30.2467ZM17.4769 7.73752C15.2317 7.73752 13.5456 7.98532 12.0099 8.54108C10.2502 9.17785 9.17639 10.3795 8.72679 12.2145C8.21669 14.2967 8.11812 16.5741 8.42519 19.177C8.57202 20.4209 8.91669 21.4404 9.47915 22.2935C10.1124 23.254 11.0114 23.9106 12.2279 24.3006C13.1352 24.5916 13.3266 25.2058 13.3274 25.6698C13.3278 25.9298 13.357 26.5164 13.3877 27.1375C13.3883 27.1503 13.389 27.1632 13.3897 27.176C13.9464 26.6949 14.5578 26.1538 15.0439 25.6885C15.2522 25.4603 15.7128 24.9862 16.5144 25.0154C16.8351 25.0274 17.1584 25.0336 17.4752 25.0336C19.4515 25.0336 21.394 24.7956 23.2489 24.3262C25.0361 23.874 26.1511 22.9218 26.758 21.3295C27.1072 20.4134 27.2178 19.4272 27.3087 18.4131C27.5383 15.8551 27.4269 13.9056 26.9479 12.0919C26.7003 11.1551 26.3408 10.4197 25.8487 9.84373C25.1121 8.98138 24.0055 8.61368 22.8406 8.28357C21.8195 7.99407 20.7072 7.83411 19.3402 7.78004C18.6061 7.75098 18.0139 7.73752 17.4769 7.73752Z" fill="#4C5BD4"/>
<path id="Vector_5" d="M23.0032 20.5884C22.917 21.3584 22.4944 21.7883 22.0726 22.199C21.5963 22.6628 21.0294 22.9383 20.3513 22.6669C19.8305 22.4584 19.3198 22.2207 18.8184 21.9685C17.244 21.1771 15.8627 20.1191 14.6713 18.8274C13.2601 17.2971 12.1564 15.5719 11.5072 13.5766C11.3375 13.055 11.4264 12.5899 11.8374 12.2323C12.2152 11.9035 12.6164 11.5936 13.0404 11.3282C13.3463 11.1368 13.717 11.1557 13.9957 11.4042C14.7716 12.096 15.4063 12.9047 15.8179 13.8647C15.9573 14.1901 15.9266 14.5333 15.6079 14.7854C15.4519 14.9087 15.3049 15.0433 15.1517 15.1702C14.73 15.5194 14.6644 15.7621 14.8331 16.2786C15.2168 17.4529 16.0414 18.2659 17.0366 18.9211C17.3725 19.1422 17.7649 19.2854 18.1446 19.4293C18.4681 19.5518 18.7379 19.417 18.9459 19.1528C19.0544 19.0149 19.1597 18.8746 19.271 18.7392C19.5883 18.3534 20.1458 18.2259 20.5605 18.5033C21.2888 18.9903 22.0049 19.4984 22.6962 20.036C22.8703 20.1714 22.9312 20.4521 23.0032 20.5884Z" fill="#4C5BD4"/>
<path id="Vector_6" d="M24.0497 17.2767C23.7755 17.2767 23.5532 17.0544 23.5532 16.7802C23.5532 13.3413 20.7554 10.5436 17.3167 10.5436C17.0426 10.5436 16.8203 10.3213 16.8203 10.0472C16.8203 9.77309 17.0426 9.55078 17.3167 9.55078C21.303 9.55078 24.5461 12.7939 24.5461 16.7802C24.5461 17.0544 24.3239 17.2767 24.0497 17.2767Z" fill="#4C5BD4"/>
<path id="Vector_7" d="M22.2134 17.2763C21.9392 17.2763 21.717 17.054 21.717 16.7799C21.717 14.3536 19.743 12.3796 17.3167 12.3796C17.0426 12.3796 16.8203 12.1573 16.8203 11.8831C16.8203 11.609 17.0426 11.3867 17.3167 11.3867C20.2904 11.3867 22.7098 13.806 22.7098 16.7799C22.7098 17.054 22.4876 17.2763 22.2134 17.2763Z" fill="#4C5BD4"/>
<path id="Vector_8" d="M20.3772 17.276C20.103 17.276 19.8808 17.0537 19.8808 16.7796C19.8808 15.3658 18.7305 14.2155 17.3167 14.2155C17.0426 14.2155 16.8203 13.9932 16.8203 13.7191C16.8203 13.445 17.0426 13.2227 17.3167 13.2227C19.278 13.2227 20.8736 14.8183 20.8736 16.7795C20.8736 17.0537 20.6514 17.276 20.3772 17.276Z" fill="#4C5BD4"/>
</g>
</g>
<defs>
<clipPath id="clip0_5906_274862">
<rect width="35" height="35" fill="white" transform="translate(0.335938 0.5)"/>
</clipPath>
</defs>
</svg>
