<svg width="20" height="20" viewBox="0 0 20 20" fill="none" xmlns="http://www.w3.org/2000/svg">
<g id="vuesax/linear/gallery-edit">
<g id="gallery-edit">
<path id="Vector" d="M7.4987 8.33333C8.41917 8.33333 9.16536 7.58714 9.16536 6.66667C9.16536 5.74619 8.41917 5 7.4987 5C6.57822 5 5.83203 5.74619 5.83203 6.66667C5.83203 7.58714 6.57822 8.33333 7.4987 8.33333Z" stroke="#FF3232" stroke-linecap="round" stroke-linejoin="round"/>
<path id="Vector_2" d="M10.8346 1.66663H7.5013C3.33464 1.66663 1.66797 3.33329 1.66797 7.49996V12.5C1.66797 16.6666 3.33464 18.3333 7.5013 18.3333H12.5013C16.668 18.3333 18.3346 16.6666 18.3346 12.5V8.33329" stroke="#FF3232" stroke-linecap="round" stroke-linejoin="round"/>
<path id="Vector_3" d="M15.9491 2.1583L12.9241 5.1833C12.8074 5.29996 12.6908 5.52496 12.6741 5.69163L12.5074 6.84996C12.4491 7.26663 12.7408 7.5583 13.1574 7.49996L14.3158 7.3333C14.4741 7.3083 14.7074 7.19996 14.8241 7.0833L17.8491 4.0583C18.3741 3.5333 18.6158 2.9333 17.8491 2.16663C17.0741 1.3833 16.4741 1.6333 15.9491 2.1583Z" stroke="#FF3232" stroke-miterlimit="10" stroke-linecap="round" stroke-linejoin="round"/>
<path id="Vector_4" d="M15.5156 2.59167C15.774 3.50834 16.4906 4.22501 17.4073 4.48334" stroke="#FF3232" stroke-miterlimit="10" stroke-linecap="round" stroke-linejoin="round"/>
<path id="Vector_5" d="M2.22656 15.7917L6.3349 13.0333C6.99323 12.5917 7.94323 12.6417 8.5349 13.15L8.8099 13.3917C9.4599 13.95 10.5099 13.95 11.1599 13.3917L14.6266 10.4167C15.2766 9.85834 16.3266 9.85834 16.9766 10.4167L18.3349 11.5833" stroke="#FF3232" stroke-linecap="round" stroke-linejoin="round"/>
</g>
</g>
</svg>
