<svg width="83" height="18" viewBox="0 0 83 18" fill="none" xmlns="http://www.w3.org/2000/svg">
<g id="Group" opacity="0.5">
<path id="Vector" d="M41.9993 3.7725H39.1448V11.1039H36.9353L36.9285 3.7725H34.0992V1.896H41.9976V3.7725H41.9993Z" fill="white"/>
<path id="Vector_2" d="M44.712 3.79708H43.4978L41.0306 1.76123H43.3075L44.712 3.79708ZM44.4965 11.1031H42.3981V4.25985H44.4965V11.1031Z" fill="white"/>
<path id="Vector_3" d="M55.1447 11.102H53.1255V7.00998C53.1255 6.58959 53.0665 6.3082 52.947 6.16411C52.8072 6.04546 52.5478 5.98443 52.1672 5.98443L51.3875 6.00308V11.102H49.3447V6.00477H47.669V11.102H45.6431V4.25879H52.3087C53.2787 4.25879 53.9928 4.45881 54.4542 4.86056C54.914 5.26231 55.1447 5.90815 55.1447 6.80148V11.102Z" fill="white"/>
<path id="Vector_4" d="M66.5244 4.25879L63.5352 11.102H61.4974L58.6564 4.25879H60.9097L62.5786 8.59662L64.352 4.25879H66.5244Z" fill="white"/>
<path id="Vector_5" d="M69.0032 3.83319H66.9048V1.88379H69.0032V3.83319ZM69.0032 11.1036H66.9048V4.26036H69.0032V11.1036Z" fill="white"/>
<path id="Vector_6" d="M75.8099 11.0963H73.171C72.0662 11.0963 71.2275 10.8064 70.6549 10.2267C70.0773 9.65545 69.7893 8.8028 69.7893 7.67215C69.7893 6.56184 70.0773 5.71597 70.6549 5.13623C71.2359 4.5565 72.0746 4.26663 73.171 4.26663H75.8099V5.93294H73.4101C72.8325 5.93294 72.4535 6.00414 72.2683 6.14823C72.0797 6.30079 71.9854 6.53302 71.9854 6.84492H75.8083V8.5231H71.9854C71.9854 8.82314 72.0645 9.05029 72.2245 9.20115C72.3845 9.35372 72.7752 9.43 73.3966 9.43H75.8083V11.0963H75.8099ZM75.522 3.79708H74.3246L73.336 2.9207L72.3289 3.79708H71.145L72.5445 1.76123H74.1275L75.522 3.79708ZM74.2084 13.6322H72.4401V11.732H74.2084V13.6322Z" fill="white"/>
<path id="Vector_7" d="M82.1983 11.097H79.7379C79.4347 11.097 79.1602 11.08 78.916 11.0478C78.6752 11.0156 78.4495 10.9682 78.2407 10.9054C77.8635 10.7732 77.5166 10.5596 77.1966 10.263C77.0534 10.1189 76.9221 9.94601 76.8042 9.74429C76.6812 9.55104 76.5684 9.34084 76.4674 9.11539C76.3848 8.89672 76.3225 8.67296 76.2771 8.44243C76.2366 8.21697 76.2164 7.96779 76.2164 7.69657C76.2164 7.18633 76.3006 6.70661 76.4674 6.2591C76.6358 5.81836 76.8783 5.4217 77.1983 5.06742C77.4879 4.79959 77.8365 4.60126 78.2424 4.46904C78.6432 4.33343 79.1417 4.26562 79.7396 4.26562H82.2V5.9811H80.2364C79.8271 5.9811 79.5004 6.00652 79.2545 6.05568C79.0137 6.11671 78.8251 6.21841 78.6904 6.35742C78.4125 6.61169 78.2727 7.0592 78.2727 7.69657C78.2727 8.05085 78.3333 8.35089 78.4563 8.59668C78.5624 8.83909 78.7308 9.04081 78.9598 9.20184L79.3589 9.34423C79.4701 9.36119 79.5812 9.37305 79.6958 9.38153C79.8137 9.39 79.9939 9.39339 80.2364 9.39339H82.2V11.097H82.1983Z" fill="white"/>
<path id="Vector_8" d="M7.4201 8.57473C7.4201 9.36466 7.16917 9.98338 6.66563 10.4326C6.15366 10.8767 5.44634 11.0988 4.54199 11.0988H0V9.25278H3.76226C4.20349 9.25278 4.52515 9.17819 4.72555 9.03072C4.92596 8.87815 5.02701 8.64253 5.02701 8.32046C5.02701 8.02381 4.93101 7.79158 4.73903 7.62376C4.53862 7.46272 4.21359 7.38305 3.76394 7.38305L0.693845 7.39492V5.55061H3.70668C4.16138 5.55061 4.4881 5.47942 4.6885 5.33533C4.88049 5.19633 4.97648 4.96579 4.97648 4.64372C4.97648 4.3386 4.88049 4.11145 4.6885 3.95889C4.59083 3.87583 4.46115 3.8165 4.30116 3.7792C4.13276 3.747 3.93572 3.73004 3.70668 3.73004H0V1.88574H4.35169C5.35877 1.88574 6.12166 2.08916 6.64036 2.49599C7.15233 2.90791 7.40831 3.54697 7.40831 4.41488C7.40831 4.85053 7.31232 5.23701 7.12033 5.57435C6.91992 5.91168 6.66057 6.20832 6.3406 6.46259C6.69257 6.68127 6.94855 6.94232 7.10854 7.24574C7.31568 7.60172 7.4201 8.04415 7.4201 8.57473Z" fill="white"/>
<path id="Vector_9" d="M16.4985 8.2725C16.4985 9.23872 16.1499 9.97102 15.4544 10.4694C14.7589 10.9678 13.7568 11.2152 12.4466 11.2152C10.9006 11.2152 9.75714 10.8406 9.01614 10.0914C8.28019 9.34721 7.91138 8.17927 7.91138 6.58585C7.91138 4.97717 8.30545 3.79058 9.09529 3.02608C9.87334 2.26496 11.0859 1.88525 12.7346 1.88525H16.0236L16.0169 3.72955H12.6875C11.8606 3.72955 11.261 3.89059 10.8888 4.21097C10.7137 4.36353 10.5807 4.55678 10.4897 4.79071C10.387 5.03819 10.3365 5.32128 10.3365 5.64166H13.3072C14.3783 5.64166 15.1782 5.85694 15.707 6.28581C16.2341 6.71976 16.4985 7.38086 16.4985 8.2725ZM14.1223 8.37082C14.1223 8.07417 14.0465 7.85041 13.8949 7.69785C13.7434 7.55885 13.5127 7.48766 13.2011 7.48766H10.3483C10.3483 8.11655 10.5234 8.59288 10.8754 8.91326C11.2189 9.24212 11.7696 9.40654 12.5258 9.40654C13.1034 9.40654 13.511 9.32179 13.7535 9.15397C14.001 8.98615 14.1223 8.7251 14.1223 8.37082Z" fill="white"/>
<path id="Vector_10" d="M24.8452 8.30859C24.8452 9.2087 24.5639 9.90031 24.0048 10.3817C23.4406 10.8598 22.6441 11.0971 21.6168 11.0971H16.7986V9.25277H21.1991C21.6319 9.25277 21.9384 9.17819 22.1136 9.03071C22.282 8.88663 22.3645 8.64592 22.3645 8.30859C22.3645 7.96278 22.2803 7.7136 22.1136 7.56273C21.9384 7.41864 21.6319 7.34745 21.1991 7.34745H16.7986V1.88574H24.3972L24.3905 3.73004H19.0502V5.51332H22.026C22.8899 5.51332 23.5804 5.75403 24.1008 6.23544C24.3416 6.48632 24.5285 6.78127 24.6599 7.11861C24.7828 7.46272 24.8452 7.86107 24.8452 8.30859Z" fill="white"/>
<path id="Vector_11" fill-rule="evenodd" clip-rule="evenodd" d="M25.9392 14.0161L29.3023 10.9648L32.9635 12.0345C32.9635 12.0345 35.3785 13.0532 34.0296 14.7585C33.4216 15.362 32.8457 15.9333 30.7203 15.3569C30.1174 15.1552 25.9392 14.0161 25.9392 14.0161Z" fill="white"/>
<path id="Vector_12" fill-rule="evenodd" clip-rule="evenodd" d="M6.46117 11.8576C6.49654 11.939 6.52685 12.022 6.5639 12.1034C6.62958 12.2475 6.702 12.3865 6.78115 12.5238C6.97987 12.8662 7.22069 13.1832 7.49689 13.4663C7.84381 13.8206 8.24631 14.1189 8.68248 14.3511C9.23318 14.6461 9.83272 14.8376 10.444 14.9461C11.2507 15.0902 12.0776 15.0953 12.8927 15.0173C13.9941 14.9122 15.0803 14.6596 16.1363 14.3325C19.176 13.39 21.9834 12.0017 24.3614 9.85225C24.3967 9.82005 24.4321 9.78784 24.4691 9.75563C26.1145 8.24866 28.1371 6.13314 27.8878 3.68707C27.7295 2.14111 25.8652 1.27659 24.55 0.961301C23.9892 0.827385 24.0953 -0.0133988 24.6712 0.00016223C27.327 0.0645771 30.0401 0.788397 30.9478 3.08021C30.9529 3.09377 30.9579 3.10733 30.963 3.12259C31.1903 3.85997 31.2392 4.65838 31.1769 5.42288C31.059 6.88408 30.4999 8.27578 29.6982 9.49119C28.3594 11.5237 26.4058 13.0916 24.3597 14.3545C22.6335 15.4208 20.8517 16.2497 18.9251 16.8531C17.5677 17.2786 16.1851 17.6278 14.7755 17.8278C13.1975 18.0516 11.5539 18.1008 9.99776 17.7092C8.43155 17.3159 7.04555 16.4277 6.15635 15.0529C5.61407 14.2155 5.27389 13.2629 5.07011 12.2882C5.00949 12.0017 5.08527 11.6135 5.33451 11.427C5.65281 11.1897 6.16645 11.4016 6.3736 11.6915C6.40896 11.7474 6.43759 11.8017 6.46117 11.8576Z" fill="white"/>
<path id="Vector_13" fill-rule="evenodd" clip-rule="evenodd" d="M7.47534 11.696C7.47534 11.696 12.1386 15.9423 20.1447 11.3926C19.2522 12.4537 9.28405 17.3069 7.47534 11.696Z" fill="white"/>
</g>
</svg>
