<svg width="18" height="18" viewBox="0 0 18 18" fill="none" xmlns="http://www.w3.org/2000/svg">
<g id="Group">
<path id="Vector" d="M7.29734 5.91153e-09C8.65762 -5.47358e-05 9.99084 0.380079 11.1465 1.0975C12.3022 1.81493 13.2344 2.84108 13.8379 4.06017C14.4414 5.27925 14.6921 6.64274 14.5618 7.99676C14.4315 9.35078 13.9254 10.6414 13.1005 11.7231L17.7156 16.3401C17.8901 16.5152 17.9914 16.7502 17.999 16.9973C18.0065 17.2444 17.9197 17.4851 17.7562 17.6705C17.5927 17.8559 17.3648 17.9722 17.1187 17.9956C16.8726 18.0191 16.6268 17.9479 16.4312 17.7967L16.3397 17.716L11.7227 13.1009C10.8012 13.8035 9.7257 14.2766 8.58509 14.481C7.44449 14.6854 6.2716 14.6153 5.16349 14.2764C4.05537 13.9375 3.04389 13.3396 2.21273 12.5322C1.38157 11.7248 0.754633 10.731 0.383795 9.63318C0.0129576 8.53535 -0.0911189 7.36499 0.0801776 6.21894C0.251474 5.07289 0.693219 3.98411 1.36886 3.04269C2.0445 2.10127 2.93461 1.33427 3.96554 0.805169C4.99646 0.276064 6.13857 6.11599e-05 7.29734 5.91153e-09ZM7.29734 1.94606C5.87799 1.94606 4.51678 2.5099 3.51314 3.51353C2.50951 4.51716 1.94568 5.87838 1.94568 7.29773C1.94568 8.71708 2.50951 10.0783 3.51314 11.0819C4.51678 12.0856 5.87799 12.6494 7.29734 12.6494C8.71669 12.6494 10.0779 12.0856 11.0815 11.0819C12.0852 10.0783 12.649 8.71708 12.649 7.29773C12.649 5.87838 12.0852 4.51716 11.0815 3.51353C10.0779 2.5099 8.71669 1.94606 7.29734 1.94606Z" fill="white"/>
</g>
</svg>
