<svg width="80" height="80" viewBox="0 0 80 80" fill="none" xmlns="http://www.w3.org/2000/svg">
<g id="vuesax/bold/tick-circle">
<g id="tick-circle">
<path id="Vector" d="M39.9974 6.66675C21.6307 6.66675 6.66406 21.6334 6.66406 40.0001C6.66406 58.3667 21.6307 73.3334 39.9974 73.3334C58.3641 73.3334 73.3307 58.3667 73.3307 40.0001C73.3307 21.6334 58.3641 6.66675 39.9974 6.66675ZM55.9307 32.3334L37.0307 51.2334C36.5641 51.7001 35.9307 51.9667 35.2641 51.9667C34.5974 51.9667 33.9641 51.7001 33.4974 51.2334L24.0641 41.8001C23.0974 40.8334 23.0974 39.2334 24.0641 38.2667C25.0307 37.3001 26.6307 37.3001 27.5974 38.2667L35.2641 45.9334L52.3974 28.8001C53.3641 27.8334 54.9641 27.8334 55.9307 28.8001C56.8974 29.7667 56.8974 31.3334 55.9307 32.3334Z" fill="#00CE2D"/>
</g>
</g>
</svg>
