<svg width="13" height="13" viewBox="0 0 13 13" fill="none" xmlns="http://www.w3.org/2000/svg">
<g id="graduate (1) 1">
<g id="Graduate">
<path id="Vector" d="M12.0476 8.53126C12.1431 8.46101 12.2184 8.36681 12.2659 8.25816C12.3134 8.14951 12.3314 8.03026 12.3181 7.91244C12.3048 7.79462 12.2606 7.6824 12.19 7.5871C12.1195 7.4918 12.0251 7.41679 11.9163 7.36965V6.44313L11.3746 6.67334V7.36965C11.2657 7.41677 11.1712 7.49178 11.1006 7.5871C11.03 7.68243 10.9859 7.79469 10.9725 7.91256C10.9592 8.03043 10.9772 8.14972 11.0247 8.2584C11.0723 8.36708 11.1476 8.46129 11.2432 8.53153C11.1582 8.59399 11.089 8.67554 11.0413 8.76963C10.9935 8.86371 10.9686 8.96769 10.9683 9.07319V9.75001C10.9683 9.82183 10.9969 9.89072 11.0477 9.94151C11.0985 9.9923 11.1673 10.0208 11.2392 10.0208H12.0517C12.1235 10.0208 12.1924 9.9923 12.2432 9.94151C12.294 9.89072 12.3225 9.82183 12.3225 9.75001V9.07292C12.3223 8.96742 12.2973 8.86344 12.2496 8.76936C12.2018 8.67527 12.1326 8.59372 12.0476 8.53126Z" fill="#4C5BD4"/>
<path id="Vector_2" d="M10.5625 7.01729V9.02146C10.564 9.25444 10.5048 9.48381 10.3909 9.68703C10.2769 9.89025 10.1121 10.0603 9.91253 10.1806C8.87696 10.7854 7.69927 11.1041 6.50003 11.1041C5.30079 11.1041 4.12309 10.7854 3.08753 10.1806C2.88798 10.0603 2.72313 9.89025 2.60918 9.68703C2.49522 9.48381 2.43607 9.25444 2.43753 9.02146V7.01729L5.76065 8.42291C5.99475 8.52124 6.24611 8.57188 6.50003 8.57188C6.75394 8.57188 7.0053 8.52124 7.2394 8.42291L10.5625 7.01729Z" fill="#4C5BD4"/>
<path id="Vector_3" d="M12.4679 4.12669L7.0274 1.82461C6.86021 1.75428 6.68065 1.71805 6.49927 1.71805C6.31789 1.71805 6.13834 1.75428 5.97115 1.82461L0.530648 4.12669C0.383597 4.18889 0.25813 4.29304 0.16992 4.42612C0.0817108 4.55921 0.034668 4.71534 0.034668 4.875C0.034668 5.03467 0.0817108 5.1908 0.16992 5.32388C0.25813 5.45697 0.383597 5.56112 0.530648 5.62332L5.97115 7.9254C6.13832 7.9958 6.31788 8.03207 6.49927 8.03207C6.68067 8.03207 6.86023 7.9958 7.0274 7.9254L12.4679 5.62332C12.615 5.56112 12.7404 5.45697 12.8286 5.32388C12.9168 5.1908 12.9639 5.03467 12.9639 4.875C12.9639 4.71534 12.9168 4.55921 12.8286 4.42612C12.7404 4.29304 12.615 4.18889 12.4679 4.12669Z" fill="#4C5BD4"/>
</g>
</g>
</svg>
