<svg width="20" height="20" viewBox="0 0 20 20" fill="none" xmlns="http://www.w3.org/2000/svg">
<g id="mingcute:eye-close-line" clip-path="url(#clip0_10099_17741)">
<g id="Group">
<path id="Vector" d="M2.54312 7.75833C2.5077 7.65255 2.49388 7.54072 2.50248 7.42949C2.51108 7.31827 2.54193 7.2099 2.59319 7.11081C2.64445 7.01172 2.71509 6.92394 2.80091 6.85266C2.88673 6.78139 2.98599 6.72807 3.09281 6.69587C3.19962 6.66367 3.31181 6.65324 3.42273 6.66521C3.53364 6.67718 3.64103 6.71129 3.73852 6.76554C3.836 6.81978 3.9216 6.89304 3.99025 6.98099C4.05889 7.06893 4.10918 7.16976 4.13812 7.2775C5.87646 13.0992 14.1231 13.1 15.8631 7.28083C15.8943 7.17589 15.9459 7.07811 16.0148 6.99309C16.0838 6.90806 16.1689 6.83746 16.2651 6.7853C16.3614 6.73314 16.467 6.70046 16.5759 6.68911C16.6848 6.67777 16.7948 6.68798 16.8998 6.71917C17.0047 6.75036 17.1025 6.80191 17.1875 6.87089C17.2726 6.93987 17.3432 7.02491 17.3953 7.12118C17.4475 7.21744 17.4802 7.32303 17.4915 7.43193C17.5029 7.54082 17.4926 7.65089 17.4615 7.75583C17.1583 8.79849 16.644 9.76771 15.9506 10.6033L17.0131 11.6667C17.1649 11.8238 17.2489 12.0343 17.247 12.2528C17.2451 12.4713 17.1575 12.6803 17.003 12.8348C16.8485 12.9894 16.6395 13.077 16.421 13.0789C16.2025 13.0808 15.992 12.9968 15.8348 12.845L14.7423 11.7525C14.1527 12.1971 13.5014 12.5533 12.809 12.81L13.1065 13.9225C13.1382 14.0292 13.1482 14.1412 13.136 14.2518C13.1237 14.3625 13.0894 14.4696 13.0351 14.5667C12.9807 14.6639 12.9075 14.7492 12.8196 14.8176C12.7318 14.886 12.6311 14.9361 12.5236 14.9649C12.4161 14.9938 12.3039 15.0008 12.1936 14.9855C12.0833 14.9703 11.9772 14.9331 11.8815 14.8762C11.7859 14.8192 11.7026 14.7437 11.6366 14.6541C11.5706 14.5644 11.5232 14.4624 11.4973 14.3542L11.194 13.2233C10.4048 13.34 9.59812 13.34 8.80896 13.2233L8.50562 14.3542C8.47969 14.4624 8.43233 14.5644 8.36634 14.6541C8.30034 14.7437 8.21705 14.8192 8.12138 14.8762C8.02571 14.9331 7.9196 14.9703 7.80932 14.9855C7.69904 15.0008 7.58683 14.9938 7.4793 14.9649C7.37177 14.9361 7.27112 14.886 7.18327 14.8176C7.09543 14.7492 7.02218 14.6639 6.96785 14.5667C6.91352 14.4696 6.87921 14.3625 6.86695 14.2518C6.85469 14.1412 6.86472 14.0292 6.89646 13.9225L7.19396 12.81C6.5015 12.5531 5.85021 12.1965 5.26062 11.7517L4.16896 12.845C4.0127 13.0015 3.80068 13.0895 3.57955 13.0896C3.35841 13.0898 3.14627 13.0021 2.98979 12.8458C2.83331 12.6896 2.74532 12.4776 2.74516 12.2564C2.745 12.0353 2.8327 11.8231 2.98896 11.6667L4.05146 10.6042C3.39812 9.82417 2.87646 8.87583 2.54146 7.75917L2.54312 7.75833Z" fill="#4C5BD4"/>
</g>
</g>
<defs>
<clipPath id="clip0_10099_17741">
<rect width="20" height="20" fill="white"/>
</clipPath>
</defs>
</svg>
