<svg width="35" height="36" viewBox="0 0 35 36" fill="none" xmlns="http://www.w3.org/2000/svg">
<g id="chat (1) 1" clip-path="url(#clip0_5906_274853)">
<path id="Vector" d="M5.49665 32.2648C5.24693 32.2648 4.99489 32.2103 4.75755 32.0987C4.11347 31.7959 3.72423 31.1413 3.76579 30.4307L3.98905 26.6174H2.27815C1.02197 26.6174 0 25.5955 0 24.3393V11.9227C0 10.6664 1.02197 9.64453 2.27815 9.64453H21.6849C22.9411 9.64453 23.963 10.6665 23.963 11.9227V24.3393C23.963 25.5955 22.941 26.6174 21.6849 26.6174H19.5385C19.0169 26.6174 18.594 26.1946 18.594 25.6729C18.594 25.1513 19.0169 24.7284 19.5385 24.7284H21.6849C21.8995 24.7284 22.0741 24.5539 22.0741 24.3392V11.9227C22.0741 11.7081 21.8996 11.5335 21.6849 11.5335H2.27815C2.06364 11.5335 1.88898 11.708 1.88898 11.9227V24.3393C1.88898 24.5538 2.0635 24.7285 2.27815 24.7285H4.99052C5.25056 24.7285 5.49911 24.8357 5.67767 25.0249C5.85609 25.2142 5.94864 25.4686 5.93347 25.7282L5.67466 30.148L11.2155 24.9821C11.3904 24.8191 11.6205 24.7285 11.8596 24.7285H15.1857C15.7073 24.7285 16.1302 25.1513 16.1302 25.673C16.1302 26.1946 15.7073 26.6175 15.1857 26.6175H12.2315L6.67462 31.7983C6.34602 32.1047 5.92465 32.2648 5.49665 32.2648Z" fill="#4C5BD4"/>
<path id="Vector_2" d="M32.7249 4.67969H13.3181C12.5816 4.67969 11.9844 5.27681 11.9844 6.01331V10.5878H21.6878C22.4243 10.5878 23.0214 11.1849 23.0214 11.9215V19.7636H23.1434L28.9723 25.198C29.4914 25.6821 30.3357 25.2852 30.2942 24.5765L30.0123 19.7635H32.7247C33.4612 19.7635 34.0583 19.1664 34.0583 18.4299V6.01331C34.0585 5.27674 33.4614 4.67969 32.7249 4.67969Z" fill="#4C5BD4" fill-opacity="0.1"/>
<g id="Group">
<path id="Vector_3" d="M29.5025 26.3569C29.0677 26.3569 28.6505 26.1911 28.3274 25.89L22.7171 20.6595C22.3444 20.5331 22.076 20.1802 22.076 19.7647V11.9226C22.076 11.7081 21.9015 11.5334 21.6869 11.5334H11.9836C11.4619 11.5334 11.0391 11.1105 11.0391 10.5889V6.01448C11.0391 4.75823 12.061 3.73633 13.3172 3.73633H32.7239C33.9801 3.73633 35.0021 4.7583 35.0021 6.01448V18.4311C35.0021 19.6873 33.9801 20.7092 32.7239 20.7092H31.013L31.2362 24.5225C31.2645 25.0047 31.0998 25.4613 30.7727 25.8082C30.4439 26.1569 29.9809 26.3569 29.5025 26.3569ZM23.9652 19.2403L29.3275 24.2397L29.0687 19.82C29.0535 19.5603 29.1461 19.306 29.3245 19.1167C29.503 18.9275 29.7515 18.8202 30.0116 18.8202H32.724C32.9385 18.8202 33.1132 18.6457 33.1132 18.431V6.01448C33.1132 5.79997 32.9386 5.62531 32.724 5.62531H13.3172C13.1026 5.62531 12.928 5.79983 12.928 6.01448V9.64444H21.6869C22.9431 9.64444 23.9651 10.6664 23.9651 11.9226V19.2403H23.9652Z" fill="#4C5BD4"/>
<path id="Vector_4" d="M17.5014 16.9358H6.16718C5.64553 16.9358 5.22266 16.5129 5.22266 15.9913C5.22266 15.4696 5.64553 15.0468 6.16718 15.0468H17.5014C18.023 15.0468 18.4459 15.4696 18.4459 15.9913C18.4459 16.5129 18.023 16.9358 17.5014 16.9358Z" fill="#4C5BD4"/>
<path id="Vector_5" d="M16.0065 21.7797H7.66327C7.14162 21.7797 6.71875 21.3568 6.71875 20.8351C6.71875 20.3135 7.14162 19.8906 7.66327 19.8906H16.0065C16.5281 19.8906 16.951 20.3135 16.951 20.8351C16.951 21.3568 16.5281 21.7797 16.0065 21.7797Z" fill="#4C5BD4"/>
</g>
</g>
<defs>
<clipPath id="clip0_5906_274853">
<rect width="35" height="35" fill="white" transform="translate(0 0.5)"/>
</clipPath>
</defs>
</svg>
