<svg width="90" height="90" viewBox="0 0 90 90" fill="none" xmlns="http://www.w3.org/2000/svg">
<g id="gold-medal 1" clip-path="url(#clip0_5645_255858)">
<g id="Group">
<g id="Group_2">
<path id="Vector" d="M19.4329 66.6796C24.754 67.3668 29.3962 69.5277 32.6832 72.5047C33.3716 73.1282 33.1152 75.1131 32.291 75.5412C28.3558 77.5857 23.3168 78.4964 17.9957 77.8093C12.6746 77.1221 8.03234 74.9612 4.74539 71.9841C4.05698 71.3607 4.31339 69.3757 5.13751 68.9476C9.07281 66.9032 14.1118 65.9924 19.4329 66.6796Z" fill="url(#paint0_linear_5645_255858)"/>
<path id="Vector_2" d="M19.4329 66.6796C24.754 67.3668 29.3962 69.5277 32.6832 72.5047C33.3716 73.1282 33.1152 75.1131 32.291 75.5412C28.3558 77.5857 23.3168 78.4964 17.9957 77.8093C12.6746 77.1221 8.03234 74.9612 4.74539 71.9841C4.05698 71.3607 4.31339 69.3757 5.13751 68.9476C9.07281 66.9032 14.1118 65.9924 19.4329 66.6796Z" fill="url(#paint1_linear_5645_255858)"/>
<path id="Vector_3" d="M20.0548 59.2279C25.7454 61.695 30.21 65.5821 32.9078 69.9413C33.4727 70.8541 32.5524 72.9769 31.5 73.1887C26.4741 74.1995 20.5851 73.5976 14.8946 71.1305C9.20396 68.6634 4.73943 64.7765 2.04155 60.4171C1.47666 59.5043 2.39696 57.3815 3.44943 57.1697C8.47531 56.1591 14.3641 56.7609 20.0548 59.2279Z" fill="url(#paint2_linear_5645_255858)"/>
<path id="Vector_4" d="M20.0548 59.2279C25.7454 61.695 30.21 65.5821 32.9078 69.9413C33.4727 70.8541 32.5524 72.9769 31.5 73.1887C26.4741 74.1995 20.5851 73.5976 14.8946 71.1305C9.20396 68.6634 4.73943 64.7765 2.04155 60.4171C1.47666 59.5043 2.39696 57.3815 3.44943 57.1697C8.47531 56.1591 14.3641 56.7609 20.0548 59.2279Z" fill="url(#paint3_linear_5645_255858)"/>
<path id="Vector_5" d="M30.3016 47.2664C32.5808 53.0347 32.9894 58.9403 31.8144 63.9303C31.5684 64.9754 29.4166 65.8256 28.5227 65.2311C24.2541 62.3919 20.5156 57.8022 18.2363 52.0339C15.957 46.2656 15.5484 40.36 16.7234 35.37C16.9694 34.3249 19.1213 33.4747 20.0151 34.0692C24.2837 36.9083 28.0223 41.4979 30.3016 47.2664Z" fill="url(#paint4_linear_5645_255858)"/>
<path id="Vector_6" d="M30.3016 47.2664C32.5808 53.0347 32.9894 58.9403 31.8144 63.9303C31.5684 64.9754 29.4166 65.8256 28.5227 65.2311C24.2541 62.3919 20.5156 57.8022 18.2363 52.0339C15.957 46.2656 15.5484 40.36 16.7234 35.37C16.9694 34.3249 19.1213 33.4747 20.0151 34.0692C24.2837 36.9083 28.0223 41.4979 30.3016 47.2664Z" fill="url(#paint5_linear_5645_255858)"/>
<path id="Vector_7" d="M21.9954 47.4836C27.7978 52.7001 31.5705 59.1206 33.0469 65.3986C33.3561 66.7133 31.4101 68.8779 30.07 68.7099C23.6708 67.9075 16.8866 64.8369 11.0843 59.6202C5.2819 54.4038 1.50913 47.9832 0.0327786 41.7053C-0.276398 40.3906 1.66954 38.226 3.00966 38.394C9.40866 39.1964 16.1931 42.2672 21.9954 47.4836Z" fill="url(#paint6_linear_5645_255858)"/>
<path id="Vector_8" d="M2.69092 48.8383C4.66474 52.6813 7.48333 56.3826 11.0844 59.6201C16.8867 64.8366 23.671 67.9074 30.0702 68.7098C31.4103 68.8778 33.3562 66.7134 33.047 65.3985C31.5707 59.1205 27.7979 52.7 21.9956 47.4835C18.5789 44.4117 14.8215 42.085 11.003 40.5264L2.69092 48.8383Z" fill="url(#paint7_linear_5645_255858)"/>
</g>
<g id="Group_3">
<path id="Vector_9" d="M70.567 66.6796C65.2459 67.3668 60.6036 69.5277 57.3167 72.5047C56.6283 73.1282 56.8847 75.1131 57.7088 75.5412C61.6441 77.5857 66.683 78.4964 72.0042 77.8093C77.3253 77.1221 81.9675 74.9612 85.2544 71.9841C85.9429 71.3607 85.6865 69.3757 84.8623 68.9476C80.927 66.9032 75.8881 65.9924 70.567 66.6796Z" fill="url(#paint8_linear_5645_255858)"/>
<path id="Vector_10" d="M70.567 66.6796C65.2459 67.3668 60.6036 69.5277 57.3167 72.5047C56.6283 73.1282 56.8847 75.1131 57.7088 75.5412C61.6441 77.5857 66.683 78.4964 72.0042 77.8093C77.3253 77.1221 81.9675 74.9612 85.2544 71.9841C85.9429 71.3607 85.6865 69.3757 84.8623 68.9476C80.927 66.9032 75.8881 65.9924 70.567 66.6796Z" fill="url(#paint9_linear_5645_255858)"/>
<path id="Vector_11" d="M69.9449 59.2279C64.2542 61.695 59.7897 65.5821 57.0918 69.9413C56.527 70.8541 57.4473 72.9769 58.4997 73.1887C63.5256 74.1995 69.4146 73.5976 75.1051 71.1305C80.7957 68.6634 85.2603 64.7765 87.9581 60.4171C88.523 59.5043 87.6027 57.3815 86.5503 57.1697C81.5244 56.1591 75.6355 56.7609 69.9449 59.2279Z" fill="url(#paint10_linear_5645_255858)"/>
<path id="Vector_12" d="M69.9449 59.2279C64.2542 61.695 59.7897 65.5821 57.0918 69.9413C56.527 70.8541 57.4473 72.9769 58.4997 73.1887C63.5256 74.1995 69.4146 73.5976 75.1051 71.1305C80.7957 68.6634 85.2603 64.7765 87.9581 60.4171C88.523 59.5043 87.6027 57.3815 86.5503 57.1697C81.5244 56.1591 75.6355 56.7609 69.9449 59.2279Z" fill="url(#paint11_linear_5645_255858)"/>
<path id="Vector_13" d="M59.6982 47.2664C57.4189 53.0347 57.0104 58.9403 58.1853 63.9303C58.4313 64.9754 60.5832 65.8256 61.477 65.2311C65.7456 62.3919 69.4842 57.8022 71.7635 52.0339C74.0428 46.2656 74.4513 40.36 73.2764 35.37C73.0304 34.3249 70.8785 33.4747 69.9846 34.0692C65.716 36.9083 61.9775 41.4979 59.6982 47.2664Z" fill="url(#paint12_linear_5645_255858)"/>
<path id="Vector_14" d="M59.6982 47.2664C57.4189 53.0347 57.0104 58.9403 58.1853 63.9303C58.4313 64.9754 60.5832 65.8256 61.477 65.2311C65.7456 62.3919 69.4842 57.8022 71.7635 52.0339C74.0428 46.2656 74.4513 40.36 73.2764 35.37C73.0304 34.3249 70.8785 33.4747 69.9846 34.0692C65.716 36.9083 61.9775 41.4979 59.6982 47.2664Z" fill="url(#paint13_linear_5645_255858)"/>
<path id="Vector_15" d="M68.0042 47.4836C62.2018 52.7001 58.4291 59.1206 56.9527 65.3986C56.6435 66.7133 58.5895 68.8779 59.9296 68.7099C66.3288 67.9075 73.113 64.8369 78.9153 59.6202C84.7177 54.4038 88.4905 47.9832 89.9668 41.7053C90.276 40.3906 88.3301 38.226 86.9899 38.394C80.5909 39.1964 73.8065 42.2672 68.0042 47.4836Z" fill="url(#paint14_linear_5645_255858)"/>
<path id="Vector_16" d="M87.3088 48.8383C85.335 52.6813 82.5164 56.3826 78.9153 59.6201C73.113 64.8366 66.3288 67.9074 59.9296 68.7098C58.5895 68.8778 56.6435 66.7134 56.9527 65.3985C58.4291 59.1205 62.2018 52.7 68.0042 47.4835C71.4208 44.4117 75.1782 42.085 78.9967 40.5264L87.3088 48.8383Z" fill="url(#paint15_linear_5645_255858)"/>
</g>
<g id="Group_4">
<path id="Vector_17" d="M44.9999 89.9999C60.4989 89.9999 73.0634 77.4355 73.0634 61.9365C73.0634 46.4375 60.4989 33.873 44.9999 33.873C29.5009 33.873 16.9365 46.4375 16.9365 61.9365C16.9365 77.4355 29.5009 89.9999 44.9999 89.9999Z" fill="url(#paint16_linear_5645_255858)"/>
<path id="Vector_18" d="M44.9999 84.3049C57.3537 84.3049 67.3684 74.2902 67.3684 61.9364C67.3684 49.5826 57.3537 39.5679 44.9999 39.5679C32.6461 39.5679 22.6313 49.5826 22.6313 61.9364C22.6313 74.2902 32.6461 84.3049 44.9999 84.3049Z" fill="url(#paint17_linear_5645_255858)"/>
<path id="Vector_19" d="M44.9999 81.14C55.6057 81.14 64.2034 72.5423 64.2034 61.9364C64.2034 51.3306 55.6057 42.7329 44.9999 42.7329C34.3941 42.7329 25.7964 51.3306 25.7964 61.9364C25.7964 72.5423 34.3941 81.14 44.9999 81.14Z" fill="url(#paint18_linear_5645_255858)"/>
<path id="Vector_20" d="M16.9365 61.9366C16.9365 77.4357 29.5009 90 44.9999 90C60.499 90 73.0634 77.4357 73.0634 61.9366C73.0634 61.8277 73.0605 61.7195 73.0593 61.6108H16.9406C16.9393 61.7195 16.9365 61.8277 16.9365 61.9366Z" fill="url(#paint19_linear_5645_255858)"/>
</g>
<path id="Vector_21" d="M52.8708 88.8794C61.7135 86.3005 68.7501 79.4878 71.6395 70.782L57.9713 57.1138L54.8899 57.2651L46.5736 48.9487L36.438 72.4467L52.8708 88.8794Z" fill="url(#paint20_linear_5645_255858)"/>
<g id="Group_5">
<path id="Vector_22" d="M56.5072 55.8387L51.0036 54.509C50.4917 54.3853 50.0443 54.0749 49.7491 53.6387L46.5765 48.949C46.1927 48.3818 45.6049 48.0774 44.9999 48.0283C44.395 48.0774 43.807 48.3818 43.4233 48.949L40.2507 53.6387C39.9557 54.0749 39.5083 54.3853 38.9962 54.509L33.4926 55.8387C31.9997 56.1994 31.3776 57.9813 32.3214 59.1929L35.8012 63.6594C36.1249 64.075 36.2819 64.5963 36.2413 65.1214L35.8053 70.7666C35.687 72.2978 37.1893 73.4403 38.6334 72.9169L43.9566 70.9877C44.293 70.8657 44.6517 70.8343 44.9999 70.8883C45.3483 70.8345 45.7069 70.8659 46.0432 70.9877L51.3665 72.9169C52.8103 73.4401 54.3128 72.2978 54.1946 70.7666L53.7585 65.1214C53.7179 64.5963 53.875 64.075 54.1986 63.6594L57.6785 59.1929C58.6222 57.9813 58.0002 56.1994 56.5072 55.8387Z" fill="url(#paint21_linear_5645_255858)"/>
<path id="Vector_23" d="M46.0433 70.9877L51.3665 72.9169C52.8104 73.4401 54.3129 72.2978 54.1946 70.7666L53.7586 65.1214C53.718 64.5963 53.8751 64.075 54.1987 63.6594L57.6785 59.1929C58.6225 57.9814 58.0002 56.1994 56.5073 55.8387L51.0037 54.509C50.4918 54.3853 50.0444 54.0749 49.7492 53.6387L46.5766 48.949C46.1928 48.3818 45.6049 48.0774 45 48.0283V70.8883C45.3484 70.8343 45.7071 70.8657 46.0433 70.9877Z" fill="url(#paint22_linear_5645_255858)"/>
<path id="Vector_24" d="M56.5072 55.8386L51.0036 54.5089C50.8157 54.4636 50.6367 54.3925 50.4707 54.2998L36.4409 72.4468C36.9913 72.9787 37.8216 73.2111 38.6334 72.9169L43.9566 70.9877C44.293 70.8658 44.6517 70.8344 44.9999 70.8884C45.3483 70.8346 45.7069 70.866 46.0432 70.9877L51.3664 72.9169C52.8103 73.4402 54.3128 72.2979 54.1946 70.7666L53.7585 65.1215C53.7179 64.5963 53.875 64.075 54.1986 63.6595L57.6785 59.193C58.6222 57.9812 58.0002 56.1993 56.5072 55.8386Z" fill="url(#paint23_linear_5645_255858)"/>
<path id="Vector_25" d="M33.4926 55.8386L38.9962 54.5089C39.1842 54.4636 39.3631 54.3925 39.5292 54.2998L53.5589 72.4468C53.0085 72.9787 52.1782 73.2111 51.3665 72.9169L46.0432 70.9877C45.7069 70.8658 45.3481 70.8344 44.9999 70.8884C44.6516 70.8346 44.293 70.866 43.9566 70.9877L38.6334 72.9169C37.1895 73.4402 35.687 72.2979 35.8053 70.7666L36.2413 65.1215C36.2819 64.5963 36.1249 64.075 35.8012 63.6595L32.3214 59.193C31.3776 57.9812 31.9997 56.1993 33.4926 55.8386Z" fill="url(#paint24_linear_5645_255858)"/>
<path id="Vector_26" d="M32.028 57.1143C31.7663 57.7743 31.8291 58.5608 32.3216 59.1931L35.8014 63.6596C36.1251 64.0751 36.2821 64.5964 36.2416 65.1216L35.8055 70.7667C35.6873 72.298 37.1896 73.4404 38.6336 72.917L43.9568 70.9878C44.2932 70.8659 44.652 70.8345 45.0001 70.8885C45.3485 70.8347 45.7071 70.8661 46.0434 70.9878L51.3667 72.917C52.8106 73.4403 54.313 72.298 54.1948 70.7667L53.7587 65.1216C53.7361 64.8303 53.7766 64.5407 53.8704 64.2691L32.028 57.1143Z" fill="url(#paint25_linear_5645_255858)"/>
<path id="Vector_27" d="M57.9742 57.1143C58.2359 57.7743 58.1732 58.5608 57.6805 59.1931L54.2007 63.6596C53.877 64.0751 53.72 64.5964 53.7606 65.1216L54.1966 70.7667C54.3149 72.298 52.8124 73.4404 51.3685 72.917L46.0453 70.9878C45.7089 70.8659 45.3502 70.8345 45.002 70.8885C44.6536 70.8347 44.295 70.8661 43.9587 70.9878L38.6355 72.917C37.1916 73.4403 35.6891 72.298 35.8073 70.7667L36.2434 65.1216C36.266 64.8303 36.2256 64.5407 36.1317 64.2691L57.9742 57.1143Z" fill="url(#paint26_linear_5645_255858)"/>
</g>
<path id="Vector_28" d="M44.9999 33.873C44.8834 33.873 44.7679 33.876 44.6517 33.8775L40.3208 38.2084L71.9374 69.8251C72.6691 67.3223 73.0633 64.6755 73.0633 61.9363C73.0633 46.4374 60.499 33.873 44.9999 33.873Z" fill="url(#paint27_linear_5645_255858)"/>
<g id="Group_6">
<path id="Vector_29" d="M28.0591 0.588379V15.4119L45.0003 32.3531L61.9414 15.4119V0.588379H28.0591Z" fill="url(#paint28_linear_5645_255858)"/>
<g id="Group_7">
<path id="Vector_30" d="M28.0591 0.588379V5.20167L44.9436 22.0862C44.9748 22.1174 45.0257 22.1174 45.0569 22.0862L61.9414 5.20167V0.588379H28.0591Z" fill="url(#paint29_linear_5645_255858)"/>
<path id="Vector_31" d="M28.0591 0.588379V5.20167L44.9436 22.0862C44.9748 22.1174 45.0257 22.1174 45.0569 22.0862L61.9414 5.20167V0.588379H28.0591Z" fill="url(#paint30_linear_5645_255858)"/>
<path id="Vector_32" d="M45.0003 24.7557C44.3018 24.7557 43.6035 24.4899 43.072 23.9582L28.0591 8.94531V15.4123L45.0003 32.3534L61.9414 15.4123V8.94531L46.9286 23.9582C46.397 24.4897 45.6987 24.7557 45.0003 24.7557Z" fill="url(#paint31_linear_5645_255858)"/>
<path id="Vector_33" d="M45.0003 24.7557C44.3018 24.7557 43.6035 24.4899 43.072 23.9582L28.0591 8.94531V15.4123L45.0003 32.3534L61.9414 15.4123V8.94531L46.9286 23.9582C46.397 24.4897 45.6987 24.7557 45.0003 24.7557Z" fill="url(#paint32_linear_5645_255858)"/>
<path id="Vector_34" d="M45.0003 24.7557C45.6987 24.7557 46.397 24.4899 46.9286 23.9582L61.9414 8.94531V15.4123L45.0003 32.3534L28.0591 15.4123V8.94531L43.072 23.9582C43.6035 24.4897 44.302 24.7557 45.0003 24.7557Z" fill="url(#paint33_linear_5645_255858)"/>
</g>
<g id="Group_8">
<path id="Vector_35" d="M43.1424 28.5047L28.7258 14.0881C27.6447 13.0071 25.8919 13.0071 24.8108 14.0881C23.7297 15.1692 23.7297 16.9221 24.8108 18.0031L45.0001 38.1928L65.1896 18.0033C66.2706 16.9223 66.2706 15.1694 65.1896 14.0883C64.1085 13.0073 62.3556 13.0073 61.2746 14.0883L46.858 28.5049C45.8318 29.5309 44.1684 29.5309 43.1424 28.5047Z" fill="url(#paint34_linear_5645_255858)"/>
<path id="Vector_36" d="M24.8105 14.121L42.8743 32.1847C44.0483 33.3587 45.9519 33.3587 47.126 32.1847L65.1895 14.121C65.1948 14.1157 65.199 14.1098 65.2043 14.1046C65.1992 14.0993 65.1948 14.0934 65.1895 14.0881C64.1084 13.0071 62.3555 13.0071 61.2745 14.0881L46.8579 28.5047C45.8319 29.5307 44.1683 29.5307 43.1423 28.5047L28.7257 14.0881C27.6447 13.0071 25.8918 13.0071 24.8107 14.0881C24.8054 14.0934 24.8012 14.0993 24.7959 14.1046C24.801 14.1098 24.8053 14.1157 24.8105 14.121Z" fill="url(#paint35_linear_5645_255858)"/>
<path id="Vector_37" d="M45.0003 38.193L59.2519 23.9414H51.4217L46.858 28.5051C45.832 29.5311 44.1684 29.5311 43.1424 28.5051L38.5787 23.9414H30.7485L45.0003 38.193Z" fill="url(#paint36_linear_5645_255858)"/>
<path id="Vector_38" d="M43.2354 36.4281L45.0001 38.1929L63.0752 20.1177H55.2451L46.8579 28.5048C45.8618 29.501 44.2666 29.5269 43.2354 28.589V36.4281Z" fill="url(#paint37_linear_5645_255858)"/>
</g>
<g id="Group_9">
<path id="Vector_39" d="M45.0001 40.1467C48.6547 40.1467 51.6174 37.184 51.6174 33.5294C51.6174 29.8748 48.6547 26.9121 45.0001 26.9121C41.3455 26.9121 38.3828 29.8748 38.3828 33.5294C38.3828 37.184 41.3455 40.1467 45.0001 40.1467Z" fill="url(#paint38_linear_5645_255858)"/>
<path id="Vector_40" d="M45.0003 37.3234C47.0955 37.3234 48.7941 35.6248 48.7941 33.5296C48.7941 31.4344 47.0955 29.7358 45.0003 29.7358C42.9051 29.7358 41.2065 31.4344 41.2065 33.5296C41.2065 35.6248 42.9051 37.3234 45.0003 37.3234Z" fill="url(#paint39_linear_5645_255858)"/>
</g>
<path id="Vector_41" d="M64.5005 6.58818H25.4998C24.3792 6.58818 23.4707 5.67971 23.4707 4.55912V2.02906C23.4707 0.908471 24.3792 0 25.4998 0H64.5006C65.6211 0 66.5295 0.908471 66.5295 2.02906V4.55929C66.5295 5.67988 65.6211 6.58818 64.5005 6.58818Z" fill="url(#paint40_linear_5645_255858)"/>
</g>
</g>
</g>
<defs>
<linearGradient id="paint0_linear_5645_255858" x1="12.8332" y1="64.1358" x2="18.6567" y2="72.1652" gradientUnits="userSpaceOnUse">
<stop stop-color="#FEF0AE"/>
<stop offset="1" stop-color="#FBC56D"/>
</linearGradient>
<linearGradient id="paint1_linear_5645_255858" x1="12.3029" y1="69.2854" x2="21.4794" y2="73.5207" gradientUnits="userSpaceOnUse">
<stop stop-color="#DC8758" stop-opacity="0"/>
<stop offset="0.9957" stop-color="#DC8758" stop-opacity="0.996"/>
<stop offset="1" stop-color="#DC8758"/>
</linearGradient>
<linearGradient id="paint2_linear_5645_255858" x1="6.85972" y1="57.2911" x2="16.4774" y2="64.4382" gradientUnits="userSpaceOnUse">
<stop stop-color="#FEF0AE"/>
<stop offset="1" stop-color="#FBC56D"/>
</linearGradient>
<linearGradient id="paint3_linear_5645_255858" x1="10.8917" y1="65.2854" x2="18.1858" y2="65.1679" gradientUnits="userSpaceOnUse">
<stop stop-color="#DC8758" stop-opacity="0"/>
<stop offset="0.9957" stop-color="#DC8758" stop-opacity="0.996"/>
<stop offset="1" stop-color="#DC8758"/>
</linearGradient>
<linearGradient id="paint4_linear_5645_255858" x1="26.1818" y1="40.8504" x2="23.976" y2="50.9975" gradientUnits="userSpaceOnUse">
<stop stop-color="#FEF0AE"/>
<stop offset="1" stop-color="#FBC56D"/>
</linearGradient>
<linearGradient id="paint5_linear_5645_255858" x1="16.65" y1="41.8724" x2="22.297" y2="47.637" gradientUnits="userSpaceOnUse">
<stop stop-color="#DC8758" stop-opacity="0"/>
<stop offset="0.9957" stop-color="#DC8758" stop-opacity="0.996"/>
<stop offset="1" stop-color="#DC8758"/>
</linearGradient>
<linearGradient id="paint6_linear_5645_255858" x1="13.2578" y1="43.2881" x2="18.1108" y2="58.4645" gradientUnits="userSpaceOnUse">
<stop stop-color="#FEF0AE"/>
<stop offset="1" stop-color="#FBC56D"/>
</linearGradient>
<linearGradient id="paint7_linear_5645_255858" x1="14.2356" y1="51.5519" x2="20.4709" y2="56.9637" gradientUnits="userSpaceOnUse">
<stop stop-color="#DC8758" stop-opacity="0"/>
<stop offset="0.9957" stop-color="#DC8758" stop-opacity="0.996"/>
<stop offset="1" stop-color="#DC8758"/>
</linearGradient>
<linearGradient id="paint8_linear_5645_255858" x1="77.1665" y1="64.1358" x2="71.3429" y2="72.1652" gradientUnits="userSpaceOnUse">
<stop stop-color="#FEF0AE"/>
<stop offset="1" stop-color="#FBC56D"/>
</linearGradient>
<linearGradient id="paint9_linear_5645_255858" x1="77.6969" y1="69.2854" x2="68.5205" y2="73.5207" gradientUnits="userSpaceOnUse">
<stop stop-color="#DC8758" stop-opacity="0"/>
<stop offset="0.9957" stop-color="#DC8758" stop-opacity="0.996"/>
<stop offset="1" stop-color="#DC8758"/>
</linearGradient>
<linearGradient id="paint10_linear_5645_255858" x1="83.14" y1="57.2911" x2="73.5223" y2="64.4382" gradientUnits="userSpaceOnUse">
<stop stop-color="#FEF0AE"/>
<stop offset="1" stop-color="#FBC56D"/>
</linearGradient>
<linearGradient id="paint11_linear_5645_255858" x1="79.108" y1="65.2854" x2="71.8139" y2="65.1679" gradientUnits="userSpaceOnUse">
<stop stop-color="#DC8758" stop-opacity="0"/>
<stop offset="0.9957" stop-color="#DC8758" stop-opacity="0.996"/>
<stop offset="1" stop-color="#DC8758"/>
</linearGradient>
<linearGradient id="paint12_linear_5645_255858" x1="63.8179" y1="40.8504" x2="66.0238" y2="50.9975" gradientUnits="userSpaceOnUse">
<stop stop-color="#FEF0AE"/>
<stop offset="1" stop-color="#FBC56D"/>
</linearGradient>
<linearGradient id="paint13_linear_5645_255858" x1="73.3498" y1="41.8724" x2="67.7027" y2="47.637" gradientUnits="userSpaceOnUse">
<stop stop-color="#DC8758" stop-opacity="0"/>
<stop offset="0.9957" stop-color="#DC8758" stop-opacity="0.996"/>
<stop offset="1" stop-color="#DC8758"/>
</linearGradient>
<linearGradient id="paint14_linear_5645_255858" x1="76.7418" y1="43.2881" x2="71.8888" y2="58.4645" gradientUnits="userSpaceOnUse">
<stop stop-color="#FEF0AE"/>
<stop offset="1" stop-color="#FBC56D"/>
</linearGradient>
<linearGradient id="paint15_linear_5645_255858" x1="75.7641" y1="51.5519" x2="69.5289" y2="56.9637" gradientUnits="userSpaceOnUse">
<stop stop-color="#DC8758" stop-opacity="0"/>
<stop offset="0.9957" stop-color="#DC8758" stop-opacity="0.996"/>
<stop offset="1" stop-color="#DC8758"/>
</linearGradient>
<linearGradient id="paint16_linear_5645_255858" x1="27.6977" y1="44.6342" x2="57.2946" y2="74.2312" gradientUnits="userSpaceOnUse">
<stop stop-color="#FEF0AE"/>
<stop offset="1" stop-color="#FBC56D"/>
</linearGradient>
<linearGradient id="paint17_linear_5645_255858" x1="59.528" y1="76.4645" x2="30.0479" y2="46.9844" gradientUnits="userSpaceOnUse">
<stop stop-color="#FEF0AE"/>
<stop offset="1" stop-color="#FBC56D"/>
</linearGradient>
<linearGradient id="paint18_linear_5645_255858" x1="31.0395" y1="47.976" x2="54.019" y2="70.9555" gradientUnits="userSpaceOnUse">
<stop stop-color="#FEF0AE"/>
<stop offset="1" stop-color="#FBC56D"/>
</linearGradient>
<linearGradient id="paint19_linear_5645_255858" x1="44.9999" y1="70.1474" x2="44.9999" y2="88.5674" gradientUnits="userSpaceOnUse">
<stop stop-color="#DC8758" stop-opacity="0"/>
<stop offset="0.9957" stop-color="#DC8758" stop-opacity="0.996"/>
<stop offset="1" stop-color="#DC8758"/>
</linearGradient>
<linearGradient id="paint20_linear_5645_255858" x1="61.8076" y1="76.5212" x2="38.631" y2="61.9329" gradientUnits="userSpaceOnUse">
<stop stop-color="#DC8758" stop-opacity="0"/>
<stop offset="0.9957" stop-color="#DC8758" stop-opacity="0.996"/>
<stop offset="1" stop-color="#DC8758"/>
</linearGradient>
<linearGradient id="paint21_linear_5645_255858" x1="39.1542" y1="56.6025" x2="49.6958" y2="67.144" gradientUnits="userSpaceOnUse">
<stop stop-color="#FBC56D"/>
<stop offset="1" stop-color="#C5715A"/>
</linearGradient>
<linearGradient id="paint22_linear_5645_255858" x1="51.3164" y1="59.4767" x2="36.7465" y2="65.5" gradientUnits="userSpaceOnUse">
<stop stop-color="#8C3D27" stop-opacity="0"/>
<stop offset="1" stop-color="#8C3D27"/>
</linearGradient>
<linearGradient id="paint23_linear_5645_255858" x1="47.5122" y1="64.6472" x2="39.5353" y2="61.2284" gradientUnits="userSpaceOnUse">
<stop stop-color="#8C3D27" stop-opacity="0"/>
<stop offset="1" stop-color="#8C3D27"/>
</linearGradient>
<linearGradient id="paint24_linear_5645_255858" x1="42.4877" y1="64.6472" x2="50.4645" y2="61.2284" gradientUnits="userSpaceOnUse">
<stop stop-color="#8C3D27" stop-opacity="0"/>
<stop offset="1" stop-color="#8C3D27"/>
</linearGradient>
<linearGradient id="paint25_linear_5645_255858" x1="42.6653" y1="65.0475" x2="47.7931" y2="56.8061" gradientUnits="userSpaceOnUse">
<stop stop-color="#8C3D27" stop-opacity="0"/>
<stop offset="1" stop-color="#8C3D27"/>
</linearGradient>
<linearGradient id="paint26_linear_5645_255858" x1="46.9416" y1="64.0067" x2="46.5143" y2="55.9485" gradientUnits="userSpaceOnUse">
<stop stop-color="#8C3D27" stop-opacity="0"/>
<stop offset="1" stop-color="#8C3D27"/>
</linearGradient>
<linearGradient id="paint27_linear_5645_255858" x1="58.8289" y1="50.0808" x2="48.0054" y2="31.1397" gradientUnits="userSpaceOnUse">
<stop stop-color="#DC8758" stop-opacity="0"/>
<stop offset="0.9957" stop-color="#DC8758" stop-opacity="0.996"/>
<stop offset="1" stop-color="#DC8758"/>
</linearGradient>
<linearGradient id="paint28_linear_5645_255858" x1="46.2553" y1="10.0019" x2="53.2259" y2="21.1195" gradientUnits="userSpaceOnUse">
<stop stop-color="#F9F5F3"/>
<stop offset="1" stop-color="#D8E8F0"/>
</linearGradient>
<linearGradient id="paint29_linear_5645_255858" x1="39.3026" y1="-3.63862" x2="60.9497" y2="21.1848" gradientUnits="userSpaceOnUse">
<stop stop-color="#FD4755"/>
<stop offset="1" stop-color="#A72B2B"/>
</linearGradient>
<linearGradient id="paint30_linear_5645_255858" x1="45.0003" y1="11.7355" x2="45.0003" y2="5.90597" gradientUnits="userSpaceOnUse">
<stop stop-color="#A72B2B" stop-opacity="0"/>
<stop offset="1" stop-color="#42210B"/>
</linearGradient>
<linearGradient id="paint31_linear_5645_255858" x1="34.7041" y1="0.371665" x2="56.351" y2="25.1951" gradientUnits="userSpaceOnUse">
<stop stop-color="#FD4755"/>
<stop offset="1" stop-color="#A72B2B"/>
</linearGradient>
<linearGradient id="paint32_linear_5645_255858" x1="51.7053" y1="18.8836" x2="54.7176" y2="21.896" gradientUnits="userSpaceOnUse">
<stop stop-color="#A72B2B" stop-opacity="0"/>
<stop offset="1" stop-color="#42210B"/>
</linearGradient>
<linearGradient id="paint33_linear_5645_255858" x1="38.2953" y1="18.8836" x2="35.2829" y2="21.896" gradientUnits="userSpaceOnUse">
<stop stop-color="#A72B2B" stop-opacity="0"/>
<stop offset="1" stop-color="#42210B"/>
</linearGradient>
<linearGradient id="paint34_linear_5645_255858" x1="60.2976" y1="31.3433" x2="24.1106" y2="-4.84381" gradientUnits="userSpaceOnUse">
<stop stop-color="#FEF0AE"/>
<stop offset="1" stop-color="#FBC56D"/>
</linearGradient>
<linearGradient id="paint35_linear_5645_255858" x1="45" y1="14.4118" x2="45" y2="39.1246" gradientUnits="userSpaceOnUse">
<stop stop-color="#FEF0AE"/>
<stop offset="1" stop-color="#FBC56D"/>
</linearGradient>
<linearGradient id="paint36_linear_5645_255858" x1="45.0003" y1="28.7649" x2="45.0003" y2="36.8903" gradientUnits="userSpaceOnUse">
<stop stop-color="#DC8758" stop-opacity="0"/>
<stop offset="0.9957" stop-color="#DC8758" stop-opacity="0.996"/>
<stop offset="1" stop-color="#DC8758"/>
</linearGradient>
<linearGradient id="paint37_linear_5645_255858" x1="53.3413" y1="24.164" x2="48.4001" y2="29.1934" gradientUnits="userSpaceOnUse">
<stop stop-color="#DC8758" stop-opacity="0"/>
<stop offset="0.9957" stop-color="#DC8758" stop-opacity="0.996"/>
<stop offset="1" stop-color="#DC8758"/>
</linearGradient>
<linearGradient id="paint38_linear_5645_255858" x1="41.206" y1="29.7353" x2="50.5642" y2="39.0935" gradientUnits="userSpaceOnUse">
<stop stop-color="#FBC56D"/>
<stop offset="1" stop-color="#C5715A"/>
</linearGradient>
<linearGradient id="paint39_linear_5645_255858" x1="48.7062" y1="37.2355" x2="39.9397" y2="28.469" gradientUnits="userSpaceOnUse">
<stop stop-color="#FBC56D"/>
<stop offset="1" stop-color="#C5715A"/>
</linearGradient>
<linearGradient id="paint40_linear_5645_255858" x1="45.0001" y1="1.99994" x2="45.0001" y2="5.67724" gradientUnits="userSpaceOnUse">
<stop stop-color="#FEF0AE"/>
<stop offset="1" stop-color="#FBC56D"/>
</linearGradient>
<clipPath id="clip0_5645_255858">
<rect width="90" height="90" fill="white"/>
</clipPath>
</defs>
</svg>
