<svg width="90" height="90" viewBox="0 0 90 90" fill="none" xmlns="http://www.w3.org/2000/svg">
<g id="bronze-medal 1" clip-path="url(#clip0_5645_255782)">
<g id="Group">
<g id="Group_2">
<g id="Group_3">
<path id="Vector" d="M24.1753 56.3825C28.156 60.2786 30.6527 64.9719 31.5158 69.4941C31.6965 70.4412 30.2433 71.9261 29.2924 71.7656C24.7527 70.9999 20.0069 68.6045 16.0263 64.7086C12.0456 60.8126 9.5489 56.1192 8.68578 51.597C8.50508 50.6499 9.95831 49.1651 10.9091 49.3255C15.4488 50.0912 20.1947 52.4864 24.1753 56.3825Z" fill="url(#paint0_linear_5645_255782)"/>
<path id="Vector_2" d="M24.1753 56.3825C28.156 60.2786 30.6527 64.9719 31.5158 69.4941C31.6965 70.4412 30.2433 71.9261 29.2924 71.7656C24.7527 70.9999 20.0069 68.6045 16.0263 64.7086C12.0456 60.8126 9.5489 56.1192 8.68578 51.597C8.50508 50.6499 9.95831 49.1651 10.9091 49.3255C15.4488 50.0912 20.1947 52.4864 24.1753 56.3825Z" fill="url(#paint1_linear_5645_255782)"/>
<path id="Vector_3" d="M29.5736 47.1555C32.7654 53.3933 33.8684 59.9893 33.0912 65.7286C32.9285 66.9306 30.6015 68.1212 29.5314 67.55C24.4221 64.8228 19.7179 60.0694 16.5262 53.8315C13.3346 47.5936 12.2315 40.9977 13.0086 35.2583C13.1714 34.0564 15.4983 32.8658 16.5684 33.437C21.6776 36.1642 26.3818 40.9176 29.5736 47.1555Z" fill="url(#paint2_linear_5645_255782)"/>
<path id="Vector_4" d="M12.9478 42.0942C13.3695 45.951 14.5452 49.96 16.526 53.8314C19.7179 60.0693 24.4219 64.8227 29.5312 67.5499C30.6012 68.121 32.9281 66.9303 33.091 65.7286C33.8682 59.9894 32.7652 53.3933 29.5734 47.1554C27.694 43.4822 25.2898 40.3246 22.5875 37.7915L12.9478 42.0942Z" fill="url(#paint3_linear_5645_255782)"/>
</g>
<g id="Group_4">
<path id="Vector_5" d="M65.8251 56.3825C61.8444 60.2786 59.3477 64.9719 58.4846 69.4941C58.3039 70.4412 59.7571 71.9261 60.708 71.7656C65.2477 70.9999 69.9935 68.6045 73.9741 64.7086C77.9548 60.8126 80.4515 56.1192 81.3146 51.597C81.4953 50.6499 80.0421 49.1651 79.0913 49.3255C74.5516 50.0912 69.8057 52.4864 65.8251 56.3825Z" fill="url(#paint4_linear_5645_255782)"/>
<path id="Vector_6" d="M65.8251 56.3825C61.8444 60.2786 59.3477 64.9719 58.4846 69.4941C58.3039 70.4412 59.7571 71.9261 60.708 71.7656C65.2477 70.9999 69.9935 68.6045 73.9741 64.7086C77.9548 60.8126 80.4515 56.1192 81.3146 51.597C81.4953 50.6499 80.0421 49.1651 79.0913 49.3255C74.5516 50.0912 69.8057 52.4864 65.8251 56.3825Z" fill="url(#paint5_linear_5645_255782)"/>
<path id="Vector_7" d="M60.4271 47.1555C57.2353 53.3933 56.1324 59.9893 56.9095 65.7286C57.0722 66.9306 59.3992 68.1212 60.4693 67.55C65.5787 64.8228 70.2828 60.0694 73.4745 53.8315C76.6661 47.5936 77.7692 40.9977 76.9921 35.2583C76.8294 34.0564 74.5024 32.8658 73.4323 33.437C68.3231 36.1642 63.619 40.9176 60.4271 47.1555Z" fill="url(#paint6_linear_5645_255782)"/>
<path id="Vector_8" d="M77.0528 42.0942C76.631 45.951 75.4554 49.96 73.4745 53.8314C70.2827 60.0693 65.5787 64.8227 60.4693 67.5499C59.3994 68.121 57.0724 66.9303 56.9095 65.7286C56.1324 59.9894 57.2353 53.3933 60.4271 47.1554C62.3065 43.4822 64.7108 40.3246 67.4131 37.7915L77.0528 42.0942Z" fill="url(#paint7_linear_5645_255782)"/>
</g>
</g>
<g id="Group_5">
<path id="Vector_9" d="M45.0004 89.9999C60.4994 89.9999 73.0638 77.4355 73.0638 61.9365C73.0638 46.4375 60.4994 33.873 45.0004 33.873C29.5014 33.873 16.937 46.4375 16.937 61.9365C16.937 77.4355 29.5014 89.9999 45.0004 89.9999Z" fill="url(#paint8_linear_5645_255782)"/>
<path id="Vector_10" d="M45.0004 84.3049C57.3542 84.3049 67.3689 74.2902 67.3689 61.9364C67.3689 49.5826 57.3542 39.5679 45.0004 39.5679C32.6466 39.5679 22.6318 49.5826 22.6318 61.9364C22.6318 74.2902 32.6466 84.3049 45.0004 84.3049Z" fill="url(#paint9_linear_5645_255782)"/>
<path id="Vector_11" d="M45.0004 81.14C55.6062 81.14 64.2039 72.5423 64.2039 61.9364C64.2039 51.3306 55.6062 42.7329 45.0004 42.7329C34.3946 42.7329 25.7969 51.3306 25.7969 61.9364C25.7969 72.5423 34.3946 81.14 45.0004 81.14Z" fill="url(#paint10_linear_5645_255782)"/>
<path id="Vector_12" d="M16.937 61.9366C16.937 77.4357 29.5014 90 45.0004 90C60.4995 90 73.0638 77.4357 73.0638 61.9366C73.0638 61.8277 73.061 61.7195 73.0598 61.6108H16.9411C16.9398 61.7195 16.937 61.8277 16.937 61.9366Z" fill="url(#paint11_linear_5645_255782)"/>
</g>
<path id="Vector_13" d="M52.8708 88.8794C61.7135 86.3005 68.7501 79.4878 71.6395 70.782L57.9713 57.1138L54.8899 57.2651L46.5736 48.9487L36.438 72.4467L52.8708 88.8794Z" fill="url(#paint12_linear_5645_255782)"/>
<g id="Group_6">
<path id="Vector_14" d="M56.5077 55.8387L51.0041 54.509C50.4922 54.3853 50.0448 54.0749 49.7496 53.6387L46.577 48.949C46.1932 48.3818 45.6053 48.0774 45.0004 48.0283C44.3955 48.0774 43.8075 48.3818 43.4238 48.949L40.2512 53.6387C39.9562 54.0749 39.5088 54.3853 38.9967 54.509L33.4931 55.8387C32.0002 56.1994 31.3781 57.9813 32.3219 59.1929L35.8017 63.6594C36.1253 64.075 36.2824 64.5963 36.2418 65.1214L35.8058 70.7666C35.6875 72.2978 37.1898 73.4403 38.6339 72.9169L43.9571 70.9877C44.2935 70.8657 44.6522 70.8343 45.0004 70.8883C45.3488 70.8345 45.7073 70.8659 46.0437 70.9877L51.3669 72.9169C52.8108 73.4401 54.3133 72.2978 54.1951 70.7666L53.759 65.1214C53.7184 64.5963 53.8755 64.075 54.1991 63.6594L57.6789 59.1929C58.6227 57.9813 58.0006 56.1994 56.5077 55.8387Z" fill="url(#paint13_linear_5645_255782)"/>
<path id="Vector_15" d="M46.0438 70.9877L51.367 72.9169C52.8109 73.4401 54.3134 72.2978 54.1951 70.7666L53.7591 65.1214C53.7185 64.5963 53.8755 64.075 54.1992 63.6594L57.679 59.1929C58.623 57.9814 58.0007 56.1994 56.5078 55.8387L51.0042 54.509C50.4923 54.3853 50.0449 54.0749 49.7497 53.6387L46.5771 48.949C46.1933 48.3818 45.6054 48.0774 45.0005 48.0283V70.8883C45.3488 70.8343 45.7076 70.8657 46.0438 70.9877Z" fill="url(#paint14_linear_5645_255782)"/>
<path id="Vector_16" d="M56.5077 55.8386L51.0041 54.5089C50.8162 54.4636 50.6372 54.3925 50.4712 54.2998L36.4414 72.4468C36.9918 72.9787 37.8221 73.2111 38.6339 72.9169L43.9571 70.9877C44.2935 70.8658 44.6522 70.8344 45.0004 70.8884C45.3488 70.8346 45.7073 70.866 46.0437 70.9877L51.3669 72.9169C52.8108 73.4402 54.3133 72.2979 54.1951 70.7666L53.759 65.1215C53.7184 64.5963 53.8755 64.075 54.1991 63.6595L57.6789 59.193C58.6227 57.9812 58.0006 56.1993 56.5077 55.8386Z" fill="url(#paint15_linear_5645_255782)"/>
<path id="Vector_17" d="M33.4931 55.8386L38.9967 54.5089C39.1846 54.4636 39.3636 54.3925 39.5296 54.2998L53.5594 72.4468C53.009 72.9787 52.1787 73.2111 51.3669 72.9169L46.0437 70.9877C45.7073 70.8658 45.3486 70.8344 45.0004 70.8884C44.6521 70.8346 44.2935 70.866 43.9571 70.9877L38.6339 72.9169C37.19 73.4402 35.6875 72.2979 35.8058 70.7666L36.2418 65.1215C36.2824 64.5963 36.1253 64.075 35.8017 63.6595L32.3219 59.193C31.3781 57.9812 32.0002 56.1993 33.4931 55.8386Z" fill="url(#paint16_linear_5645_255782)"/>
<path id="Vector_18" d="M32.0285 57.1143C31.7667 57.7743 31.8296 58.5608 32.3221 59.1931L35.8019 63.6596C36.1256 64.0751 36.2826 64.5964 36.242 65.1216L35.806 70.7667C35.6877 72.298 37.19 73.4404 38.6341 72.917L43.9573 70.9878C44.2937 70.8659 44.6525 70.8345 45.0006 70.8885C45.349 70.8347 45.7076 70.8661 46.0439 70.9878L51.3672 72.917C52.811 73.4403 54.3135 72.298 54.1953 70.7667L53.7592 65.1216C53.7366 64.8303 53.777 64.5407 53.8709 64.2691L32.0285 57.1143Z" fill="url(#paint17_linear_5645_255782)"/>
<path id="Vector_19" d="M57.9746 57.1143C58.2364 57.7743 58.1737 58.5608 57.681 59.1931L54.2012 63.6596C53.8775 64.0751 53.7205 64.5964 53.7611 65.1216L54.1971 70.7667C54.3153 72.298 52.8129 73.4404 51.369 72.917L46.0458 70.9878C45.7094 70.8659 45.3506 70.8345 45.0025 70.8885C44.6541 70.8347 44.2955 70.8661 43.9592 70.9878L38.6359 72.917C37.1921 73.4403 35.6896 72.298 35.8078 70.7667L36.2439 65.1216C36.2665 64.8303 36.2261 64.5407 36.1322 64.2691L57.9746 57.1143Z" fill="url(#paint18_linear_5645_255782)"/>
</g>
<path id="Vector_20" d="M45.0004 33.873C44.8839 33.873 44.7683 33.876 44.6522 33.8775L40.3213 38.2084L71.9379 69.8251C72.6696 67.3223 73.0638 64.6755 73.0638 61.9363C73.0638 46.4374 60.4995 33.873 45.0004 33.873Z" fill="url(#paint19_linear_5645_255782)"/>
<g id="Group_7">
<path id="Vector_21" d="M28.0596 0.588379V15.4119L45.0007 32.3531L61.9419 15.4119V0.588379H28.0596Z" fill="url(#paint20_linear_5645_255782)"/>
<g id="Group_8">
<path id="Vector_22" d="M28.0596 0.588379V5.20167L44.9441 22.0862C44.9753 22.1174 45.0262 22.1174 45.0574 22.0862L61.9419 5.20167V0.588379H28.0596Z" fill="url(#paint21_linear_5645_255782)"/>
<path id="Vector_23" d="M45.0007 24.7557C44.3023 24.7557 43.604 24.4899 43.0725 23.9582L28.0596 8.94531V15.4123L45.0007 32.3534L61.9419 15.4123V8.94531L46.929 23.9582C46.3975 24.4897 45.6992 24.7557 45.0007 24.7557Z" fill="url(#paint22_linear_5645_255782)"/>
<path id="Vector_24" d="M28.0596 0.588379V5.20167L44.9441 22.0862C44.9753 22.1174 45.0262 22.1174 45.0574 22.0862L61.9419 5.20167V0.588379H28.0596Z" fill="url(#paint23_linear_5645_255782)"/>
<path id="Vector_25" d="M45.0007 24.7557C44.3023 24.7557 43.604 24.4899 43.0725 23.9582L28.0596 8.94531V15.4123L45.0007 32.3534L61.9419 15.4123V8.94531L46.929 23.9582C46.3975 24.4897 45.6992 24.7557 45.0007 24.7557Z" fill="url(#paint24_linear_5645_255782)"/>
<path id="Vector_26" d="M45.0007 24.7557C45.6992 24.7557 46.3975 24.4899 46.929 23.9582L61.9419 8.94531V15.4123L45.0007 32.3534L28.0596 15.4123V8.94531L43.0725 23.9582C43.604 24.4897 44.3025 24.7557 45.0007 24.7557Z" fill="url(#paint25_linear_5645_255782)"/>
</g>
<g id="Group_9">
<path id="Vector_27" d="M43.1429 28.5047L28.7263 14.0881C27.6452 13.0071 25.8923 13.0071 24.8113 14.0881C23.7302 15.1692 23.7302 16.9221 24.8113 18.0031L45.0006 38.1928L65.1901 18.0033C66.2711 16.9223 66.2711 15.1694 65.1901 14.0883C64.109 13.0073 62.3561 13.0073 61.275 14.0883L46.8585 28.5049C45.8323 29.5309 44.1689 29.5309 43.1429 28.5047Z" fill="url(#paint26_linear_5645_255782)"/>
<path id="Vector_28" d="M24.811 14.121L42.8747 32.1847C44.0488 33.3587 45.9524 33.3587 47.1264 32.1847L65.19 14.121C65.1953 14.1157 65.1995 14.1098 65.2048 14.1046C65.1997 14.0993 65.1953 14.0934 65.19 14.0881C64.1089 13.0071 62.356 13.0071 61.275 14.0881L46.8584 28.5047C45.8324 29.5307 44.1688 29.5307 43.1428 28.5047L28.7262 14.0881C27.6452 13.0071 25.8923 13.0071 24.8112 14.0881C24.8059 14.0934 24.8017 14.0993 24.7964 14.1046C24.8015 14.1098 24.8057 14.1157 24.811 14.121Z" fill="url(#paint27_linear_5645_255782)"/>
<path id="Vector_29" d="M45.0008 38.193L59.2524 23.9414H51.4222L46.8585 28.5051C45.8325 29.5311 44.1689 29.5311 43.1429 28.5051L38.5792 23.9414H30.749L45.0008 38.193Z" fill="url(#paint28_linear_5645_255782)"/>
<path id="Vector_30" d="M43.2358 36.4281L45.0005 38.1929L63.0757 20.1177H55.2455L46.8584 28.5048C45.8623 29.501 44.2671 29.5269 43.2358 28.589V36.4281Z" fill="url(#paint29_linear_5645_255782)"/>
</g>
<g id="Group_10">
<path id="Vector_31" d="M45.0006 40.1467C48.6552 40.1467 51.6179 37.184 51.6179 33.5294C51.6179 29.8748 48.6552 26.9121 45.0006 26.9121C41.346 26.9121 38.3833 29.8748 38.3833 33.5294C38.3833 37.184 41.346 40.1467 45.0006 40.1467Z" fill="url(#paint30_linear_5645_255782)"/>
<path id="Vector_32" d="M45.0008 37.3234C47.096 37.3234 48.7946 35.6248 48.7946 33.5296C48.7946 31.4344 47.096 29.7358 45.0008 29.7358C42.9056 29.7358 41.207 31.4344 41.207 33.5296C41.207 35.6248 42.9056 37.3234 45.0008 37.3234Z" fill="url(#paint31_linear_5645_255782)"/>
</g>
<path id="Vector_33" d="M64.501 6.58818H25.5003C24.3797 6.58818 23.4712 5.67971 23.4712 4.55912V2.02906C23.4712 0.908471 24.3797 0 25.5003 0H64.5011C65.6215 0 66.53 0.908471 66.53 2.02906V4.55929C66.53 5.67988 65.6216 6.58818 64.501 6.58818Z" fill="url(#paint32_linear_5645_255782)"/>
</g>
</g>
</g>
<defs>
<linearGradient id="paint0_linear_5645_255782" x1="13.689" y1="50.5688" x2="19.4582" y2="59.6556" gradientUnits="userSpaceOnUse">
<stop stop-color="#FBC56D"/>
<stop offset="1" stop-color="#C5715A"/>
</linearGradient>
<linearGradient id="paint1_linear_5645_255782" x1="14.5007" y1="58.5705" x2="20.6566" y2="60.8168" gradientUnits="userSpaceOnUse">
<stop stop-color="#8C3D27" stop-opacity="0"/>
<stop offset="1" stop-color="#8C3D27"/>
</linearGradient>
<linearGradient id="paint2_linear_5645_255782" x1="23.5578" y1="40.8801" x2="22.749" y2="55.17" gradientUnits="userSpaceOnUse">
<stop stop-color="#FBC56D"/>
<stop offset="1" stop-color="#C5715A"/>
</linearGradient>
<linearGradient id="paint3_linear_5645_255782" x1="21.7209" y1="48.1261" x2="25.211" y2="54.67" gradientUnits="userSpaceOnUse">
<stop stop-color="#8C3D27" stop-opacity="0"/>
<stop offset="1" stop-color="#8C3D27"/>
</linearGradient>
<linearGradient id="paint4_linear_5645_255782" x1="76.2973" y1="50.5937" x2="70.5281" y2="59.6803" gradientUnits="userSpaceOnUse">
<stop stop-color="#FBC56D"/>
<stop offset="1" stop-color="#C5715A"/>
</linearGradient>
<linearGradient id="paint5_linear_5645_255782" x1="75.4856" y1="58.5953" x2="69.3296" y2="60.8416" gradientUnits="userSpaceOnUse">
<stop stop-color="#8C3D27" stop-opacity="0"/>
<stop offset="1" stop-color="#8C3D27"/>
</linearGradient>
<linearGradient id="paint6_linear_5645_255782" x1="66.4288" y1="40.905" x2="67.2375" y2="55.1947" gradientUnits="userSpaceOnUse">
<stop stop-color="#FBC56D"/>
<stop offset="1" stop-color="#C5715A"/>
</linearGradient>
<linearGradient id="paint7_linear_5645_255782" x1="68.2655" y1="48.1508" x2="64.7753" y2="54.6947" gradientUnits="userSpaceOnUse">
<stop stop-color="#8C3D27" stop-opacity="0"/>
<stop offset="1" stop-color="#8C3D27"/>
</linearGradient>
<linearGradient id="paint8_linear_5645_255782" x1="27.6982" y1="44.6342" x2="57.2951" y2="74.2312" gradientUnits="userSpaceOnUse">
<stop stop-color="#FBC56D"/>
<stop offset="1" stop-color="#C5715A"/>
</linearGradient>
<linearGradient id="paint9_linear_5645_255782" x1="59.5285" y1="76.4645" x2="30.0484" y2="46.9844" gradientUnits="userSpaceOnUse">
<stop stop-color="#FBC56D"/>
<stop offset="1" stop-color="#C5715A"/>
</linearGradient>
<linearGradient id="paint10_linear_5645_255782" x1="31.04" y1="47.976" x2="54.0195" y2="70.9555" gradientUnits="userSpaceOnUse">
<stop stop-color="#FBC56D"/>
<stop offset="1" stop-color="#C5715A"/>
</linearGradient>
<linearGradient id="paint11_linear_5645_255782" x1="45.0004" y1="70.1474" x2="45.0004" y2="88.5674" gradientUnits="userSpaceOnUse">
<stop stop-color="#8C3D27" stop-opacity="0"/>
<stop offset="1" stop-color="#8C3D27"/>
</linearGradient>
<linearGradient id="paint12_linear_5645_255782" x1="61.8076" y1="76.5212" x2="38.631" y2="61.9329" gradientUnits="userSpaceOnUse">
<stop stop-color="#8C3D27" stop-opacity="0"/>
<stop offset="1" stop-color="#8C3D27"/>
</linearGradient>
<linearGradient id="paint13_linear_5645_255782" x1="39.1546" y1="56.6025" x2="49.6963" y2="67.144" gradientUnits="userSpaceOnUse">
<stop stop-color="#FBC56D"/>
<stop offset="1" stop-color="#C5715A"/>
</linearGradient>
<linearGradient id="paint14_linear_5645_255782" x1="51.3169" y1="59.4767" x2="36.747" y2="65.5" gradientUnits="userSpaceOnUse">
<stop stop-color="#8C3D27" stop-opacity="0"/>
<stop offset="1" stop-color="#8C3D27"/>
</linearGradient>
<linearGradient id="paint15_linear_5645_255782" x1="47.5126" y1="64.6472" x2="39.5358" y2="61.2284" gradientUnits="userSpaceOnUse">
<stop stop-color="#8C3D27" stop-opacity="0"/>
<stop offset="1" stop-color="#8C3D27"/>
</linearGradient>
<linearGradient id="paint16_linear_5645_255782" x1="42.4882" y1="64.6472" x2="50.465" y2="61.2284" gradientUnits="userSpaceOnUse">
<stop stop-color="#8C3D27" stop-opacity="0"/>
<stop offset="1" stop-color="#8C3D27"/>
</linearGradient>
<linearGradient id="paint17_linear_5645_255782" x1="42.6657" y1="65.0475" x2="47.7936" y2="56.8061" gradientUnits="userSpaceOnUse">
<stop stop-color="#8C3D27" stop-opacity="0"/>
<stop offset="1" stop-color="#8C3D27"/>
</linearGradient>
<linearGradient id="paint18_linear_5645_255782" x1="46.9421" y1="64.0067" x2="46.5148" y2="55.9485" gradientUnits="userSpaceOnUse">
<stop stop-color="#8C3D27" stop-opacity="0"/>
<stop offset="1" stop-color="#8C3D27"/>
</linearGradient>
<linearGradient id="paint19_linear_5645_255782" x1="58.8293" y1="50.0808" x2="48.0059" y2="31.1397" gradientUnits="userSpaceOnUse">
<stop stop-color="#8C3D27" stop-opacity="0"/>
<stop offset="1" stop-color="#8C3D27"/>
</linearGradient>
<linearGradient id="paint20_linear_5645_255782" x1="46.2558" y1="10.0019" x2="53.2264" y2="21.1195" gradientUnits="userSpaceOnUse">
<stop stop-color="#F9F5F3"/>
<stop offset="1" stop-color="#D8E8F0"/>
</linearGradient>
<linearGradient id="paint21_linear_5645_255782" x1="39.303" y1="-3.63862" x2="60.9502" y2="21.1848" gradientUnits="userSpaceOnUse">
<stop stop-color="#BBEC6C"/>
<stop offset="1" stop-color="#81B823"/>
</linearGradient>
<linearGradient id="paint22_linear_5645_255782" x1="34.7046" y1="0.371665" x2="56.3515" y2="25.1951" gradientUnits="userSpaceOnUse">
<stop stop-color="#BBEC6C"/>
<stop offset="1" stop-color="#81B823"/>
</linearGradient>
<linearGradient id="paint23_linear_5645_255782" x1="45.0007" y1="11.7355" x2="45.0007" y2="5.90597" gradientUnits="userSpaceOnUse">
<stop stop-color="#78A91F" stop-opacity="0"/>
<stop offset="1" stop-color="#78A91F"/>
</linearGradient>
<linearGradient id="paint24_linear_5645_255782" x1="51.7058" y1="18.8836" x2="54.7181" y2="21.896" gradientUnits="userSpaceOnUse">
<stop stop-color="#78A91F" stop-opacity="0"/>
<stop offset="1" stop-color="#78A91F"/>
</linearGradient>
<linearGradient id="paint25_linear_5645_255782" x1="38.2957" y1="18.8836" x2="35.2834" y2="21.896" gradientUnits="userSpaceOnUse">
<stop stop-color="#78A91F" stop-opacity="0"/>
<stop offset="1" stop-color="#78A91F"/>
</linearGradient>
<linearGradient id="paint26_linear_5645_255782" x1="60.2981" y1="31.3433" x2="24.111" y2="-4.84381" gradientUnits="userSpaceOnUse">
<stop stop-color="#FBC56D"/>
<stop offset="1" stop-color="#C5715A"/>
</linearGradient>
<linearGradient id="paint27_linear_5645_255782" x1="45.0005" y1="14.4118" x2="45.0005" y2="39.1246" gradientUnits="userSpaceOnUse">
<stop stop-color="#FBC56D"/>
<stop offset="1" stop-color="#C5715A"/>
</linearGradient>
<linearGradient id="paint28_linear_5645_255782" x1="45.0008" y1="28.7649" x2="45.0008" y2="36.8903" gradientUnits="userSpaceOnUse">
<stop stop-color="#8C3D27" stop-opacity="0"/>
<stop offset="1" stop-color="#8C3D27"/>
</linearGradient>
<linearGradient id="paint29_linear_5645_255782" x1="53.3418" y1="24.164" x2="48.4006" y2="29.1934" gradientUnits="userSpaceOnUse">
<stop stop-color="#8C3D27" stop-opacity="0"/>
<stop offset="1" stop-color="#8C3D27"/>
</linearGradient>
<linearGradient id="paint30_linear_5645_255782" x1="41.2065" y1="29.7353" x2="50.5647" y2="39.0935" gradientUnits="userSpaceOnUse">
<stop stop-color="#FBC56D"/>
<stop offset="1" stop-color="#C5715A"/>
</linearGradient>
<linearGradient id="paint31_linear_5645_255782" x1="47.692" y1="36.2208" x2="43.0594" y2="31.5883" gradientUnits="userSpaceOnUse">
<stop stop-color="#FBC56D"/>
<stop offset="1" stop-color="#C5715A"/>
</linearGradient>
<linearGradient id="paint32_linear_5645_255782" x1="45.0006" y1="1.99994" x2="45.0006" y2="5.67724" gradientUnits="userSpaceOnUse">
<stop stop-color="#FBC56D"/>
<stop offset="1" stop-color="#C5715A"/>
</linearGradient>
<clipPath id="clip0_5645_255782">
<rect width="90" height="90" fill="white"/>
</clipPath>
</defs>
</svg>
