<svg width="90" height="90" viewBox="0 0 90 90" fill="none" xmlns="http://www.w3.org/2000/svg">
<g id="bronze-medal 2" clip-path="url(#clip0_5695_257262)">
<g id="Group">
<path id="Vector" d="M50.2353 39.9921H37.4202C35.6347 39.9921 34.335 38.2984 34.7972 36.5737L44.2048 1.46418C44.4362 0.600529 45.2188 0 46.1128 0H60.4606C61.7594 0 62.7047 1.23212 62.3686 2.48665L52.8584 37.9793C52.5404 39.1666 51.4645 39.9921 50.2353 39.9921Z" fill="url(#paint0_linear_5695_257262)"/>
<path id="Vector_2" d="M60.2949 10.2282L52.8585 37.98C52.539 39.1659 51.4643 39.9918 50.2343 39.9918H37.419C35.6349 39.9918 34.3343 38.2976 34.7967 36.5735L44.2043 1.46471C44.4355 0.6 45.219 0 46.112 0H50.0667L55.9785 5.91176L60.2949 10.2282Z" fill="url(#paint1_linear_5695_257262)"/>
<g id="Group_2">
<path id="Vector_3" d="M62.3682 2.48665L52.858 37.9793C52.5399 39.1666 51.4641 39.9921 50.235 39.9921H46.8481L57.5638 0H60.46C61.759 0 62.7044 1.23212 62.3682 2.48665Z" fill="url(#paint2_linear_5695_257262)"/>
<path id="Vector_4" d="M60.2952 10.2281L52.8587 37.9799C52.5393 39.1657 51.4646 39.9916 50.2346 39.9916H46.8481L55.9787 5.91162L60.2952 10.2281Z" fill="url(#paint3_linear_5695_257262)"/>
<path id="Vector_5" d="M46.1128 0H50.0677L39.3519 39.9921H37.4202C35.6347 39.9921 34.335 38.2984 34.7972 36.5737L44.2048 1.46418C44.4362 0.600529 45.2188 0 46.1128 0Z" fill="url(#paint4_linear_5695_257262)"/>
</g>
</g>
<path id="Vector_6" d="M53.181 52.6719H34.4832C33.474 52.6719 32.5935 51.987 32.3451 51.0088L29.8263 41.0871C29.2625 38.8661 29.746 36.5547 31.153 34.746C32.56 32.9372 34.6812 31.8999 36.9728 31.8999H50.6915C52.983 31.8999 55.1043 32.9372 56.5113 34.746C57.9183 36.5548 58.4017 38.8661 57.8378 41.0871L55.3191 51.0088C55.0706 51.9868 54.19 52.6719 53.181 52.6719ZM36.1992 48.2601H51.4651L53.5618 40.0015C53.7882 39.1094 53.5941 38.1812 53.0288 37.4547C52.4636 36.7281 51.6118 36.3115 50.6913 36.3115H36.9727C36.0524 36.3115 35.2004 36.7281 34.6351 37.4547C34.0699 38.1812 33.876 39.1094 34.1024 40.0017L36.1992 48.2601Z" fill="url(#paint5_linear_5695_257262)"/>
<path id="Vector_7" d="M50.691 31.8999H49.3906V36.3117H50.691C51.6115 36.3117 52.4635 36.7283 53.0286 37.4548C53.5936 38.1814 53.7879 39.1096 53.5615 40.0017L51.4649 48.2603H49.3906V52.6721H53.1807C54.1899 52.6721 55.0703 51.9872 55.3186 51.009L57.8374 41.0873C58.4012 38.8663 57.9179 36.555 56.5109 34.7462C55.1039 32.9372 52.9825 31.8999 50.691 31.8999Z" fill="url(#paint6_linear_5695_257262)"/>
<g id="Group_3">
<path id="Vector_8" d="M37.4292 39.9921H50.2443C52.0298 39.9921 52.5351 38.2984 52.0729 36.5737L43.4597 1.46418C43.2283 0.600529 42.4457 0 41.5517 0H27.2039C25.9051 0 24.9598 1.23212 25.2959 2.48665L34.8061 37.9793C35.1241 39.1666 36.2001 39.9921 37.4292 39.9921Z" fill="url(#paint7_linear_5695_257262)"/>
<path id="Vector_9" d="M34.8057 37.9792C35.1238 39.1665 36.1996 39.992 37.4287 39.992H50.2438C52.0294 39.992 53.3291 38.2982 52.8669 36.5736L48.836 21.5293H30.3979L34.8057 37.9792Z" fill="url(#paint8_linear_5695_257262)"/>
<g id="Group_4">
<path id="Vector_10" d="M25.2955 2.48665L34.8056 37.9793C35.1238 39.1666 36.1996 39.9921 37.4287 39.9921H40.8155L30.0999 0H27.2036C25.9046 0 24.9593 1.23212 25.2955 2.48665Z" fill="url(#paint9_linear_5695_257262)"/>
<path id="Vector_11" d="M41.5516 0H37.5967L48.3125 39.9921H50.2441C52.0297 39.9921 53.3294 38.2984 52.8672 36.5737L43.4596 1.46418C43.2282 0.600529 42.4456 0 41.5516 0Z" fill="url(#paint10_linear_5695_257262)"/>
</g>
</g>
<g id="Group_5">
<path id="Vector_12" d="M40.8158 39.9916H37.4293C36.1993 39.9916 35.1246 39.1658 34.8052 37.9799L30.397 21.5293H35.8693L40.8158 39.9916Z" fill="url(#paint11_linear_5695_257262)"/>
<path id="Vector_13" d="M50.2445 39.9916H48.3122L43.3657 21.5293H48.8363L52.8669 36.5734C53.3293 38.2975 52.0287 39.9916 50.2445 39.9916Z" fill="url(#paint12_linear_5695_257262)"/>
</g>
<path id="Vector_14" d="M47.5385 41.4373C49.6653 39.2064 53.418 40.2119 54.1445 43.2073C54.6688 45.3693 56.8941 46.654 59.0285 46.0272C61.986 45.1586 64.7329 47.9057 63.8644 50.863C63.2375 52.9974 64.5222 55.2227 66.6842 55.747C69.6796 56.4735 70.6851 60.226 68.4542 62.353C66.8441 63.8881 66.8441 66.4575 68.4542 67.9926C70.6851 70.1195 69.6796 73.8721 66.6842 74.5986C64.5222 75.1229 63.2375 77.3482 63.8644 79.4826C64.7329 82.4401 61.9858 85.187 59.0285 84.3185C56.8941 83.6915 54.6688 84.9763 54.1445 87.1383C53.418 90.1337 49.6655 91.1392 47.5385 88.9083C46.0034 87.2982 43.434 87.2982 41.8989 88.9083C39.7721 91.1392 36.0194 90.1337 35.2929 87.1383C34.7686 84.9763 32.5433 83.6916 30.4089 84.3185C27.4514 85.187 24.7045 82.4399 25.5731 79.4826C26.2001 77.3482 24.9152 75.1229 22.7532 74.5986C19.7578 73.8721 18.7523 70.1196 20.9832 67.9926C22.5933 66.4575 22.5933 63.8881 20.9832 62.353C18.7523 60.2262 19.7578 56.4735 22.7532 55.747C24.9152 55.2227 26.1999 52.9974 25.5731 50.863C24.7045 47.9055 27.4516 45.1586 30.4089 46.0272C32.5433 46.6542 34.7686 45.3693 35.2929 43.2073C36.0194 40.2119 39.7719 39.2064 41.8989 41.4373C43.434 43.0475 46.0034 43.0475 47.5385 41.4373Z" fill="url(#paint13_linear_5695_257262)"/>
<path id="Vector_15" d="M44.7184 85.0565C55.6998 85.0565 64.6019 76.1544 64.6019 65.173C64.6019 54.1917 55.6998 45.2896 44.7184 45.2896C33.7371 45.2896 24.835 54.1917 24.835 65.173C24.835 76.1544 33.7371 85.0565 44.7184 85.0565Z" fill="url(#paint14_linear_5695_257262)"/>
<path id="Vector_16" d="M22.1767 64.8838C22.2596 66.004 21.8642 67.1534 20.9832 67.9932C18.7523 70.12 19.7578 73.8727 22.7532 74.5992C24.9152 75.1235 26.1999 77.3488 25.5731 79.4832C24.7045 82.4407 27.4516 85.1876 30.4089 84.319C32.5433 83.6922 34.7686 84.9769 35.2929 87.1389C36.0194 90.1343 39.7719 91.1398 41.8989 88.9088C43.434 87.2987 46.0034 87.2987 47.5385 88.9088C49.6653 91.1398 53.418 90.1343 54.1445 87.1389C54.6688 84.9769 56.8941 83.6922 59.0285 84.319C61.986 85.1876 64.7329 82.4405 63.8644 79.4832C63.2375 77.3488 64.5222 75.1235 66.6842 74.5992C69.6796 73.8727 70.6851 70.1202 68.4542 67.9932C67.5732 67.1534 67.1778 66.0042 67.2607 64.8838H22.1767Z" fill="url(#paint15_linear_5695_257262)"/>
<path id="Vector_17" d="M54.0949 61.0659L51.868 61.1751L45.858 55.165L38.5332 72.1465L53.9973 87.6106C54.0543 87.4588 54.1046 87.3021 54.1445 87.1383C54.6688 84.9764 56.8941 83.6917 59.0285 84.3185C61.986 85.1871 64.7329 82.44 63.8643 79.4827C63.2375 77.3483 64.5222 75.123 66.6842 74.5987C66.9324 74.5385 67.1656 74.4557 67.3858 74.3566L54.0949 61.0659Z" fill="url(#paint16_linear_5695_257262)"/>
<path id="Vector_18" d="M45 83C54.3888 83 62 75.165 62 65.5C62 55.835 54.3888 48 45 48C35.6112 48 28 55.835 28 65.5C28 75.165 35.6112 83 45 83Z" fill="url(#paint17_linear_5695_257262)"/>
<g id="Group_6">
<path id="Vector_19" d="M53.035 60.1444L49.0577 59.1834C48.6876 59.0939 48.3643 58.8696 48.1511 58.5544L45.8584 55.1653C45.581 54.7554 45.1562 54.5355 44.719 54.5C44.2818 54.5355 43.8569 54.7554 43.5795 55.1653L41.2868 58.5544C41.0734 58.8696 40.7501 59.0941 40.3802 59.1834L36.403 60.1444C35.324 60.4051 34.8745 61.6928 35.5566 62.5684L38.0713 65.7962C38.3053 66.0966 38.4186 66.4734 38.3893 66.8528L38.0741 70.9324C37.9887 72.0391 39.0744 72.8646 40.1178 72.4864L43.9647 71.0921C44.2077 71.0041 44.467 70.9813 44.7188 71.0203C44.9704 70.9813 45.2297 71.0041 45.4728 71.0921L49.3197 72.4864C50.3632 72.8646 51.449 72.0391 51.3634 70.9324L51.0482 66.8528C51.019 66.4732 51.1324 66.0964 51.3662 65.7962L53.881 62.5684C54.5634 61.6928 54.1137 60.4051 53.035 60.1444Z" fill="url(#paint18_linear_5695_257262)"/>
<path id="Vector_20" d="M45.4725 71.0921L49.3194 72.4864C50.3628 72.8646 51.4487 72.0391 51.3631 70.9324L51.0479 66.8528C51.0186 66.4732 51.1321 66.0964 51.3659 65.7962L53.8806 62.5684C54.5627 61.6929 54.113 60.4051 53.0343 60.1444L49.057 59.1834C48.6869 59.0939 48.3636 58.8696 48.1504 58.5544L45.8577 55.1653C45.5803 54.7554 45.1556 54.5355 44.7183 54.5V71.0205C44.9701 70.9813 45.2293 71.0041 45.4725 71.0921Z" fill="url(#paint19_linear_5695_257262)"/>
<path id="Vector_21" d="M53.0347 60.1443L49.0574 59.1833C48.9217 59.1505 48.7923 59.0991 48.6721 59.0322L38.5332 72.1466C38.931 72.531 39.531 72.699 40.1177 72.4863L43.9646 71.0921C44.2076 71.004 44.4669 70.9812 44.7187 71.0202C44.9703 70.9812 45.2296 71.004 45.4727 71.0921L49.3196 72.4863C50.3631 72.8645 51.4489 72.039 51.3633 70.9323L51.0481 66.8527C51.0189 66.4731 51.1323 66.0963 51.3661 65.7962L53.8809 62.5683C54.5631 61.6927 54.1134 60.405 53.0347 60.1443Z" fill="url(#paint20_linear_5695_257262)"/>
<path id="Vector_22" d="M36.4024 60.1443L40.3797 59.1833C40.5154 59.1505 40.6447 59.0991 40.7649 59.0322L50.9038 72.1466C50.5061 72.531 49.9061 72.699 49.3193 72.4863L45.4724 71.0921C45.2294 71.004 44.9702 70.9812 44.7184 71.0202C44.4667 70.9812 44.2075 71.004 43.9643 71.0921L40.1174 72.4863C39.074 72.8645 37.9881 72.039 38.0737 70.9323L38.3889 66.8527C38.4182 66.4731 38.3047 66.0963 38.0709 65.7962L35.5562 62.5683C34.874 61.6927 35.3236 60.405 36.4024 60.1443Z" fill="url(#paint21_linear_5695_257262)"/>
<path id="Vector_23" d="M35.3438 61.0659C35.1546 61.5429 35.1999 62.1112 35.5561 62.5682L38.0708 65.796C38.3048 66.0964 38.4181 66.4732 38.3888 66.8526L38.0736 70.9322C37.9882 72.0389 39.0738 72.8644 40.1173 72.4862L43.9642 71.0919C44.2072 71.0039 44.4664 70.9811 44.7182 71.0201C44.9699 70.9811 45.2291 71.0039 45.4723 71.0919L49.3192 72.4862C50.3627 72.8644 51.4485 72.0389 51.3629 70.9322L51.0477 66.8526C51.0315 66.642 51.0606 66.4327 51.1285 66.2365L35.3438 61.0659Z" fill="url(#paint22_linear_5695_257262)"/>
<path id="Vector_24" d="M54.0947 61.0659C54.2838 61.5429 54.2385 62.1112 53.8824 62.5682L51.3677 65.796C51.1337 66.0964 51.0204 66.4732 51.0497 66.8526L51.3648 70.9322C51.4503 72.0389 50.3646 72.8644 49.3211 72.4862L45.4743 71.0919C45.2313 71.0039 44.972 70.9811 44.7202 71.0201C44.4686 70.9811 44.2093 71.0039 43.9661 71.0919L40.1193 72.4862C39.0758 72.8644 37.99 72.0389 38.0756 70.9322L38.3907 66.8526C38.407 66.642 38.3778 66.4327 38.3099 66.2365L54.0947 61.0659Z" fill="url(#paint23_linear_5695_257262)"/>
</g>
</g>
<defs>
<linearGradient id="paint0_linear_5695_257262" x1="52.9285" y1="9.95029" x2="48.3104" y2="20.2256" gradientUnits="userSpaceOnUse">
<stop stop-color="#F9F5F3"/>
<stop offset="1" stop-color="#D8E8F0"/>
</linearGradient>
<linearGradient id="paint1_linear_5695_257262" x1="54.3572" y1="17.0592" x2="48.0043" y2="20.118" gradientUnits="userSpaceOnUse">
<stop stop-color="#678D98" stop-opacity="0"/>
<stop offset="0.9957" stop-color="#678D98" stop-opacity="0.996"/>
<stop offset="1" stop-color="#678D98"/>
</linearGradient>
<linearGradient id="paint2_linear_5695_257262" x1="54.15" y1="20.0929" x2="46.5028" y2="25.0341" gradientUnits="userSpaceOnUse">
<stop stop-color="#FD4755"/>
<stop offset="1" stop-color="#A72B2B"/>
</linearGradient>
<linearGradient id="paint3_linear_5695_257262" x1="54.0017" y1="22.6165" x2="48.4722" y2="27.087" gradientUnits="userSpaceOnUse">
<stop stop-color="#A72B2B" stop-opacity="0"/>
<stop offset="1" stop-color="#42210B"/>
</linearGradient>
<linearGradient id="paint4_linear_5695_257262" x1="54.9759" y1="5.41235" x2="49.4463" y2="11.7653" gradientUnits="userSpaceOnUse">
<stop stop-color="#FD4755"/>
<stop offset="1" stop-color="#A72B2B"/>
</linearGradient>
<linearGradient id="paint5_linear_5695_257262" x1="43.8321" y1="37.4116" x2="43.8321" y2="47.294" gradientUnits="userSpaceOnUse">
<stop stop-color="#FEF0AE"/>
<stop offset="1" stop-color="#FBC56D"/>
</linearGradient>
<linearGradient id="paint6_linear_5695_257262" x1="57.6267" y1="42.5042" x2="51.5384" y2="42.3277" gradientUnits="userSpaceOnUse">
<stop stop-color="#DC8758" stop-opacity="0"/>
<stop offset="0.9957" stop-color="#DC8758" stop-opacity="0.996"/>
<stop offset="1" stop-color="#DC8758"/>
</linearGradient>
<linearGradient id="paint7_linear_5695_257262" x1="36.9188" y1="15.6429" x2="43.1332" y2="27.1509" gradientUnits="userSpaceOnUse">
<stop stop-color="#F9F5F3"/>
<stop offset="1" stop-color="#D8E8F0"/>
</linearGradient>
<linearGradient id="paint8_linear_5695_257262" x1="41.6795" y1="36.1176" x2="41.6795" y2="40.1175" gradientUnits="userSpaceOnUse">
<stop stop-color="#678D98" stop-opacity="0"/>
<stop offset="0.9957" stop-color="#678D98" stop-opacity="0.996"/>
<stop offset="1" stop-color="#678D98"/>
</linearGradient>
<linearGradient id="paint9_linear_5695_257262" x1="28.6217" y1="13.4118" x2="46.6217" y2="40.2353" gradientUnits="userSpaceOnUse">
<stop stop-color="#FD4755"/>
<stop offset="1" stop-color="#A72B2B"/>
</linearGradient>
<linearGradient id="paint10_linear_5695_257262" x1="37.1846" y1="7.66588" x2="55.1846" y2="34.4894" gradientUnits="userSpaceOnUse">
<stop stop-color="#FD4755"/>
<stop offset="1" stop-color="#A72B2B"/>
</linearGradient>
<linearGradient id="paint11_linear_5695_257262" x1="35.6064" y1="33.2941" x2="35.6064" y2="40.3529" gradientUnits="userSpaceOnUse">
<stop stop-color="#A72B2B" stop-opacity="0"/>
<stop offset="1" stop-color="#42210B"/>
</linearGradient>
<linearGradient id="paint12_linear_5695_257262" x1="48.1634" y1="33.2941" x2="48.1634" y2="40.3529" gradientUnits="userSpaceOnUse">
<stop stop-color="#A72B2B" stop-opacity="0"/>
<stop offset="1" stop-color="#42210B"/>
</linearGradient>
<linearGradient id="paint13_linear_5695_257262" x1="28.0445" y1="48.4986" x2="59.8772" y2="80.3313" gradientUnits="userSpaceOnUse">
<stop stop-color="#FEF0AE"/>
<stop offset="1" stop-color="#FBC56D"/>
</linearGradient>
<linearGradient id="paint14_linear_5695_257262" x1="57.6326" y1="78.087" x2="31.4274" y2="51.882" gradientUnits="userSpaceOnUse">
<stop stop-color="#FEF0AE"/>
<stop offset="1" stop-color="#FBC56D"/>
</linearGradient>
<linearGradient id="paint15_linear_5695_257262" x1="44.7187" y1="75.0308" x2="44.7187" y2="88.2956" gradientUnits="userSpaceOnUse">
<stop stop-color="#DC8758" stop-opacity="0"/>
<stop offset="0.9957" stop-color="#DC8758" stop-opacity="0.996"/>
<stop offset="1" stop-color="#DC8758"/>
</linearGradient>
<linearGradient id="paint16_linear_5695_257262" x1="60.1576" y1="78.7664" x2="39.334" y2="63.6782" gradientUnits="userSpaceOnUse">
<stop stop-color="#DC8758" stop-opacity="0"/>
<stop offset="0.9957" stop-color="#DC8758" stop-opacity="0.996"/>
<stop offset="1" stop-color="#DC8758"/>
</linearGradient>
<linearGradient id="paint17_linear_5695_257262" x1="32.6416" y1="52.7779" x2="53.5736" y2="73.1121" gradientUnits="userSpaceOnUse">
<stop stop-color="#FEF0AE"/>
<stop offset="1" stop-color="#FBC56D"/>
</linearGradient>
<linearGradient id="paint18_linear_5695_257262" x1="40.4942" y1="60.6964" x2="48.1123" y2="68.3145" gradientUnits="userSpaceOnUse">
<stop stop-color="#FBC56D"/>
<stop offset="1" stop-color="#C5715A"/>
</linearGradient>
<linearGradient id="paint19_linear_5695_257262" x1="49.2832" y1="62.7735" x2="38.7537" y2="67.1265" gradientUnits="userSpaceOnUse">
<stop stop-color="#8C3D27" stop-opacity="0"/>
<stop offset="1" stop-color="#8C3D27"/>
</linearGradient>
<linearGradient id="paint20_linear_5695_257262" x1="46.534" y1="66.51" x2="40.7693" y2="64.0394" gradientUnits="userSpaceOnUse">
<stop stop-color="#8C3D27" stop-opacity="0"/>
<stop offset="1" stop-color="#8C3D27"/>
</linearGradient>
<linearGradient id="paint21_linear_5695_257262" x1="42.903" y1="66.51" x2="48.6678" y2="64.0394" gradientUnits="userSpaceOnUse">
<stop stop-color="#8C3D27" stop-opacity="0"/>
<stop offset="1" stop-color="#8C3D27"/>
</linearGradient>
<linearGradient id="paint22_linear_5695_257262" x1="43.031" y1="66.7993" x2="46.7369" y2="60.8434" gradientUnits="userSpaceOnUse">
<stop stop-color="#8C3D27" stop-opacity="0"/>
<stop offset="1" stop-color="#8C3D27"/>
</linearGradient>
<linearGradient id="paint23_linear_5695_257262" x1="46.1217" y1="66.0472" x2="45.8129" y2="60.2236" gradientUnits="userSpaceOnUse">
<stop stop-color="#8C3D27" stop-opacity="0"/>
<stop offset="1" stop-color="#8C3D27"/>
</linearGradient>
<clipPath id="clip0_5695_257262">
<rect width="90" height="90" fill="white"/>
</clipPath>
</defs>
</svg>
