<svg width="90" height="90" viewBox="0 0 90 90" fill="none" xmlns="http://www.w3.org/2000/svg">
<g id="gold-medal (1) 1" clip-path="url(#clip0_5695_257182)">
<g id="Group">
<g id="Group_2">
<path id="Vector" d="M51.4033 39.9921H38.5882C36.8027 39.9921 35.503 38.2984 35.9651 36.5737L45.3728 1.46418C45.6041 0.600529 46.3868 0 47.2808 0H61.6285C62.9274 0 63.8727 1.23212 63.5365 2.48665L54.0264 37.9793C53.7084 39.1666 52.6324 39.9921 51.4033 39.9921Z" fill="url(#paint0_linear_5695_257182)"/>
<path id="Vector_2" d="M61.4629 10.2282L54.0264 37.98C53.707 39.1659 52.6323 39.9918 51.4023 39.9918H38.587C36.8029 39.9918 35.5023 38.2976 35.9647 36.5735L45.3723 1.46471C45.6035 0.6 46.387 0 47.28 0H51.2347L57.1464 5.91176L61.4629 10.2282Z" fill="url(#paint1_linear_5695_257182)"/>
<g id="Group_3">
<path id="Vector_3" d="M63.5362 2.48665L54.026 37.9793C53.7078 39.1666 52.6321 39.9921 51.4029 39.9921H48.0161L58.7318 0H61.628C62.927 0 63.8723 1.23212 63.5362 2.48665Z" fill="url(#paint2_linear_5695_257182)"/>
<path id="Vector_4" d="M61.4632 10.2281L54.0267 37.9799C53.7073 39.1657 52.6326 39.9916 51.4026 39.9916H48.0161L57.1467 5.91162L61.4632 10.2281Z" fill="url(#paint3_linear_5695_257182)"/>
<path id="Vector_5" d="M47.2808 0H51.2357L40.5198 39.9921H38.5882C36.8027 39.9921 35.503 38.2984 35.9651 36.5737L45.3728 1.46418C45.6041 0.600529 46.3868 0 47.2808 0Z" fill="url(#paint4_linear_5695_257182)"/>
</g>
</g>
<path id="Vector_6" d="M54.3489 52.6719H35.6512C34.6419 52.6719 33.7615 51.987 33.513 51.0088L30.9943 41.0871C30.4305 38.8661 30.914 36.5547 32.321 34.746C33.728 32.9372 35.8492 31.8999 38.1408 31.8999H51.8595C54.1509 31.8999 56.2723 32.9372 57.6793 34.746C59.0863 36.5548 59.5696 38.8661 59.0058 41.0871L56.487 51.0088C56.2386 51.9868 55.358 52.6719 54.3489 52.6719ZM37.3672 48.2601H52.6331L54.7298 40.0015C54.9562 39.1094 54.762 38.1812 54.1968 37.4547C53.6316 36.7281 52.7797 36.3115 51.8593 36.3115H38.1406C37.2203 36.3115 36.3683 36.7281 35.8031 37.4547C35.2379 38.1812 35.0439 39.1094 35.2703 40.0017L37.3672 48.2601Z" fill="url(#paint5_linear_5695_257182)"/>
<path id="Vector_7" d="M51.8595 31.8999H50.5591V36.3117H51.8595C52.78 36.3117 53.632 36.7283 54.197 37.4548C54.7621 38.1814 54.9564 39.1096 54.73 40.0017L52.6333 48.2603H50.5591V52.6721H54.3491C55.3584 52.6721 56.2388 51.9872 56.4871 51.009L59.0058 41.0873C59.5697 38.8663 59.0863 36.555 57.6793 34.7462C56.2723 32.9372 54.151 31.8999 51.8595 31.8999Z" fill="url(#paint6_linear_5695_257182)"/>
<path id="Vector_8" d="M47.8198 41.3187C49.9466 39.0877 53.6992 40.0933 54.4258 43.0887C54.9501 45.2506 57.1754 46.5353 59.3098 45.9085C62.2672 45.0399 65.0142 47.787 64.1456 50.7443C63.5188 52.8787 64.8035 55.104 66.9654 55.6283C69.9608 56.3549 70.9664 60.1073 68.7354 62.2343C67.1253 63.7694 67.1253 66.3389 68.7354 67.874C70.9664 70.0008 69.9608 73.7534 66.9654 74.48C64.8035 75.0043 63.5188 77.2296 64.1456 79.364C65.0142 82.3215 62.2671 85.0684 59.3098 84.1998C57.1754 83.5728 54.9501 84.8577 54.4258 87.0196C53.6992 90.015 49.9468 91.0206 47.8198 88.7896C46.2847 87.1795 43.7152 87.1795 42.1801 88.7896C40.0533 91.0206 36.3007 90.015 35.5741 87.0196C35.0498 84.8577 32.8245 83.573 30.6901 84.1998C27.7327 85.0684 24.9857 82.3213 25.8543 79.364C26.4813 77.2296 25.1964 75.0043 23.0345 74.48C20.0391 73.7534 19.0335 70.001 21.2645 67.874C22.8746 66.3389 22.8746 63.7694 21.2645 62.2343C19.0335 60.1075 20.0391 56.3549 23.0345 55.6283C25.1964 55.104 26.4811 52.8787 25.8543 50.7443C24.9857 47.7869 27.7328 45.0399 30.6901 45.9085C32.8245 46.5355 35.0498 45.2506 35.5741 43.0887C36.3007 40.0933 40.0531 39.0877 42.1801 41.3187C43.7152 42.9288 46.2847 42.9288 47.8198 41.3187Z" fill="url(#paint7_linear_5695_257182)"/>
<g id="Group_4">
<path id="Vector_9" d="M38.5976 39.9921H51.4127C53.1983 39.9921 53.7035 38.2984 53.2413 36.5737L44.6282 1.46418C44.3968 0.600529 43.6142 0 42.7202 0H28.3724C27.0736 0 26.1282 1.23212 26.4644 2.48665L35.9746 37.9793C36.2926 39.1666 37.3685 39.9921 38.5976 39.9921Z" fill="url(#paint8_linear_5695_257182)"/>
<path id="Vector_10" d="M35.9741 37.9792C36.2923 39.1665 37.3681 39.992 38.5972 39.992H51.4123C53.1978 39.992 54.4975 38.2982 54.0354 36.5736L50.0044 21.5293H31.5664L35.9741 37.9792Z" fill="url(#paint9_linear_5695_257182)"/>
<g id="Group_5">
<path id="Vector_11" d="M26.4639 2.48665L35.9741 37.9793C36.2923 39.1666 37.368 39.9921 38.5971 39.9921H41.984L31.2683 0H28.3721C27.0731 0 26.1277 1.23212 26.4639 2.48665Z" fill="url(#paint10_linear_5695_257182)"/>
<path id="Vector_12" d="M42.72 0H38.7651L49.481 39.9921H51.4126C53.1981 39.9921 54.4978 38.2984 54.0357 36.5737L44.628 1.46418C44.3967 0.600529 43.614 0 42.72 0Z" fill="url(#paint11_linear_5695_257182)"/>
</g>
</g>
<path id="Vector_13" d="M22.458 64.7646C22.5409 65.8849 22.1454 67.0342 21.2645 67.8741C19.0335 70.0009 20.0391 73.7535 23.0345 74.4801C25.1964 75.0044 26.4811 77.2297 25.8543 79.3641C24.9857 82.3215 27.7328 85.0685 30.6901 84.1999C32.8245 83.5731 35.0498 84.8578 35.5741 87.0197C36.3007 90.0151 40.0531 91.0207 42.1801 88.7897C43.7152 87.1796 46.2847 87.1796 47.8198 88.7897C49.9466 91.0207 53.6992 90.0151 54.4258 87.0197C54.9501 84.8578 57.1754 83.5731 59.3098 84.1999C62.2672 85.0685 65.0142 82.3214 64.1456 79.3641C63.5188 77.2297 64.8035 75.0044 66.9654 74.4801C69.9608 73.7535 70.9664 70.0011 68.7354 67.8741C67.8545 67.0342 67.459 65.8851 67.542 64.7646H22.458Z" fill="url(#paint12_linear_5695_257182)" fill-opacity="0.72"/>
<path id="Vector_14" d="M49.7723 61.0231L50.2848 62.173L45.598 58.6367L40.9087 69.2049L51.9453 77.7276C51.9897 77.6383 52.029 77.5461 52.0601 77.4498C52.4689 76.1777 54.2043 75.4218 55.8687 75.7906C58.175 76.3017 60.3172 74.6853 59.6398 72.9452C59.151 71.6893 60.1529 70.3799 61.8388 70.0715C62.0324 70.036 66.3051 70.1298 66.4769 70.0715L49.7723 61.0231Z" fill="url(#paint13_linear_5695_257182)"/>
<path id="Vector_15" d="M44.9999 83.182C55.167 83.182 63.409 74.9399 63.409 64.7729C63.409 54.6058 55.167 46.3638 44.9999 46.3638C34.8329 46.3638 26.5908 54.6058 26.5908 64.7729C26.5908 74.9399 34.8329 83.182 44.9999 83.182Z" fill="url(#paint14_linear_5695_257182)"/>
<path id="Vector_16" d="M44.659 80.4546C53.5081 80.4546 60.6817 73.281 60.6817 64.4319C60.6817 55.5828 53.5081 48.4092 44.659 48.4092C35.8099 48.4092 28.6362 55.5828 28.6362 64.4319C28.6362 73.281 35.8099 80.4546 44.659 80.4546Z" fill="url(#paint15_linear_5695_257182)"/>
<g id="Group_6">
<path id="Vector_17" d="M41.9843 39.9916H38.5978C37.3678 39.9916 36.2931 39.1658 35.9737 37.9799L31.5654 21.5293H37.0378L41.9843 39.9916Z" fill="url(#paint16_linear_5695_257182)"/>
<path id="Vector_18" d="M51.413 39.9916H49.4807L44.5342 21.5293H50.0048L54.0354 36.5734C54.4977 38.2975 53.1971 39.9916 51.413 39.9916Z" fill="url(#paint17_linear_5695_257182)"/>
</g>
</g>
<path id="Vector_19" d="M49.3672 82.4998C55.0193 80.7384 59.517 76.0853 61.3638 70.1392L52.6274 60.8038L50.6578 60.9071L45.3422 55.2271L38.8638 71.2762L49.3672 82.4998Z" fill="url(#paint18_linear_5695_257182)"/>
<g id="Group_7">
<path id="Vector_20" d="M52.9073 59.8751L49.1604 58.9698C48.8118 58.8856 48.5073 58.6743 48.3063 58.3773L46.1463 55.1844C45.885 54.7983 45.4848 54.591 45.0729 54.5576C44.6611 54.591 44.2608 54.7983 43.9996 55.1844L41.8396 58.3773C41.6387 58.6743 41.3342 58.8856 40.9855 58.9698L37.2385 59.8751C36.2221 60.1207 35.7986 61.3338 36.4411 62.1587L38.8103 65.1996C39.0306 65.4825 39.1375 65.8374 39.1099 66.195L38.813 70.0383C38.7325 71.0808 39.7553 71.8586 40.7385 71.5022L44.3626 70.1888C44.5916 70.1058 44.8359 70.0844 45.0729 70.1212C45.3101 70.0845 45.5542 70.1059 45.7832 70.1888L49.4074 71.5022C50.3904 71.8585 51.4133 71.0808 51.3328 70.0383L51.036 66.195C51.0083 65.8374 51.1153 65.4825 51.3356 65.1996L53.7047 62.1587C54.3473 61.3338 53.9238 60.1207 52.9073 59.8751Z" fill="url(#paint19_linear_5695_257182)"/>
<path id="Vector_21" d="M45.783 70.1888L49.4072 71.5022C50.3902 71.8585 51.4132 71.0808 51.3327 70.0383L51.0358 66.195C51.0081 65.8374 51.1151 65.4825 51.3354 65.1996L53.7046 62.1587C54.3472 61.3339 53.9236 60.1207 52.9072 59.8751L49.1602 58.9698C48.8117 58.8856 48.5071 58.6743 48.3061 58.3773L46.1461 55.1844C45.8848 54.7983 45.4846 54.591 45.0728 54.5576V70.1212C45.3099 70.0844 45.5542 70.1058 45.783 70.1888Z" fill="url(#paint20_linear_5695_257182)"/>
<path id="Vector_22" d="M52.9071 59.8753L49.1602 58.97C49.0322 58.9391 48.9104 58.8907 48.7974 58.8276L39.2456 71.1825C39.6203 71.5446 40.1856 71.7028 40.7383 71.5026L44.3625 70.1891C44.5914 70.1061 44.8357 70.0847 45.0727 70.1215C45.3099 70.0848 45.554 70.1062 45.783 70.1891L49.4072 71.5026C50.3902 71.8588 51.4131 71.0811 51.3326 70.0386L51.0358 66.1953C51.0081 65.8377 51.1151 65.4828 51.3354 65.1999L53.7045 62.159C54.3471 61.334 53.9236 60.1209 52.9071 59.8753Z" fill="url(#paint21_linear_5695_257182)"/>
<path id="Vector_23" d="M37.2385 59.8753L40.9855 58.97C41.1135 58.9391 41.2353 58.8907 41.3483 58.8276L50.9001 71.1825C50.5254 71.5446 49.9601 71.7028 49.4074 71.5026L45.7832 70.1891C45.5542 70.1061 45.31 70.0847 45.0729 70.1215C44.8358 70.0848 44.5916 70.1062 44.3626 70.1891L40.7385 71.5026C39.7555 71.8588 38.7325 71.0811 38.813 70.0386L39.1099 66.1953C39.1375 65.8377 39.0306 65.4828 38.8103 65.1999L36.4411 62.159C35.7986 61.334 36.2221 60.1209 37.2385 59.8753Z" fill="url(#paint22_linear_5695_257182)"/>
<path id="Vector_24" d="M36.2417 60.7437C36.0635 61.193 36.1063 61.7285 36.4416 62.159L38.8107 65.1998C39.0311 65.4828 39.138 65.8377 39.1104 66.1952L38.8135 70.0385C38.733 71.081 39.7558 71.8588 40.7389 71.5025L44.3631 70.1891C44.5921 70.1061 44.8363 70.0847 45.0734 70.1214C45.3105 70.0848 45.5547 70.1062 45.7837 70.1891L49.4078 71.5025C50.3909 71.8587 51.4138 71.081 51.3333 70.0385L51.0364 66.1952C51.021 65.9969 51.0485 65.7997 51.1125 65.6148L36.2417 60.7437Z" fill="url(#paint23_linear_5695_257182)"/>
<path id="Vector_25" d="M53.9061 60.7437C54.0843 61.193 54.0417 61.7285 53.7062 62.159L51.3371 65.1998C51.1167 65.4828 51.0098 65.8377 51.0374 66.1952L51.3343 70.0385C51.4148 71.081 50.3919 71.8588 49.4089 71.5025L45.7847 70.1891C45.5557 70.1061 45.3115 70.0847 45.0744 70.1214C44.8373 70.0848 44.5931 70.1062 44.3641 70.1891L40.74 71.5025C39.7569 71.8587 38.734 71.081 38.8145 70.0385L39.1114 66.1952C39.1268 65.9969 39.0993 65.7997 39.0353 65.6148L53.9061 60.7437Z" fill="url(#paint24_linear_5695_257182)"/>
</g>
</g>
<defs>
<linearGradient id="paint0_linear_5695_257182" x1="54.0964" y1="9.95029" x2="49.4784" y2="20.2256" gradientUnits="userSpaceOnUse">
<stop stop-color="#F9F5F3"/>
<stop offset="1" stop-color="#D8E8F0"/>
</linearGradient>
<linearGradient id="paint1_linear_5695_257182" x1="55.5252" y1="17.0592" x2="49.1723" y2="20.118" gradientUnits="userSpaceOnUse">
<stop stop-color="#678D98" stop-opacity="0"/>
<stop offset="0.9957" stop-color="#678D98" stop-opacity="0.996"/>
<stop offset="1" stop-color="#678D98"/>
</linearGradient>
<linearGradient id="paint2_linear_5695_257182" x1="55.3179" y1="20.0929" x2="47.6708" y2="25.0341" gradientUnits="userSpaceOnUse">
<stop stop-color="#3DA0FD"/>
<stop offset="1" stop-color="#2776B5"/>
</linearGradient>
<linearGradient id="paint3_linear_5695_257182" x1="55.1697" y1="22.6165" x2="49.6402" y2="27.087" gradientUnits="userSpaceOnUse">
<stop stop-color="#2B4EA7" stop-opacity="0"/>
<stop offset="1" stop-color="#072A5F"/>
</linearGradient>
<linearGradient id="paint4_linear_5695_257182" x1="56.1438" y1="5.41235" x2="50.6143" y2="11.7653" gradientUnits="userSpaceOnUse">
<stop stop-color="#3DA0FD"/>
<stop offset="1" stop-color="#2E70A9"/>
</linearGradient>
<linearGradient id="paint5_linear_5695_257182" x1="45" y1="37.4116" x2="45" y2="47.294" gradientUnits="userSpaceOnUse">
<stop stop-color="#E6E6E6"/>
<stop offset="1" stop-color="#C0C0C0"/>
</linearGradient>
<linearGradient id="paint6_linear_5695_257182" x1="58.7951" y1="42.5042" x2="52.7069" y2="42.3277" gradientUnits="userSpaceOnUse">
<stop stop-color="#E4E4E4"/>
<stop offset="1" stop-color="#717171"/>
</linearGradient>
<linearGradient id="paint7_linear_5695_257182" x1="28.3258" y1="48.38" x2="60.1584" y2="80.2126" gradientUnits="userSpaceOnUse">
<stop stop-color="#E6E6E6"/>
<stop offset="1" stop-color="#E4E4E4"/>
</linearGradient>
<linearGradient id="paint8_linear_5695_257182" x1="38.0873" y1="15.6429" x2="44.3017" y2="27.1509" gradientUnits="userSpaceOnUse">
<stop stop-color="#F9F5F3"/>
<stop offset="1" stop-color="#D8E8F0"/>
</linearGradient>
<linearGradient id="paint9_linear_5695_257182" x1="42.848" y1="36.1176" x2="42.848" y2="40.1175" gradientUnits="userSpaceOnUse">
<stop stop-color="#678D98" stop-opacity="0"/>
<stop offset="0.9957" stop-color="#678D98" stop-opacity="0.996"/>
<stop offset="1" stop-color="#678D98"/>
</linearGradient>
<linearGradient id="paint10_linear_5695_257182" x1="29.7902" y1="13.4118" x2="47.7902" y2="40.2353" gradientUnits="userSpaceOnUse">
<stop stop-color="#3DA0FD"/>
<stop offset="1" stop-color="#186EA8"/>
</linearGradient>
<linearGradient id="paint11_linear_5695_257182" x1="38.3531" y1="7.66588" x2="56.3531" y2="34.4894" gradientUnits="userSpaceOnUse">
<stop stop-color="#3FA1FD"/>
<stop offset="1" stop-color="#1B74B2"/>
</linearGradient>
<linearGradient id="paint12_linear_5695_257182" x1="45" y1="74.9117" x2="45" y2="88.1765" gradientUnits="userSpaceOnUse">
<stop stop-color="#9D9A9A" stop-opacity="0"/>
<stop offset="1" stop-color="#444444"/>
</linearGradient>
<linearGradient id="paint13_linear_5695_257182" x1="57.7719" y1="73.2055" x2="44.8886" y2="60.8336" gradientUnits="userSpaceOnUse">
<stop stop-color="#DC8758" stop-opacity="0"/>
<stop offset="0.9957" stop-color="#DC8758" stop-opacity="0.996"/>
<stop offset="1" stop-color="#DC8758"/>
</linearGradient>
<linearGradient id="paint14_linear_5695_257182" x1="56.9564" y1="76.7294" x2="32.6946" y2="52.4675" gradientUnits="userSpaceOnUse">
<stop stop-color="#E6E6E6"/>
<stop offset="1" stop-color="#999999"/>
</linearGradient>
<linearGradient id="paint15_linear_5695_257182" x1="33.0109" y1="52.7838" x2="52.1841" y2="71.9571" gradientUnits="userSpaceOnUse">
<stop stop-color="#E6E6E6"/>
<stop offset="1" stop-color="#999999"/>
</linearGradient>
<linearGradient id="paint16_linear_5695_257182" x1="36.7748" y1="33.2941" x2="36.7748" y2="40.3529" gradientUnits="userSpaceOnUse">
<stop stop-color="#3C2BA7" stop-opacity="0"/>
<stop offset="1" stop-color="#184480"/>
</linearGradient>
<linearGradient id="paint17_linear_5695_257182" x1="49.3319" y1="33.2941" x2="49.3319" y2="40.3529" gradientUnits="userSpaceOnUse">
<stop stop-color="#2B5DA7" stop-opacity="0"/>
<stop offset="1" stop-color="#112559"/>
</linearGradient>
<linearGradient id="paint18_linear_5695_257182" x1="55.0794" y1="74.0591" x2="39.7243" y2="65.0141" gradientUnits="userSpaceOnUse">
<stop stop-color="#766E6E" stop-opacity="0"/>
<stop offset="0.2806" stop-color="#716B6B" stop-opacity="0.281"/>
<stop offset="0.5705" stop-color="#656060" stop-opacity="0.571"/>
<stop offset="0.8636" stop-color="#514F4F" stop-opacity="0.864"/>
<stop offset="1" stop-color="#444444"/>
</linearGradient>
<linearGradient id="paint19_linear_5695_257182" x1="41.093" y1="60.3951" x2="48.27" y2="67.5719" gradientUnits="userSpaceOnUse">
<stop stop-color="#F9F5F3"/>
<stop offset="1" stop-color="#D8E8F0"/>
</linearGradient>
<linearGradient id="paint20_linear_5695_257182" x1="49.3731" y1="62.3519" x2="39.4536" y2="66.4527" gradientUnits="userSpaceOnUse">
<stop stop-color="#678D98" stop-opacity="0"/>
<stop offset="0.9957" stop-color="#678D98" stop-opacity="0.996"/>
<stop offset="1" stop-color="#678D98"/>
</linearGradient>
<linearGradient id="paint21_linear_5695_257182" x1="46.7831" y1="65.8723" x2="41.3523" y2="63.5448" gradientUnits="userSpaceOnUse">
<stop stop-color="#678D98" stop-opacity="0"/>
<stop offset="0.9957" stop-color="#678D98" stop-opacity="0.996"/>
<stop offset="1" stop-color="#678D98"/>
</linearGradient>
<linearGradient id="paint22_linear_5695_257182" x1="43.3626" y1="65.8723" x2="48.7933" y2="63.5448" gradientUnits="userSpaceOnUse">
<stop stop-color="#678D98" stop-opacity="0"/>
<stop offset="0.9957" stop-color="#678D98" stop-opacity="0.996"/>
<stop offset="1" stop-color="#678D98"/>
</linearGradient>
<linearGradient id="paint23_linear_5695_257182" x1="43.4837" y1="66.1448" x2="46.9749" y2="60.5339" gradientUnits="userSpaceOnUse">
<stop stop-color="#678D98" stop-opacity="0"/>
<stop offset="0.9957" stop-color="#678D98" stop-opacity="0.996"/>
<stop offset="1" stop-color="#678D98"/>
</linearGradient>
<linearGradient id="paint24_linear_5695_257182" x1="46.3949" y1="65.4361" x2="46.1041" y2="59.95" gradientUnits="userSpaceOnUse">
<stop stop-color="#678D98" stop-opacity="0"/>
<stop offset="0.9957" stop-color="#678D98" stop-opacity="0.996"/>
<stop offset="1" stop-color="#678D98"/>
</linearGradient>
<clipPath id="clip0_5695_257182">
<rect width="90" height="90" fill="white"/>
</clipPath>
</defs>
</svg>
