<svg width="24" height="25" viewBox="0 0 24 25" fill="none" xmlns="http://www.w3.org/2000/svg">
<rect width="24" height="25" fill="#DBCEB5"/>
<g id="1920">
<rect width="1920" height="1676" transform="translate(-1121 -435)" fill="#F6F6F6"/>
<g id="Frame 1321315552">
<g clip-path="url(#clip0_1_20)">
<g id="Frame 1321315551">
<rect width="726" height="519" transform="translate(-287 -326)" fill="white"/>
<g id="Frame 1321315549">
<g id="Frame 1321315548" filter="url(#filter0_i_1_20)">
<rect x="-230.5" y="-67.5" width="613" height="124" rx="4" fill="white"/>
<g id="Frame 1000008701">
<rect x="-24" y="-7.5" width="200" height="40" rx="4" fill="url(#paint0_linear_1_20)"/>
<g id="Broken / Arrows Action / Upload Minimalistic">
<path id="Vector" d="M15 21.5H9C6.17157 21.5 4.75736 21.5 3.87868 20.6213C3 19.7426 3 18.3284 3 15.5M21 15.5C21 18.3284 21 19.7426 20.1213 20.6213C19.8215 20.9211 19.4594 21.1186 19 21.2487" stroke="white" stroke-width="1.5" stroke-linecap="round" stroke-linejoin="round"/>
<path id="Vector_2" d="M12 16.5V3.5M12 3.5L16 7.875M12 3.5L8 7.875" stroke="white" stroke-width="1.5" stroke-linecap="round" stroke-linejoin="round"/>
</g>
</g>
</g>
</g>
</g>
</g>
</g>
</g>
<defs>
<filter id="filter0_i_1_20" x="-230.5" y="-67.5" width="613" height="125" filterUnits="userSpaceOnUse" color-interpolation-filters="sRGB">
<feFlood flood-opacity="0" result="BackgroundImageFix"/>
<feBlend mode="normal" in="SourceGraphic" in2="BackgroundImageFix" result="shape"/>
<feColorMatrix in="SourceAlpha" type="matrix" values="0 0 0 0 0 0 0 0 0 0 0 0 0 0 0 0 0 0 127 0" result="hardAlpha"/>
<feOffset dy="1"/>
<feGaussianBlur stdDeviation="3"/>
<feComposite in2="hardAlpha" operator="arithmetic" k2="-1" k3="1"/>
<feColorMatrix type="matrix" values="0 0 0 0 0.298039 0 0 0 0 0.356863 0 0 0 0 0.831373 0 0 0 0.26 0"/>
<feBlend mode="normal" in2="shape" result="effect1_innerShadow_1_20"/>
</filter>
<linearGradient id="paint0_linear_1_20" x1="148.5" y1="98" x2="-15.7633" y2="-15.2385" gradientUnits="userSpaceOnUse">
<stop stop-color="#FE38EA"/>
<stop offset="1" stop-color="#4C5BD4"/>
</linearGradient>
<clipPath id="clip0_1_20">
<rect x="-761" y="-326" width="1200" height="519" rx="10" fill="white"/>
</clipPath>
</defs>
</svg>
