<svg width="10" height="7" viewBox="0 0 10 7" fill="none" xmlns="http://www.w3.org/2000/svg">
<path d="M9.61048 6.04855C9.48399 6.17504 9.33423 6.23828 9.1612 6.23828C8.98816 6.23828 8.83857 6.17504 8.71242 6.04855L5.00632 2.34245L1.28757 6.0612C1.16951 6.17925 1.02194 6.23828 0.844857 6.23828C0.667774 6.23828 0.515988 6.17504 0.3895 6.04855C0.263012 5.92206 0.199768 5.7723 0.199768 5.59926C0.199768 5.42623 0.263012 5.27663 0.3895 5.15048L4.65215 0.900483C4.70274 0.849888 4.75756 0.813966 4.81658 0.792715C4.87561 0.771466 4.93885 0.761009 5.00631 0.761347C5.07378 0.761347 5.13702 0.771971 5.19605 0.793221C5.25508 0.814471 5.30989 0.850225 5.36048 0.900483L9.62313 5.16313C9.74119 5.28119 9.80021 5.42673 9.80021 5.59977C9.80021 5.7728 9.73697 5.9224 9.61048 6.04855Z" fill="#999999"/>
</svg>
