<svg width="80" height="80" viewBox="0 0 80 80" fill="none" xmlns="http://www.w3.org/2000/svg">
<g filter="url(#filter0_i_2309_93173)">
<path d="M40 77.5C60.7107 77.5 77.5 60.7107 77.5 40C77.5 19.2893 60.7107 2.5 40 2.5C19.2893 2.5 2.5 19.2893 2.5 40C2.5 60.7107 19.2893 77.5 40 77.5Z" fill="#FF0000"/>
<path d="M27.5 35.5L37.5 42.5L33.75 31L43.75 23.75H31.375L27.5 12.5L23.75 23.75H11.25L21.25 31L17.5 42.5L27.5 35.5ZM44.125 44.125L41.25 44.75L44 45.875V48.75L45.875 46.625L48.625 47.625L47 45.25L48.75 43L45.875 43.625L44.125 41.25V44.125ZM48.375 35.625L46.25 37.5L49.125 37.25L50.375 40L50.875 37.125L53.75 36.875L51.25 35.375L51.875 32.5L49.75 34.375L47.25 32.875L48.375 35.625ZM49.125 25.875L50 28.75L50.875 26H53.75L51.5 24.25L52.375 21.375L50 23.125L47.75 21.25L48.625 24.125L46.25 25.75L49.125 25.875ZM44.125 15.875V18.75L45.875 16.375L48.75 17L47 14.75L48.625 12.375L45.875 13.5L44 11.25V14.125L41.25 15.25L44.125 15.875Z" fill="#FFE62E"/>
</g>
<defs>
<filter id="filter0_i_2309_93173" x="0" y="0" width="80" height="80" filterUnits="userSpaceOnUse" color-interpolation-filters="sRGB">
<feFlood flood-opacity="0" result="BackgroundImageFix"/>
<feBlend mode="normal" in="SourceGraphic" in2="BackgroundImageFix" result="shape"/>
<feColorMatrix in="SourceAlpha" type="matrix" values="0 0 0 0 0 0 0 0 0 0 0 0 0 0 0 0 0 0 127 0" result="hardAlpha"/>
<feOffset/>
<feGaussianBlur stdDeviation="2"/>
<feComposite in2="hardAlpha" operator="arithmetic" k2="-1" k3="1"/>
<feColorMatrix type="matrix" values="0 0 0 0 0 0 0 0 0 0 0 0 0 0 0 0 0 0 0.25 0"/>
<feBlend mode="normal" in2="shape" result="effect1_innerShadow_2309_93173"/>
</filter>
</defs>
</svg>
