<svg width="81" height="80" viewBox="0 0 81 80" fill="none" xmlns="http://www.w3.org/2000/svg">
<g filter="url(#filter0_i_2309_93165)">
<g clip-path="url(#clip0_2309_93165)">
<rect x="0.666992" width="80" height="80" rx="40" fill="white"/>
<path d="M10.927 29.3161L19.3657 16.6586L18.5157 16.0936L17.6682 15.5273L9.22949 28.1848L10.0795 28.7498L10.927 29.3161ZM13.2445 30.8598L14.0907 31.4261L22.527 18.7686L21.6807 18.2023L20.8307 17.6373L12.3945 30.2948L13.2445 30.8598ZM16.4057 32.9686L17.2557 33.5348L25.6932 20.8786L24.8445 20.3136L23.997 19.7461L15.5582 32.4036L16.4057 32.9686ZM60.9895 52.9373L61.837 53.5023L65.7732 47.5986L64.9257 47.0336L64.077 46.4673L60.142 52.3711L60.9895 52.9373ZM70.4045 50.6873L66.4707 56.5898L67.317 57.1573L68.167 57.7223L72.102 51.8173L71.2545 51.2523L70.4045 50.6873ZM65.0007 55.6111L68.9382 49.7086L68.0882 49.1423L67.2407 48.5773L63.3057 54.4811L64.1532 55.0461L65.0007 55.6111ZM60.4257 53.7848L59.5757 53.2198L55.6407 59.1248L56.487 59.6886L57.337 60.2548L61.272 54.3511L60.4257 53.7848ZM63.5895 55.8948L62.7395 55.3286L58.8045 61.2336L59.652 61.7998L60.502 62.3648L64.437 56.4611L63.5895 55.8948ZM65.9032 57.4386L61.9682 63.3436L62.8157 63.9098L63.6632 64.4736L67.6007 58.5698L66.7507 58.0036L65.9032 57.4386ZM10.0795 51.2523L9.22949 51.8173L17.6682 64.4736L18.5157 63.9098L19.3657 63.3436L10.927 50.6873L10.0795 51.2523ZM17.742 55.8948L16.8945 56.4611L20.8307 62.3648L21.6807 61.7998L22.527 61.2336L18.592 55.3286L17.742 55.8948ZM16.4057 47.0336L15.5582 47.5986L23.997 60.2548L24.8445 59.6886L25.6932 59.1248L17.2557 46.4673L16.4057 47.0336ZM12.3945 49.7086L16.3307 55.6111L17.1782 55.0461L18.0282 54.4811L14.0907 48.5773L13.2445 49.1423L12.3945 49.7086ZM66.7507 21.9986L67.6007 21.4323L63.6632 15.5273L62.8157 16.0936L61.9682 16.6586L65.9057 22.5636L66.7507 21.9986ZM60.4257 26.2173L61.272 25.6511L57.337 19.7461L56.487 20.3136L55.6407 20.8786L59.5757 26.7823L60.4257 26.2173ZM66.4707 23.4123L70.4045 29.3161L71.2545 28.7498L72.102 28.1848L68.167 22.2811L67.317 22.8461L66.4707 23.4123ZM68.0882 30.8598L68.9382 30.2948L60.502 17.6373L59.652 18.2023L58.8045 18.7686L67.2407 31.4261L68.0882 30.8598ZM64.9257 32.9686L65.7732 32.4036L61.837 26.4986L60.9895 27.0648L60.142 27.6311L64.077 33.5348L64.9257 32.9686Z" fill="white"/>
<path d="M40.667 0C18.5763 0 0.666992 17.9093 0.666992 40C0.666992 62.0907 18.5763 80 40.667 80C62.7577 80 80.667 62.0907 80.667 40C80.667 17.9093 62.7577 0 40.667 0ZM40.667 77.3333C20.0817 77.3333 3.33366 60.5853 3.33366 40C3.33366 19.4147 20.0817 2.66667 40.667 2.66667C61.2523 2.66667 78.0003 19.4147 78.0003 40C78.0003 60.5853 61.2523 77.3333 40.667 77.3333Z" fill="white"/>
<path d="M29.4498 42.5993C33.2913 45.1398 38.6421 44.0701 41.2488 40.3263C43.8556 36.5824 49.0692 35.5127 53.0479 38.0532C56.7523 40.46 57.8499 45.1398 55.7919 48.75C60.3195 41.2622 58.2615 31.5014 50.5784 26.5541C42.758 21.4731 32.1937 23.4787 26.9802 31.1002C26.843 31.3677 26.7058 31.6351 26.5686 31.7688C24.6478 35.6464 25.8826 40.1925 29.4498 42.5993Z" fill="#FF0000"/>
<path d="M53.1413 37.7082C49.3069 35.0407 43.9662 36.1639 41.3642 40.0949C38.7623 44.026 33.5585 45.1492 29.5872 42.4817C25.8897 39.9545 24.7942 35.0407 26.8483 31.25C22.1923 39.1122 24.3834 49.3611 32.0522 54.5557C39.8579 59.8908 50.4024 57.7848 55.6063 49.7823C55.7432 49.5015 55.8801 49.2207 56.0171 49.0803C57.9343 45.0088 56.7018 40.2353 53.1413 37.7082Z" fill="#006CA2"/>
</g>
</g>
<defs>
<filter id="filter0_i_2309_93165" x="0.666992" y="0" width="80" height="80" filterUnits="userSpaceOnUse" color-interpolation-filters="sRGB">
<feFlood flood-opacity="0" result="BackgroundImageFix"/>
<feBlend mode="normal" in="SourceGraphic" in2="BackgroundImageFix" result="shape"/>
<feColorMatrix in="SourceAlpha" type="matrix" values="0 0 0 0 0 0 0 0 0 0 0 0 0 0 0 0 0 0 127 0" result="hardAlpha"/>
<feOffset/>
<feGaussianBlur stdDeviation="2"/>
<feComposite in2="hardAlpha" operator="arithmetic" k2="-1" k3="1"/>
<feColorMatrix type="matrix" values="0 0 0 0 0 0 0 0 0 0 0 0 0 0 0 0 0 0 0.25 0"/>
<feBlend mode="normal" in2="shape" result="effect1_innerShadow_2309_93165"/>
</filter>
<clipPath id="clip0_2309_93165">
<rect x="0.666992" width="80" height="80" rx="40" fill="white"/>
</clipPath>
</defs>
</svg>
