<svg width="30" height="29" viewBox="0 0 30 29" fill="none" xmlns="http://www.w3.org/2000/svg">
<path fill-rule="evenodd" clip-rule="evenodd" d="M2.41774 0.90625H18.5413V4.03077C18.5413 4.68191 19.0705 5.21105 19.7217 5.21105H22.8462V11.8749L20.456 16.0148C20.4504 15.7694 20.2497 15.5723 20.003 15.5723H4.71276C4.46252 15.5723 4.25964 15.7752 4.25964 16.0254C4.25964 16.2756 4.46252 16.4785 4.71276 16.4785H20.0031C20.2186 16.4785 20.399 16.328 20.4449 16.1264L20.7013 16.2744L19.3453 18.6232H4.71276C4.46252 18.6232 4.25964 18.826 4.25964 19.0763C4.25964 19.3265 4.46252 19.5294 4.71276 19.5294H18.8221L17.5839 21.674H4.71276C4.46252 21.674 4.25964 21.8769 4.25964 22.1272C4.25964 22.3774 4.46252 22.5803 4.71276 22.5803H17.2567L17.3097 23.5226C17.1659 23.7716 16.9411 24.1033 16.8543 24.3712C15.7094 24.1701 15.0752 24.5821 14.5143 24.9467C13.7724 25.4289 13.649 25.3731 12.9635 24.9121C12.1199 24.3449 11.1082 23.6647 9.99059 24.8719C9.82146 25.0547 9.83256 25.34 10.0153 25.5091C10.1981 25.6783 10.4834 25.6672 10.6526 25.4844C11.2446 24.8449 11.9078 25.2908 12.4608 25.6627C13.4711 26.342 13.9426 26.3958 15.0064 25.7044C15.4428 25.4207 15.9387 25.0986 16.8911 25.3075C17.0009 25.5752 17.1965 25.8099 17.4655 25.9658C18.1138 26.3412 18.9476 26.119 19.3222 25.4701L19.6492 24.9039L20.7965 24.3247L22.8462 20.7746V27.5458C22.8462 27.8477 22.5999 28.0939 22.2981 28.0939H2.41774C2.11585 28.0939 1.86963 27.8477 1.86963 27.5458V1.45436C1.86963 1.15247 2.11585 0.90625 2.41774 0.90625ZM9.38442 4.35357C8.39021 4.35357 7.58421 5.15956 7.58421 6.15378C7.58421 7.14805 8.39021 7.95404 9.38442 7.95404C10.3787 7.95404 11.1846 7.14805 11.1846 6.15378C11.1847 5.15962 10.3787 4.35357 9.38442 4.35357ZM6.17517 11.5693H12.5937C12.7742 11.5693 12.9078 11.4054 12.8712 11.2286C12.5368 9.60925 11.1028 8.39188 9.38448 8.39188C7.66606 8.39188 6.23209 9.60931 5.89768 11.2287C5.86115 11.4054 5.99465 11.5693 6.17517 11.5693ZM14.0559 13.3051C14.3056 13.3051 14.5092 13.1015 14.5092 12.8518V3.50883C14.5092 3.25916 14.3056 3.05554 14.0559 3.05554H4.71293C4.46326 3.05554 4.25964 3.25916 4.25964 3.50883V12.8518C4.25964 13.1015 4.46326 13.3051 4.71293 13.3051H14.0559ZM24.8086 10.9681C24.6467 10.8746 24.4379 10.9306 24.3444 11.0924L21.7562 15.5754C21.6938 15.6833 21.7312 15.8226 21.8391 15.8849L24.027 17.1481C24.1349 17.2104 24.2742 17.1732 24.3365 17.0652L26.6435 13.0693L27.0162 13.2855C27.2139 13.3996 27.285 13.6603 27.1706 13.8584L24.9626 17.6826C24.8375 17.8987 24.9112 18.1752 25.1272 18.3004C25.3433 18.4255 25.6198 18.3518 25.745 18.1358L27.9529 14.3115C28.3175 13.6801 28.1011 12.8679 27.4693 12.5032C27.4686 12.5044 25.0308 11.0963 24.8086 10.9681ZM26.3541 10.0273L26.7682 10.2663C27.0091 10.4054 27.0924 10.7163 26.9533 10.9573L26.8656 11.1093L25.5754 10.3644L25.6632 10.2125C25.8023 9.97147 26.1132 9.88815 26.3541 10.0273ZM18.1594 22.4898L18.2297 23.7417L17.7551 24.5637C17.63 24.7798 17.7037 25.0563 17.9197 25.1815C18.1357 25.3066 18.4123 25.2329 18.5374 25.0169L18.9995 24.2165L20.1469 23.6374L23.4737 17.8752L21.4861 16.7276L18.1594 22.4898ZM19.4476 0.953772V4.03077C19.4476 4.18172 19.5707 4.3048 19.7217 4.3048H22.7987C22.7721 4.24657 22.7344 4.19305 22.6857 4.14428L19.6081 1.06677C19.5594 1.01806 19.5058 0.980393 19.4476 0.953772ZM16.5 7.32584H20.0031C20.2533 7.32584 20.4562 7.12295 20.4562 6.87272C20.4562 6.62248 20.2533 6.41959 20.0031 6.41959H16.5C16.2497 6.41959 16.0468 6.62248 16.0468 6.87272C16.0468 7.12295 16.2497 7.32584 16.5 7.32584ZM16.5 10.3767H20.0031C20.2533 10.3767 20.4562 10.1738 20.4562 9.92361C20.4562 9.67337 20.2533 9.47048 20.0031 9.47048H16.5C16.2497 9.47048 16.0468 9.67337 16.0468 9.92361C16.0468 10.1738 16.2497 10.3767 16.5 10.3767ZM16.5 13.4277H20.0031C20.2533 13.4277 20.4562 13.2248 20.4562 12.9746C20.4562 12.7243 20.2533 12.5214 20.0031 12.5214H16.5C16.2497 12.5214 16.0468 12.7243 16.0468 12.9746C16.0468 13.2248 16.2497 13.4277 16.5 13.4277Z" fill="#4C5BD4"/>
</svg>
