<svg width="32" height="31" viewBox="0 0 32 31" fill="none" xmlns="http://www.w3.org/2000/svg">
<g opacity="0.5">
<path fill-rule="evenodd" clip-rule="evenodd" d="M9.9488 4.35124L4.29755 5.86499C3.13005 6.17874 2.43755 7.37749 2.7513 8.54499L7.76505 27.26C8.07755 28.4262 9.27755 29.1187 10.4451 28.8062L16.7413 27.1187H13.3863C11.4888 27.1187 9.9488 25.58 9.9488 23.6812V4.35124Z" fill="#474747"/>
<path fill-rule="evenodd" clip-rule="evenodd" d="M29.3237 23.6812V4.30624C29.3237 3.09874 28.345 2.11874 27.1362 2.11874H13.3862C12.1787 2.11874 11.1987 3.09874 11.1987 4.30624V23.6812C11.1987 24.89 12.1787 25.8687 13.3862 25.8687H27.1362C28.345 25.8687 29.3237 24.89 29.3237 23.6812ZM16.5112 22.1187H24.0112C24.5287 22.1187 24.9487 21.6987 24.9487 21.1812C24.9487 20.6637 24.5287 20.2437 24.0112 20.2437H16.5112C15.9937 20.2437 15.5737 20.6637 15.5737 21.1812C15.5737 21.6987 15.9937 22.1187 16.5112 22.1187ZM17.7612 18.9937H22.7612C23.2787 18.9937 23.6987 18.5737 23.6987 18.0562C23.6987 17.5387 23.2787 17.1187 22.7612 17.1187H17.7612C17.2437 17.1187 16.8237 17.5387 16.8237 18.0562C16.8237 18.5737 17.2437 18.9937 17.7612 18.9937ZM21.5487 10.5575C22.455 10.09 23.0737 9.14499 23.0737 8.05624C23.0737 6.50374 21.8137 5.24374 20.2612 5.24374C18.71 5.24374 17.4487 6.50374 17.4487 8.05624C17.4487 9.14499 18.0687 10.09 18.9737 10.5575C18.8412 10.5625 18.7112 10.5962 18.5925 10.655C18.5925 10.655 18.015 10.9437 17.5212 11.1912C16.78 11.5612 16.3125 12.3187 16.3125 13.1475V14.25C16.3125 14.7675 16.7325 15.1875 17.25 15.1875H23.5C24.0175 15.1875 24.4375 14.7675 24.4375 14.25V13.1887C24.4375 12.3225 23.9275 11.5387 23.1362 11.1887C22.5712 10.9387 21.8912 10.6362 21.8912 10.6362C21.7837 10.5887 21.6675 10.5625 21.5487 10.5575Z" fill="#474747"/>
</g>
</svg>
