<svg width="24" height="24" viewBox="0 0 24 24" fill="none" xmlns="http://www.w3.org/2000/svg">
<g clip-path="url(#clip0_2057_93076)">
<path d="M18.7617 5.23827C17.4244 3.90093 15.7205 2.99019 13.8656 2.62122C12.0106 2.25225 10.0879 2.44162 8.34059 3.16538C6.59327 3.88915 5.09982 5.1148 4.04908 6.68734C2.99833 8.25989 2.4375 10.1087 2.4375 12C2.4375 13.8913 2.99833 15.7401 4.04907 17.3126C5.09982 18.8852 6.59327 20.1108 8.34059 20.8346C10.0879 21.5583 12.0106 21.7477 13.8656 21.3787C15.7205 21.0098 17.4244 20.099 18.7617 18.7617C20.5523 16.9669 21.5579 14.5352 21.5579 12C21.5579 9.46476 20.5523 7.03305 18.7617 5.23827ZM6.03379 17.9662C4.85378 16.7862 4.05019 15.2828 3.72463 13.6461C3.39907 12.0093 3.56615 10.3128 4.20477 8.77109C4.84338 7.22934 5.92484 5.91158 7.31238 4.98446C8.69992 4.05733 10.3312 3.56248 12 3.56248C13.6688 3.56248 15.3001 4.05733 16.6876 4.98446C18.0752 5.91158 19.1566 7.22934 19.7952 8.77109C20.4339 10.3128 20.6009 12.0093 20.2754 13.6461C19.9498 15.2828 19.1462 16.7862 17.9662 17.9662C16.3827 19.5462 14.237 20.4336 12 20.4336C9.763 20.4336 7.61734 19.5462 6.03379 17.9662ZM15.0494 15.0494C14.9439 15.1549 14.8008 15.2141 14.6517 15.2141C14.5025 15.2141 14.3594 15.1549 14.2539 15.0494L12 12.7955L9.7461 15.0494C9.64061 15.1549 9.49754 15.2141 9.34835 15.2141C9.19917 15.2141 9.05609 15.1549 8.9506 15.0494C8.84512 14.9439 8.78585 14.8008 8.78585 14.6516C8.78585 14.5024 8.84512 14.3594 8.9506 14.2539L11.2045 12L8.95061 9.74608C8.84512 9.64059 8.78585 9.49752 8.78585 9.34833C8.78585 9.19915 8.84512 9.05607 8.95061 8.95058C9.05609 8.8451 9.19917 8.78583 9.34835 8.78583C9.49754 8.78583 9.64061 8.8451 9.7461 8.95058L12 11.2045L14.2539 8.95058C14.3594 8.8451 14.5025 8.78583 14.6517 8.78583C14.8008 8.78583 14.9439 8.8451 15.0494 8.95058C15.1549 9.05607 15.2142 9.19915 15.2142 9.34833C15.2142 9.49752 15.1549 9.64059 15.0494 9.74608L12.7955 12L15.0494 14.2539C15.1549 14.3594 15.2142 14.5024 15.2142 14.6516C15.2142 14.8008 15.1549 14.9439 15.0494 15.0494Z" fill="#FF0000"/>
</g>
<defs>
<clipPath id="clip0_2057_93076">
<rect width="24" height="24" fill="white"/>
</clipPath>
</defs>
</svg>
