<svg width="20" height="97" viewBox="0 0 20 97" fill="none" xmlns="http://www.w3.org/2000/svg">
<path d="M0 0L13.5112 5.06671C17.4143 6.53035 20 10.2616 20 14.43V81.7297C20 85.8187 17.5105 89.4958 13.7139 91.0144L0 96.5V0Z" fill="white"/>
<path d="M13.5312 54.1875C13.6875 54.0312 13.7656 53.8462 13.7656 53.6325C13.7656 53.4187 13.6875 53.234 13.5312 53.0781L8.95312 48.5L13.5469 43.9062C13.6927 43.7604 13.7656 43.5781 13.7656 43.3594C13.7656 43.1406 13.6875 42.9531 13.5312 42.7969C13.375 42.6406 13.19 42.5625 12.9762 42.5625C12.7625 42.5625 12.5777 42.6406 12.4219 42.7969L7.17187 48.0625C7.10937 48.125 7.065 48.1927 7.03875 48.2656C7.0125 48.3385 6.99958 48.4167 7 48.5C7 48.5833 7.01312 48.6615 7.03937 48.7344C7.06562 48.8073 7.10979 48.875 7.17187 48.9375L12.4375 54.2031C12.5833 54.349 12.7631 54.4219 12.9769 54.4219C13.1906 54.4219 13.3754 54.3438 13.5312 54.1875Z" fill="#474747"/>
</svg>
