<svg width="30" height="31" viewBox="0 0 30 31" fill="none" xmlns="http://www.w3.org/2000/svg">
<g opacity="0.5">
<path d="M27.3328 12.3359H25.6641V10.6672L27.3328 12.3359ZM27.5391 13.0391V26.75C27.5391 27.0919 27.4032 27.4198 27.1615 27.6615C26.9198 27.9032 26.5919 28.0391 26.25 28.0391H15C14.6581 28.0391 14.3302 27.9032 14.0885 27.6615C13.8467 27.4198 13.7109 27.0919 13.7109 26.75V23.5859H21.0938C21.7371 23.5859 22.3548 23.3335 22.8141 22.8828H24.8438C24.937 22.8828 25.0264 22.8458 25.0923 22.7798C25.1583 22.7139 25.1953 22.6245 25.1953 22.5312C25.1953 22.438 25.1583 22.3486 25.0923 22.2827C25.0264 22.2167 24.937 22.1797 24.8438 22.1797H23.3156C23.4739 21.8507 23.5556 21.4901 23.5547 21.125V20.5391H24.8438C24.937 20.5391 25.0264 20.502 25.0923 20.4361C25.1583 20.3702 25.1953 20.2807 25.1953 20.1875C25.1953 20.0943 25.1583 20.0048 25.0923 19.9389C25.0264 19.873 24.937 19.8359 24.8438 19.8359H23.5547V18.1953H24.8438C24.937 18.1953 25.0264 18.1583 25.0923 18.0923C25.1583 18.0264 25.1953 17.937 25.1953 17.8438C25.1953 17.7505 25.1583 17.6611 25.0923 17.5952C25.0264 17.5292 24.937 17.4922 24.8438 17.4922H23.5547V15.8516H24.8438C24.937 15.8516 25.0264 15.8145 25.0923 15.7486C25.1583 15.6827 25.1953 15.5932 25.1953 15.5C25.1953 15.4068 25.1583 15.3173 25.0923 15.2514C25.0264 15.1855 24.937 15.1484 24.8438 15.1484H23.5547V10.4609H24.9609V12.6875C24.9622 12.7804 24.9996 12.8691 25.0653 12.9347C25.1309 13.0004 25.2196 13.0378 25.3125 13.0391H27.5391ZM25.1953 24.875C25.1941 24.7821 25.1567 24.6934 25.091 24.6278C25.0253 24.5621 24.9366 24.5247 24.8438 24.5234H16.4062C16.313 24.5234 16.2236 24.5605 16.1577 24.6264C16.0917 24.6923 16.0547 24.7818 16.0547 24.875C16.0547 24.9682 16.0917 25.0577 16.1577 25.1236C16.2236 25.1895 16.313 25.2266 16.4062 25.2266H24.8438C24.9366 25.2253 25.0253 25.1879 25.091 25.1222C25.1567 25.0566 25.1941 24.9679 25.1953 24.875ZM19.3359 4.71875V6.94531H16.7578V5.53906H8.55469V6.94531H5.97656V4.71875C5.97656 4.25255 6.16176 3.80544 6.49141 3.47579C6.82107 3.14614 7.26817 2.96094 7.73438 2.96094H17.5781C18.0443 2.96094 18.4914 3.14614 18.8211 3.47579C19.1507 3.80544 19.3359 4.25255 19.3359 4.71875ZM15.1172 15.5797V17.8438C15.116 18.2474 14.955 18.6342 14.6696 18.9196C14.3842 19.205 13.9974 19.366 13.5938 19.3672H11.7188C11.3151 19.366 10.9283 19.205 10.6429 18.9196C10.3575 18.6342 10.1965 18.2474 10.1953 17.8438V15.5797L2.46094 11.8672V21.125C2.46094 21.5912 2.64614 22.0383 2.97579 22.368C3.30544 22.6976 3.75255 22.8828 4.21875 22.8828H21.0938C21.56 22.8828 22.0071 22.6976 22.3367 22.368C22.6664 22.0383 22.8516 21.5912 22.8516 21.125V11.8672L15.1172 15.5797ZM21.0938 7.64844H4.21875C3.75255 7.64844 3.30544 7.83363 2.97579 8.16329C2.64614 8.49294 2.46094 8.94005 2.46094 9.40625V11.0891L10.2141 14.8109C10.266 14.449 10.4467 14.1179 10.7232 13.8785C10.9996 13.6391 11.3531 13.5075 11.7188 13.5078H13.5938C13.9594 13.5075 14.3129 13.6391 14.5893 13.8785C14.8658 14.1179 15.0465 14.449 15.0984 14.8109L22.8516 11.0891V9.40625C22.8516 8.94005 22.6664 8.49294 22.3367 8.16329C22.0071 7.83363 21.56 7.64844 21.0938 7.64844ZM13.5938 14.2109H11.7188C11.5016 14.2122 11.2936 14.299 11.1401 14.4526C10.9865 14.6061 10.8997 14.8141 10.8984 15.0312V17.8438C10.8997 18.0609 10.9865 18.2689 11.1401 18.4224C11.2936 18.576 11.5016 18.6628 11.7188 18.6641H13.5938C13.8109 18.6628 14.0189 18.576 14.1724 18.4224C14.326 18.2689 14.4128 18.0609 14.4141 17.8438V15.0312C14.4128 14.8141 14.326 14.6061 14.1724 14.4526C14.0189 14.299 13.8109 14.2122 13.5938 14.2109Z" fill="#474747"/>
</g>
</svg>
