<svg width="16" height="16" viewBox="0 0 16 16" fill="none" xmlns="http://www.w3.org/2000/svg">
<path d="M8.0001 1.53467C8.96659 1.53523 9.9204 1.75467 10.79 2.17654C11.6595 2.5984 12.4222 3.21173 13.0209 3.9705C13.6195 4.72926 14.0385 5.61376 14.2465 6.55761C14.4544 7.50146 14.4459 8.48015 14.2216 9.42024C13.9973 10.3603 13.5629 11.2374 12.9512 11.9856C12.3394 12.7339 11.5661 13.3338 10.6894 13.7405C9.8126 14.1472 8.85511 14.35 7.88876 14.3338C6.92241 14.3175 5.97229 14.0826 5.1097 13.6467L5.0129 13.5947L2.0969 14.3227C2.04078 14.3368 1.98227 14.3385 1.9254 14.3278C1.86853 14.3171 1.81466 14.2942 1.7675 14.2607C1.72035 14.2272 1.68103 14.1838 1.65227 14.1336C1.62351 14.0834 1.60598 14.0275 1.6009 13.9699V13.9043L1.6121 13.8379L2.3401 10.9227L2.2897 10.8267C1.92361 10.106 1.69825 9.32214 1.6257 8.51707L1.6057 8.21147L1.6001 7.93467C1.6001 6.23728 2.27438 4.60942 3.47461 3.40918C4.67485 2.20895 6.30271 1.53467 8.0001 1.53467ZM8.0001 2.33467C7.02287 2.33451 6.06261 2.59008 5.21474 3.07598C4.36687 3.56188 3.66092 4.2612 3.16703 5.10444C2.67314 5.94767 2.40851 6.90548 2.39943 7.88266C2.39036 8.85985 2.63715 9.8224 3.1153 10.6747C3.15242 10.7409 3.1699 10.8164 3.1657 10.8923L3.1545 10.9675L2.5497 13.3843L4.9689 12.7811C5.01808 12.7689 5.06911 12.7662 5.1193 12.7731L5.1921 12.7899L5.2617 12.8211C6.00837 13.2391 6.84091 13.4804 7.69539 13.5265C8.54986 13.5727 9.40354 13.4223 10.1909 13.0871C10.9782 12.7519 11.6782 12.2407 12.2372 11.5928C12.7962 10.9449 13.1993 10.1775 13.4155 9.34959C13.6317 8.52164 13.6553 7.65515 13.4845 6.81666C13.3136 5.97817 12.9529 5.18998 12.43 4.51262C11.9071 3.83526 11.2359 3.28674 10.468 2.9092C9.70005 2.53165 8.85582 2.33511 8.0001 2.33467ZM8.4001 8.73467C8.50005 8.73448 8.59646 8.77173 8.67032 8.83908C8.74419 8.90642 8.79017 8.99898 8.7992 9.09853C8.80823 9.19807 8.77966 9.2974 8.71912 9.37693C8.65858 9.45647 8.57046 9.51046 8.4721 9.52827L8.4001 9.53467H6.0001C5.90014 9.53485 5.80374 9.49761 5.72987 9.43026C5.656 9.36292 5.61003 9.27036 5.601 9.17081C5.59197 9.07126 5.62053 8.97194 5.68107 8.8924C5.74161 8.81287 5.82974 8.75888 5.9281 8.74107L6.0001 8.73467H8.4001ZM10.0001 6.33467C10.1001 6.33448 10.1965 6.37173 10.2703 6.43907C10.3442 6.50642 10.3902 6.59898 10.3992 6.69853C10.4082 6.79807 10.3797 6.8974 10.3191 6.97693C10.2586 7.05647 10.1705 7.11046 10.0721 7.12827L10.0001 7.13467H6.0001C5.90014 7.13485 5.80374 7.0976 5.72987 7.03026C5.656 6.96292 5.61003 6.87036 5.601 6.77081C5.59197 6.67126 5.62053 6.57194 5.68107 6.4924C5.74161 6.41287 5.82974 6.35888 5.9281 6.34107L6.0001 6.33467H10.0001Z" fill="#292D32"/>
</svg>
