<svg width="30" height="29" viewBox="0 0 30 29" fill="none" xmlns="http://www.w3.org/2000/svg">
<g opacity="0.5">
<path d="M12.7526 2.42383C13.6069 2.42383 14.0938 3.27449 14.0938 4.12879V9.36449H13.0124C12.8021 8.84459 12.4175 8.41402 11.9245 8.14657C11.4316 7.87912 10.8609 7.79145 10.3104 7.89858C9.75993 8.00571 9.26383 8.30096 8.90714 8.73375C8.55045 9.16654 8.3554 9.70991 8.3554 10.2707C8.3554 10.8316 8.55045 11.3749 8.90714 11.8077C9.26383 12.2405 9.75993 12.5358 10.3104 12.6429C10.8609 12.75 11.4316 12.6624 11.9245 12.3949C12.4175 12.1275 12.8021 11.6969 13.0124 11.177H14.0938V24.3454C14.0938 25.0656 13.7893 25.7821 13.1477 26.1096C12.5659 26.4143 11.9195 26.5751 11.2627 26.5784C9.43812 26.5784 8.08116 25.6552 7.20754 24.5629C6.60251 23.8091 6.18061 22.9252 5.97504 21.9807C5.41077 21.8142 4.88817 21.53 4.44166 21.147C3.58375 20.4087 2.91675 19.2245 2.91675 17.4797C2.91675 16.5674 2.982 15.7723 3.14633 15.1041H8.23341C9.05266 15.1041 9.73175 15.7082 9.84654 16.4949C9.32867 16.7091 8.90136 17.0967 8.63775 17.5913C8.37414 18.0858 8.29061 18.6566 8.40147 19.206C8.51233 19.7554 8.81068 20.2491 9.24545 20.6028C9.68022 20.9564 10.2244 21.148 10.7848 21.1446C11.3452 21.1413 11.8871 20.9432 12.3176 20.5844C12.7481 20.2256 13.0406 19.7283 13.1448 19.1777C13.2491 18.627 13.1588 18.0573 12.8893 17.5659C12.6198 17.0745 12.1879 16.692 11.6675 16.484C11.604 15.6166 11.2147 14.8053 10.5777 14.2131C9.94065 13.6209 9.10316 13.2917 8.23341 13.2916H4.17341C4.35436 13.142 4.55578 13.0191 4.77154 12.9267C4.64698 12.4827 4.5748 12.0256 4.55646 11.5649C4.51658 10.6767 4.6495 9.75237 4.91291 8.92949C5.17391 8.11991 5.58716 7.33087 6.16716 6.78591C6.53099 6.43139 6.99193 6.19293 7.4915 6.10079C7.73196 5.08579 8.34458 4.2472 9.12637 3.63941C10.1305 2.85641 11.4464 2.42383 12.7514 2.42383H12.7526ZM15.9063 20.5416H17.9001C18.8134 20.5416 19.6894 20.1788 20.3352 19.5329C20.981 18.8871 21.3438 18.0112 21.3438 17.0978V14.9289C21.8637 14.7186 22.2943 14.334 22.5618 13.841C22.8292 13.3481 22.9169 12.7774 22.8097 12.2269C22.7026 11.6764 22.4074 11.1803 21.9746 10.8236C21.5418 10.467 20.9984 10.2719 20.4376 10.2719C19.8767 10.2719 19.3334 10.467 18.9006 10.8236C18.4678 11.1803 18.1725 11.6764 18.0654 12.2269C17.9583 12.7774 18.046 13.3481 18.3134 13.841C18.5809 14.334 19.0114 14.7186 19.5313 14.9289V17.0978C19.5313 17.5305 19.3595 17.9454 19.0535 18.2513C18.7476 18.5572 18.3327 18.7291 17.9001 18.7291H15.9063V4.12879C15.9063 3.27449 16.3933 2.42383 17.2476 2.42383C18.555 2.42383 19.8697 2.85641 20.8738 3.63941C21.6556 4.2472 22.2682 5.08699 22.5087 6.10079C23.0162 6.18537 23.4681 6.44395 23.833 6.78591C24.413 7.33087 24.8262 8.1187 25.0872 8.92949C25.3507 9.75237 25.4836 10.6767 25.4437 11.5649C25.4232 12.0192 25.3567 12.4832 25.2286 12.9267L25.3084 12.9629C25.7555 13.1732 26.118 13.503 26.3886 13.9417C26.9022 14.7694 27.0834 15.9608 27.0834 17.4797C27.0834 19.2257 26.4164 20.4111 25.5585 21.147C25.1116 21.5302 24.5886 21.8144 24.0239 21.9807C23.8187 22.9251 23.3972 23.809 22.7926 24.5629C21.919 25.6552 20.562 26.5784 18.7362 26.5784C18.0796 26.5755 17.4332 26.4151 16.8512 26.1108C16.2108 25.7821 15.9063 25.0656 15.9063 24.3454V20.5416ZM10.1667 10.2707C10.1667 10.1105 10.2304 9.95684 10.3437 9.84353C10.457 9.73023 10.6107 9.66658 10.7709 9.66658C10.9311 9.66658 11.0848 9.73023 11.1981 9.84353C11.3114 9.95684 11.3751 10.1105 11.3751 10.2707C11.3751 10.431 11.3114 10.5847 11.1981 10.698C11.0848 10.8113 10.9311 10.8749 10.7709 10.8749C10.6107 10.8749 10.457 10.8113 10.3437 10.698C10.2304 10.5847 10.1667 10.431 10.1667 10.2707ZM10.7709 18.1249C10.6107 18.1249 10.457 18.1886 10.3437 18.3019C10.2304 18.4152 10.1667 18.5688 10.1667 18.7291C10.1667 18.8893 10.2304 19.043 10.3437 19.1563C10.457 19.2696 10.6107 19.3332 10.7709 19.3332C10.9311 19.3332 11.0848 19.2696 11.1981 19.1563C11.3114 19.043 11.3751 18.8893 11.3751 18.7291C11.3751 18.5688 11.3114 18.4152 11.1981 18.3019C11.0848 18.1886 10.9311 18.1249 10.7709 18.1249ZM19.8334 12.6874C19.8334 12.8476 19.8971 13.0013 20.0104 13.1146C20.1237 13.2279 20.2773 13.2916 20.4376 13.2916C20.5978 13.2916 20.7515 13.2279 20.8648 13.1146C20.9781 13.0013 21.0417 12.8476 21.0417 12.6874C21.0417 12.5272 20.9781 12.3735 20.8648 12.2602C20.7515 12.1469 20.5978 12.0832 20.4376 12.0832C20.2773 12.0832 20.1237 12.1469 20.0104 12.2602C19.8971 12.3735 19.8334 12.5272 19.8334 12.6874Z" fill="#474747"/>
</g>
</svg>
