<svg width="16" height="16" viewBox="0 0 16 16" fill="none" xmlns="http://www.w3.org/2000/svg">
<path d="M5.78125 9.48764C5.78125 10.3476 6.44125 11.041 7.26125 11.041H8.93458C9.64792 11.041 10.2279 10.4343 10.2279 9.68764C10.2279 8.8743 9.87458 8.58764 9.34792 8.40097L6.66125 7.46764C6.13458 7.28097 5.78125 6.9943 5.78125 6.18097C5.78125 5.4343 6.36125 4.82764 7.07458 4.82764H8.74792C9.56792 4.82764 10.2279 5.52097 10.2279 6.38097" stroke="#C80FF6" stroke-linecap="round" stroke-linejoin="round"/>
<path d="M8 3.93457V11.9346" stroke="#C80FF6" stroke-linecap="round" stroke-linejoin="round"/>
<path d="M7.99967 14.6014C11.6816 14.6014 14.6663 11.6166 14.6663 7.93473C14.6663 4.25283 11.6816 1.26807 7.99967 1.26807C4.31778 1.26807 1.33301 4.25283 1.33301 7.93473C1.33301 11.6166 4.31778 14.6014 7.99967 14.6014Z" stroke="#C80FF6" stroke-linecap="round" stroke-linejoin="round"/>
</svg>
