<svg width="32" height="31" viewBox="0 0 32 31" fill="none" xmlns="http://www.w3.org/2000/svg">
<path fill-rule="evenodd" clip-rule="evenodd" d="M9.9488 4.35132L4.29755 5.86507C3.13005 6.17882 2.43755 7.37757 2.7513 8.54507L7.76505 27.2601C8.07755 28.4263 9.27755 29.1188 10.4451 28.8063L16.7413 27.1188H13.3863C11.4888 27.1188 9.9488 25.5801 9.9488 23.6813V4.35132Z" fill="#4C5BD4"/>
<path fill-rule="evenodd" clip-rule="evenodd" d="M29.3237 23.6813V4.30627C29.3237 3.09877 28.345 2.11877 27.1362 2.11877H13.3862C12.1787 2.11877 11.1987 3.09877 11.1987 4.30627V23.6813C11.1987 24.89 12.1787 25.8688 13.3862 25.8688H27.1362C28.345 25.8688 29.3237 24.89 29.3237 23.6813ZM16.5112 22.1188H24.0112C24.5287 22.1188 24.9487 21.6988 24.9487 21.1813C24.9487 20.6638 24.5287 20.2438 24.0112 20.2438H16.5112C15.9937 20.2438 15.5737 20.6638 15.5737 21.1813C15.5737 21.6988 15.9937 22.1188 16.5112 22.1188ZM17.7612 18.9938H22.7612C23.2787 18.9938 23.6987 18.5738 23.6987 18.0563C23.6987 17.5388 23.2787 17.1188 22.7612 17.1188H17.7612C17.2437 17.1188 16.8237 17.5388 16.8237 18.0563C16.8237 18.5738 17.2437 18.9938 17.7612 18.9938ZM21.5487 10.5575C22.455 10.09 23.0737 9.14502 23.0737 8.05627C23.0737 6.50377 21.8137 5.24377 20.2612 5.24377C18.71 5.24377 17.4487 6.50377 17.4487 8.05627C17.4487 9.14502 18.0687 10.09 18.9737 10.5575C18.8412 10.5625 18.7112 10.5963 18.5925 10.655C18.5925 10.655 18.015 10.9438 17.5212 11.1913C16.78 11.5613 16.3125 12.3188 16.3125 13.1475V14.25C16.3125 14.7675 16.7325 15.1875 17.25 15.1875H23.5C24.0175 15.1875 24.4375 14.7675 24.4375 14.25V13.1888C24.4375 12.3225 23.9275 11.5388 23.1362 11.1888C22.5712 10.9388 21.8912 10.6363 21.8912 10.6363C21.7837 10.5888 21.6675 10.5625 21.5487 10.5575Z" fill="#4C5BD4"/>
</svg>
