<svg width="80" height="80" viewBox="0 0 80 80" fill="none" xmlns="http://www.w3.org/2000/svg">
<g filter="url(#filter0_i_2309_93161)">
<path d="M47.5 3.24854H32.5C17.875 6.24853 6.25 17.7485 3.25 32.4985V47.4985C6.25 62.2485 17.875 73.7485 32.5 76.7485H47.5C62.25 73.7485 73.75 62.1235 76.75 47.4985V32.4985C73.75 17.7485 62.125 6.24853 47.5 3.24854Z" fill="white"/>
<path d="M76.4737 48.75C77.1575 45.8836 77.502 42.9468 77.5 40C77.5 36.9875 77.145 34.0575 76.4737 31.25H48.75V3.52626C45.8836 2.84248 42.9468 2.49803 40 2.50001C36.9875 2.50001 34.0575 2.85501 31.25 3.52626V31.25H3.52626C2.84248 34.1164 2.49803 37.0532 2.50001 40C2.50001 43.0125 2.85501 45.9425 3.52626 48.75H31.25V76.4737C34.1164 77.1575 37.0532 77.502 40 77.5C43.0125 77.5 45.9425 77.145 48.75 76.4737V48.75H76.4737Z" fill="#FF0000"/>
</g>
<defs>
<filter id="filter0_i_2309_93161" x="0" y="0" width="80" height="80" filterUnits="userSpaceOnUse" color-interpolation-filters="sRGB">
<feFlood flood-opacity="0" result="BackgroundImageFix"/>
<feBlend mode="normal" in="SourceGraphic" in2="BackgroundImageFix" result="shape"/>
<feColorMatrix in="SourceAlpha" type="matrix" values="0 0 0 0 0 0 0 0 0 0 0 0 0 0 0 0 0 0 127 0" result="hardAlpha"/>
<feOffset/>
<feGaussianBlur stdDeviation="2"/>
<feComposite in2="hardAlpha" operator="arithmetic" k2="-1" k3="1"/>
<feColorMatrix type="matrix" values="0 0 0 0 0 0 0 0 0 0 0 0 0 0 0 0 0 0 0.25 0"/>
<feBlend mode="normal" in2="shape" result="effect1_innerShadow_2309_93161"/>
</filter>
</defs>
</svg>
