<svg width="26" height="31" viewBox="0 0 26 31" fill="none" xmlns="http://www.w3.org/2000/svg">
<path d="M19.5899 8.03114H25.1316L18.1152 1.01477V6.55646C18.1152 7.36967 18.7767 8.03114 19.5899 8.03114Z" fill="#4C5BD4"/>
<path d="M19.5899 9.78894C17.8076 9.78894 16.3574 8.33897 16.3574 6.55644V0.5H3.58601C1.80371 0.5 0.353516 1.94997 0.353516 3.7325V27.2675C0.353516 29.05 1.80371 30.5 3.58601 30.5H22.4141C24.1964 30.5 25.6466 29.05 25.6466 27.2675V9.78894H19.5899ZM5.06047 14.3233C5.06047 12.7706 5.86797 11.4039 7.08401 10.6182C6.5585 10.0432 6.23738 9.27831 6.23738 8.43945C6.23738 6.65715 7.68735 5.20695 9.46965 5.20695C11.2522 5.20695 12.7021 6.65715 12.7021 8.43945C12.7021 9.27831 12.381 10.043 11.8553 10.6182C13.0716 11.4039 13.8788 12.7706 13.8788 14.3233V15.5C13.8788 15.9855 13.4854 16.3789 12.9999 16.3789H5.93938C5.45415 16.3789 5.06047 15.9855 5.06047 15.5V14.3233ZM20.0607 25.793H5.93938C5.45415 25.793 5.06047 25.3996 5.06047 24.9141C5.06047 24.4287 5.45415 24.0352 5.93938 24.0352H20.0607C20.5459 24.0352 20.9396 24.4287 20.9396 24.9141C20.9396 25.3996 20.5459 25.793 20.0607 25.793ZM20.0607 21.0859H5.93938C5.45415 21.0859 5.06047 20.6924 5.06047 20.207C5.06047 19.7217 5.45415 19.328 5.93938 19.328H20.0607C20.5459 19.328 20.9396 19.7217 20.9396 20.207C20.9396 20.6924 20.5459 21.0859 20.0607 21.0859ZM20.0607 16.3789H17.7071C17.2216 16.3789 16.8282 15.9855 16.8282 15.5C16.8282 15.0145 17.2216 14.6211 17.7071 14.6211H20.0607C20.5459 14.6211 20.9396 15.0145 20.9396 15.5C20.9396 15.9855 20.5459 16.3789 20.0607 16.3789Z" fill="#4C5BD4"/>
</svg>
