<svg width="30" height="29" viewBox="0 0 30 29" fill="none" xmlns="http://www.w3.org/2000/svg">
<path d="M17.4167 7.25004H5.33333C5.01286 7.25004 4.70552 7.12273 4.47891 6.89613C4.25231 6.66952 4.125 6.36218 4.125 6.04171C4.125 5.72124 4.25231 5.41389 4.47891 5.18729C4.70552 4.96068 5.01286 4.83337 5.33333 4.83337H17.4167C17.7371 4.83337 18.0445 4.96068 18.2711 5.18729C18.4977 5.41389 18.625 5.72124 18.625 6.04171C18.625 6.36218 18.4977 6.66952 18.2711 6.89613C18.0445 7.12273 17.7371 7.25004 17.4167 7.25004Z" fill="#4C5BD4"/>
<path d="M11.3748 7.24996C11.0544 7.24996 10.747 7.12265 10.5204 6.89605C10.2938 6.66944 10.1665 6.3621 10.1665 6.04163V3.62496C10.1665 3.30449 10.2938 2.99715 10.5204 2.77054C10.747 2.54393 11.0544 2.41663 11.3748 2.41663C11.6953 2.41663 12.0027 2.54393 12.2293 2.77054C12.4559 2.99715 12.5832 3.30449 12.5832 3.62496V6.04163C12.5832 6.3621 12.4559 6.66944 12.2293 6.89605C12.0027 7.12265 11.6953 7.24996 11.3748 7.24996Z" fill="#4C5BD4"/>
<path d="M6.54157 21.75C6.29241 21.7502 6.0493 21.6733 5.84553 21.5299C5.64176 21.3865 5.48729 21.1837 5.40328 20.9491C5.31927 20.7145 5.30982 20.4597 5.37624 20.2196C5.44265 19.9795 5.58168 19.7657 5.77428 19.6076C7.71225 18.0215 9.30981 16.0602 10.4711 13.8415C11.7391 11.4091 12.46 8.72883 12.5832 5.98852C12.6037 5.67037 12.7465 5.37247 12.9816 5.15717C13.2167 4.94186 13.526 4.82583 13.8447 4.83335C14.0035 4.84018 14.1593 4.87825 14.3033 4.94537C14.4473 5.0125 14.5766 5.10736 14.6839 5.22453C14.7912 5.3417 14.8744 5.47889 14.9286 5.62823C14.9828 5.77757 15.007 5.93614 14.9999 6.09485C14.8606 9.19004 14.0457 12.2172 12.6122 14.964C11.302 17.4699 9.49844 19.6849 7.31007 21.4757C7.09346 21.6535 6.82179 21.7505 6.54157 21.75Z" fill="#4C5BD4"/>
<path d="M23.4583 26.5833C23.1837 26.583 22.9173 26.4891 22.7031 26.3171C22.489 26.1451 22.3398 25.9053 22.2802 25.6372L20.2562 16.5312C20.2051 16.2968 20.0753 16.087 19.8885 15.9365C19.7017 15.7861 19.469 15.704 19.2292 15.704C18.9893 15.704 18.7566 15.7861 18.5698 15.9365C18.383 16.087 18.2532 16.2968 18.2021 16.5312L16.1781 25.6372C16.1461 25.7945 16.0831 25.9439 15.9928 26.0766C15.9024 26.2093 15.7866 26.3227 15.6519 26.4101C15.5172 26.4975 15.3665 26.5572 15.2085 26.5857C15.0505 26.6142 14.8884 26.6109 14.7317 26.5761C14.575 26.5413 14.4268 26.4755 14.2958 26.3828C14.1648 26.29 14.0535 26.1721 13.9686 26.0358C13.8837 25.8996 13.8267 25.7478 13.8011 25.5893C13.7755 25.4308 13.7817 25.2688 13.8194 25.1128L15.8458 16.008C16.0176 15.2388 16.4464 14.5512 17.0614 14.0583C17.6764 13.5655 18.441 13.297 19.2292 13.297C20.0173 13.297 20.7819 13.5655 21.3969 14.0583C22.0119 14.5512 22.4407 15.2388 22.6125 16.008L24.6364 25.1128C24.7059 25.4255 24.6483 25.7531 24.4764 26.0234C24.3044 26.2938 24.0321 26.4847 23.7193 26.5543C23.6336 26.5733 23.5461 26.583 23.4583 26.5833Z" fill="#4C5BD4"/>
<path d="M12.5834 19.3333C12.3894 19.3335 12.1983 19.2867 12.0264 19.1968C10.3818 18.3454 8.98367 17.0854 7.96638 15.5379C7.33561 14.5697 6.86744 13.5048 6.58042 12.3854C6.50812 12.0779 6.55912 11.7543 6.7225 11.4839C6.88588 11.2135 7.14865 11.0179 7.45452 10.9389C7.76039 10.8599 8.08503 10.9038 8.3589 11.0613C8.63278 11.2187 8.8341 11.4772 8.91975 11.7812C9.14101 12.6467 9.50266 13.47 9.99033 14.2184C10.7812 15.4172 11.8661 16.3932 13.1417 17.0532C13.3816 17.1781 13.5727 17.38 13.6844 17.6264C13.796 17.8728 13.8217 18.1496 13.7574 18.4123C13.693 18.6751 13.5424 18.9087 13.3295 19.0757C13.1167 19.2427 12.854 19.3334 12.5834 19.3333Z" fill="#4C5BD4"/>
<path d="M22.25 21.75H16.2083C15.8879 21.75 15.5805 21.6227 15.3539 21.3961C15.1273 21.1695 15 20.8622 15 20.5417C15 20.2212 15.1273 19.9139 15.3539 19.6873C15.5805 19.4607 15.8879 19.3334 16.2083 19.3334H22.25C22.5705 19.3334 22.8778 19.4607 23.1044 19.6873C23.331 19.9139 23.4583 20.2212 23.4583 20.5417C23.4583 20.8622 23.331 21.1695 23.1044 21.3961C22.8778 21.6227 22.5705 21.75 22.25 21.75Z" fill="#4C5BD4"/>
</svg>
