<svg width="30" height="31" viewBox="0 0 30 31" fill="none" xmlns="http://www.w3.org/2000/svg">
<g clip-path="url(#clip0_2383_92886)">
<path d="M21.2994 16.3789C21.7078 18.3822 23.4836 19.8945 25.6055 19.8945C28.0283 19.8945 30 17.9229 30 15.5C30 13.0771 28.0283 11.1055 25.6055 11.1055C23.4836 11.1055 21.7078 12.6178 21.2994 14.6211H19.5117V5.77344H21.2994C21.7078 7.7767 23.4836 9.28906 25.6055 9.28906C28.0283 9.28906 30 7.31738 30 4.89453C30 2.47168 28.0283 0.5 25.6055 0.5C23.4836 0.5 21.7078 2.01236 21.2994 4.01562H18.6328C18.1474 4.01562 17.7539 4.40914 17.7539 4.89453V14.6211H15.8789V10.7539H10.0195C9.53438 10.7539 9.14062 10.3602 9.14062 9.875V4.01562H0.878906C0.39375 4.01562 0 4.40937 0 4.89453V26.1055C0 26.5906 0.39375 26.9844 0.878906 26.9844H15C15.4852 26.9844 15.8789 26.5906 15.8789 26.1055V16.3789H17.7539V26.1055C17.7539 26.5909 18.1474 26.9844 18.6328 26.9844H21.2994C21.7078 28.9876 23.4836 30.5 25.6055 30.5C28.0283 30.5 30 28.5283 30 26.1055C30 23.6826 28.0283 21.7109 25.6055 21.7109C23.4836 21.7109 21.7078 23.2233 21.2994 25.2266H19.5117V16.3789H21.2994ZM25.6055 14.6211C26.0906 14.6211 26.4844 15.0148 26.4844 15.5C26.4844 15.9852 26.0906 16.3789 25.6055 16.3789C25.1203 16.3789 24.7266 15.9852 24.7266 15.5C24.7266 15.0148 25.1203 14.6211 25.6055 14.6211ZM25.6055 4.01562C26.0906 4.01562 26.4844 4.40937 26.4844 4.89453C26.4844 5.37969 26.0906 5.77344 25.6055 5.77344C25.1203 5.77344 24.7266 5.37969 24.7266 4.89453C24.7266 4.40937 25.1203 4.01562 25.6055 4.01562ZM11.4844 22.5312H4.39453C3.90937 22.5312 3.51562 22.1375 3.51562 21.6523C3.51562 21.1672 3.90937 20.7734 4.39453 20.7734H11.4844C11.9695 20.7734 12.3633 21.1672 12.3633 21.6523C12.3633 22.1375 11.9695 22.5312 11.4844 22.5312ZM3.51562 18.1367C3.51562 17.6516 3.90937 17.2578 4.39453 17.2578H6.18164C6.6668 17.2578 7.06055 17.6516 7.06055 18.1367C7.06055 18.6219 6.6668 19.0156 6.18164 19.0156H4.39453C3.90937 19.0156 3.51562 18.6219 3.51562 18.1367ZM11.4844 19.0156H9.69727C9.21211 19.0156 8.81836 18.6219 8.81836 18.1367C8.81836 17.6516 9.21211 17.2578 9.69727 17.2578H11.4844C11.9695 17.2578 12.3633 17.6516 12.3633 18.1367C12.3633 18.6219 11.9695 19.0156 11.4844 19.0156ZM11.4844 15.5H4.39453C3.90937 15.5 3.51562 15.1062 3.51562 14.6211C3.51562 14.1359 3.90937 13.7422 4.39453 13.7422H11.4844C11.9695 13.7422 12.3633 14.1359 12.3633 14.6211C12.3633 15.1062 11.9695 15.5 11.4844 15.5Z" fill="#4C5BD4"/>
<path d="M10.8984 4.823V8.99605H15.0715L10.8984 4.823Z" fill="#4C5BD4"/>
</g>
<defs>
<clipPath id="clip0_2383_92886">
<rect width="30" height="30" fill="white" transform="translate(0 0.5)"/>
</clipPath>
</defs>
</svg>
