<svg width="24" height="24" viewBox="0 0 24 24" fill="none" xmlns="http://www.w3.org/2000/svg">
<path d="M15.8295 15.6938C14.7114 16.812 14.8512 19.0682 14.8512 19.0682H9.18061C9.18061 19.0682 9.30041 16.812 8.20224 15.6938C6.98427 14.6156 6.20557 13.0582 6.20557 11.3211C6.20557 8.12644 8.80124 5.53076 11.9959 5.53076C15.1906 5.53076 17.7863 8.12644 17.7863 11.3211C17.7863 13.0582 17.0275 14.6156 15.8295 15.6938Z" fill="#FFA800"/>
<path d="M15.011 20.8453C15.011 21.1448 14.7714 21.3844 14.4719 21.3844H9.54008C9.24058 21.3844 9.00098 21.1448 9.00098 20.8453C9.00098 20.5458 9.24058 20.3062 9.54008 20.3062H14.4519C14.7514 20.3062 15.011 20.5458 15.011 20.8453Z" fill="#FFA800"/>
<path d="M14.2722 23.0811C14.2722 23.3806 14.0326 23.6202 13.7331 23.6202H10.2788C9.97935 23.6202 9.73975 23.3806 9.73975 23.0811C9.73975 22.7816 9.97935 22.542 10.2788 22.542H13.7331C14.0326 22.542 14.2722 22.7816 14.2722 23.0811Z" fill="#FFA800"/>
<path d="M16.129 15.8935C17.4268 14.7154 18.1656 13.0582 18.1656 11.3211C18.1656 7.92674 15.3902 5.15137 11.9959 5.15137C8.60155 5.15137 5.82617 7.92674 5.82617 11.3211C5.82617 13.0981 6.60487 14.7953 7.92268 15.9534C8.90105 16.9317 8.80122 19.0083 8.80122 19.0282C8.80122 19.1281 8.84115 19.2279 8.90105 19.3078C8.98092 19.3876 9.08075 19.4276 9.18058 19.4276H14.8312C14.931 19.4276 15.0308 19.3876 15.1107 19.3078C15.1906 19.2279 15.2105 19.1281 15.2105 19.0282C15.2105 19.0083 15.1107 16.9317 16.0891 15.9534C16.109 15.9334 16.129 15.9134 16.129 15.8935ZM15.5699 15.3943C15.53 15.4143 15.51 15.4542 15.4901 15.4941C14.6115 16.4326 14.4718 17.97 14.4518 18.6888H9.55995C9.53998 17.95 9.38025 16.3527 8.44181 15.4143C7.26378 14.376 6.58491 12.8985 6.58491 11.3411C6.58491 8.34604 9.02085 5.93007 11.9959 5.93007C14.9909 5.93007 17.4069 8.36601 17.4069 11.3411C17.4069 12.8785 16.748 14.376 15.5699 15.3943Z" fill="#FFA800"/>
<path d="M15.3908 20.8452C15.3908 20.3261 14.9715 19.9268 14.4723 19.9268H9.54054C9.0214 19.9268 8.62207 20.3461 8.62207 20.8452C8.62207 21.3644 9.04137 21.7637 9.54054 21.7637H14.4524C14.9715 21.7637 15.3908 21.3644 15.3908 20.8452ZM14.4524 21.005H9.54054C9.44071 21.005 9.38081 20.9251 9.38081 20.8452C9.38081 20.7454 9.46067 20.6855 9.54054 20.6855H14.4524C14.5522 20.6855 14.6121 20.7654 14.6121 20.8452C14.6321 20.9451 14.5522 21.005 14.4524 21.005Z" fill="#FFA800"/>
<path d="M13.7336 22.1631H10.2793C9.76017 22.1631 9.36084 22.5824 9.36084 23.0816C9.36084 23.6007 9.78014 24 10.2793 24H13.7336C14.2527 24 14.652 23.5807 14.652 23.0816C14.652 22.5824 14.2327 22.1631 13.7336 22.1631ZM13.7336 23.2413H10.2793C10.1795 23.2413 10.1196 23.1614 10.1196 23.0816C10.1196 22.9817 10.1994 22.9218 10.2793 22.9218H13.7336C13.8334 22.9218 13.8933 23.0017 13.8933 23.0816C13.8933 23.1814 13.8334 23.2413 13.7336 23.2413Z" fill="#FFA800"/>
<path d="M12.3754 2.93511V0.379368C12.3754 0.179701 12.2157 0 11.9961 0C11.7964 0 11.6167 0.159734 11.6167 0.379368V2.95508C11.6167 3.15474 11.7764 3.33444 11.9961 3.33444C12.2157 3.31448 12.3754 3.15474 12.3754 2.93511Z" fill="#FFA800"/>
<path d="M18.2857 1.89674C18.106 1.77694 17.8863 1.83684 17.7665 1.99658L16.3489 4.13302C16.2291 4.31272 16.289 4.53235 16.4487 4.65215C16.5086 4.69208 16.5885 4.71205 16.6484 4.71205C16.7682 4.71205 16.888 4.65215 16.9679 4.55232L18.3855 2.41588C18.5053 2.25614 18.4454 2.01654 18.2857 1.89674Z" fill="#FFA800"/>
<path d="M7.48356 4.63235C7.54346 4.63235 7.62333 4.61239 7.68323 4.57245C7.86293 4.45265 7.90286 4.23302 7.80303 4.05332L6.42533 1.89692C6.30553 1.71721 6.08589 1.67728 5.90619 1.77712C5.72649 1.89692 5.68656 2.11655 5.78639 2.29625L7.16409 4.45265C7.24396 4.57245 7.36376 4.63235 7.48356 4.63235Z" fill="#FFA800"/>
<path d="M2.19249 6.42942L4.44873 7.64739C4.50863 7.68732 4.56853 7.68732 4.62843 7.68732C4.7682 7.68732 4.888 7.60745 4.96787 7.48765C5.0677 7.30795 5.0078 7.06835 4.80813 6.96852L2.55189 5.75055C2.37219 5.65072 2.13259 5.71062 2.03276 5.91028C1.95289 6.10995 2.01279 6.32958 2.19249 6.42942Z" fill="#FFA800"/>
<path d="M19.3639 7.70731C19.4238 7.70731 19.4837 7.68735 19.5436 7.66738L21.7998 6.44941C21.9795 6.34958 22.0594 6.12994 21.9596 5.93028C21.8597 5.75057 21.6401 5.67071 21.4404 5.77054L19.1842 6.98851C19.0045 7.08835 18.9246 7.30798 19.0244 7.50765C19.0843 7.62745 19.2241 7.70731 19.3639 7.70731Z" fill="#FFA800"/>
</svg>
