<svg width="50" height="50" viewBox="0 0 50 50" fill="none" xmlns="http://www.w3.org/2000/svg">
<g id="Group 1000007298">
<rect id="Rectangle 2" x="1" y="1" width="48" height="48" rx="4" fill="white" stroke="#3582CD" stroke-opacity="0.5"/>
<g id="Group 1000007270">
<g id="Group 1000007268">
<g id="Group">
<path id="Vector" fillRule="evenodd" clipRule="evenodd" d="M11.4759 21.4114C11.7712 21.9379 12.0168 22.6304 12.25 23.2978C15.9745 20.6688 20.498 18.4001 23.0598 18.1463C25.4009 17.9081 26.5232 19.3151 25.7709 21.565C25.1988 23.2821 22.0245 28.5371 20.069 28.4493C18.5425 28.3929 18.8845 26.3405 18.4492 25.2688C18.0637 25.7232 17.3767 26.8638 17.1155 27.2304C14.5413 30.8496 12.9184 27.3307 12.1194 24.6264C9.90587 26.0741 7.8632 27.6973 6.94917 29.1105C6.56366 29.709 6.33984 30.2292 6.80619 30.8308L6.97716 31.0439L6.70049 30.9656C5.91704 30.5551 6.20926 29.4771 6.52326 28.8661C7.30983 27.315 9.36796 25.3848 11.8427 23.5892C11.8116 23.4733 11.7867 23.3668 11.7619 23.2633C11.6064 22.6053 11.4821 22.1008 11.4759 21.4114ZM12.6199 24.3037L12.6231 24.3131C12.9153 25.062 14.1962 28.4431 15.3154 27.7412C16.6274 26.917 17.501 23.1443 19.0088 24.0718C19.7208 24.5136 19.8887 25.9582 20.0504 26.7353C20.0753 26.845 20.097 26.986 20.153 27.0957C21.3126 26.6601 23.5231 22.8435 24.0019 21.6966C24.148 21.3331 24.6517 20.064 24.2319 19.7976C23.2029 19.1459 19.6493 20.5842 18.586 21.0511C17.0875 21.7122 14.8055 22.9124 12.6199 24.3037ZM20.1809 27.1521C20.184 27.1521 20.1871 27.1552 20.1902 27.1583C20.1871 27.1552 20.184 27.1552 20.1809 27.1521Z" fill="#3582CD"/>
</g>
<path id="Vector_2" fillRule="evenodd" clipRule="evenodd" d="M7.80066 31.9463C7.97476 31.9463 8.11158 31.8053 8.11158 31.6329C8.11158 31.4606 7.97476 31.3196 7.80066 31.3196C7.62967 31.3196 7.48975 31.4606 7.48975 31.6329C7.48975 31.8053 7.62967 31.9463 7.80066 31.9463Z" fill="#3582CD"/>
</g>
<path id="o" d="M28.8247 25.5011C28.8247 25.7774 28.783 26.0248 28.6994 26.2432C28.6158 26.4571 28.4971 26.6377 28.3432 26.7847C28.1937 26.9318 28.0134 27.0433 27.8023 27.119C27.5912 27.1948 27.3559 27.2327 27.0964 27.2327C26.837 27.2327 26.6017 27.1926 26.3906 27.1123C26.1795 27.0321 25.997 26.9185 25.8431 26.7714C25.6936 26.6198 25.5771 26.4371 25.4935 26.2231C25.4099 26.0092 25.3682 25.7685 25.3682 25.5011C25.3682 25.2381 25.4099 24.9996 25.4935 24.7857C25.5771 24.5717 25.6936 24.3912 25.8431 24.2441C25.997 24.0926 26.1795 23.9767 26.3906 23.8965C26.6017 23.8162 26.837 23.7761 27.0964 23.7761C27.3559 23.7761 27.5912 23.8185 27.8023 23.9032C28.0134 23.9834 28.1937 24.0993 28.3432 24.2508C28.4971 24.3979 28.6158 24.5784 28.6994 24.7924C28.783 25.0063 28.8247 25.2425 28.8247 25.5011ZM26.516 25.5011C26.516 25.773 26.5665 25.9824 26.6677 26.1295C26.7732 26.2722 26.9183 26.3435 27.103 26.3435C27.2877 26.3435 27.4285 26.2699 27.5252 26.1228C27.6264 25.9758 27.6769 25.7685 27.6769 25.5011C27.6769 25.2336 27.6264 25.0286 27.5252 24.886C27.4241 24.7389 27.2811 24.6653 27.0964 24.6653C26.9117 24.6653 26.7688 24.7389 26.6677 24.886C26.5665 25.0286 26.516 25.2336 26.516 25.5011Z" fill="#F8971C"/>
<g id="rk247">
<path d="M30.7081 28.1699C30.6704 28.1812 30.6101 28.1925 30.5271 28.2038C30.448 28.2151 30.365 28.2208 30.2783 28.2208C30.1953 28.2208 30.1199 28.2151 30.052 28.2038C29.9879 28.1925 29.9332 28.1699 29.888 28.1359C29.8427 28.102 29.8069 28.0567 29.7805 28.0002C29.7579 27.9398 29.7466 27.8625 29.7466 27.7683V26.0714C29.7466 25.9847 29.7617 25.9111 29.7918 25.8508C29.8258 25.7867 29.8729 25.7302 29.9332 25.6811C29.9936 25.6321 30.0671 25.5887 30.1538 25.551C30.2443 25.5096 30.3405 25.4737 30.4423 25.4436C30.5441 25.4134 30.6497 25.3908 30.759 25.3757C30.8684 25.3568 30.9777 25.3474 31.0871 25.3474C31.2681 25.3474 31.4114 25.3832 31.517 25.4549C31.6226 25.5228 31.6753 25.6359 31.6753 25.7943C31.6753 25.847 31.6678 25.8998 31.6527 25.9526C31.6376 26.0016 31.6188 26.0469 31.5962 26.0884C31.517 26.0884 31.4359 26.0921 31.3529 26.0997C31.27 26.1072 31.1889 26.1185 31.1097 26.1336C31.0305 26.1487 30.9551 26.1657 30.8835 26.1845C30.8156 26.1996 30.7572 26.2185 30.7081 26.2411V28.1699Z" fill="#F8971C"/>
<path d="M34.7587 27.6778C34.7399 27.855 34.6871 27.9907 34.6003 28.085C34.5174 28.1793 34.3948 28.2264 34.2327 28.2264C34.112 28.2264 34.0046 28.1981 33.9103 28.1416C33.816 28.0812 33.7142 27.9813 33.6049 27.8418L33.0449 27.1404V28.1699C33.0034 28.1774 32.9412 28.1868 32.8582 28.1981C32.7791 28.2132 32.698 28.2208 32.615 28.2208C32.5321 28.2208 32.4567 28.2151 32.3888 28.2038C32.3247 28.1925 32.27 28.1699 32.2247 28.1359C32.1795 28.102 32.1437 28.0567 32.1173 28.0002C32.0947 27.9398 32.0833 27.8625 32.0833 27.7683V24.4933C32.1248 24.482 32.1852 24.4707 32.2643 24.4594C32.3473 24.4443 32.4303 24.4368 32.5132 24.4368C32.5962 24.4368 32.6697 24.4424 32.7338 24.4537C32.8017 24.465 32.8582 24.4877 32.9035 24.5216C32.9487 24.5555 32.9827 24.6027 33.0053 24.663C33.0317 24.7196 33.0449 24.795 33.0449 24.8893V26.3825L34.0178 25.387C34.2138 25.387 34.3703 25.4304 34.4872 25.5171C34.6079 25.6038 34.6682 25.7132 34.6682 25.8452C34.6682 25.9017 34.6588 25.9545 34.6399 26.0035C34.6211 26.0488 34.5909 26.0959 34.5494 26.1449C34.5117 26.194 34.4608 26.2468 34.3967 26.3033C34.3364 26.3561 34.2647 26.4183 34.1818 26.49L33.8537 26.7728L34.7587 27.6778Z" fill="#F8971C"/>
<path d="M36.2785 24.6517C36.4934 24.6517 36.6838 24.68 36.8497 24.7365C37.0157 24.7893 37.1571 24.8629 37.274 24.9571C37.3909 25.0514 37.4795 25.1626 37.5398 25.2909C37.6001 25.4191 37.6303 25.5567 37.6303 25.7038C37.6303 26.0997 37.4059 26.4768 36.9572 26.835L36.2163 27.4289H37.5737C37.5964 27.4704 37.6171 27.5232 37.636 27.5873C37.6586 27.6514 37.6699 27.7211 37.6699 27.7965C37.6699 27.9323 37.6397 28.0303 37.5794 28.0907C37.5191 28.1472 37.4399 28.1755 37.3418 28.1755H35.3791C35.2962 28.119 35.2302 28.0473 35.1812 27.9606C35.1359 27.8701 35.1133 27.7645 35.1133 27.6438C35.1133 27.5156 35.1397 27.4082 35.1925 27.3214C35.2453 27.2309 35.3037 27.1593 35.3678 27.1065L36.1484 26.4391C36.2464 26.3561 36.3275 26.2826 36.3916 26.2185C36.4557 26.1506 36.5066 26.0903 36.5443 26.0375C36.5858 25.9847 36.6141 25.9357 36.6292 25.8904C36.648 25.8452 36.6574 25.8018 36.6574 25.7603C36.6574 25.6547 36.6103 25.5718 36.516 25.5114C36.4255 25.4511 36.3124 25.4209 36.1767 25.4209C36.0258 25.4209 35.8901 25.4455 35.7694 25.4945C35.6525 25.5397 35.5545 25.5887 35.4753 25.6415C35.4112 25.5963 35.3584 25.5397 35.3169 25.4719C35.2754 25.404 35.2547 25.3248 35.2547 25.2343C35.2547 25.0382 35.3471 24.893 35.5319 24.7988C35.7166 24.7007 35.9655 24.6517 36.2785 24.6517Z" fill="#F8971C"/>
<path d="M39.4605 24.7761C39.5322 24.7535 39.6132 24.7347 39.7037 24.7196C39.798 24.7045 39.8829 24.697 39.9583 24.697C40.045 24.697 40.128 24.7064 40.2071 24.7252C40.2901 24.7403 40.3636 24.7686 40.4277 24.8101C40.4918 24.8478 40.5427 24.9006 40.5805 24.9685C40.6182 25.0363 40.637 25.1212 40.637 25.223V26.7275H41.1404C41.163 26.769 41.1857 26.8237 41.2083 26.8916C41.2309 26.9594 41.2422 27.0311 41.2422 27.1065C41.2422 27.2498 41.2102 27.3516 41.1461 27.4119C41.082 27.4723 41.0009 27.5024 40.9029 27.5024H40.637V28.1699C40.5955 28.1774 40.5333 28.1868 40.4504 28.1981C40.3674 28.2132 40.2882 28.2208 40.2128 28.2208C40.1298 28.2208 40.0563 28.217 39.9922 28.2095C39.9281 28.2019 39.8734 28.1849 39.8282 28.1585C39.7867 28.1284 39.7546 28.0869 39.732 28.0341C39.7094 27.9813 39.6981 27.9097 39.6981 27.8192V27.5024H38.2784C38.1917 27.4572 38.1162 27.3912 38.0521 27.3045C37.9918 27.214 37.9616 27.1046 37.9616 26.9764C37.9616 26.9048 37.9711 26.8256 37.9899 26.7388C38.0088 26.6521 38.0408 26.5767 38.0861 26.5126L39.4605 24.7761ZM39.749 25.6642H39.732L38.9797 26.7275H39.749V25.6642Z" fill="#F8971C"/>
<path d="M43.5503 24.7365C43.6144 24.778 43.6709 24.8365 43.7199 24.9119C43.7727 24.9835 43.7991 25.074 43.7991 25.1834C43.7991 25.2437 43.7935 25.3059 43.7822 25.37C43.7709 25.4304 43.752 25.4907 43.7256 25.551L42.5491 28.2151C42.4963 28.2189 42.4454 28.2208 42.3964 28.2208C42.3512 28.2208 42.3078 28.2208 42.2663 28.2208C42.0966 28.2208 41.959 28.1887 41.8534 28.1246C41.7478 28.0605 41.695 27.9493 41.695 27.7909C41.695 27.7117 41.7139 27.6269 41.7516 27.5364C41.7893 27.4421 41.8402 27.3309 41.9043 27.2026L42.7301 25.5114H41.3443C41.3217 25.47 41.2991 25.4153 41.2765 25.3474C41.2538 25.2795 41.2425 25.2079 41.2425 25.1325C41.2425 24.9892 41.2746 24.8874 41.3387 24.827C41.4028 24.7667 41.4839 24.7365 41.5819 24.7365H43.5503Z" fill="#F8971C"/>
</g>
<rect id="Rectangle 3465581" x="26.3105" y="27.5471" width="3.14233" height="0.628466" rx="0.314233" fill="#3582CD"/>
</g>
</g>
</svg>
