<svg width="19" height="18" viewBox="0 0 19 18" fill="none" xmlns="http://www.w3.org/2000/svg">
<g id="fi-rr-angle-small-left">
<path id="Vector" d="M10.2173 10.0506C10.0767 10.1912 9.88595 10.2701 9.68707 10.2701C9.4882 10.2701 9.29747 10.1912 9.15682 10.0506L5.71732 6.61181C5.57587 6.47519 5.38642 6.39959 5.18977 6.4013C4.99312 6.40301 4.80502 6.48189 4.66596 6.62094C4.5269 6.76 4.44803 6.94811 4.44632 7.14476C4.44461 7.3414 4.5202 7.53086 4.65682 7.67231L8.09632 11.1088C8.51826 11.5306 9.09045 11.7676 9.68707 11.7676C10.2837 11.7676 10.8559 11.5306 11.2778 11.1088L14.7173 7.66931C14.8539 7.52786 14.9295 7.3384 14.9278 7.14176C14.9261 6.94511 14.8472 6.757 14.7082 6.61794C14.5691 6.47889 14.381 6.40001 14.1844 6.3983C13.9877 6.39659 13.7983 6.47219 13.6568 6.60881L10.2173 10.0506Z" fill="white"/>
</g>
</svg>
