<svg width="23" height="24" viewBox="0 0 23 24" fill="none" xmlns="http://www.w3.org/2000/svg">
<g id="ep:search">
<path id="Vector" d="M17.8769 17.3619L20.6843 20.1679C20.8152 20.3034 20.8877 20.485 20.886 20.6734C20.8844 20.8619 20.8088 21.0422 20.6755 21.1754C20.5423 21.3087 20.362 21.3843 20.1736 21.3859C19.9851 21.3876 19.8035 21.3151 19.668 21.1842L16.8606 18.3767C15.026 19.9486 12.6539 20.7487 10.242 20.6093C7.8302 20.4699 5.56611 19.4017 3.92485 17.629C2.28359 15.8563 1.39274 13.5167 1.43923 11.1013C1.48573 8.6859 2.46595 6.38237 4.17422 4.6741C5.88249 2.96583 8.18601 1.98561 10.6014 1.93911C13.0168 1.89262 15.3564 2.78347 17.1291 4.42473C18.9019 6.06599 19.97 8.33009 20.1094 10.7419C20.2488 13.1538 19.4487 15.5258 17.8769 17.3604V17.3619ZM10.7814 19.1875C12.8782 19.1875 14.8892 18.3545 16.3719 16.8718C17.8546 15.3891 18.6876 13.3781 18.6876 11.2812C18.6876 9.18438 17.8546 7.17339 16.3719 5.69069C14.8892 4.20798 12.8782 3.375 10.7814 3.375C8.6845 3.375 6.67351 4.20798 5.1908 5.69069C3.70809 7.17339 2.87512 9.18438 2.87512 11.2812C2.87512 13.3781 3.70809 15.3891 5.1908 16.8718C6.67351 18.3545 8.6845 19.1875 10.7814 19.1875Z" fill="#6B6B6B"/>
</g>
</svg>
