<svg width="20" height="20" viewBox="0 0 20 20" fill="none" xmlns="http://www.w3.org/2000/svg">
<g id="vuesax/linear/filter-remove">
<g id="filter-remove">
<g id="Group">
<path id="Vector" d="M11.175 17.325L9.99997 18.0833C8.9083 18.7583 7.39163 18 7.39163 16.65V12.1917C7.39163 11.6 7.0583 10.8417 6.71663 10.425L3.51663 7.05831C3.09163 6.63331 2.7583 5.88335 2.7583 5.37501V3.44167C2.7583 2.43334 3.51663 1.67501 4.44163 1.67501H15.5583C16.4833 1.67501 17.2416 2.43336 17.2416 3.35836V5.20834C17.2416 5.88334 16.8166 6.72501 16.4 7.14168" stroke="white" strokeWidth="1.2" strokeMiterlimit="10" strokeLinecap="round" strokeLinejoin="round"/>
</g>
<path id="Vector_2" d="M18.0251 12.2917C18.0251 13.0333 17.8167 13.7333 17.4501 14.3333C16.7667 15.4833 15.5084 16.25 14.0667 16.25C12.6251 16.25 11.3667 15.475 10.6834 14.3333C10.3167 13.7417 10.1084 13.0333 10.1084 12.2917C10.1084 10.1083 11.8834 8.33334 14.0667 8.33334C16.2501 8.33334 18.0251 10.1083 18.0251 12.2917Z" stroke="white" strokeWidth="1.2" strokeMiterlimit="10" strokeLinecap="round" strokeLinejoin="round"/>
<g id="Group_2">
<path id="Vector_3" d="M15.1249 13.325L13.0332 11.2333" stroke="white" strokeWidth="1.2" strokeMiterlimit="10" strokeLinecap="round" strokeLinejoin="round"/>
<path id="Vector_4" d="M15.1083 11.2583L13.0166 13.35" stroke="white" strokeWidth="1.2" strokeMiterlimit="10" strokeLinecap="round" strokeLinejoin="round"/>
</g>
<g id="Group_3">
<path id="Vector_5" d="M17.2416 3.35001V5.19999C17.2416 5.87499 16.8166 6.71667 16.4 7.14167L14.9333 8.43333C14.6583 8.36666 14.3666 8.33333 14.0666 8.33333C11.8833 8.33333 10.1083 10.1083 10.1083 12.2917C10.1083 13.0333 10.3166 13.7333 10.6833 14.3333C10.9916 14.85 11.4166 15.2916 11.9333 15.6083V15.8917C11.9333 16.4 11.6 17.075 11.175 17.325L9.99997 18.0833C8.9083 18.7583 7.39163 18 7.39163 16.65V12.1917C7.39163 11.6 7.04997 10.8417 6.71663 10.425L3.51663 7.05831C3.09997 6.63331 2.7583 5.87501 2.7583 5.37501V3.43333C2.7583 2.42499 3.51663 1.66666 4.44163 1.66666H15.5583C16.4833 1.66666 17.2416 2.42501 17.2416 3.35001Z" stroke="white" strokeWidth="1.2" strokeMiterlimit="10" strokeLinecap="round" strokeLinejoin="round"/>
</g>
</g>
</g>
</svg>
