<svg width="18" height="18" viewBox="0 0 18 18" fill="none" xmlns="http://www.w3.org/2000/svg">
<g id="fi-rr-angle-small-left">
<path id="Vector" d="M9.5308 7.94944C9.39015 7.80884 9.19942 7.72985 9.00055 7.72985C8.80168 7.72985 8.61095 7.80884 8.4703 7.94944L5.0308 11.3882C4.88935 11.5248 4.6999 11.6004 4.50325 11.5987C4.3066 11.597 4.11849 11.5181 3.97944 11.3791C3.84038 11.24 3.7615 11.0519 3.75979 10.8552C3.75808 10.6586 3.83368 10.4691 3.9703 10.3277L7.4098 6.89119C7.83174 6.46938 8.40393 6.23242 9.00055 6.23242C9.59717 6.23242 10.1694 6.46938 10.5913 6.89119L14.0308 10.3307C14.1674 10.4721 14.243 10.6616 14.2413 10.8582C14.2396 11.0549 14.1607 11.243 14.0217 11.3821C13.8826 11.5211 13.6945 11.6 13.4979 11.6017C13.3012 11.6034 13.1118 11.5278 12.9703 11.3912L9.5308 7.94944Z" fill="white"/>
</g>
</svg>
