<svg width="24" height="24" viewBox="0 0 24 24" fill="none" xmlns="http://www.w3.org/2000/svg">
<g clip-path="url(#clip0_3029_75327)">
<rect width="24" height="24" rx="12" fill="white"/>
<path d="M12.0002 16.4242C14.4441 16.4242 16.4252 14.4431 16.4252 11.9992C16.4252 9.55536 14.4441 7.57422 12.0002 7.57422C9.55633 7.57422 7.5752 9.55536 7.5752 11.9992C7.5752 14.4431 9.55633 16.4242 12.0002 16.4242Z" fill="#FF0000"/>
<path d="M12 0C5.3728 0 0 5.3728 0 12C0 18.6272 5.3728 24 12 24C18.6272 24 24 18.6272 24 12C24 5.3728 18.6272 0 12 0ZM12 23.2C5.8244 23.2 0.8 18.1756 0.8 12C0.8 5.8244 5.8244 0.8 12 0.8C18.1756 0.8 23.2 5.8244 23.2 12C23.2 18.1756 18.1756 23.2 12 23.2Z" fill="white"/>
</g>
<defs>
<clipPath id="clip0_3029_75327">
<rect width="24" height="24" rx="12" fill="white"/>
</clipPath>
</defs>
</svg>
