<svg width="24" height="24" viewBox="0 0 24 24" fill="none" xmlns="http://www.w3.org/2000/svg">
<g clip-path="url(#clip0_1_7)">
<rect width="24" height="24" rx="12" fill="white"/>
<path d="M3.07761 8.79483L5.60923 4.99758L5.35423 4.82808L5.09998 4.6582L2.56836 8.45545L2.82336 8.62495L3.07761 8.79483ZM3.77286 9.25795L4.02673 9.42783L6.55761 5.63058L6.30373 5.4607L6.04873 5.2912L3.51786 9.08845L3.77286 9.25795ZM4.72123 9.89058L4.97623 10.0605L7.50748 6.26358L7.25286 6.09408L6.99861 5.92383L4.46698 9.72108L4.72123 9.89058ZM18.0964 15.8812L18.3506 16.0507L19.5315 14.2796L19.2772 14.1101L19.0226 13.9402L17.8421 15.7113L18.0964 15.8812ZM20.9209 15.2062L19.7407 16.977L19.9946 17.1472L20.2496 17.3167L21.4301 15.5452L21.1759 15.3757L20.9209 15.2062ZM19.2997 16.6833L20.481 14.9126L20.226 14.7427L19.9717 14.5732L18.7912 16.3443L19.0455 16.5138L19.2997 16.6833ZM17.9272 16.1355L17.6722 15.966L16.4917 17.7375L16.7456 17.9066L17.0006 18.0765L18.1811 16.3053L17.9272 16.1355ZM18.8764 16.7685L18.6214 16.5986L17.4409 18.3701L17.6951 18.54L17.9501 18.7095L19.1306 16.9383L18.8764 16.7685ZM19.5705 17.2316L18.39 19.0031L18.6442 19.173L18.8985 19.3421L20.0797 17.571L19.8247 17.4011L19.5705 17.2316ZM2.82336 15.3757L2.56836 15.5452L5.09998 19.3421L5.35423 19.173L5.60923 19.0031L3.07761 15.2062L2.82336 15.3757ZM5.12211 16.7685L4.86786 16.9383L6.04873 18.7095L6.30373 18.54L6.55761 18.3701L5.37711 16.5986L5.12211 16.7685ZM4.72123 14.1101L4.46698 14.2796L6.99861 18.0765L7.25286 17.9066L7.50748 17.7375L4.97623 13.9402L4.72123 14.1101ZM3.51786 14.9126L4.69873 16.6833L4.95298 16.5138L5.20798 16.3443L4.02673 14.5732L3.77286 14.7427L3.51786 14.9126ZM19.8247 6.59958L20.0797 6.4297L18.8985 4.6582L18.6442 4.82808L18.39 4.99758L19.5712 6.76908L19.8247 6.59958ZM17.9272 7.8652L18.1811 7.69533L17.0006 5.92383L16.7456 6.09408L16.4917 6.26358L17.6722 8.0347L17.9272 7.8652ZM19.7407 7.0237L20.9209 8.79483L21.1759 8.62495L21.4301 8.45545L20.2496 6.68433L19.9946 6.85383L19.7407 7.0237ZM20.226 9.25795L20.481 9.08845L17.9501 5.2912L17.6951 5.4607L17.4409 5.63058L19.9717 9.42783L20.226 9.25795ZM19.2772 9.89058L19.5315 9.72108L18.3506 7.94958L18.0964 8.11945L17.8421 8.28933L19.0226 10.0605L19.2772 9.89058Z" fill="#474747"/>
<path d="M12 0C5.3728 0 0 5.3728 0 12C0 18.6272 5.3728 24 12 24C18.6272 24 24 18.6272 24 12C24 5.3728 18.6272 0 12 0ZM12 23.2C5.8244 23.2 0.8 18.1756 0.8 12C0.8 5.8244 5.8244 0.8 12 0.8C18.1756 0.8 23.2 5.8244 23.2 12C23.2 18.1756 18.1756 23.2 12 23.2Z" fill="white"/>
<path d="M8.63483 12.7798C9.7873 13.5419 11.3925 13.221 12.1746 12.0979C12.9566 10.9747 14.5207 10.6538 15.7143 11.416C16.8256 12.138 17.1549 13.5419 16.5375 14.625C17.8957 12.3787 17.2784 9.45041 14.9734 7.96623C12.6273 6.44193 9.45802 7.04362 7.89396 9.33007C7.8528 9.4103 7.81164 9.49052 7.77048 9.53064C7.19424 10.6939 7.56468 12.0578 8.63483 12.7798Z" fill="#FF0000"/>
<path d="M15.7423 11.3125C14.592 10.5122 12.9897 10.8492 12.2092 12.0285C11.4286 13.2078 9.86746 13.5448 8.67606 12.7445C7.56683 11.9864 7.23816 10.5122 7.85441 9.375C6.45759 11.7337 7.11492 14.8083 9.41555 16.3667C11.7573 17.9672 14.9206 17.3354 16.4818 14.9347C16.5229 14.8504 16.5639 14.7662 16.605 14.7241C17.1802 13.5026 16.8104 12.0706 15.7423 11.3125Z" fill="#006CA2"/>
</g>
<defs>
<clipPath id="clip0_1_7">
<rect width="24" height="24" rx="12" fill="white"/>
</clipPath>
</defs>
</svg>
