<svg width="24" height="24" viewBox="0 0 24 24" fill="none" xmlns="http://www.w3.org/2000/svg">
<g clip-path="url(#clip0_3029_75321)">
<rect width="24" height="24" rx="12" fill="white"/>
<path d="M3.0781 8.79483L5.60972 4.99758L5.35472 4.82808L5.10047 4.6582L2.56885 8.45545L2.82385 8.62495L3.0781 8.79483ZM3.77335 9.25795L4.02722 9.42783L6.5581 5.63058L6.30422 5.4607L6.04922 5.2912L3.51835 9.08845L3.77335 9.25795ZM4.72172 9.89058L4.97672 10.0605L7.50797 6.26358L7.25335 6.09408L6.9991 5.92383L4.46747 9.72108L4.72172 9.89058ZM18.0968 15.8812L18.3511 16.0507L19.532 14.2796L19.2777 14.1101L19.0231 13.9402L17.8426 15.7113L18.0968 15.8812ZM20.9214 15.2062L19.7412 16.977L19.9951 17.1472L20.2501 17.3167L21.4306 15.5452L21.1763 15.3757L20.9214 15.2062ZM19.3002 16.6833L20.4815 14.9126L20.2265 14.7427L19.9722 14.5732L18.7917 16.3443L19.046 16.5138L19.3002 16.6833ZM17.9277 16.1355L17.6727 15.966L16.4922 17.7375L16.7461 17.9066L17.0011 18.0765L18.1816 16.3053L17.9277 16.1355ZM18.8769 16.7685L18.6218 16.5986L17.4413 18.3701L17.6956 18.54L17.9506 18.7095L19.1311 16.9383L18.8769 16.7685ZM19.571 17.2316L18.3905 19.0031L18.6447 19.173L18.899 19.3421L20.0802 17.571L19.8252 17.4011L19.571 17.2316ZM2.82385 15.3757L2.56885 15.5452L5.10047 19.3421L5.35472 19.173L5.60972 19.0031L3.0781 15.2062L2.82385 15.3757ZM5.1226 16.7685L4.86835 16.9383L6.04922 18.7095L6.30422 18.54L6.5581 18.3701L5.3776 16.5986L5.1226 16.7685ZM4.72172 14.1101L4.46747 14.2796L6.9991 18.0765L7.25335 17.9066L7.50797 17.7375L4.97672 13.9402L4.72172 14.1101ZM3.51835 14.9126L4.69922 16.6833L4.95347 16.5138L5.20847 16.3443L4.02722 14.5732L3.77335 14.7427L3.51835 14.9126ZM19.8252 6.59958L20.0802 6.4297L18.899 4.6582L18.6447 4.82808L18.3905 4.99758L19.5717 6.76908L19.8252 6.59958ZM17.9277 7.8652L18.1816 7.69533L17.0011 5.92383L16.7461 6.09408L16.4922 6.26358L17.6727 8.0347L17.9277 7.8652ZM19.7412 7.0237L20.9214 8.79483L21.1763 8.62495L21.4306 8.45545L20.2501 6.68433L19.9951 6.85383L19.7412 7.0237ZM20.2265 9.25795L20.4815 9.08845L17.9506 5.2912L17.6956 5.4607L17.4413 5.63058L19.9722 9.42783L20.2265 9.25795ZM19.2777 9.89058L19.532 9.72108L18.3511 7.94958L18.0968 8.11945L17.8426 8.28933L19.0231 10.0605L19.2777 9.89058Z" fill="white"/>
<path d="M12 0C5.3728 0 0 5.3728 0 12C0 18.6272 5.3728 24 12 24C18.6272 24 24 18.6272 24 12C24 5.3728 18.6272 0 12 0ZM12 23.2C5.8244 23.2 0.8 18.1756 0.8 12C0.8 5.8244 5.8244 0.8 12 0.8C18.1756 0.8 23.2 5.8244 23.2 12C23.2 18.1756 18.1756 23.2 12 23.2Z" fill="white"/>
<path d="M8.63483 12.7798C9.7873 13.5419 11.3925 13.221 12.1746 12.0979C12.9566 10.9747 14.5207 10.6538 15.7143 11.416C16.8256 12.138 17.1549 13.5419 16.5375 14.625C17.8957 12.3787 17.2784 9.45041 14.9734 7.96623C12.6273 6.44193 9.45802 7.04362 7.89396 9.33007C7.8528 9.4103 7.81164 9.49052 7.77048 9.53064C7.19424 10.6939 7.56468 12.0578 8.63483 12.7798Z" fill="#FF0000"/>
<path d="M15.7423 11.3125C14.592 10.5122 12.9897 10.8492 12.2092 12.0285C11.4286 13.2078 9.86746 13.5448 8.67606 12.7445C7.56683 11.9864 7.23816 10.5122 7.85441 9.375C6.45759 11.7337 7.11492 14.8083 9.41555 16.3667C11.7573 17.9672 14.9206 17.3354 16.4818 14.9347C16.5229 14.8504 16.5639 14.7662 16.605 14.7241C17.1802 13.5026 16.8104 12.0706 15.7423 11.3125Z" fill="#006CA2"/>
</g>
<defs>
<clipPath id="clip0_3029_75321">
<rect width="24" height="24" rx="12" fill="white"/>
</clipPath>
</defs>
</svg>
