<svg width="90" height="90" viewBox="0 0 90 90" fill="none" xmlns="http://www.w3.org/2000/svg">
<g id="Frame 1000008784">
<rect width="90" height="90" rx="45" fill="white"/>
<rect x="0.5" y="0.5" width="89" height="89" rx="44.5" stroke="#3582CD" stroke-opacity="0.5"/>
<path id="Ellipse 1147" d="M84 76C84 79.866 80.866 83 77 83C73.134 83 70 79.866 70 76C70 72.134 73.134 69 77 69C80.866 69 84 72.134 84 76Z" fill="#5DC22D" stroke="white" strokeWidth="2"/>
<g id="Group 1000007269">
<g id="Group 1000007268">
<g id="Group">
<path id="Vector" fillRule="evenodd" clipRule="evenodd" d="M21.1781 38.2405C21.6882 39.1503 22.1123 40.3472 22.515 41.5007C28.9472 36.957 36.7592 33.0361 41.1834 32.5974C45.2263 32.1858 47.1646 34.6174 45.8653 38.5059C44.8774 41.4737 39.3954 50.5557 36.0182 50.4041C33.382 50.3066 33.9726 46.7593 33.221 44.9072C32.5552 45.6925 31.3687 47.6638 30.9177 48.2974C26.4721 54.5525 23.6694 48.4707 22.2895 43.797C18.4667 46.299 14.9391 49.1043 13.3606 51.5468C12.6948 52.5812 12.3083 53.4802 13.1137 54.52L13.4089 54.8882L12.9311 54.7529C11.5781 54.0434 12.0828 52.1804 12.625 51.1244C13.9834 48.4436 17.5378 45.1076 21.8116 42.0044C21.7579 41.804 21.7149 41.6199 21.672 41.4412C21.4035 40.3039 21.1889 39.4319 21.1781 38.2405ZM23.1539 43.2392L23.1593 43.2554C23.664 44.5497 25.876 50.3932 27.8089 49.1801C30.0747 47.7558 31.5833 41.2354 34.1874 42.8384C35.4169 43.602 35.7069 46.0986 35.9861 47.4417C36.0291 47.6313 36.0666 47.875 36.1633 48.0645C38.1659 47.3117 41.9834 40.7155 42.8102 38.7333C43.0626 38.1051 43.9324 35.9118 43.2076 35.4514C41.4304 34.325 35.2935 36.8108 33.4572 37.6177C30.8693 38.7604 26.9284 40.8346 23.1539 43.2392ZM36.2116 48.162C36.217 48.162 36.2223 48.1674 36.2276 48.1728C36.2223 48.1674 36.217 48.1674 36.2116 48.162Z" fill="#3582CD"/>
</g>
<path id="Vector_2" fillRule="evenodd" clipRule="evenodd" d="M14.8314 56.4477C15.132 56.4477 15.3683 56.2039 15.3683 55.9061C15.3683 55.6082 15.132 55.3645 14.8314 55.3645C14.5361 55.3645 14.2944 55.6082 14.2944 55.9061C14.2944 56.2039 14.5361 56.4477 14.8314 56.4477Z" fill="#3582CD"/>
</g>
<path id="o" d="M51.1379 45.3091C51.1379 45.7867 51.0657 46.2143 50.9214 46.5917C50.7771 46.9615 50.5721 47.2735 50.3063 47.5277C50.048 47.7819 49.7367 47.9745 49.3721 48.1054C49.0076 48.2364 48.6013 48.3019 48.1532 48.3019C47.7051 48.3019 47.2988 48.2326 46.9342 48.0939C46.5697 47.9552 46.2545 47.7588 45.9887 47.5046C45.7305 47.2427 45.5292 46.9268 45.3849 46.5571C45.2406 46.1873 45.1685 45.7713 45.1685 45.3091C45.1685 44.8546 45.2406 44.4425 45.3849 44.0727C45.5292 43.703 45.7305 43.391 45.9887 43.1368C46.2545 42.8749 46.5697 42.6746 46.9342 42.5359C47.2988 42.3973 47.7051 42.3279 48.1532 42.3279C48.6013 42.3279 49.0076 42.4011 49.3721 42.5475C49.7367 42.6861 50.048 42.8864 50.3063 43.1483C50.5721 43.4025 50.7771 43.7145 50.9214 44.0843C51.0657 44.4541 51.1379 44.8623 51.1379 45.3091ZM47.1507 45.3091C47.1507 45.779 47.238 46.1411 47.4127 46.3953C47.595 46.6418 47.8456 46.7651 48.1646 46.7651C48.4835 46.7651 48.7266 46.638 48.8936 46.3837C49.0683 46.1295 49.1557 45.7713 49.1557 45.3091C49.1557 44.8469 49.0683 44.4926 48.8936 44.2461C48.719 43.9919 48.4721 43.8647 48.1532 43.8647C47.8342 43.8647 47.5874 43.9919 47.4127 44.2461C47.238 44.4926 47.1507 44.8469 47.1507 45.3091Z" fill="#F8971C"/>
<g id="rk247">
<path d="M54.392 49.9211C54.3269 49.9407 54.2227 49.9602 54.0794 49.9798C53.9427 49.9993 53.7994 50.0091 53.6497 50.0091C53.5064 50.0091 53.3761 49.9993 53.2589 49.9798C53.1482 49.9602 53.0538 49.9211 52.9756 49.8625C52.8975 49.8038 52.8356 49.7256 52.7901 49.6279C52.751 49.5236 52.7314 49.39 52.7314 49.2271V46.2944C52.7314 46.1445 52.7575 46.0174 52.8096 45.9132C52.8682 45.8024 52.9496 45.7046 53.0538 45.6199C53.158 45.5352 53.285 45.4602 53.4348 45.3951C53.591 45.3234 53.7571 45.2615 53.9329 45.2093C54.1088 45.1572 54.2911 45.1181 54.4799 45.092C54.6688 45.0594 54.8576 45.0431 55.0465 45.0431C55.3591 45.0431 55.6065 45.105 55.7889 45.2289C55.9712 45.3462 56.0624 45.5417 56.0624 45.8154C56.0624 45.9066 56.0494 45.9979 56.0233 46.0891C55.9973 46.1738 55.9647 46.252 55.9256 46.3237C55.7889 46.3237 55.6489 46.3303 55.5056 46.3433C55.3623 46.3563 55.2223 46.3759 55.0856 46.4019C54.9488 46.428 54.8186 46.4573 54.6948 46.4899C54.5776 46.516 54.4767 46.5486 54.392 46.5877V49.9211Z" fill="#F8971C"/>
<path d="M61.3873 49.0707C61.3548 49.377 61.2636 49.6116 61.1138 49.7745C60.9705 49.9374 60.7589 50.0189 60.4789 50.0189C60.2705 50.0189 60.0849 49.97 59.9221 49.8723C59.7593 49.768 59.5835 49.5953 59.3946 49.3542L58.4276 48.142V49.9211C58.3559 49.9342 58.2485 49.9505 58.1052 49.97C57.9685 49.9961 57.8285 50.0091 57.6852 50.0091C57.5419 50.0091 57.4117 49.9993 57.2945 49.9798C57.1838 49.9602 57.0893 49.9211 57.0112 49.8625C56.933 49.8038 56.8712 49.7256 56.8256 49.6279C56.7865 49.5236 56.767 49.39 56.767 49.2271V43.567C56.8386 43.5475 56.9428 43.5279 57.0796 43.5084C57.2228 43.4823 57.3661 43.4693 57.5094 43.4693C57.6526 43.4693 57.7796 43.479 57.8903 43.4986C58.0075 43.5181 58.1052 43.5572 58.1834 43.6159C58.2615 43.6746 58.3201 43.756 58.3592 43.8603C58.4048 43.958 58.4276 44.0884 58.4276 44.2513V46.8321L60.1077 45.1116C60.4463 45.1116 60.7166 45.1865 60.9184 45.3364C61.1268 45.4863 61.231 45.6753 61.231 45.9034C61.231 46.0011 61.2147 46.0924 61.1822 46.1771C61.1496 46.2553 61.0975 46.3368 61.0259 46.4215C60.9608 46.5062 60.8729 46.5974 60.7622 46.6952C60.658 46.7864 60.5342 46.894 60.391 47.0178L59.8244 47.5066L61.3873 49.0707Z" fill="#F8971C"/>
<path d="M64.0119 43.8407C64.3831 43.8407 64.7119 43.8896 64.9985 43.9874C65.285 44.0786 65.5292 44.2057 65.7311 44.3686C65.933 44.5315 66.086 44.7238 66.1902 44.9454C66.2944 45.167 66.3465 45.4048 66.3465 45.659C66.3465 46.3433 65.959 46.995 65.1841 47.6141L63.9044 48.6405H66.2488C66.2879 48.7122 66.3237 48.8035 66.3562 48.9143C66.3953 49.025 66.4149 49.1456 66.4149 49.276C66.4149 49.5106 66.3628 49.68 66.2586 49.7843C66.1544 49.882 66.0176 49.9309 65.8483 49.9309H62.4588C62.3155 49.8332 62.2015 49.7093 62.1169 49.5594C62.0387 49.403 61.9997 49.2206 61.9997 49.012C61.9997 48.7904 62.0452 48.6047 62.1364 48.4548C62.2276 48.2984 62.3285 48.1746 62.4392 48.0833L63.7872 46.9298C63.9565 46.7864 64.0966 46.6594 64.2073 46.5486C64.318 46.4313 64.4059 46.327 64.471 46.2358C64.5426 46.1445 64.5915 46.0598 64.6175 45.9816C64.6501 45.9034 64.6664 45.8284 64.6664 45.7568C64.6664 45.5743 64.585 45.4309 64.4222 45.3266C64.2659 45.2224 64.0705 45.1702 63.8361 45.1702C63.5756 45.1702 63.3411 45.2126 63.1328 45.2973C62.9309 45.3755 62.7616 45.4602 62.6248 45.5515C62.5141 45.4733 62.4229 45.3755 62.3513 45.2582C62.2797 45.1409 62.2439 45.004 62.2439 44.8476C62.2439 44.5087 62.4034 44.2578 62.7225 44.0949C63.0416 43.9255 63.4714 43.8407 64.0119 43.8407Z" fill="#F8971C"/>
<path d="M69.5072 44.0558C69.631 44.0167 69.771 43.9841 69.9273 43.958C70.0901 43.932 70.2366 43.9189 70.3668 43.9189C70.5166 43.9189 70.6599 43.9352 70.7966 43.9678C70.9399 43.9939 71.0669 44.0428 71.1776 44.1145C71.2883 44.1796 71.3762 44.2709 71.4413 44.3882C71.5065 44.5055 71.539 44.6521 71.539 44.8281V47.4284H72.4084C72.4474 47.5001 72.4865 47.5946 72.5256 47.7119C72.5647 47.8292 72.5842 47.953 72.5842 48.0833C72.5842 48.331 72.5289 48.5069 72.4181 48.6112C72.3074 48.7155 72.1674 48.7676 71.9981 48.7676H71.539V49.9211C71.4674 49.9342 71.3599 49.9505 71.2167 49.97C71.0734 49.9961 70.9366 50.0091 70.8064 50.0091C70.6631 50.0091 70.5361 50.0026 70.4254 49.9896C70.3147 49.9765 70.2203 49.9472 70.1422 49.9016C70.0705 49.8495 70.0152 49.7778 69.9761 49.6865C69.937 49.5953 69.9175 49.4715 69.9175 49.3151V48.7676H67.4657C67.3159 48.6894 67.1857 48.5754 67.075 48.4255C66.9708 48.2691 66.9187 48.0801 66.9187 47.8585C66.9187 47.7347 66.935 47.5978 66.9675 47.4479C67.0001 47.298 67.0554 47.1677 67.1336 47.0569L69.5072 44.0558ZM70.0054 45.5906H69.9761L68.6769 47.4284H70.0054V45.5906Z" fill="#F8971C"/>
<path d="M76.5701 43.9874C76.6808 44.0591 76.7785 44.1601 76.8632 44.2904C76.9544 44.4142 76.9999 44.5706 76.9999 44.7596C76.9999 44.8639 76.9902 44.9714 76.9706 45.0822C76.9511 45.1865 76.9185 45.2908 76.873 45.3951L74.8412 49.9993C74.75 50.0059 74.6621 50.0091 74.5774 50.0091C74.4993 50.0091 74.4244 50.0091 74.3528 50.0091C74.0597 50.0091 73.822 49.9537 73.6397 49.8429C73.4574 49.7321 73.3662 49.5399 73.3662 49.2662C73.3662 49.1293 73.3987 48.9827 73.4639 48.8263C73.529 48.6634 73.6169 48.4711 73.7276 48.2495L75.1538 45.3266H72.7606C72.7215 45.2549 72.6824 45.1604 72.6433 45.0431C72.6043 44.9258 72.5847 44.802 72.5847 44.6717C72.5847 44.424 72.6401 44.2481 72.7508 44.1438C72.8615 44.0395 73.0015 43.9874 73.1708 43.9874H76.5701Z" fill="#F8971C"/>
</g>
<rect id="Rectangle 3465581" x="46.7964" y="48.8446" width="5.42675" height="1.08617" rx="0.543087" fill="#3582CD"/>
</g>
</g>
</svg>
