<svg width="25" height="24" viewBox="0 0 25 24" fill="none" xmlns="http://www.w3.org/2000/svg">
<g id="vuesax/linear/messages">
<g id="messages">
<g id="Group">
<path id="Vector" d="M18.1104 10.79V14.79C18.1104 15.05 18.1004 15.3 18.0704 15.54C17.8404 18.24 16.2504 19.58 13.3204 19.58H12.9204C12.6704 19.58 12.4304 19.7 12.2804 19.9L11.0804 21.5C10.5504 22.21 9.69037 22.21 9.16037 21.5L7.96036 19.9C7.83036 19.73 7.54037 19.58 7.32037 19.58H6.92038C3.73038 19.58 2.13037 18.79 2.13037 14.79V10.79C2.13037 7.86001 3.48038 6.27001 6.17038 6.04001C6.41038 6.01001 6.66038 6 6.92038 6H13.3204C16.5104 6 18.1104 7.60001 18.1104 10.79Z" stroke="white" strokeWidth="1.5" strokeMiterlimit="10" strokeLinecap="round" strokeLinejoin="round"/>
</g>
<path id="Vector_2" d="M22.1104 6.79001V10.79C22.1104 13.73 20.7604 15.31 18.0704 15.54C18.1004 15.3 18.1104 15.05 18.1104 14.79V10.79C18.1104 7.60001 16.5104 6 13.3204 6H6.92041C6.66041 6 6.41041 6.01001 6.17041 6.04001C6.40041 3.35001 7.99041 2 10.9204 2H17.3204C20.5104 2 22.1104 3.60001 22.1104 6.79001Z" stroke="white" strokeWidth="1.5" strokeMiterlimit="10" strokeLinecap="round" strokeLinejoin="round"/>
<path id="Vector_3" d="M13.6259 13.25H13.6349" stroke="white" strokeWidth="2" strokeLinecap="round" strokeLinejoin="round"/>
<path id="Vector_4" d="M10.1259 13.25H10.1349" stroke="white" strokeWidth="2" strokeLinecap="round" strokeLinejoin="round"/>
<path id="Vector_5" d="M6.62587 13.25H6.63487" stroke="white" strokeWidth="2" strokeLinecap="round" strokeLinejoin="round"/>
</g>
</g>
</svg>
