<svg width="16" height="17" viewBox="0 0 16 17" fill="none" xmlns="http://www.w3.org/2000/svg">
<path d="M13.4713 1.38289C14.4441 0.810684 15.6743 1.64038 15.5026 2.78479L13.8146 13.8569C13.7288 14.2861 13.4999 14.6294 13.128 14.8583C12.8991 14.9727 12.6702 15.03 12.4413 15.03C12.2697 15.03 12.098 15.0014 11.9264 14.9155L8.72202 13.5995L7.46317 15.2875C6.69069 16.346 5.00269 15.8024 5.00269 14.4578V12.0545L1.71251 10.7098C0.653931 10.2807 0.5681 8.82155 1.56946 8.24934L13.4713 1.38289ZM6.37598 14.4578L7.40594 13.0559L6.37598 12.6267V14.4578ZM12.4413 13.6567L14.158 2.55591L2.2561 9.42236L5.3174 10.7098L11.3828 5.44554C11.7833 5.07361 12.3555 5.58859 12.0694 6.04636L8.03537 11.8256L12.4413 13.6567Z" fill="white"/>
</svg>
