<svg width="17" height="17" viewBox="0 0 17 17" fill="none" xmlns="http://www.w3.org/2000/svg">
<g id="eva:arrow-up-fill">
<path id="Vector" d="M5.51807 5.66661L11.4822 5.66661C11.7177 5.66627 11.9484 5.73261 12.1478 5.85797C12.3471 5.98333 12.5068 6.16256 12.6085 6.37494C12.7275 6.62692 12.7733 6.90728 12.7408 7.18405C12.7082 7.46082 12.5986 7.72288 12.4243 7.94036L9.44223 11.5529C9.3252 11.6879 9.18052 11.7962 9.01797 11.8704C8.85543 11.9446 8.67883 11.983 8.50015 11.983C8.32146 11.983 8.14487 11.9446 7.98232 11.8704C7.81978 11.7962 7.67509 11.6879 7.55807 11.5529L4.57598 7.94036C4.40173 7.72288 4.29207 7.46082 4.25951 7.18405C4.22695 6.90727 4.27279 6.62692 4.39182 6.37494C4.49349 6.16256 4.65323 5.98333 4.85255 5.85797C5.05187 5.73261 5.28261 5.66627 5.51807 5.66661Z" fill="#474747"/>
</g>
</svg>
