<svg width="21" height="20" viewBox="0 0 21 20" fill="none" xmlns="http://www.w3.org/2000/svg">
<g id="fluent:arrow-sync-20-regular">
<path id="Vector" d="M16.8656 11.4138C16.9594 11.5075 17.0865 11.5602 17.2191 11.5602C17.3517 11.5602 17.4789 11.5075 17.5726 11.4138L19.6936 9.29278C19.7847 9.19848 19.8351 9.07218 19.834 8.94108C19.8328 8.80998 19.7802 8.68458 19.6875 8.59187C19.5948 8.49917 19.4694 8.44659 19.3383 8.44545C19.2072 8.44431 19.0809 8.4947 18.9866 8.58578L17.9896 9.58278C17.9042 8.04565 17.3478 6.57204 16.396 5.36204C15.4441 4.15203 14.143 3.26425 12.6692 2.81922C11.1954 2.37419 9.62042 2.39348 8.15797 2.87446C6.69553 3.35545 5.41653 4.27483 4.49463 5.50778C4.41506 5.61387 4.3809 5.74722 4.39965 5.87849C4.41841 6.00977 4.48854 6.12822 4.59463 6.20778C4.70071 6.28735 4.83406 6.32151 4.96534 6.30276C5.09661 6.284 5.21506 6.21387 5.29463 6.10778C6.11533 5.00979 7.26216 4.19938 8.57117 3.79239C9.88018 3.38541 11.2843 3.40269 12.5829 3.84177C13.8815 4.28085 15.0081 5.11924 15.8015 6.23709C16.5949 7.35495 17.0146 8.69504 17.0006 10.0658C17.0006 10.0898 17.0026 10.1158 17.0056 10.1388L15.4516 8.58578C15.3573 8.4947 15.231 8.44431 15.0999 8.44545C14.9688 8.44658 14.8434 8.49917 14.7507 8.59187C14.658 8.68458 14.6054 8.80998 14.6043 8.94108C14.6032 9.07218 14.6535 9.19848 14.7446 9.29278L16.8656 11.4138ZM4.13763 8.58578C4.04386 8.49205 3.91671 8.43939 3.78413 8.43939C3.65155 8.43939 3.52439 8.49205 3.43063 8.58578L1.30963 10.7068C1.21855 10.8011 1.16815 10.9274 1.16929 11.0585C1.17043 11.1896 1.22301 11.315 1.31572 11.4077C1.40842 11.5004 1.53383 11.553 1.66493 11.5541C1.79602 11.5553 1.92233 11.5049 2.01663 11.4138L3.01363 10.4168C3.09907 11.9539 3.65547 13.4275 4.60729 14.6375C5.55912 15.8475 6.86025 16.7353 8.33403 17.1803C9.80781 17.6254 11.3828 17.6061 12.8453 17.1251C14.3077 16.6441 15.5867 15.7247 16.5086 14.4918C16.548 14.4393 16.5767 14.3795 16.593 14.3159C16.6093 14.2523 16.6129 14.1861 16.6036 14.1211C16.5943 14.0561 16.5723 13.9935 16.5389 13.937C16.5054 13.8805 16.4612 13.8312 16.4086 13.7918C16.3561 13.7524 16.2963 13.7237 16.2327 13.7074C16.1691 13.6911 16.1029 13.6875 16.0379 13.6968C15.9729 13.7061 15.9104 13.7281 15.8539 13.7615C15.7974 13.795 15.748 13.8393 15.7086 13.8918C14.8879 14.9898 13.741 15.8003 12.4318 16.2073C11.1227 16.6142 9.71848 16.5969 8.41983 16.1577C7.12119 15.7184 5.99466 14.8799 5.2013 13.7619C4.40795 12.6438 3.9884 11.3036 4.00263 9.93278C4.00274 9.90836 4.00107 9.88396 3.99763 9.85978L5.55163 11.4138C5.59775 11.4615 5.65292 11.4996 5.71393 11.5258C5.77493 11.552 5.84054 11.5658 5.90693 11.5664C5.97332 11.567 6.03916 11.5543 6.1006 11.5292C6.16205 11.5041 6.21788 11.4669 6.26483 11.42C6.31177 11.373 6.3489 11.3172 6.37404 11.2558C6.39918 11.1943 6.41183 11.1285 6.41125 11.0621C6.41068 10.9957 6.39688 10.9301 6.37068 10.8691C6.34447 10.8081 6.30638 10.7529 6.25863 10.7068L4.13763 8.58578Z" fill="#4C5BD4"/>
</g>
</svg>
