<svg width="25" height="24" viewBox="0 0 25 24" fill="none" xmlns="http://www.w3.org/2000/svg">
<g id="fluent:scan-person-16-regular">
<path id="Vector" d="M7.25 3C6.25544 3 5.30161 3.39509 4.59835 4.09835C3.89509 4.80161 3.5 5.75544 3.5 6.75V8.25C3.5 8.44891 3.57902 8.63968 3.71967 8.78033C3.86032 8.92098 4.05109 9 4.25 9C4.44891 9 4.63968 8.92098 4.78033 8.78033C4.92098 8.63968 5 8.44891 5 8.25V6.75C5 6.15326 5.23705 5.58097 5.65901 5.15901C6.08097 4.73705 6.65326 4.5 7.25 4.5H8.75C8.94891 4.5 9.13968 4.42098 9.28033 4.28033C9.42098 4.13968 9.5 3.94891 9.5 3.75C9.5 3.55109 9.42098 3.36032 9.28033 3.21967C9.13968 3.07902 8.94891 3 8.75 3H7.25ZM16.25 3C16.0511 3 15.8603 3.07902 15.7197 3.21967C15.579 3.36032 15.5 3.55109 15.5 3.75C15.5 3.94891 15.579 4.13968 15.7197 4.28033C15.8603 4.42098 16.0511 4.5 16.25 4.5H17.75C18.3467 4.5 18.919 4.73705 19.341 5.15901C19.7629 5.58097 20 6.15326 20 6.75V8.25C20 8.44891 20.079 8.63968 20.2197 8.78033C20.3603 8.92098 20.5511 9 20.75 9C20.9489 9 21.1397 8.92098 21.2803 8.78033C21.421 8.63968 21.5 8.44891 21.5 8.25V6.75C21.5 5.75544 21.1049 4.80161 20.4016 4.09835C19.6984 3.39509 18.7446 3 17.75 3H16.25ZM5 15.75C5 15.5511 4.92098 15.3603 4.78033 15.2197C4.63968 15.079 4.44891 15 4.25 15C4.05109 15 3.86032 15.079 3.71967 15.2197C3.57902 15.3603 3.5 15.5511 3.5 15.75V17.25C3.5 18.2446 3.89509 19.1984 4.59835 19.9016C5.30161 20.6049 6.25544 21 7.25 21H8.75C8.94891 21 9.13968 20.921 9.28033 20.7803C9.42098 20.6397 9.5 20.4489 9.5 20.25C9.5 20.0511 9.42098 19.8603 9.28033 19.7197C9.13968 19.579 8.94891 19.5 8.75 19.5H7.25C7.163 19.5 7.076 19.4955 6.992 19.485H6.977C6.43132 19.4183 5.92894 19.1541 5.56471 18.7424C5.20048 18.3306 4.9996 17.7997 5 17.25V15.75ZM21.5 15.75C21.5 15.5511 21.421 15.3603 21.2803 15.2197C21.1397 15.079 20.9489 15 20.75 15C20.5511 15 20.3603 15.079 20.2197 15.2197C20.079 15.3603 20 15.5511 20 15.75V17.25C20 17.8467 19.7629 18.419 19.341 18.841C18.919 19.2629 18.3467 19.5 17.75 19.5H16.25C16.0511 19.5 15.8603 19.579 15.7197 19.7197C15.579 19.8603 15.5 20.0511 15.5 20.25C15.5 20.4489 15.579 20.6397 15.7197 20.7803C15.8603 20.921 16.0511 21 16.25 21H17.75C18.7446 21 19.6984 20.6049 20.4016 19.9016C21.1049 19.1984 21.5 18.2446 21.5 17.25V15.75ZM8.0645 18C8.02023 17.7525 7.99864 17.5014 8 17.25C8 17.0511 8.07902 16.8603 8.21967 16.7197C8.36032 16.579 8.55109 16.5 8.75 16.5H16.25C16.4489 16.5 16.6397 16.579 16.7803 16.7197C16.921 16.8603 17 17.0511 17 17.25C17 17.5155 16.9775 17.7645 16.934 18H17.7515C17.9433 18.0003 18.128 17.9271 18.2675 17.7954C18.407 17.6637 18.4908 17.4835 18.5015 17.292V17.25C18.5015 16.6533 18.2644 16.081 17.8425 15.659C17.4205 15.2371 16.8482 15 16.2515 15H8.7515C8.16627 14.9993 7.60381 15.2267 7.18345 15.6339C6.7631 16.0411 6.51795 16.596 6.5 17.181V17.25C6.5 17.4489 6.57902 17.6397 6.71967 17.7803C6.86032 17.921 7.05109 18 7.25 18H8.0645ZM14.375 10.125C14.375 9.62772 14.1775 9.15081 13.8258 8.79917C13.4742 8.44754 12.9973 8.25 12.5 8.25C12.0027 8.25 11.5258 8.44754 11.1742 8.79917C10.8225 9.15081 10.625 9.62772 10.625 10.125C10.625 10.6223 10.8225 11.0992 11.1742 11.4508C11.5258 11.8025 12.0027 12 12.5 12C12.9973 12 13.4742 11.8025 13.8258 11.4508C14.1775 11.0992 14.375 10.6223 14.375 10.125ZM15.875 10.125C15.875 11.0201 15.5194 11.8785 14.8865 12.5115C14.2535 13.1444 13.3951 13.5 12.5 13.5C11.6049 13.5 10.7464 13.1444 10.1135 12.5115C9.48058 11.8785 9.125 11.0201 9.125 10.125C9.125 9.22989 9.48058 8.37145 10.1135 7.73851C10.7464 7.10558 11.6049 6.75 12.5 6.75C13.3951 6.75 14.2535 7.10558 14.8865 7.73851C15.5194 8.37145 15.875 9.22989 15.875 10.125Z" fill="#4C5BD4"/>
</g>
</svg>
