<svg width="60" height="60" viewBox="0 0 60 60" fill="none" xmlns="http://www.w3.org/2000/svg">
<circle cx="30" cy="30" r="30" fill="#FFA105"/>
<g clip-path="url(#clip0_737_35786)">
<path d="M23.3472 20.5237H27.2377V24.4142H23.3472V20.5237Z" fill="white"/>
<path d="M36.1186 22.5311H41.6605L34.644 15.5148V21.0566C34.644 21.8697 35.3056 22.5311 36.1186 22.5311Z" fill="white"/>
<path d="M36.1196 24.289C34.3373 24.289 32.8872 22.839 32.8872 21.0567V15H21.0571C19.2748 15 17.8247 16.4501 17.8247 18.2324V41.7676C17.8247 43.5499 19.2748 45 21.0571 45H38.9439C40.7262 45 42.1763 43.5499 42.1763 41.7676V24.289H36.1196ZM21.5904 19.6446C21.5904 19.1592 21.9839 18.7656 22.4693 18.7656H28.1176C28.6031 18.7656 28.9965 19.1592 28.9965 19.6446V25.2929C28.9965 25.7783 28.6031 26.1718 28.1176 26.1718H22.4693C21.9839 26.1718 21.5904 25.7783 21.5904 25.2929V19.6446ZM22.4693 28.1797H33.7661C34.2516 28.1797 34.645 28.5732 34.645 29.0586C34.645 29.544 34.2516 29.9375 33.7661 29.9375H22.4693C21.9839 29.9375 21.5904 29.544 21.5904 29.0586C21.5904 28.5732 21.9839 28.1797 22.4693 28.1797ZM37.5318 41.2343H22.4693C21.9839 41.2343 21.5904 40.8408 21.5904 40.3554C21.5904 39.87 21.9839 39.4765 22.4693 39.4765H37.5318C38.0171 39.4765 38.4107 39.87 38.4107 40.3554C38.4107 40.8408 38.0171 41.2343 37.5318 41.2343ZM37.5318 37.4688H22.4693C21.9839 37.4688 21.5904 37.0753 21.5904 36.5899C21.5904 36.1045 21.9839 35.711 22.4693 35.711H37.5318C38.0171 35.711 38.4107 36.1045 38.4107 36.5899C38.4107 37.0753 38.0171 37.4688 37.5318 37.4688ZM37.5318 33.7031H22.4693C21.9839 33.7031 21.5904 33.3096 21.5904 32.8242C21.5904 32.3388 21.9839 31.9453 22.4693 31.9453H37.5318C38.0171 31.9453 38.4107 32.3388 38.4107 32.8242C38.4107 33.3096 38.0171 33.7031 37.5318 33.7031Z" fill="white"/>
</g>
<defs>
<clipPath id="clip0_737_35786">
<rect width="30" height="30" fill="white" transform="translate(15 15)"/>
</clipPath>
</defs>
</svg>
