<svg width="24" height="24" viewBox="0 0 24 24" fill="none" xmlns="http://www.w3.org/2000/svg">
<path d="M15.8293 15.6939C14.7111 16.812 14.8509 19.0682 14.8509 19.0682H9.18036C9.18036 19.0682 9.30016 16.812 8.20199 15.6939C6.98402 14.6157 6.20532 13.0583 6.20532 11.3212C6.20532 8.12648 8.801 5.53081 11.9957 5.53081C15.1903 5.53081 17.786 8.12648 17.786 11.3212C17.786 13.0583 17.0273 14.6157 15.8293 15.6939Z" fill="#4C5BD4"/>
<path d="M15.011 20.8454C15.011 21.1449 14.7714 21.3845 14.4719 21.3845H9.54008C9.24058 21.3845 9.00098 21.1449 9.00098 20.8454C9.00098 20.5459 9.24058 20.3063 9.54008 20.3063H14.4519C14.7514 20.3063 15.011 20.5459 15.011 20.8454Z" fill="#4C5BD4"/>
<path d="M14.2724 23.0814C14.2724 23.3809 14.0328 23.6205 13.7333 23.6205H10.2791C9.97959 23.6205 9.73999 23.3809 9.73999 23.0814C9.73999 22.7819 9.97959 22.5423 10.2791 22.5423H13.7333C14.0328 22.5423 14.2724 22.7819 14.2724 23.0814Z" fill="#4C5BD4"/>
<path d="M16.1293 15.8936C17.4271 14.7155 18.1659 13.0583 18.1659 11.3212C18.1659 7.92685 15.3905 5.15147 11.9961 5.15147C8.60179 5.15147 5.82642 7.92685 5.82642 11.3212C5.82642 13.0982 6.60512 14.7954 7.92292 15.9535C8.90129 16.9318 8.80146 19.0084 8.80146 19.0283C8.80146 19.1282 8.84139 19.228 8.90129 19.3079C8.98116 19.3877 9.08099 19.4277 9.18083 19.4277H14.8314C14.9312 19.4277 15.0311 19.3877 15.1109 19.3079C15.1908 19.228 15.2108 19.1282 15.2108 19.0283C15.2108 19.0084 15.1109 16.9318 16.0893 15.9535C16.1093 15.9335 16.1293 15.9135 16.1293 15.8936ZM15.5702 15.3944C15.5302 15.4144 15.5103 15.4543 15.4903 15.4942C14.6118 16.4327 14.472 17.9701 14.452 18.6889H9.56019C9.54023 17.9501 9.38049 16.3528 8.44206 15.4144C7.26402 14.3761 6.58515 12.8986 6.58515 11.3412C6.58515 8.34615 9.02109 5.93018 11.9961 5.93018C14.9911 5.93018 17.4071 8.36612 17.4071 11.3412C17.4071 12.8786 16.7482 14.3761 15.5702 15.3944Z" fill="#4C5BD4"/>
<path d="M15.3905 20.8451C15.3905 20.326 14.9712 19.9266 14.4721 19.9266H9.5403C9.02116 19.9266 8.62183 20.3459 8.62183 20.8451C8.62183 21.3642 9.04113 21.7636 9.5403 21.7636H14.4521C14.9712 21.7636 15.3905 21.3642 15.3905 20.8451ZM14.4521 21.0048H9.5403C9.44046 21.0048 9.38056 20.925 9.38056 20.8451C9.38056 20.7453 9.46043 20.6854 9.5403 20.6854H14.4521C14.5519 20.6854 14.6118 20.7652 14.6118 20.8451C14.6318 20.9449 14.5519 21.0048 14.4521 21.0048Z" fill="#4C5BD4"/>
<path d="M13.7336 22.1629H10.2793C9.76017 22.1629 9.36084 22.5822 9.36084 23.0814C9.36084 23.6006 9.78014 23.9999 10.2793 23.9999H13.7336C14.2527 23.9999 14.652 23.5806 14.652 23.0814C14.652 22.5822 14.2327 22.1629 13.7336 22.1629ZM13.7336 23.2412H10.2793C10.1795 23.2412 10.1196 23.1613 10.1196 23.0814C10.1196 22.9816 10.1994 22.9217 10.2793 22.9217H13.7336C13.8334 22.9217 13.8933 23.0016 13.8933 23.0814C13.8933 23.1813 13.8334 23.2412 13.7336 23.2412Z" fill="#4C5BD4"/>
<path d="M12.3754 2.93511V0.379368C12.3754 0.179701 12.2157 0 11.9961 0C11.7964 0 11.6167 0.159734 11.6167 0.379368V2.95508C11.6167 3.15474 11.7764 3.33444 11.9961 3.33444C12.2157 3.31448 12.3754 3.15474 12.3754 2.93511Z" fill="#4C5BD4"/>
<path d="M18.2857 1.89686C18.106 1.77706 17.8863 1.83696 17.7665 1.9967L16.3489 4.13314C16.2291 4.31284 16.289 4.53247 16.4487 4.65227C16.5086 4.69221 16.5885 4.71217 16.6484 4.71217C16.7682 4.71217 16.888 4.65227 16.9679 4.55244L18.3855 2.416C18.5053 2.25627 18.4454 2.01666 18.2857 1.89686Z" fill="#4C5BD4"/>
<path d="M7.48356 4.63232C7.54346 4.63232 7.62333 4.61236 7.68323 4.57242C7.86293 4.45262 7.90286 4.23299 7.80303 4.05329L6.42533 1.89688C6.30553 1.71718 6.08589 1.67725 5.90619 1.77708C5.72649 1.89688 5.68656 2.11652 5.78639 2.29622L7.16409 4.45262C7.24396 4.57242 7.36376 4.63232 7.48356 4.63232Z" fill="#4C5BD4"/>
<path d="M2.19249 6.42927L4.44873 7.64724C4.50863 7.68717 4.56853 7.68717 4.62843 7.68717C4.7682 7.68717 4.888 7.6073 4.96787 7.4875C5.0677 7.3078 5.0078 7.0682 4.80813 6.96837L2.55189 5.7504C2.37219 5.65056 2.13259 5.71046 2.03276 5.91013C1.95289 6.1098 2.01279 6.32943 2.19249 6.42927Z" fill="#4C5BD4"/>
<path d="M19.3636 7.70721C19.4235 7.70721 19.4834 7.68724 19.5433 7.66727L21.7996 6.4493C21.9793 6.34947 22.0591 6.12984 21.9593 5.93017C21.8595 5.75047 21.6398 5.6706 21.4402 5.77043L19.1839 6.9884C19.0042 7.08824 18.9244 7.30787 19.0242 7.50754C19.0841 7.62734 19.2239 7.70721 19.3636 7.70721Z" fill="#4C5BD4"/>
</svg>
