<svg width="24" height="24" viewBox="0 0 24 24" fill="none" xmlns="http://www.w3.org/2000/svg">
<g id="bi:share">
<path id="Vector" d="M18.8751 3.25022C18.3778 3.25022 17.9009 3.44773 17.5492 3.79932C17.1976 4.1509 17.0001 4.62774 17.0001 5.12495C17.0001 5.62217 17.1976 6.09901 17.5492 6.45059C17.9009 6.80218 18.3778 6.99969 18.8751 6.99969C19.3723 6.99969 19.8492 6.80218 20.2009 6.45059C20.5525 6.09901 20.75 5.62217 20.75 5.12495C20.75 4.62774 20.5525 4.1509 20.2009 3.79932C19.8492 3.44773 19.3723 3.25022 18.8751 3.25022ZM15.7501 5.12495C15.75 4.39185 16.0077 3.68205 16.4782 3.11975C16.9486 2.55745 17.6018 2.17845 18.3235 2.04906C19.0452 1.91967 19.7894 2.04813 20.4259 2.41196C21.0625 2.7758 21.5508 3.35184 21.8054 4.0393C22.0601 4.72677 22.0649 5.48188 21.819 6.17252C21.5731 6.86317 21.0921 7.44536 20.4603 7.81726C19.8284 8.18915 19.0859 8.32705 18.3626 8.20684C17.6394 8.08662 16.9814 7.71595 16.5038 7.15967L8.10648 11.0591C8.29953 11.6708 8.29953 12.3271 8.10648 12.9389L16.5038 16.8383C17.0086 16.2513 17.7134 15.8726 18.4816 15.7755C19.2497 15.6785 20.0265 15.87 20.6615 16.313C21.2965 16.756 21.7443 17.4189 21.9183 18.1733C22.0923 18.9276 21.98 19.7197 21.6032 20.396C21.2264 21.0723 20.612 21.5847 19.8789 21.8338C19.1458 22.0829 18.3463 22.0511 17.6354 21.7444C16.9245 21.4377 16.3528 20.8781 16.031 20.1739C15.7092 19.4698 15.6604 18.6713 15.8939 17.9332L7.49649 14.0337C7.08079 14.5181 6.52669 14.8636 5.90874 15.0237C5.29079 15.1838 4.63862 15.1508 4.03997 14.9292C3.44132 14.7076 2.92491 14.308 2.56021 13.7841C2.1955 13.2602 2 12.6373 2 11.999C2 11.3607 2.1955 10.7377 2.56021 10.2139C2.92491 9.69003 3.44132 9.29041 4.03997 9.0688C4.63862 8.84719 5.29079 8.81422 5.90874 8.97431C6.52669 9.1344 7.08079 9.47988 7.49649 9.96428L15.8939 6.06482C15.7983 5.7607 15.7498 5.44374 15.7501 5.12495ZM5.12528 10.1243C4.62801 10.1243 4.1511 10.3218 3.79948 10.6734C3.44785 11.0249 3.25031 11.5018 3.25031 11.999C3.25031 12.4962 3.44785 12.973 3.79948 13.3246C4.1511 13.6762 4.62801 13.8737 5.12528 13.8737C5.62255 13.8737 6.09946 13.6762 6.45108 13.3246C6.80271 12.973 7.00025 12.4962 7.00025 11.999C7.00025 11.5018 6.80271 11.0249 6.45108 10.6734C6.09946 10.3218 5.62255 10.1243 5.12528 10.1243ZM18.8751 16.9983C18.3778 16.9983 17.9009 17.1958 17.5492 17.5474C17.1976 17.899 17.0001 18.3758 17.0001 18.873C17.0001 19.3702 17.1976 19.8471 17.5492 20.1987C17.9009 20.5502 18.3778 20.7478 18.8751 20.7478C19.3723 20.7478 19.8492 20.5502 20.2009 20.1987C20.5525 19.8471 20.75 19.3702 20.75 18.873C20.75 18.3758 20.5525 17.899 20.2009 17.5474C19.8492 17.1958 19.3723 16.9983 18.8751 16.9983Z" fill="white"/>
</g>
</svg>
