<svg width="131" height="44" viewBox="0 0 131 44" fill="none" xmlns="http://www.w3.org/2000/svg">
<path d="M47.218 7.1807C46.853 7.40673 47.1214 7.58971 47.9694 7.66505C49.0857 7.76192 49.6117 8.00948 49.88 8.53688C50.0732 8.94589 50.084 9.27956 50.0732 18.6545C50.0625 28.0832 50.0518 28.363 49.8478 28.8259C49.4614 29.6762 48.388 30.5372 47.701 30.5372C47.3039 30.5372 47.0999 30.6772 47.1536 30.9247C47.1858 31.1185 47.4112 31.1292 53.2505 31.1615C59.7231 31.1938 60.6784 31.14 62.471 30.6879C66.9042 29.5685 70.2532 25.6399 70.9616 20.7533C71.1548 19.451 71.0475 16.6094 70.7684 15.5546C70.2317 13.5526 69.3945 12.0027 68.1278 10.6573C66.3782 8.79521 64.5105 7.83726 61.623 7.33138C60.7643 7.1807 59.5621 7.14841 54.0019 7.10535C49.5151 7.08383 47.3468 7.10535 47.218 7.1807ZM59.3689 8.84902C60.8073 9.29032 62.149 10.1837 63.4586 11.5614C64.3387 12.487 64.8003 13.2082 65.2297 14.3491C66.1313 16.7601 66.2601 20.4197 65.5517 23.2612C65.0365 25.2847 64.4354 26.4149 63.2224 27.6419C61.7948 29.095 60.0773 29.73 57.8125 29.6546C56.4492 29.6008 55.8159 29.3748 55.3651 28.7721C54.7962 28.0401 54.8069 28.1693 54.8284 18.4284C54.8499 13.4558 54.8821 9.27956 54.9143 9.16116C54.968 8.93513 55.3007 8.75215 55.8267 8.64452C56.4063 8.53688 58.7893 8.67681 59.3689 8.84902Z" fill="black"/>
<path d="M86.0965 7.16999C81.5024 7.84809 77.6704 10.9372 76.2535 15.0918C75.4806 17.3629 75.4806 20.678 76.2535 22.9491C77.0263 25.1987 78.5613 27.3944 80.3217 28.7398C84.4113 31.872 90.1862 32.0226 94.5227 29.1058C95.4459 28.4815 96.895 26.9746 97.6249 25.8768C100.223 21.9589 100.373 16.8247 98.0328 12.8423C97.4639 11.8951 96.1543 10.4205 95.2312 9.72091C93.8465 8.6661 92.0539 7.80503 90.3579 7.38526C89.3704 7.14847 87.0519 7.03007 86.0965 7.16999ZM89.1987 8.74145C90.2506 8.99977 91.0449 9.47336 91.9358 10.4098C93.5459 12.1104 94.2222 13.9725 94.4798 17.5351C94.5657 18.6976 94.5657 19.5802 94.4798 20.818C94.2115 24.456 93.503 26.4795 91.9681 27.9756C90.7551 29.1704 89.8427 29.5686 88.1253 29.6439C85.9355 29.7516 84.8621 29.3856 83.4345 28.0187C82.6939 27.2975 82.4685 26.9961 82.0606 26.1889C81.1804 24.3806 80.8369 22.4217 80.8369 19.1066C80.8369 16.2435 81.073 14.6613 81.76 12.9176C82.5865 10.8188 84.465 9.04282 86.2146 8.69839C86.9767 8.54771 88.458 8.56923 89.1987 8.74145Z" fill="black"/>
<path d="M104.237 7.14838C104.237 7.20219 104.237 12.5624 104.237 19.0742C104.237 33.0774 104.173 34.5197 103.378 37.5872C102.67 40.3319 101.521 42.1078 100.104 42.6568C99.4604 42.8936 99.4604 43.1304 100.104 43.1304C101.06 43.1304 102.638 42.0433 104.516 40.1059C106.749 37.7702 108.123 34.8964 108.874 30.9355C109.089 29.773 109.1 29.3963 109.143 19.6662C109.164 14.1338 109.196 9.49479 109.228 9.36563C109.314 9.01044 109.797 8.48304 110.291 8.23548C110.527 8.10632 111.268 7.90181 111.912 7.77265C112.932 7.57891 113.093 7.51433 113.093 7.33136C113.093 7.13762 112.964 7.12685 108.67 7.09456C106.234 7.0838 104.237 7.10532 104.237 7.14838Z" fill="black"/>
<path d="M115.54 7.24531C115.508 7.33142 115.519 7.44982 115.572 7.49287C115.626 7.53592 116.302 7.67585 117.086 7.80501C117.869 7.9234 118.749 8.13867 119.039 8.26783C119.619 8.51539 120.295 9.17196 120.392 9.5702C120.424 9.71013 120.435 14.1124 120.424 19.3541L120.393 28.4066C120.392 28.7208 120.29 29.0263 120.102 29.278C119.651 29.8592 118.835 30.2036 117.311 30.4512C116.581 30.5696 115.884 30.688 115.755 30.7095C115.594 30.7418 115.508 30.8387 115.508 30.9678C115.508 31.1831 115.583 31.1831 122.936 31.1616C129.859 31.1293 130.374 31.1185 130.407 30.9463C130.45 30.731 130.46 30.7418 128.764 30.4835C127.423 30.2682 126.596 29.9991 126.124 29.6009C125.458 29.0304 125.49 29.6224 125.49 19.1819C125.49 8.39699 125.426 9.13967 126.338 8.55844C126.961 8.1602 127.669 7.9557 129.172 7.74043C130.246 7.57898 130.374 7.53592 130.374 7.34218C130.374 7.12691 130.289 7.12691 122.989 7.09463C116.356 7.0731 115.604 7.08386 115.54 7.24531Z" fill="black"/>
<path d="M21.1044 0.529771C21.1044 0.583493 21.2763 1.04551 21.4804 1.5505C21.9854 2.80762 22.5334 4.64494 23.0922 6.95502C23.5757 8.94276 24.4353 13.1869 24.4353 13.5952C24.446 14.2398 24.6287 14.1001 25.7354 12.6281C27.0248 10.9198 28.8406 8.22287 29.3564 7.24512C29.5744 6.83545 29.5476 6.33869 29.2866 5.95492L29.163 5.77311C26.9925 2.64645 24.3923 0.76615 21.835 0.508282C21.4052 0.465303 21.1044 0.465303 21.1044 0.529771Z" fill="#DA2032"/>
<path d="M17.7735 1.39996C15.6568 2.46367 13.6905 4.10759 9.07024 8.72775C5.56744 12.2197 4.25657 13.638 3.11762 15.1208C2.50517 15.9266 1.4092 17.6457 1.47367 17.7102C1.48441 17.7209 1.97868 17.6135 2.56964 17.4738C6.12617 16.6143 11.1655 16.1307 18.5042 15.9696L21.111 15.9096C21.4652 15.9014 21.7358 15.5908 21.6954 15.2389C21.5557 14.0033 20.6746 8.93189 20.2986 7.21277C19.6754 4.35471 18.848 1.29251 18.6439 1.07762C18.6009 1.03465 18.2141 1.17432 17.7735 1.39996Z" fill="#DA2032"/>
<path d="M30.6136 9.87752C30.1086 10.8338 28.2175 13.7348 27.186 15.1209L26.9685 15.4129C26.7487 15.7082 26.9375 16.1302 27.3042 16.1631C30.7317 16.4962 32.9452 16.8293 33.88 17.1623C34.2668 17.2913 34.3205 17.2913 34.3205 17.1623C34.3205 16.5499 31.312 9.03945 31.0648 9.05019C31.0541 9.05019 30.8499 9.42625 30.6136 9.87752Z" fill="#DA2032"/>
<path d="M11.7027 19.1715C9.46774 19.279 5.54588 19.6336 4.02012 19.8592C3.275 19.9666 2.20276 20.1621 1.47152 20.3146C0.93173 20.4272 0.581787 20.7798 0.581787 21.3312C0.581787 24.3397 2.9349 27.3804 7.23282 29.9698C7.85602 30.3351 8.41475 30.6467 8.48996 30.6467C8.66188 30.6467 10.2521 29.4218 11.4878 28.3366C12.9383 27.058 16.7527 23.2115 18.5149 21.2452C19.31 20.3534 20.0836 19.5046 20.234 19.3327C20.3362 19.2224 20.2576 19.0434 20.1073 19.0438L17.0106 19.0534C15.098 19.0641 12.7127 19.1178 11.7027 19.1715Z" fill="#DA2032"/>
<path d="M25.3378 19.6121C26.1651 25.2853 26.4767 33.7197 25.9287 35.7182C25.875 35.9546 25.8428 36.1695 25.875 36.2017C26.0469 36.3736 28.9158 36.567 30.4523 36.5133C32.4079 36.4489 33.3319 36.2662 34.3956 35.7505C35.5776 35.1703 36.0933 34.2999 36.4372 32.3659C36.6628 31.0873 36.5768 27.3697 36.2652 25.382C35.8892 22.9859 35.3304 20.4287 35.1478 20.3213C34.675 20.0097 30.3341 19.4725 26.1651 19.2146L25.7386 19.1838C25.4991 19.1664 25.3046 19.3743 25.3378 19.6121Z" fill="#DA2032"/>
<path d="M21.9102 21.6965C19.9654 24.0388 16.022 28.1002 14.0772 29.7549C12.992 30.6789 11.5629 31.7319 11.1976 31.8608C10.9935 31.9253 11.0472 31.9575 12.3473 32.4947C15.4848 33.7948 19.0628 34.9015 22.888 35.7503C23.1029 35.7933 23.1136 35.7503 23.1781 34.6759C23.264 33.3758 23.1029 28.8631 22.8772 26.0587C22.6086 22.642 22.4582 21.1915 22.3937 21.1915C22.3615 21.1915 22.1358 21.4171 21.9102 21.6965Z" fill="#DA2032"/>
</svg>
