<svg width="12" height="14" viewBox="0 0 12 14" fill="none" xmlns="http://www.w3.org/2000/svg">
<path d="M8.56106 7.57312C9.5456 8.03847 10.3851 8.76279 10.9896 9.66854C11.5941 10.5743 11.941 11.6274 11.9931 12.7151C11.9999 12.8148 11.9868 12.9148 11.9545 13.0093C11.9222 13.1038 11.8713 13.1909 11.8049 13.2655C11.7384 13.3401 11.6578 13.4007 11.5676 13.4436C11.4775 13.4866 11.3796 13.5112 11.2798 13.5158C11.1801 13.5205 11.0804 13.5052 10.9866 13.4708C10.8928 13.4364 10.8069 13.3836 10.7338 13.3156C10.6606 13.2475 10.6019 13.1655 10.5609 13.0744C10.5199 12.9833 10.4975 12.885 10.4951 12.7851C10.4405 11.6296 9.94316 10.5395 9.10616 9.7411C8.26916 8.94265 7.15682 8.49719 6.00006 8.49719C4.8433 8.49719 3.73097 8.94265 2.89397 9.7411C2.05696 10.5395 1.55958 11.6296 1.50506 12.7851C1.49159 12.9807 1.40208 13.1632 1.25568 13.2936C1.10929 13.424 0.91766 13.4919 0.721828 13.4828C0.525996 13.4736 0.341531 13.3882 0.207936 13.2447C0.0743415 13.1012 0.00223686 12.9111 0.00706354 12.7151C0.0589244 11.6275 0.405595 10.5744 1.00997 9.66864C1.61434 8.76288 2.45365 8.03852 3.43806 7.57312C2.80708 7.04681 2.35353 6.3389 2.13912 5.5457C1.9247 4.75249 1.95983 3.91249 2.23973 3.13995C2.51962 2.36742 3.0307 1.69986 3.70343 1.22807C4.37616 0.756282 5.17789 0.503174 5.99956 0.503174C6.82124 0.503174 7.62297 0.756282 8.2957 1.22807C8.96843 1.69986 9.4795 2.36742 9.7594 3.13995C10.0393 3.91249 10.0744 4.75249 9.86001 5.5457C9.6456 6.3389 9.19205 7.04681 8.56106 7.57312ZM8.50006 4.50012C8.50006 3.83708 8.23667 3.2012 7.76783 2.73235C7.29899 2.26351 6.6631 2.00012 6.00006 2.00012C5.33702 2.00012 4.70114 2.26351 4.2323 2.73235C3.76346 3.2012 3.50006 3.83708 3.50006 4.50012C3.50006 5.16316 3.76346 5.79905 4.2323 6.26789C4.70114 6.73673 5.33702 7.00012 6.00006 7.00012C6.6631 7.00012 7.29899 6.73673 7.76783 6.26789C8.23667 5.79905 8.50006 5.16316 8.50006 4.50012Z" fill="white"/>
</svg>
