<svg width="23" height="22" viewBox="0 0 23 22" fill="none" xmlns="http://www.w3.org/2000/svg">
<g id="Group">
<path id="Vector" fillRule="evenodd" clipRule="evenodd" d="M6.26857 16.2314C6.09672 16.0595 6.00018 15.8264 6.00018 15.5833C6.00018 15.3403 6.09672 15.1072 6.26857 14.9353L10.2038 11L6.26857 7.06476C6.18102 6.9802 6.11119 6.87905 6.06314 6.76722C6.0151 6.65538 5.98982 6.53509 5.98876 6.41338C5.9877 6.29167 6.01089 6.17096 6.05698 6.05831C6.10307 5.94565 6.17114 5.8433 6.25721 5.75723C6.34328 5.67117 6.44562 5.6031 6.55828 5.55701C6.67093 5.51092 6.79164 5.48773 6.91336 5.48878C7.03507 5.48984 7.15535 5.51513 7.26719 5.56317C7.37903 5.61121 7.48018 5.68104 7.56474 5.76859L12.1481 10.3519C12.3199 10.5238 12.4165 10.7569 12.4165 11C12.4165 11.2431 12.3199 11.4762 12.1481 11.6481L7.56474 16.2314C7.39284 16.4033 7.15972 16.4998 6.91665 16.4998C6.67359 16.4998 6.44047 16.4033 6.26857 16.2314ZM11.7686 16.2314C11.5967 16.0595 11.5002 15.8264 11.5002 15.5833C11.5002 15.3403 11.5967 15.1072 11.7686 14.9353L15.7038 11L11.7686 7.06476C11.6016 6.89188 11.5092 6.66032 11.5113 6.41998C11.5134 6.17963 11.6098 5.94972 11.7797 5.77976C11.9497 5.6098 12.1796 5.5134 12.42 5.51131C12.6603 5.50922 12.8919 5.60162 13.0647 5.76859L17.6481 10.3519C17.8199 10.5238 17.9165 10.7569 17.9165 11C17.9165 11.2431 17.8199 11.4762 17.6481 11.6481L13.0647 16.2314C12.8928 16.4033 12.6597 16.4998 12.4167 16.4998C12.1736 16.4998 11.9405 16.4033 11.7686 16.2314Z" fill="#F39623"/>
</g>
</svg>
