<svg xmlns="http://www.w3.org/2000/svg" width="90" height="90" viewBox="0 0 90 90" fill="none">
  <rect width="90" height="90" rx="45" fill="white"/>
  <rect x="0.5" y="0.5" width="89" height="89" rx="44.5" stroke="#3582CD" stroke-opacity="0.5"/>
  <path d="M84 76C84 79.866 80.866 83 77 83C73.134 83 70 79.866 70 76C70 72.134 73.134 69 77 69C80.866 69 84 72.134 84 76Z" fill="#5DC22D" stroke="white" stroke-width="2"/>
  <path fill-rule="evenodd" clip-rule="evenodd" d="M21.1784 38.2405C21.6884 39.1503 22.1126 40.3472 22.5153 41.5007C28.9475 36.9569 36.7595 33.036 41.1836 32.5974C45.2265 32.1858 47.1648 34.6174 45.8655 38.5058C44.8776 41.4736 39.3957 50.5557 36.0185 50.404C33.3823 50.3066 33.9729 46.7593 33.2212 44.9072C32.5554 45.6924 31.3689 47.6637 30.9179 48.2974C26.4723 54.5524 23.6697 48.4706 22.2898 43.7969C18.467 46.299 14.9393 49.1043 13.3608 51.5467C12.6951 52.5811 12.3085 53.4801 13.1139 54.5199L13.4092 54.8882L12.9314 54.7528C11.5784 54.0434 12.083 52.1804 12.6253 51.1243C13.9837 48.4436 17.538 45.1075 21.8118 42.0044C21.7581 41.804 21.7152 41.6198 21.6722 41.4411C21.4038 40.3038 21.1891 39.4319 21.1784 38.2405ZM23.1541 43.2391L23.1595 43.2554C23.6642 44.5497 25.8763 50.3932 27.8092 49.1801C30.0749 47.7558 31.5836 41.2353 34.1876 42.8384C35.4171 43.602 35.7072 46.0986 35.9864 47.4417C36.0293 47.6312 36.0669 47.8749 36.1635 48.0645C38.1662 47.3117 41.9837 40.7154 42.8105 38.7333C43.0628 38.1051 43.9327 35.9117 43.2078 35.4514C41.4307 34.3249 35.2937 36.8107 33.4575 37.6177C30.8696 38.7604 26.9286 40.8346 23.1541 43.2391ZM36.2118 48.162C36.2172 48.162 36.2225 48.1674 36.2279 48.1728C36.2225 48.1674 36.2172 48.1674 36.2118 48.162Z" fill="#3582CD"/>
  <path fill-rule="evenodd" clip-rule="evenodd" d="M14.8316 56.4476C15.1323 56.4476 15.3686 56.2039 15.3686 55.9061C15.3686 55.6082 15.1323 55.3645 14.8316 55.3645C14.5363 55.3645 14.2947 55.6082 14.2947 55.9061C14.2947 56.2039 14.5363 56.4476 14.8316 56.4476Z" fill="#3582CD"/>
  <path d="M51.1384 45.3091C51.1384 45.7867 51.0662 46.2142 50.9219 46.5917C50.7776 46.9615 50.5726 47.2734 50.3067 47.5276C50.0485 47.7819 49.7371 47.9744 49.3726 48.1054C49.0081 48.2364 48.6017 48.3018 48.1537 48.3018C47.7056 48.3018 47.2993 48.2325 46.9347 48.0938C46.5702 47.9552 46.255 47.7587 45.9892 47.5045C45.731 47.2426 45.5297 46.9268 45.3854 46.557C45.2411 46.1873 45.1689 45.7713 45.1689 45.3091C45.1689 44.8546 45.2411 44.4425 45.3854 44.0727C45.5297 43.7029 45.731 43.3909 45.9892 43.1367C46.255 42.8748 46.5702 42.6745 46.9347 42.5359C47.2993 42.3972 47.7056 42.3279 48.1537 42.3279C48.6017 42.3279 49.0081 42.4011 49.3726 42.5474C49.7371 42.6861 50.0485 42.8864 50.3067 43.1483C50.5726 43.4025 50.7776 43.7145 50.9219 44.0842C51.0662 44.454 51.1384 44.8623 51.1384 45.3091ZM47.1512 45.3091C47.1512 45.779 47.2385 46.141 47.4132 46.3953C47.5954 46.6418 47.8461 46.765 48.165 46.765C48.484 46.765 48.7271 46.6379 48.8941 46.3837C49.0688 46.1295 49.1562 45.7713 49.1562 45.3091C49.1562 44.8469 49.0688 44.4925 48.8941 44.246C48.7195 43.9918 48.4726 43.8647 48.1537 43.8647C47.8347 43.8647 47.5879 43.9918 47.4132 44.246C47.2385 44.4925 47.1512 44.8469 47.1512 45.3091Z" fill="#F8971C"/>
  <path d="M54.3923 49.9211C54.3272 49.9407 54.223 49.9602 54.0797 49.9798C53.9429 49.9993 53.7997 50.0091 53.6499 50.0091C53.5066 50.0091 53.3764 49.9993 53.2592 49.9798C53.1485 49.9602 53.054 49.9211 52.9759 49.8625C52.8977 49.8038 52.8359 49.7256 52.7903 49.6278C52.7512 49.5236 52.7317 49.39 52.7317 49.227V46.2944C52.7317 46.1445 52.7577 46.0174 52.8098 45.9131C52.8684 45.8023 52.9498 45.7046 53.054 45.6199C53.1582 45.5351 53.2852 45.4602 53.435 45.395C53.5913 45.3233 53.7573 45.2614 53.9332 45.2093C54.109 45.1572 54.2913 45.118 54.4802 45.092C54.669 45.0594 54.8579 45.0431 55.0467 45.0431C55.3593 45.0431 55.6068 45.105 55.7891 45.2288C55.9715 45.3461 56.0626 45.5417 56.0626 45.8154C56.0626 45.9066 56.0496 45.9979 56.0236 46.0891C55.9975 46.1738 55.9649 46.252 55.9259 46.3237C55.7891 46.3237 55.6491 46.3302 55.5058 46.3433C55.3626 46.3563 55.2226 46.3758 55.0858 46.4019C54.9491 46.428 54.8188 46.4573 54.6951 46.4899C54.5779 46.516 54.4769 46.5485 54.3923 46.5876V49.9211Z" fill="#F8971C"/>
  <path d="M61.3876 49.0706C61.355 49.3769 61.2638 49.6115 61.1141 49.7745C60.9708 49.9374 60.7591 50.0189 60.4791 50.0189C60.2707 50.0189 60.0851 49.97 59.9223 49.8722C59.7595 49.768 59.5837 49.5953 59.3949 49.3541L58.4278 48.142V49.9211C58.3562 49.9341 58.2487 49.9504 58.1055 49.97C57.9687 49.9961 57.8287 50.0091 57.6854 50.0091C57.5422 50.0091 57.4119 49.9993 57.2947 49.9798C57.184 49.9602 57.0896 49.9211 57.0114 49.8625C56.9333 49.8038 56.8714 49.7256 56.8258 49.6278C56.7868 49.5236 56.7672 49.39 56.7672 49.227V43.567C56.8389 43.5474 56.9431 43.5279 57.0798 43.5083C57.2231 43.4823 57.3663 43.4692 57.5096 43.4692C57.6529 43.4692 57.7799 43.479 57.8906 43.4986C58.0078 43.5181 58.1055 43.5572 58.1836 43.6159C58.2618 43.6745 58.3204 43.756 58.3594 43.8603C58.405 43.958 58.4278 44.0884 58.4278 44.2513V46.832L60.1079 45.1115C60.4466 45.1115 60.7168 45.1865 60.9187 45.3364C61.1271 45.4863 61.2313 45.6753 61.2313 45.9034C61.2313 46.0011 61.215 46.0923 61.1824 46.1771C61.1499 46.2553 61.0978 46.3367 61.0261 46.4215C60.961 46.5062 60.8731 46.5974 60.7624 46.6952C60.6582 46.7864 60.5345 46.8939 60.3912 47.0178L59.8247 47.5065L61.3876 49.0706Z" fill="#F8971C"/>
  <path d="M64.0121 43.8407C64.3833 43.8407 64.7122 43.8896 64.9987 43.9873C65.2853 44.0786 65.5295 44.2057 65.7313 44.3686C65.9332 44.5315 66.0862 44.7238 66.1904 44.9453C66.2946 45.1669 66.3467 45.4048 66.3467 45.659C66.3467 46.3433 65.9593 46.995 65.1843 47.6141L63.9047 48.6405H66.249C66.2881 48.7122 66.3239 48.8034 66.3565 48.9142C66.3956 49.025 66.4151 49.1456 66.4151 49.2759C66.4151 49.5105 66.363 49.68 66.2588 49.7843C66.1546 49.882 66.0179 49.9309 65.8485 49.9309H62.459C62.3157 49.8331 62.2018 49.7093 62.1171 49.5594C62.039 49.403 61.9999 49.2205 61.9999 49.012C61.9999 48.7904 62.0455 48.6047 62.1367 48.4548C62.2278 48.2984 62.3288 48.1745 62.4395 48.0833L63.7875 46.9298C63.9568 46.7864 64.0968 46.6593 64.2075 46.5485C64.3182 46.4312 64.4061 46.327 64.4712 46.2357C64.5429 46.1445 64.5917 46.0598 64.6178 45.9816C64.6503 45.9034 64.6666 45.8284 64.6666 45.7567C64.6666 45.5742 64.5852 45.4309 64.4224 45.3266C64.2661 45.2223 64.0707 45.1702 63.8363 45.1702C63.5758 45.1702 63.3414 45.2125 63.133 45.2973C62.9311 45.3755 62.7618 45.4602 62.6251 45.5514C62.5144 45.4732 62.4232 45.3755 62.3516 45.2582C62.2799 45.1409 62.2441 45.004 62.2441 44.8476C62.2441 44.5087 62.4037 44.2578 62.7227 44.0949C63.0418 43.9254 63.4716 43.8407 64.0121 43.8407Z" fill="#F8971C"/>
  <path d="M69.5075 44.0558C69.6312 44.0167 69.7712 43.9841 69.9275 43.958C70.0903 43.9319 70.2368 43.9189 70.3671 43.9189C70.5169 43.9189 70.6601 43.9352 70.7969 43.9678C70.9401 43.9939 71.0671 44.0427 71.1778 44.1144C71.2885 44.1796 71.3765 44.2708 71.4416 44.3881C71.5067 44.5054 71.5393 44.6521 71.5393 44.828V47.4283H72.4086C72.4477 47.5 72.4868 47.5945 72.5258 47.7118C72.5649 47.8291 72.5844 47.953 72.5844 48.0833C72.5844 48.331 72.5291 48.5069 72.4184 48.6112C72.3077 48.7155 72.1677 48.7676 71.9984 48.7676H71.5393V49.9211C71.4676 49.9341 71.3602 49.9504 71.2169 49.97C71.0736 49.9961 70.9369 50.0091 70.8066 50.0091C70.6634 50.0091 70.5364 50.0026 70.4257 49.9895C70.315 49.9765 70.2206 49.9472 70.1424 49.9016C70.0708 49.8494 70.0154 49.7777 69.9764 49.6865C69.9373 49.5953 69.9177 49.4714 69.9177 49.315V48.7676H67.4659C67.3162 48.6894 67.1859 48.5753 67.0752 48.4254C66.971 48.269 66.9189 48.08 66.9189 47.8585C66.9189 47.7346 66.9352 47.5978 66.9678 47.4479C67.0003 47.298 67.0557 47.1677 67.1338 47.0569L69.5075 44.0558ZM70.0057 45.5905H69.9764L68.6772 47.4283H70.0057V45.5905Z" fill="#F8971C"/>
  <path d="M76.5704 43.9873C76.6811 44.059 76.7788 44.16 76.8634 44.2904C76.9546 44.4142 77.0002 44.5706 77.0002 44.7596C77.0002 44.8639 76.9904 44.9714 76.9709 45.0822C76.9513 45.1865 76.9188 45.2908 76.8732 45.395L74.8414 49.9993C74.7503 50.0058 74.6623 50.0091 74.5777 50.0091C74.4995 50.0091 74.4246 50.0091 74.353 50.0091C74.06 50.0091 73.8223 49.9537 73.6399 49.8429C73.4576 49.7321 73.3664 49.5399 73.3664 49.2661C73.3664 49.1293 73.399 48.9827 73.4641 48.8262C73.5292 48.6633 73.6171 48.4711 73.7279 48.2495L75.154 45.3266H72.7608C72.7217 45.2549 72.6827 45.1604 72.6436 45.0431C72.6045 44.9258 72.585 44.802 72.585 44.6716C72.585 44.424 72.6403 44.248 72.751 44.1438C72.8617 44.0395 73.0018 43.9873 73.1711 43.9873H76.5704Z" fill="#F8971C"/>
  <rect x="46.7966" y="48.8446" width="5.42675" height="1.08617" rx="0.543087" fill="#3582CD"/>
</svg>