<svg xmlns="http://www.w3.org/2000/svg" width="17" height="16" viewBox="0 0 17 16" fill="none">
  <path d="M12.4867 7.19334V9.86001C12.4867 10.0333 12.48 10.2 12.46 10.36C12.3067 12.16 11.2467 13.0533 9.29334 13.0533H9.02668C8.86001 13.0533 8.7 13.1333 8.6 13.2667L7.80001 14.3333C7.44668 14.8067 6.87334 14.8067 6.52 14.3333L5.71999 13.2667C5.63333 13.1533 5.44 13.0533 5.29334 13.0533H5.02668C2.90001 13.0533 1.83334 12.5267 1.83334 9.86001V7.19334C1.83334 5.24001 2.73334 4.18001 4.52667 4.02667C4.68667 4.00667 4.85334 4 5.02668 4H9.29334C11.42 4 12.4867 5.06667 12.4867 7.19334Z" stroke="white" strokeWidth="1.5" strokeMiterlimit="10" strokeLinecap="round" strokeLinejoin="round"/>
  <path d="M15.1533 4.52665V7.19332C15.1533 9.15332 14.2533 10.2067 12.46 10.36C12.48 10.2 12.4867 10.0333 12.4867 9.85999V7.19332C12.4867 5.06665 11.42 3.99998 9.29333 3.99998H5.02667C4.85334 3.99998 4.68667 4.00665 4.52667 4.02665C4.68001 2.23332 5.74001 1.33331 7.69334 1.33331H11.96C14.0867 1.33331 15.1533 2.39999 15.1533 4.52665Z" stroke="white" strokeWidth="1.5" strokeMiterlimit="10" strokeLinecap="round" strokeLinejoin="round"/>
  <path d="M9.497 8.83333H9.503" stroke="white" strokeWidth="2" strokeLinecap="round" strokeLinejoin="round"/>
  <path d="M7.16367 8.83333H7.16967" stroke="white" strokeWidth="2" strokeLinecap="round" strokeLinejoin="round"/>
  <path d="M4.83033 8.83333H4.83633" stroke="white" strokeWidth="2" strokeLinecap="round" strokeLinejoin="round"/>
</svg>