<svg width="150" height="48" viewBox="0 0 150 48" fill="none" xmlns="http://www.w3.org/2000/svg">
<g id="Group 1000007304">
<path id="Vector" d="M29.0953 0.132843C31.1098 -0.114575 33.1525 -0.0158613 35.1329 0.424605C37.1852 0.890899 39.1262 1.74601 40.8479 2.94243C41.0629 3.09773 41.2827 3.24935 41.4909 3.41474L42.1105 3.92029L42.7003 4.46219C42.902 4.63955 43.085 4.83436 43.2692 5.02932C44.0165 5.80725 44.6806 6.65893 45.2512 7.5709C45.8332 8.48194 46.3232 9.4471 46.7142 10.4525L47.001 11.2091L47.2444 11.9788C47.3299 12.2353 47.3969 12.4951 47.4593 12.7564C47.5196 13.0178 47.5939 13.2783 47.6416 13.5418L47.7887 14.3331C47.8423 14.5972 47.8644 14.8629 47.9031 15.1284C47.9839 15.6599 48.0118 16.1922 48.0555 16.7264C48.0721 16.9931 48.0736 17.2594 48.0794 17.5264L48.0863 17.9269C48.088 18.0604 48.0802 18.1929 48.0775 18.3261L48.0526 19.125C48.0366 19.3903 48.0129 19.6548 47.9929 19.9201L47.9611 20.3179C47.9491 20.4503 47.9297 20.5813 47.9142 20.7131L47.8145 21.5035C47.775 21.7657 47.7281 22.0262 47.6818 22.2873C47.635 22.5483 47.5907 22.8102 47.5285 23.0671L47.3536 23.8417C47.296 24.1004 47.2189 24.3527 47.1521 24.6087C47.0195 25.1215 46.8525 25.6219 46.6893 26.1244C46.6118 26.3774 46.517 26.6232 46.4259 26.8708L46.1481 27.612L45.8401 28.3401C45.7374 28.5829 45.6365 28.8267 45.5205 29.063C45.296 29.5393 45.0756 30.0186 44.8216 30.4796L44.4508 31.1768L44.0546 31.8593C43.5272 32.7704 42.9352 33.6406 42.3272 34.4982C42.014 34.92 41.6933 35.3367 41.3688 35.7498L40.8657 36.3563C40.6974 36.558 40.5325 36.7627 40.3541 36.9555L39.8255 37.5397C39.7368 37.6365 39.6501 37.7351 39.5596 37.8302L39.2843 38.1117C38.9166 38.4865 38.5536 38.8659 38.1661 39.221L37.5906 39.7591C37.3957 39.9353 37.1943 40.1048 36.9963 40.2777C36.7966 40.4487 36.6007 40.6239 36.3975 40.7911L35.7805 41.284C34.1264 42.5947 32.3466 43.7432 30.4665 44.713C29.9933 44.9509 29.5236 45.1938 29.0369 45.4059C28.7953 45.515 28.5545 45.6251 28.3108 45.7293L27.572 46.0261L27.2027 46.1739C27.079 46.2219 26.9527 46.2641 26.8278 46.3093L26.0759 46.5731C25.8254 46.6606 25.5674 46.7305 25.3138 46.8096C25.058 46.8836 24.8071 46.9694 24.5478 47.0328C22.4884 47.6068 20.3647 47.9268 18.2255 47.9855L17.4222 48L16.6172 47.9739C16.4832 47.9678 16.3495 47.9664 16.2155 47.9562L15.8136 47.9222C15.5459 47.8973 15.2786 47.8808 15.0119 47.8481C13.943 47.7242 12.8855 47.5192 11.8486 47.235C11.5894 47.1652 11.334 47.0764 11.0777 46.9976L10.6943 46.8756L10.3167 46.7337C10.066 46.6365 9.81396 46.5463 9.56665 46.4428L8.83457 46.1089C8.58922 46.0032 8.35723 45.8648 8.12028 45.7418C7.88514 45.6143 7.64743 45.4944 7.42291 45.348L6.74384 44.927C6.52516 44.7746 6.30858 44.6203 6.09411 44.4641C5.24487 43.8372 4.46245 43.1267 3.75892 42.3437C3.05889 41.5785 2.44365 40.7418 1.92366 39.8477C0.903298 38.1073 0.249981 36.1814 0.00292969 34.1856C0.751392 35.957 1.78499 37.5975 3.0638 39.0438C3.68486 39.7376 4.37175 40.3712 5.1151 40.9359C5.83602 41.5 6.61032 41.9943 7.42728 42.412C9.03442 43.2375 10.7702 43.7919 12.5629 44.0524C13.0111 44.107 13.4547 44.1685 13.9054 44.1954C14.3517 44.2423 14.8049 44.2416 15.2533 44.2568C15.4782 44.2599 15.7047 44.2479 15.9295 44.2448L16.2668 44.2373C16.3792 44.2339 16.4922 44.2219 16.6046 44.2147L17.2789 44.1687L17.9522 44.0952L18.2882 44.0586L18.6234 44.0059L19.2923 43.9008L19.9573 43.7649L20.2892 43.6975C20.3995 43.6724 20.5091 43.6426 20.619 43.6155L21.2781 43.4552C21.4969 43.3975 21.7141 43.3312 21.9319 43.2701C22.3691 43.1549 22.7966 42.9982 23.2269 42.8586C24.9398 42.2499 26.5934 41.4896 28.1675 40.587C29.7475 39.683 31.245 38.6454 32.6431 37.486L33.1683 37.0516C33.3416 36.9047 33.5082 36.7498 33.6786 36.5995C33.8474 36.4473 34.0196 36.2989 34.1858 36.144L34.6765 35.6703C35.0112 35.3623 35.3223 35.0311 35.6392 34.7055C35.9628 34.3859 36.2515 34.0358 36.5597 33.7028C37.7618 32.3489 38.8432 30.8952 39.7919 29.3579L40.1465 28.7829L40.4775 28.1956C40.7048 27.8069 40.9024 27.4046 41.1104 27.0066C41.2176 26.8088 41.3096 26.6049 41.404 26.4018L41.6887 25.7928L41.9485 25.1746C42.0355 24.9686 42.1268 24.7637 42.2007 24.5535C42.8487 22.8952 43.3185 21.1744 43.6023 19.4194C43.7392 18.5483 43.8223 17.6698 43.8513 16.7887C43.8533 16.351 43.8741 15.9094 43.8459 15.4731C43.8335 15.255 43.8382 15.0332 43.8128 14.8167L43.7525 14.1633C43.7345 13.9446 43.6914 13.7315 43.6628 13.5146L43.6174 13.1895C43.6035 13.0807 43.577 12.9755 43.5575 12.8681L43.4315 12.2247L43.268 11.5913C43.0386 10.7479 42.7371 9.92512 42.3668 9.13188L42.2303 8.83178L42.0748 8.54198C41.9686 8.35015 41.8737 8.14967 41.7583 7.96232L41.4087 7.39989C41.2955 7.20894 41.1578 7.03582 41.0334 6.85136C40.9101 6.666 40.7773 6.48693 40.6355 6.31485L40.2142 5.79163L39.76 5.29326C39.6057 5.12912 39.4407 4.97571 39.283 4.81252C37.9445 3.53048 36.3908 2.48701 34.6909 1.72846C32.9057 0.954261 31.024 0.417686 29.0953 0.132843Z" fill="#2766A5"/>
<path id="Vector_2" d="M30.6679 10.686C32.706 11.2474 34.5594 12.6725 35.8016 14.5542C37.0345 16.4475 37.6364 18.7417 37.6655 20.9976C37.6801 23.2566 37.2337 25.4954 36.353 27.5807C35.489 29.6486 34.2841 31.5614 32.7873 33.2415C31.3056 34.9219 29.5615 36.3582 27.6208 37.4963C25.6781 38.6467 23.5393 39.4387 21.3091 39.8336C20.7515 39.93 20.189 39.9957 19.624 40.0304C19.3432 40.0554 19.0577 40.0536 18.7763 40.0653C18.494 40.0734 18.2093 40.0555 17.9279 40.0496C16.7986 39.9992 15.6806 39.8041 14.6023 39.4692C12.46 38.8096 10.5367 37.4758 9.39355 35.7203C10.2528 36.2611 11.1773 36.6937 12.1455 37.0081C13.0682 37.3005 14.0252 37.4748 14.9929 37.5267C16.8785 37.6245 18.7655 37.361 20.5496 36.7508C22.3231 36.1594 24.0031 35.3237 25.5395 34.2685C27.0799 33.2171 28.4818 31.9811 29.7132 30.5888C30.9445 29.2089 31.988 27.6763 32.817 26.0299C33.6443 24.3975 34.2007 22.6446 34.4649 20.8383C34.4839 20.7257 34.4964 20.6132 34.5057 20.5007L34.5426 20.1619C34.5651 19.9358 34.5713 19.7103 34.5877 19.4824C34.5878 19.257 34.5952 19.0289 34.589 18.8023C34.5723 18.5779 34.5841 18.3461 34.557 18.1218C34.4885 17.2067 34.306 16.3034 34.0136 15.4323C33.7015 14.5352 33.2665 13.6844 32.7207 12.9034C32.1382 12.0785 31.448 11.333 30.6679 10.686Z" fill="#F39623"/>
<path id="Vector_3" d="M32.6199 29.6777L48.59 47.7483L28.4561 34.3214L32.6199 29.6777Z" fill="#F39623"/>
<path id="Vector_4" d="M48.7842 34.2222H52.1307V43.5912H55.3262V34.2222H58.6818V31.2891H48.7842V34.2222Z" fill="#2766A5"/>
<path id="Vector_5" d="M63.1283 34.3091H60.1279V43.5905H63.1283V34.3091Z" fill="#2766A5"/>
<path id="Vector_6" d="M62.6121 30.0231C62.3259 29.8652 62.0035 29.7822 61.6756 29.7822C61.3476 29.7822 61.0252 29.8652 60.739 30.0231C60.4745 30.1759 60.2556 30.3949 60.1044 30.6579C59.9569 30.9079 59.8788 31.1918 59.8779 31.481C59.8784 31.7689 59.9566 32.0515 60.1044 32.2997C60.2566 32.5608 60.4754 32.7782 60.739 32.9301C61.0252 33.088 61.3477 33.1709 61.6756 33.1709C62.0035 33.1709 62.3259 33.088 62.6121 32.9301C62.8749 32.779 63.0935 32.5632 63.2467 32.304C63.3955 32.0546 63.4737 31.7704 63.473 31.481C63.4721 31.1918 63.3941 30.9079 63.2467 30.6579C63.0955 30.3949 62.8766 30.1759 62.6121 30.0231Z" fill="#2766A5"/>
<path id="Vector_7" d="M78.4113 34.8136C77.8576 34.4979 77.2264 34.3389 76.5871 34.354C75.9749 34.3533 75.3701 34.4863 74.8162 34.7435C74.2662 34.992 73.7794 35.3584 73.3914 35.8162C73.1082 35.3548 72.7032 34.978 72.2198 34.726C71.7086 34.4706 71.1416 34.3429 70.5687 34.354C69.4859 34.3537 68.4452 34.7681 67.666 35.5097L67.3109 34.5991H65.0029V43.8805H68.0033V38.8369C68.0015 38.5404 68.0715 38.2477 68.2075 37.9833C68.3386 37.7232 68.5378 37.5025 68.7845 37.3441C69.0322 37.1838 69.3227 37.1 69.6189 37.1033C69.8167 37.0916 70.0146 37.1259 70.1965 37.2035C70.3784 37.281 70.5393 37.3997 70.6663 37.5498C70.9089 37.8475 71.0302 38.2795 71.0302 38.8457V43.8805H74.0306V38.6532C74.0595 38.3811 74.1473 38.1183 74.288 37.8825C74.4243 37.6491 74.6182 37.4534 74.8517 37.3135C75.0885 37.1725 75.3606 37.0997 75.6373 37.1033C75.8351 37.0916 76.033 37.1259 76.2149 37.2035C76.3968 37.281 76.5578 37.3997 76.6847 37.5498C76.9273 37.8475 77.0487 38.2795 77.0488 38.8457V43.8805H80.0491V38.443C80.072 37.671 79.9251 36.9033 79.6186 36.1927C79.3687 35.6219 78.9473 35.1405 78.4113 34.8136Z" fill="#2766A5"/>
<path id="Vector_8" d="M86.5351 40.2456L84.6176 34.3091H81.3154L85.0704 43.5905H87.9996L91.7723 34.3091H88.4614L86.5351 40.2456Z" fill="#2766A5"/>
<path id="Vector_9" d="M95.3308 30.0231C95.0447 29.8652 94.7222 29.7822 94.3943 29.7822C94.0664 29.7822 93.7439 29.8652 93.4578 30.0231C93.1933 30.1759 92.9743 30.3949 92.8232 30.6579C92.6757 30.9079 92.5976 31.1918 92.5967 31.481C92.5972 31.7689 92.6754 32.0515 92.8232 32.2997C92.9754 32.5608 93.1941 32.7782 93.4578 32.9301C93.744 33.088 94.0664 33.1709 94.3943 33.1709C94.7222 33.1709 95.0446 33.088 95.3308 32.9301C95.5936 32.779 95.8123 32.5632 95.9655 32.304C96.1143 32.0546 96.1924 31.7704 96.1918 31.481C96.1909 31.1918 96.1128 30.9079 95.9655 30.6579C95.8143 30.3949 95.5953 30.1759 95.3308 30.0231Z" fill="#2766A5"/>
<path id="Vector_10" d="M95.8626 34.3091H92.8623V43.5905H95.8626V34.3091Z" fill="#2766A5"/>
<path id="Vector_11" d="M104.59 34.7251C103.811 34.3024 102.932 34.0924 102.043 34.1166C101.19 34.1039 100.35 34.3317 99.6239 34.7733C98.9146 35.207 98.3366 35.8209 97.9506 36.5507C97.5461 37.3059 97.3387 38.1485 97.3469 39.0025C97.3408 39.8489 97.5597 40.6821 97.9817 41.4191C98.3979 42.1536 99.0065 42.7645 99.7438 43.1879C100.514 43.6305 101.391 43.8576 102.282 43.8446C102.929 43.8514 103.571 43.7431 104.178 43.5249C104.741 43.3199 105.26 43.0125 105.709 42.6187L104.342 40.6749C104.093 40.8898 103.809 41.0629 103.503 41.1871C103.176 41.3117 102.828 41.3727 102.478 41.3666C102.001 41.3757 101.532 41.243 101.133 40.9856C100.741 40.7269 100.449 40.3461 100.303 39.9042H106.677C106.729 39.5769 106.756 39.2461 106.756 38.9148C106.774 38.052 106.585 37.1972 106.206 36.4194C105.851 35.7082 105.288 35.1181 104.59 34.7251ZM100.25 37.9868C100.35 37.5498 100.595 37.1583 100.947 36.8747C101.297 36.6126 101.728 36.4767 102.167 36.4895C102.595 36.4747 103.015 36.6096 103.352 36.8704C103.691 37.1608 103.923 37.5531 104.014 37.9868L100.25 37.9868Z" fill="#2766A5"/>
<path id="Vector_12" d="M111.701 37.0893C112.018 36.901 112.382 36.8026 112.753 36.8048C113.076 36.7991 113.397 36.8555 113.698 36.971C113.994 37.0946 114.271 37.2598 114.519 37.4615L115.993 35.3424C115.552 34.9542 115.041 34.6499 114.488 34.445C113.885 34.2216 113.246 34.1103 112.602 34.1167C111.715 34.104 110.841 34.3311 110.076 34.7734C109.339 35.2002 108.73 35.8139 108.314 36.5508C107.888 37.299 107.667 38.1443 107.675 39.0026C107.668 39.8518 107.887 40.688 108.31 41.4279C108.726 42.1625 109.335 42.7733 110.072 43.1967C110.842 43.6393 111.719 43.8664 112.61 43.8534C113.251 43.8583 113.888 43.747 114.488 43.525C115.043 43.3228 115.553 43.0182 115.993 42.6275L114.519 40.5172C114.269 40.7144 113.993 40.8765 113.698 40.9989C113.397 41.1145 113.076 41.171 112.753 41.1652C112.385 41.1666 112.024 41.0682 111.71 40.8807C111.388 40.6918 111.121 40.4232 110.937 40.1015C110.744 39.767 110.644 39.3877 110.649 39.0026C110.642 38.6081 110.74 38.2187 110.933 37.8729C111.114 37.549 111.379 37.2785 111.701 37.0893Z" fill="#2766A5"/>
<path id="Vector_13" d="M125.469 34.5982C124.876 34.2695 124.205 34.1032 123.525 34.1167C123.022 34.1235 122.524 34.2215 122.056 34.4056C121.569 34.5839 121.116 34.8447 120.72 35.1761V30.4565H117.737V43.5906H120.72V38.5471C120.721 38.2461 120.809 37.9516 120.973 37.6979C121.143 37.4279 121.382 37.2061 121.665 37.0542C121.96 36.8933 122.292 36.8104 122.628 36.8135C122.85 36.8047 123.071 36.8445 123.275 36.93C123.479 37.0156 123.662 37.1447 123.809 37.3082C124.105 37.638 124.253 38.0977 124.253 38.6873V43.5906H127.253V38.1531C127.272 37.4071 127.11 36.6674 126.783 35.9948C126.494 35.4115 126.037 34.9256 125.469 34.5982Z" fill="#F39623"/>
<path id="Vector_14" d="M135.859 35.2114C135.525 34.8545 135.118 34.5721 134.665 34.3833C134.212 34.1946 133.723 34.1037 133.231 34.117C132.393 34.1116 131.569 34.3359 130.852 34.7649C130.129 35.1921 129.532 35.7989 129.121 36.5248C128.483 37.636 128.307 38.9477 128.629 40.1845C128.951 41.4213 129.746 42.4869 130.848 43.1575C131.565 43.5902 132.391 43.8161 133.231 43.8097C133.715 43.825 134.196 43.7384 134.643 43.5557C135.09 43.373 135.492 43.0985 135.823 42.7503L136.152 43.591H138.46V34.3095H136.24L135.859 35.2114ZM135.326 40.0448C135.149 40.3539 134.889 40.6097 134.576 40.7847C134.252 40.9645 133.886 41.0566 133.515 41.0517C133.147 41.0574 132.783 40.9651 132.463 40.7847C132.155 40.609 131.902 40.353 131.731 40.0448C131.555 39.7136 131.464 39.3453 131.465 38.9716C131.465 38.5978 131.558 38.2299 131.735 37.8995C131.908 37.5864 132.164 37.326 132.477 37.1465C132.799 36.9685 133.162 36.8751 133.531 36.8751C133.9 36.8751 134.263 36.9685 134.585 37.1465C134.899 37.325 135.157 37.5856 135.331 37.8995C135.513 38.2295 135.606 38.6005 135.601 38.9766C135.607 39.3504 135.512 39.7191 135.326 40.0448Z" fill="#F39623"/>
<path id="Vector_15" d="M146.678 34.3091L144.752 40.1231L142.825 34.3091H139.55L143.269 43.5643L141.964 46.6988H145.16L149.998 34.3091H146.678Z" fill="#F39623"/>
</g>
</svg>
