<svg width="232" height="228" viewBox="0 0 232 228" fill="none" xmlns="http://www.w3.org/2000/svg">
<path d="M0.0908102 135.114C-1.5087 111.896 18.4186 74.399 28.5821 58.5529C35.4134 50.7133 60.9723 31.231 108.558 16.0189C182.135 -0.394302 207.861 37.5361 211.526 58.5529C213.859 79.2362 210.727 134.514 179.536 190.158C148.346 245.803 113.556 228.022 100.06 212.176C89.7302 204.336 66.6705 188.257 57.0734 186.656C14.0865 184.154 2.0902 164.138 0.0908102 135.114Z" fill="#FFF5E9"/>
<path d="M25.2522 17.6704C16.8547 34.0835 38.7481 83.0666 38.7481 97.2342C38.7481 115.092 35.749 119.752 27.7514 141.269C19.7539 162.787 11.7563 189.808 25.2522 202.819C38.7481 215.829 84.7341 222.835 115.225 191.81C145.716 160.785 172.707 165.789 186.703 164.288C200.699 162.787 228.69 160.285 231.689 126.758C234.688 93.231 215.694 75.2165 186.703 66.2093C157.712 57.2021 140.717 29.68 105.228 11.6656C69.7387 -6.34887 35.749 -2.84606 25.2522 17.6704Z" fill="#FFEFDA"/>
</svg>
