<svg xmlns="http://www.w3.org/2000/svg" width="21" height="11" viewBox="0 0 21 11" fill="none">
  <path d="M10.5 0C2.125 0 0.5 6.09783 0.5 6.09783C0.5 6.09783 3.25 11 10.375 11C17.5 11 20.5 6.21739 20.5 6.21739C20.5 6.21739 18.875 0 10.5 0ZM7.125 1.79348C7.75 1.43478 8.75 1.43478 8.75 1.43478C8.75 1.43478 8.125 2.51087 8.125 3.34783C8.125 4.18478 8.375 4.66304 8.375 4.66304L7 4.90217C7 4.90217 6.625 4.30435 6.625 3.46739C6.625 2.51087 7.125 1.79348 7.125 1.79348ZM10.375 9.80435C5.25 9.80435 2.625 7.05435 1.875 5.97826C2.25 5.1413 3.25 3.34783 5.75 2.15217C5.625 2.63043 5.5 3.1087 5.5 3.70652C5.5 6.33696 7.75 8.48913 10.5 8.48913C13.25 8.48913 15.5 6.33696 15.5 3.70652C15.5 3.1087 15.375 2.63043 15.25 2.15217C17.75 3.22826 18.75 5.1413 19.125 5.97826C18.25 7.05435 15.625 9.80435 10.375 9.80435Z" fill="white"/>
</svg>