<svg xmlns="http://www.w3.org/2000/svg" width="83" height="83" viewBox="0 0 83 83" fill="none">
  <path d="M71.4735 78.3888H29.9735C29.3621 78.3888 28.7756 78.1459 28.3433 77.7135C27.9109 77.2811 27.668 76.6947 27.668 76.0832V25.361C27.668 24.7495 27.9109 24.1631 28.3433 23.7307C28.7756 23.2983 29.3621 23.0554 29.9735 23.0554H71.4735C72.085 23.0554 72.6714 23.2983 73.1038 23.7307C73.5362 24.1631 73.7791 24.7495 73.7791 25.361V76.0832C73.7791 76.6947 73.5362 77.2811 73.1038 77.7135C72.6714 78.1459 72.085 78.3888 71.4735 78.3888ZM32.2791 73.7776H69.168V27.6665H32.2791V73.7776Z" fill="#3582CD"/>
  <path d="M36.8867 36.8889H64.5534V41.5H36.8867V36.8889Z" fill="#3582CD"/>
  <path d="M36.8867 46.1111H64.5534V50.7222H36.8867V46.1111Z" fill="#3582CD"/>
  <path d="M36.8867 55.3334H64.5534V59.9445H36.8867V55.3334Z" fill="#3582CD"/>
  <path d="M13.8377 55.3333V9.2222H55.3377V6.91664C55.3377 6.30517 55.0948 5.71874 54.6624 5.28637C54.23 4.85399 53.6436 4.61108 53.0321 4.61108H11.5321C10.9206 4.61108 10.3342 4.85399 9.90184 5.28637C9.46947 5.71874 9.22656 6.30517 9.22656 6.91664V57.6389C9.22656 58.2503 9.46947 58.8368 9.90184 59.2691C10.3342 59.7015 10.9206 59.9444 11.5321 59.9444H13.8377V55.3333Z" fill="#3582CD"/>
  <path d="M22.951 63.831V18.3786H63.5025V16.106C63.5025 15.5033 63.2651 14.9252 62.8426 14.499C62.4201 14.0728 61.8471 13.8334 61.2496 13.8334H20.6982C20.1007 13.8334 19.5277 14.0728 19.1052 14.499C18.6827 14.9252 18.4453 15.5033 18.4453 16.106V66.1036C18.4453 66.7063 18.6827 67.2844 19.1052 67.7106C19.5277 68.1368 20.1007 68.3762 20.6982 68.3762H22.951V63.831Z" fill="#3582CD"/>
</svg>