<svg width="60" height="60" viewBox="0 0 60 60" fill="none" xmlns="http://www.w3.org/2000/svg">
<g id="Frame 1000008784">
<rect width="60" height="60" rx="30" fill="white"/>
<rect x="0.5" y="0.5" width="59" height="59" rx="29.5" stroke="#3582CD" stroke-opacity="0.5"/>
<path id="Ellipse 1147" d="M59 52C59 55.866 55.866 59 52 59C48.134 59 45 55.866 45 52C45 48.134 48.134 45 52 45C55.866 45 59 48.134 59 52Z" fill="#5DC22D" stroke="white" strokeWidth="2"/>
<g id="Group 1000007269">
<g id="Group 1000007268">
<g id="Group">
<path id="Vector" fillRule="evenodd" clipRule="evenodd" d="M13.8618 25.9306C14.2143 26.5593 14.5073 27.3864 14.7856 28.1835C19.2302 25.0437 24.6283 22.3344 27.6854 22.0313C30.4791 21.7468 31.8185 23.4271 30.9206 26.114C30.238 28.1648 26.45 34.4405 24.1163 34.3357C22.2947 34.2683 22.7028 31.8172 22.1834 30.5373C21.7234 31.0799 20.9035 32.4421 20.5918 32.8799C17.5199 37.2022 15.5833 32.9997 14.6298 29.7702C11.9882 31.4991 9.55065 33.4375 8.45989 35.1253C7.99984 35.84 7.73276 36.4612 8.28926 37.1798L8.49329 37.4342L8.16314 37.3407C7.2282 36.8504 7.57692 35.5631 7.95164 34.8334C8.89028 32.981 11.3463 30.6758 14.2995 28.5315C14.2624 28.393 14.2328 28.2658 14.2031 28.1423C14.0176 27.3564 13.8692 26.7539 13.8618 25.9306ZM15.227 29.3847L15.2308 29.3959C15.5795 30.2903 17.1081 34.3282 18.4437 33.4899C20.0093 32.5057 21.0518 28.0001 22.8512 29.1078C23.7008 29.6354 23.9012 31.3606 24.0941 32.2887C24.1238 32.4196 24.1497 32.5881 24.2165 32.719C25.6004 32.1989 28.2383 27.6408 28.8096 26.2712C28.984 25.8371 29.585 24.3215 29.0842 24.0034C27.8561 23.225 23.6155 24.9427 22.3467 25.5003C20.5584 26.2899 17.8352 27.7232 15.227 29.3847ZM24.2499 32.7864C24.2536 32.7864 24.2573 32.7901 24.261 32.7939C24.2573 32.7901 24.2536 32.7901 24.2499 32.7864Z" fill="#3582CD"/>
</g>
<path id="Vector_2" fillRule="evenodd" clipRule="evenodd" d="M9.47601 38.512C9.68377 38.512 9.84704 38.3436 9.84704 38.1378C9.84704 37.9319 9.68377 37.7635 9.47601 37.7635C9.27196 37.7635 9.10498 37.9319 9.10498 38.1378C9.10498 38.3436 9.27196 38.512 9.47601 38.512Z" fill="#3582CD"/>
</g>
<path id="o" d="M34.5643 30.815C34.5643 31.145 34.5145 31.4405 34.4148 31.7013C34.315 31.9568 34.1733 32.1724 33.9897 32.348C33.8112 32.5237 33.5961 32.6568 33.3442 32.7473C33.0923 32.8378 32.8115 32.883 32.5019 32.883C32.1923 32.883 31.9115 32.8351 31.6596 32.7393C31.4077 32.6435 31.1899 32.5077 31.0062 32.3321C30.8278 32.1511 30.6887 31.9328 30.589 31.6773C30.4893 31.4218 30.4395 31.1344 30.4395 30.815C30.4395 30.501 30.4893 30.2162 30.589 29.9607C30.6887 29.7052 30.8278 29.4896 31.0062 29.3139C31.1899 29.1329 31.4077 28.9945 31.6596 28.8987C31.9115 28.8029 32.1923 28.755 32.5019 28.755C32.8115 28.755 33.0923 28.8056 33.3442 28.9067C33.5961 29.0025 33.8112 29.1409 33.9897 29.3219C34.1733 29.4976 34.315 29.7131 34.4148 29.9687C34.5145 30.2242 34.5643 30.5063 34.5643 30.815ZM31.8092 30.815C31.8092 31.1397 31.8695 31.3899 31.9902 31.5656C32.1162 31.7359 32.2893 31.8211 32.5098 31.8211C32.7302 31.8211 32.8981 31.7332 33.0136 31.5576C33.1343 31.3819 33.1946 31.1344 33.1946 30.815C33.1946 30.4956 33.1343 30.2508 33.0136 30.0804C32.8929 29.9048 32.7223 29.8169 32.5019 29.8169C32.2815 29.8169 32.1109 29.9048 31.9902 30.0804C31.8695 30.2508 31.8092 30.4956 31.8092 30.815Z" fill="#F8971C"/>
<g id="rk247">
<path d="M36.8125 34.0021C36.7675 34.0156 36.6955 34.0291 36.5965 34.0426C36.502 34.0561 36.403 34.0629 36.2995 34.0629C36.2005 34.0629 36.1105 34.0561 36.0295 34.0426C35.953 34.0291 35.8878 34.0021 35.8338 33.9615C35.7798 33.921 35.737 33.867 35.7055 33.7994C35.6785 33.7274 35.665 33.635 35.665 33.5225V31.496C35.665 31.3924 35.683 31.3046 35.719 31.2326C35.7595 31.156 35.8158 31.0884 35.8878 31.0299C35.9598 30.9714 36.0475 30.9196 36.151 30.8745C36.259 30.825 36.3738 30.7822 36.4953 30.7462C36.6168 30.7102 36.7428 30.6832 36.8733 30.6651C37.0037 30.6426 37.1342 30.6314 37.2647 30.6314C37.4807 30.6314 37.6517 30.6741 37.7777 30.7597C37.9037 30.8408 37.9667 30.9759 37.9667 31.165C37.9667 31.228 37.9577 31.2911 37.9397 31.3541C37.9217 31.4127 37.8992 31.4667 37.8722 31.5163C37.7777 31.5163 37.681 31.5208 37.582 31.5298C37.483 31.5388 37.3862 31.5523 37.2917 31.5703C37.1972 31.5883 37.1072 31.6086 37.0217 31.6311C36.9407 31.6491 36.871 31.6716 36.8125 31.6986V34.0021Z" fill="#F8971C"/>
<path d="M41.6462 33.4144C41.6237 33.626 41.5607 33.7882 41.4572 33.9007C41.3583 34.0133 41.212 34.0696 41.0185 34.0696C40.8745 34.0696 40.7463 34.0358 40.6338 33.9683C40.5213 33.8962 40.3998 33.7769 40.2693 33.6103L39.6011 32.7727V34.0021C39.5516 34.0111 39.4773 34.0223 39.3783 34.0358C39.2838 34.0539 39.1871 34.0629 39.0881 34.0629C38.9891 34.0629 38.8991 34.0561 38.8181 34.0426C38.7416 34.0291 38.6763 34.0021 38.6223 33.9615C38.5683 33.921 38.5256 33.867 38.4941 33.7994C38.4671 33.7274 38.4536 33.635 38.4536 33.5225V29.6114C38.5031 29.5979 38.5751 29.5844 38.6696 29.5708C38.7686 29.5528 38.8676 29.5438 38.9666 29.5438C39.0656 29.5438 39.1533 29.5506 39.2298 29.5641C39.3108 29.5776 39.3783 29.6046 39.4323 29.6451C39.4863 29.6857 39.5268 29.742 39.5538 29.814C39.5853 29.8816 39.6011 29.9716 39.6011 30.0842V31.8675L40.762 30.6786C40.996 30.6786 41.1828 30.7304 41.3223 30.834C41.4662 30.9376 41.5382 31.0682 41.5382 31.2258C41.5382 31.2933 41.527 31.3564 41.5045 31.4149C41.482 31.469 41.446 31.5253 41.3965 31.5838C41.3515 31.6423 41.2908 31.7054 41.2143 31.7729C41.1423 31.836 41.0568 31.9103 40.9578 31.9959L40.5663 32.3336L41.6462 33.4144Z" fill="#F8971C"/>
<path d="M43.4598 29.8005C43.7163 29.8005 43.9436 29.8343 44.1416 29.9018C44.3395 29.9649 44.5083 30.0527 44.6478 30.1653C44.7873 30.2779 44.893 30.4107 44.965 30.5638C45.037 30.7169 45.073 30.8813 45.073 31.0569C45.073 31.5298 44.8053 31.9801 44.2698 32.4079L43.3856 33.1172H45.0055C45.0325 33.1667 45.0573 33.2298 45.0798 33.3063C45.1068 33.3829 45.1203 33.4662 45.1203 33.5562C45.1203 33.7184 45.0843 33.8354 45.0123 33.9075C44.9403 33.975 44.8458 34.0088 44.7288 34.0088H42.3866C42.2876 33.9413 42.2089 33.8557 42.1504 33.7521C42.0964 33.6441 42.0694 33.518 42.0694 33.3739C42.0694 33.2207 42.1009 33.0924 42.1639 32.9888C42.2269 32.8807 42.2966 32.7952 42.3731 32.7321L43.3046 31.9351C43.4216 31.836 43.5183 31.7482 43.5948 31.6716C43.6713 31.5906 43.7321 31.5185 43.7771 31.4555C43.8266 31.3924 43.8603 31.3339 43.8783 31.2798C43.9008 31.2258 43.9121 31.174 43.9121 31.1245C43.9121 30.9984 43.8558 30.8993 43.7433 30.8273C43.6353 30.7552 43.5003 30.7192 43.3383 30.7192C43.1583 30.7192 42.9963 30.7484 42.8523 30.807C42.7128 30.861 42.5959 30.9196 42.5014 30.9826C42.4249 30.9286 42.3619 30.861 42.3124 30.78C42.2629 30.6989 42.2381 30.6043 42.2381 30.4963C42.2381 30.2621 42.3484 30.0887 42.5689 29.9761C42.7893 29.8591 43.0863 29.8005 43.4598 29.8005Z" fill="#F8971C"/>
<path d="M47.2571 29.9491C47.3426 29.9221 47.4393 29.8996 47.5473 29.8816C47.6598 29.8636 47.7611 29.8545 47.8511 29.8545C47.9546 29.8545 48.0536 29.8658 48.1481 29.8883C48.2471 29.9063 48.3348 29.9401 48.4113 29.9896C48.4878 30.0347 48.5486 30.0977 48.5936 30.1788C48.6386 30.2598 48.6611 30.3612 48.6611 30.4828V32.2796H49.2618C49.2888 32.3291 49.3158 32.3944 49.3428 32.4755C49.3698 32.5565 49.3833 32.6421 49.3833 32.7321C49.3833 32.9033 49.345 33.0249 49.2685 33.0969C49.192 33.169 49.0953 33.205 48.9783 33.205H48.6611V34.0021C48.6116 34.0111 48.5373 34.0223 48.4383 34.0358C48.3393 34.0539 48.2448 34.0629 48.1548 34.0629C48.0558 34.0629 47.9681 34.0584 47.8916 34.0493C47.8151 34.0403 47.7498 34.0201 47.6958 33.9886C47.6463 33.9525 47.6081 33.903 47.5811 33.8399C47.5541 33.7769 47.5406 33.6913 47.5406 33.5833V33.205H45.8464C45.7429 33.1509 45.6529 33.0721 45.5764 32.9686C45.5044 32.8605 45.4684 32.7299 45.4684 32.5768C45.4684 32.4912 45.4797 32.3966 45.5022 32.2931C45.5247 32.1895 45.5629 32.0994 45.6169 32.0229L47.2571 29.9491ZM47.6013 31.0096H47.5811L46.6834 32.2796H47.6013V31.0096Z" fill="#F8971C"/>
<path d="M52.1376 29.9018C52.2141 29.9514 52.2816 30.0212 52.3401 30.1112C52.4031 30.1968 52.4346 30.3049 52.4346 30.4355C52.4346 30.5075 52.4278 30.5818 52.4143 30.6584C52.4008 30.7304 52.3783 30.8025 52.3468 30.8745L50.9429 34.0561C50.8799 34.0606 50.8191 34.0629 50.7606 34.0629C50.7066 34.0629 50.6549 34.0629 50.6054 34.0629C50.4029 34.0629 50.2386 34.0246 50.1126 33.948C49.9866 33.8715 49.9236 33.7386 49.9236 33.5495C49.9236 33.4549 49.9461 33.3536 49.9911 33.2455C50.0361 33.1329 50.0969 33.0001 50.1734 32.847L51.1588 30.8273H49.5052C49.4782 30.7777 49.4512 30.7124 49.4242 30.6314C49.3972 30.5503 49.3837 30.4647 49.3837 30.3747C49.3837 30.2036 49.4219 30.082 49.4984 30.0099C49.5749 29.9379 49.6716 29.9018 49.7886 29.9018H52.1376Z" fill="#F8971C"/>
</g>
<rect id="Rectangle 3465581" x="31.564" y="33.2581" width="3.74988" height="0.750545" rx="0.375273" fill="#3582CD"/>
</g>
</g>
</svg>
