<svg width="30" height="30" viewBox="0 0 30 30" fill="none" xmlns="http://www.w3.org/2000/svg">
<g id="Group">
<path id="Vector" d="M29.1667 14.5833C29.1667 14.1966 29.013 13.8256 28.7395 13.5521C28.466 13.2786 28.0951 13.125 27.7083 13.125C27.3216 13.125 26.9506 13.2786 26.6771 13.5521C26.4036 13.8256 26.25 14.1966 26.25 14.5833H29.1667ZM14.5833 2.91667C14.9701 2.91667 15.341 2.76302 15.6145 2.48953C15.888 2.21604 16.0417 1.84511 16.0417 1.45833C16.0417 1.07156 15.888 0.700626 15.6145 0.427136C15.341 0.153645 14.9701 0 14.5833 0V2.91667ZM25.5208 26.25H3.64583V29.1667H25.5208V26.25ZM2.91667 25.5208V3.64583H0V25.5208H2.91667ZM26.25 14.5833V25.5208H29.1667V14.5833H26.25ZM3.64583 2.91667H14.5833V0H3.64583V2.91667ZM3.64583 26.25C3.45245 26.25 3.26698 26.1732 3.13023 26.0364C2.99349 25.8997 2.91667 25.7142 2.91667 25.5208H0C0 26.4878 0.384113 27.4151 1.06784 28.0988C1.75157 28.7826 2.6789 29.1667 3.64583 29.1667V26.25ZM25.5208 29.1667C26.4878 29.1667 27.4151 28.7826 28.0988 28.0988C28.7826 27.4151 29.1667 26.4878 29.1667 25.5208H26.25C26.25 25.7142 26.1732 25.8997 26.0364 26.0364C25.8997 26.1732 25.7142 26.25 25.5208 26.25V29.1667ZM2.91667 3.64583C2.91667 3.45245 2.99349 3.26698 3.13023 3.13023C3.26698 2.99349 3.45245 2.91667 3.64583 2.91667V0C2.6789 0 1.75157 0.384113 1.06784 1.06784C0.384113 1.75157 0 2.6789 0 3.64583H2.91667Z" fill="#9E9E9E"/>
<path id="Vector_2" d="M1.45801 22.6042L9.25499 15.4569C9.51779 15.216 9.85971 15.0798 10.2161 15.0738C10.5726 15.0679 10.9188 15.1928 11.1895 15.4248L20.4163 23.3333M17.4997 19.6875L20.98 16.2072C21.2282 15.9588 21.5578 15.8083 21.9081 15.7834C22.2583 15.7585 22.6059 15.8608 22.8868 16.0716L27.708 19.6875M18.958 5.83333H27.708M23.333 1.45833V10.2083" stroke="#9E9E9E" strokeWidth="2.91667" strokeLinecap="round" strokeLinejoin="round"/>
</g>
</svg>
