<svg xmlns="http://www.w3.org/2000/svg" width="19" height="24" viewBox="0 0 19 24" fill="none">
  <path d="M17.75 3.78596H13.25V2.55382C13.25 2.00917 13.0525 1.48684 12.7008 1.10172C12.3492 0.716602 11.8723 0.500244 11.375 0.500244H7.625C7.12772 0.500244 6.65081 0.716602 6.29917 1.10172C5.94754 1.48684 5.75 2.00917 5.75 2.55382V3.78596H1.25C1.05109 3.78596 0.860322 3.8725 0.71967 4.02655C0.579018 4.1806 0.5 4.38953 0.5 4.60739C0.5 4.82524 0.579018 5.03418 0.71967 5.18822C0.860322 5.34227 1.05109 5.42882 1.25 5.42882H2.04688L2.9375 21.0832C3.00406 22.4617 3.96875 23.5002 5.1875 23.5002H13.8125C15.0373 23.5002 15.9828 22.4848 16.0625 21.0873L16.9531 5.42882H17.75C17.9489 5.42882 18.1397 5.34227 18.2803 5.18822C18.421 5.03418 18.5 4.82524 18.5 4.60739C18.5 4.38953 18.421 4.1806 18.2803 4.02655C18.1397 3.8725 17.9489 3.78596 17.75 3.78596ZM6.52672 20.2145H6.5C6.30563 20.2147 6.11881 20.1322 5.9789 19.9844C5.83899 19.8366 5.75692 19.6351 5.75 19.4224L5.375 7.92237C5.36791 7.70451 5.44014 7.49249 5.57578 7.33296C5.71142 7.17342 5.89937 7.07943 6.09828 7.07167C6.29719 7.06391 6.49077 7.14301 6.63644 7.29157C6.7821 7.44013 6.86791 7.64598 6.875 7.86384L7.25 19.3638C7.25357 19.4717 7.23769 19.5793 7.20326 19.6805C7.16884 19.7817 7.11654 19.8744 7.04937 19.9534C6.98219 20.0324 6.90146 20.0961 6.81178 20.1409C6.7221 20.1857 6.62523 20.2108 6.52672 20.2145ZM10.25 19.3931C10.25 19.611 10.171 19.8199 10.0303 19.9739C9.88968 20.128 9.69891 20.2145 9.5 20.2145C9.30109 20.2145 9.11032 20.128 8.96967 19.9739C8.82902 19.8199 8.75 19.611 8.75 19.3931V7.8931C8.75 7.67525 8.82902 7.46631 8.96967 7.31226C9.11032 7.15822 9.30109 7.07167 9.5 7.07167C9.69891 7.07167 9.88968 7.15822 10.0303 7.31226C10.171 7.46631 10.25 7.67525 10.25 7.8931V19.3931ZM11.75 3.78596H7.25V2.55382C7.24943 2.49971 7.25875 2.44602 7.27739 2.39591C7.29604 2.3458 7.32364 2.30028 7.35857 2.26202C7.39351 2.22375 7.43507 2.19352 7.48083 2.1731C7.52658 2.15268 7.5756 2.14248 7.625 2.1431H11.375C11.4244 2.14248 11.4734 2.15268 11.5192 2.1731C11.5649 2.19352 11.6065 2.22375 11.6414 2.26202C11.6764 2.30028 11.704 2.3458 11.7226 2.39591C11.7413 2.44602 11.7506 2.49971 11.75 2.55382V3.78596ZM13.25 19.4224C13.2431 19.6351 13.161 19.8366 13.0211 19.9844C12.8812 20.1322 12.6944 20.2147 12.5 20.2145H12.4728C12.3743 20.2107 12.2775 20.1856 12.1879 20.1408C12.0983 20.096 12.0176 20.0322 11.9505 19.9532C11.8833 19.8742 11.8311 19.7815 11.7967 19.6804C11.7623 19.5792 11.7464 19.4717 11.75 19.3638L12.125 7.86384C12.1285 7.75597 12.1514 7.64991 12.1923 7.55172C12.2332 7.45353 12.2914 7.36513 12.3636 7.29157C12.4357 7.21801 12.5203 7.16073 12.6127 7.123C12.705 7.08527 12.8032 7.06783 12.9017 7.07167C13.0002 7.07552 13.097 7.10057 13.1867 7.1454C13.2763 7.19023 13.3571 7.25396 13.4242 7.33296C13.4914 7.41195 13.5437 7.50466 13.5781 7.60579C13.6126 7.70692 13.6285 7.81449 13.625 7.92237L13.25 19.4224Z" fill="#777777"/>
</svg>