<svg xmlns="http://www.w3.org/2000/svg" width="21" height="20" viewBox="0 0 21 20" fill="none">
  <path d="M5.29208 18.3105L6.4934 17.1092L3.39109 14.0068L2.18977 15.2082V16.6207H3.87954V18.3105H5.29208ZM12.1964 6.05965C12.1964 5.86603 12.0996 5.76922 11.9059 5.76922C11.8179 5.76922 11.7431 5.80002 11.6815 5.86163L4.5264 13.0167C4.4648 13.0784 4.43399 13.1532 4.43399 13.2412C4.43399 13.4348 4.5308 13.5316 4.72442 13.5316C4.81243 13.5316 4.88724 13.5008 4.94884 13.4392L12.104 6.28407C12.1656 6.22247 12.1964 6.14766 12.1964 6.05965ZM11.4835 3.525L16.9752 9.01675L5.99175 20.0002H0.5V14.5085L11.4835 3.525ZM20.5 4.79232C20.5 5.25877 20.3372 5.65481 20.0116 5.98044L17.8201 8.17186L12.3284 2.68011L14.5198 0.501894C14.8366 0.167461 15.2327 0.000244141 15.7079 0.000244141C16.1744 0.000244141 16.5748 0.167461 16.9092 0.501894L20.0116 3.591C20.3372 3.93424 20.5 4.33468 20.5 4.79232Z" fill="#777777"/>
</svg>