<svg xmlns="http://www.w3.org/2000/svg" width="80" height="80" viewBox="0 0 80 80" fill="none">
  <path d="M58.9915 50.9575C59.4128 54.6187 59.2084 58.2264 58.1285 61.7699C56.5079 67.0945 53.4033 71.4555 49.3918 75.2297C47.9432 76.5809 46.3842 77.8092 44.7311 78.9018C44.1353 79.2972 43.5034 79.6378 42.8888 80.0003H41.6312C40.1741 79.3459 39.8314 78.1171 39.7544 76.6499C39.5343 72.4222 39.2309 68.1977 38.959 63.9732L42.4392 60.4187C47.1235 58.5968 51.5658 56.3135 55.6732 53.404C56.7987 52.6147 57.888 51.7767 58.9915 50.9575Z" fill="#FE1A1A"/>
  <path d="M29.0956 21.1002C29.9255 20.2449 30.7854 19.4163 31.5808 18.5281C32.7543 17.2478 34.0188 16.0536 35.3644 14.9548C37.8342 12.8887 40.4888 11.0533 43.2947 9.47176C46.2789 7.7776 49.3932 6.323 52.6083 5.1217C54.4129 4.45214 56.2347 3.83646 58.0739 3.27466C58.154 3.54144 58.3883 3.6811 58.569 3.86157C60.5748 5.87653 62.5816 7.88365 64.5895 9.88291C65.5326 10.8151 66.4884 11.73 67.4394 12.6527C67.4394 12.7029 67.4472 12.7547 67.4535 12.8096C67.3847 12.8444 67.3199 12.8865 67.2602 12.9352L58.8378 21.334C58.7458 21.4061 58.6695 21.4961 58.6136 21.5987C58.5576 21.7012 58.5232 21.814 58.5125 21.9303L58.2358 21.7859C55.8591 19.3802 52.9699 18.5768 49.6704 19.0554C44.7236 19.7725 40.9478 24.7723 41.553 29.7265C41.8313 32.0098 42.7854 33.9416 44.2866 35.6396C44.2866 35.9707 44.0162 36.1292 43.815 36.3269C39.772 40.3694 35.7259 44.4093 31.6767 48.4465C31.4786 48.6442 31.3167 48.9063 30.9866 48.9095L19.6641 37.6326C21.6185 32.4609 24.2827 27.5852 27.5802 23.1449C28.0864 22.4654 28.7262 21.8817 29.0956 21.1002Z" fill="#E0F0F9"/>
  <path d="M30.995 48.9045C31.3251 48.9045 31.487 48.6393 31.6851 48.4416C35.7343 44.4033 39.7805 40.3634 43.8234 36.322C44.0215 36.1243 44.295 35.9658 44.295 35.6346H44.3594L44.4223 35.6252C44.4572 35.6932 44.5005 35.7564 44.5512 35.8135C47.64 38.5833 51.1753 39.368 55.0296 37.8128C58.8447 36.2686 60.8944 33.287 61.1758 29.1817C61.3676 26.3963 60.3238 24.0031 58.5177 21.9222C58.5285 21.806 58.5629 21.6931 58.6188 21.5906C58.6748 21.488 58.7511 21.398 58.8431 21.3259L67.2607 12.9302C67.3205 12.8816 67.3853 12.8395 67.4541 12.8047C70.1494 15.4756 72.8457 18.1465 75.5432 20.8175C75.9644 21.2333 76.3291 21.7104 76.8431 22.0321C75.646 26.2016 74.0609 30.2502 72.1085 34.125C70.0817 38.1657 67.5645 41.9421 64.6136 45.3689C63.0417 47.1924 61.3613 48.9406 59.4483 50.4377C59.2753 50.5958 59.1174 50.7697 58.9767 50.9571C57.8764 51.7763 56.776 52.6143 55.6631 53.4083C51.5557 56.3178 47.1135 58.6011 42.4291 60.4231C38.7341 56.7248 35.0385 53.026 31.3424 49.3266C31.2283 49.2248 31.1081 49.1299 30.9824 49.0426C30.9945 48.9976 30.9987 48.9509 30.995 48.9045Z" fill="#CCEAFB"/>
  <path d="M29.0954 21.1001C28.726 21.8847 28.0862 22.4654 27.5801 23.1402C24.2825 27.5804 21.6184 32.4561 19.6639 37.6278C18.4724 38.788 17.2798 39.9467 16.0862 41.1038L3.61305 40.3097C3.14147 40.2783 2.6699 40.2485 2.21247 40.1857C0.349745 39.9284 -0.566682 38.1551 0.373325 36.5214C0.952407 35.5337 1.59565 34.5849 2.29893 33.681C6.46294 28.2498 11.5512 24.0613 18.2036 22.004C21.4976 20.9872 24.9677 20.6665 28.3928 21.0624C28.6254 21.0844 28.8612 21.0875 29.0954 21.1001Z" fill="#FE5B5B"/>
  <path d="M16.0851 41.1038C17.2777 39.9467 18.4702 38.7897 19.6628 37.6326L30.9948 48.9047C31.0026 48.9504 31.0026 48.9971 30.9948 49.0428C30.7621 49.4917 30.3518 49.782 30.006 50.1256C27.3757 52.7411 24.7406 55.3514 22.1008 57.9564C21.81 57.8654 21.6623 57.6049 21.4721 57.4087C19.067 55.038 16.6667 52.6637 14.2711 50.2857C13.6947 49.6894 13.1184 49.0925 12.542 48.4952C11.3694 47.279 11.3631 45.92 12.542 44.7132C13.7209 43.5064 14.8999 42.3059 16.0851 41.1038Z" fill="#1C3B6B"/>
  <path d="M22.1013 57.956C24.738 55.3468 27.373 52.7366 30.0065 50.1253C30.3523 49.7816 30.7626 49.4976 30.9952 49.0425C31.1209 49.1298 31.2411 49.2246 31.3552 49.3265C35.0524 53.0238 38.7479 56.7226 42.4419 60.4229L38.9664 63.9774C37.8137 65.1083 36.661 66.2387 35.5082 67.3686C34.0935 68.7605 32.8029 68.7527 31.3851 67.3482C30.8506 66.8193 30.3067 66.2999 29.766 65.7789C27.2625 63.1634 24.6992 60.6003 22.0762 58.0894C22.0766 58.0438 22.0851 57.9987 22.1013 57.956Z" fill="#011135"/>
  <path d="M22.0806 58.0916C24.7005 60.5961 27.2638 63.1593 29.7704 65.781C26.2996 69.2554 22.068 71.4148 17.4136 72.7958C14.5655 73.634 11.6314 74.1473 8.66743 74.3258C7.80445 74.3807 6.93832 74.3164 6.41016 73.4517C6.57861 73.3344 6.74026 73.2076 6.89431 73.0719C10.363 69.653 13.8301 66.2325 17.2957 62.8104C18.8896 61.2348 20.4846 59.6619 22.0806 58.0916Z" fill="#FCBF01"/>
  <path d="M22.078 58.0914C20.4831 59.6607 18.8881 61.23 17.2931 62.7993C13.8223 66.2245 10.3578 69.6471 6.89959 73.0671C6.74554 73.2027 6.58389 73.3295 6.41544 73.4469C5.78667 73.0373 5.68135 72.3484 5.71436 71.7207C5.89888 67.8007 6.68345 63.9321 8.0408 60.2492C9.43824 56.508 11.4173 53.1184 14.2719 50.2795C16.6706 52.6554 19.071 55.0298 21.4728 57.4025C21.6709 57.5987 21.8187 57.8592 22.1016 57.9502C22.085 57.9954 22.077 58.0433 22.078 58.0914Z" fill="#FEF161"/>
  <path d="M76.8505 22.0322C76.3396 21.7183 75.9718 21.2334 75.5505 20.8176C72.8499 18.1508 70.1536 15.4799 67.4614 12.8048C67.4614 12.7546 67.4488 12.7028 67.4473 12.6479C67.812 12.4752 68.0367 12.1473 68.3087 11.8726C70.7121 9.4324 73.103 6.9796 75.5144 4.54878C76.7923 3.25883 78.1049 2.00183 79.4033 0.730713C79.8654 1.06654 79.9833 1.52634 79.9927 2.08344C80.1122 8.65089 78.7792 14.9955 77.0737 21.2852C77.0077 21.5394 76.9244 21.7921 76.8505 22.0322Z" fill="#FE1A1A"/>
  <path d="M79.4001 0.735504C78.1016 2.00662 76.7891 3.26362 75.5111 4.55357C73.0998 6.98439 70.7089 9.43719 68.3055 11.8774C68.0335 12.152 67.8087 12.48 67.444 12.6527C66.5009 11.7299 65.5342 10.815 64.5942 9.88286C62.579 7.88359 60.57 5.877 58.5674 3.86309C58.3882 3.68262 58.1524 3.54923 58.0723 3.27618C63.7422 1.64569 69.5048 0.526787 75.3995 0.137604C76.1273 0.0873871 76.8551 0.0293241 77.5829 0.00578487C77.9215 -0.0186234 78.2611 0.0344213 78.576 0.160877C78.8909 0.287332 79.1727 0.483864 79.4001 0.735504Z" fill="#FE5B5B"/>
  <path d="M44.4188 35.6302L44.356 35.6396H44.2915C42.7903 33.9416 41.8362 32.0098 41.5579 29.7265C40.9528 24.7723 44.7285 19.7726 49.6753 19.0554C52.9764 18.5846 55.864 19.3802 58.2407 21.786C57.274 23.0508 56.0966 24.1085 54.9177 25.1646C54.8689 25.174 54.8186 25.1803 54.7699 25.185C52.6148 23.2752 49.68 23.3395 47.7717 25.342C46.8832 26.2725 46.3964 27.5143 46.4164 28.7997C46.4364 30.0852 46.9615 31.3113 47.8786 32.2139C47.8836 32.2559 47.8925 32.2974 47.9053 32.3378C47.6743 32.545 47.4338 32.749 47.2137 32.9655C46.2674 33.8286 45.4547 34.8455 44.4188 35.6302Z" fill="#1C3C6C"/>
  <path d="M44.4199 35.6301C45.4558 34.8455 46.2685 33.8286 47.2148 32.9513C47.4427 32.7411 47.6754 32.5371 47.9064 32.3236C48.0951 32.4602 48.2821 32.6014 48.4755 32.7301C50.2785 33.9321 52.1286 33.9729 53.9898 32.8964C55.6214 31.9548 56.4702 29.976 56.2392 28.0128C56.1071 26.8955 55.4705 26.0543 54.9188 25.1536C56.0977 24.0974 57.2766 23.0397 58.2418 21.7749L58.5185 21.9193C60.3246 24.0033 61.3683 26.3933 61.1766 29.1788C60.8952 33.2809 58.8454 36.2625 55.0304 37.8098C51.176 39.3681 47.6424 38.5945 44.5488 35.8153C44.4983 35.7592 44.455 35.697 44.4199 35.6301Z" fill="#011236"/>
  <path d="M54.9199 25.1599C55.4716 26.0607 56.1083 26.9018 56.2403 28.0191C56.4714 29.9823 55.6226 31.9596 53.9909 32.9028C52.1298 33.9793 50.2796 33.9385 48.4766 32.7364C48.2833 32.6077 48.0962 32.4665 47.9076 32.33C47.8948 32.2896 47.8858 32.2481 47.8809 32.206C48.0836 31.9737 48.277 31.7352 48.4939 31.5124C50.5846 29.4001 52.6773 27.2894 54.7721 25.1803C54.8209 25.1756 54.8712 25.1693 54.9199 25.1599Z" fill="#1DACB4"/>
  <path d="M54.7701 25.1804C52.6742 27.2916 50.5815 29.4023 48.4919 31.5125C48.275 31.7322 48.0816 31.9739 47.8788 32.2061C46.9618 31.3036 46.4366 30.0775 46.4166 28.792C46.3966 27.5066 46.8834 26.2647 47.772 25.3342C49.6803 23.335 52.615 23.2706 54.7701 25.1804Z" fill="#06CAAA"/>
</svg>